G04 #@! TF.GenerationSoftware,KiCad,Pcbnew,9.0.2*
G04 #@! TF.CreationDate,2025-10-12T13:55:40+02:00*
G04 #@! TF.ProjectId,PiZero_VT100,50695a65-726f-45f5-9654-3130302e6b69,rev?*
G04 #@! TF.SameCoordinates,PX5e9ac00PYa0ca1c0*
G04 #@! TF.FileFunction,Other,User*
%FSLAX46Y46*%
G04 Gerber Fmt 4.6, Leading zero omitted, Abs format (unit mm)*
G04 Created by KiCad (PCBNEW 9.0.2) date 2025-10-12 13:55:40*
%MOMM*%
%LPD*%
G01*
G04 APERTURE LIST*
%ADD10C,0.050000*%
G04 APERTURE END LIST*
D10*
X20800000Y30100000D02*
X51800000Y30100000D01*
X51800000Y100000D01*
X20800000Y100000D01*
X20800000Y30100000D01*
X23770000Y74960000D02*
X75570000Y74960000D01*
X23770000Y68860000D02*
X23770000Y74960000D01*
X75570000Y74960000D02*
X75570000Y68860000D01*
X75570000Y68860000D02*
X23770000Y68860000D01*
X13800000Y62230000D02*
X10800000Y62230000D01*
X10800000Y49970000D01*
X13800000Y49970000D01*
X13800000Y62230000D01*
X7500000Y3700000D02*
G75*
G02*
X600000Y3700000I-3450000J0D01*
G01*
X600000Y3700000D02*
G75*
G02*
X7500000Y3700000I3450000J0D01*
G01*
X29960000Y28900000D02*
X41160000Y28900000D01*
X29960000Y25350000D02*
X29960000Y28900000D01*
X41160000Y28900000D02*
X41160000Y25350000D01*
X41160000Y25350000D02*
X29960000Y25350000D01*
X82790000Y53590000D02*
X82790000Y60690000D01*
X82790000Y53590000D02*
X88350000Y53590000D01*
X88350000Y60690000D02*
X82790000Y60690000D01*
X88350000Y60690000D02*
X88350000Y53590000D01*
X95350000Y90900000D02*
X92250000Y90900000D01*
X92250000Y81300000D01*
X95350000Y81300000D01*
X95350000Y90900000D01*
X25600000Y53890000D02*
X20700000Y53890000D01*
X20700000Y43390000D01*
X25600000Y43390000D01*
X25600000Y53890000D01*
X88050000Y89100000D02*
X80550000Y89100000D01*
X80550000Y94100000D01*
X88050000Y94100000D01*
X88050000Y89100000D01*
X10917677Y63600000D02*
G75*
G02*
X417677Y63600000I-5250000J0D01*
G01*
X417677Y63600000D02*
G75*
G02*
X10917677Y63600000I5250000J0D01*
G01*
X450000Y19500000D02*
X450000Y41200000D01*
X450000Y19500000D02*
X6250000Y19500000D01*
X6250000Y41200000D02*
X450000Y41200000D01*
X6250000Y41200000D02*
X6250000Y19500000D01*
X91590000Y13520000D02*
X91590000Y8680000D01*
X91590000Y8680000D02*
X96010000Y8680000D01*
X96010000Y13520000D02*
X91590000Y13520000D01*
X96010000Y8680000D02*
X96010000Y13520000D01*
X90210000Y64610000D02*
X90210000Y59050000D01*
X90210000Y64610000D02*
X97310000Y64610000D01*
X97310000Y59050000D02*
X90210000Y59050000D01*
X97310000Y59050000D02*
X97310000Y64610000D01*
X78670000Y88100000D02*
X90930000Y88100000D01*
X90930000Y85100000D01*
X78670000Y85100000D01*
X78670000Y88100000D01*
X57930000Y64100000D02*
X45670000Y64100000D01*
X45670000Y67100000D01*
X57930000Y67100000D01*
X57930000Y64100000D01*
X79050000Y50200000D02*
X94050000Y50200000D01*
X94050000Y47000000D01*
X79050000Y47000000D01*
X79050000Y50200000D01*
X99500000Y95700000D02*
G75*
G02*
X92600000Y95700000I-3450000J0D01*
G01*
X92600000Y95700000D02*
G75*
G02*
X99500000Y95700000I3450000J0D01*
G01*
X35730000Y52295000D02*
X35730000Y46205000D01*
X35730000Y46205000D02*
X39270000Y46205000D01*
X39270000Y52295000D02*
X35730000Y52295000D01*
X39270000Y46205000D02*
X39270000Y52295000D01*
X7500000Y95700000D02*
G75*
G02*
X600000Y95700000I-3450000J0D01*
G01*
X600000Y95700000D02*
G75*
G02*
X7500000Y95700000I3450000J0D01*
G01*
X7550000Y15800000D02*
X7550000Y100000D01*
X7550000Y100000D02*
X17550000Y100000D01*
X17550000Y15800000D02*
X7550000Y15800000D01*
X17550000Y14000000D02*
X17550000Y15800000D01*
X17550000Y100000D02*
X17550000Y8800000D01*
X18850000Y14000000D02*
X17550000Y14000000D01*
X18850000Y14000000D02*
X18850000Y8800000D01*
X18850000Y8800000D02*
X17550000Y8800000D01*
X52120000Y46000000D02*
X52120000Y56580000D01*
X72920000Y56580000D02*
X52120000Y56580000D01*
X72920000Y56580000D02*
X72920000Y46000000D01*
X72920000Y46000000D02*
X52120000Y46000000D01*
X76670000Y70100000D02*
X88930000Y70100000D01*
X88930000Y67100000D01*
X76670000Y67100000D01*
X76670000Y70100000D01*
X79255000Y41320000D02*
X79255000Y37780000D01*
X79255000Y37780000D02*
X85345000Y37780000D01*
X85345000Y41320000D02*
X79255000Y41320000D01*
X85345000Y37780000D02*
X85345000Y41320000D01*
X99779216Y37100000D02*
G75*
G02*
X87079216Y37100000I-6350000J0D01*
G01*
X87079216Y37100000D02*
G75*
G02*
X99779216Y37100000I6350000J0D01*
G01*
X7250000Y44100000D02*
X14350000Y44100000D01*
X14350000Y41100000D01*
X7250000Y41100000D01*
X7250000Y44100000D01*
X7690000Y19950000D02*
X7690000Y29300000D01*
X7690000Y19950000D02*
X18000000Y19950000D01*
X18000000Y29300000D02*
X7690000Y29300000D01*
X18000000Y29300000D02*
X18000000Y19950000D01*
X74740000Y46180000D02*
X77940000Y46180000D01*
X77940000Y61180000D01*
X74740000Y61180000D01*
X74740000Y46180000D01*
X61850000Y18500000D02*
X46250000Y18500000D01*
X46250000Y22600000D01*
X61850000Y22600000D01*
X61850000Y18500000D01*
X75170000Y31600000D02*
X87430000Y31600000D01*
X87430000Y28600000D01*
X75170000Y28600000D01*
X75170000Y31600000D01*
X97800000Y57650000D02*
X94800000Y57650000D01*
X94800000Y45390000D01*
X97800000Y45390000D01*
X97800000Y57650000D01*
X41830000Y48240000D02*
X41830000Y37080000D01*
X41830000Y37080000D02*
X45370000Y37080000D01*
X45370000Y48240000D02*
X41830000Y48240000D01*
X45370000Y37080000D02*
X45370000Y48240000D01*
X95300000Y79150000D02*
X92300000Y79150000D01*
X92300000Y66890000D01*
X95300000Y66890000D01*
X95300000Y79150000D01*
X10550000Y49600000D02*
G75*
G02*
X50000Y49600000I-5250000J0D01*
G01*
X50000Y49600000D02*
G75*
G02*
X10550000Y49600000I5250000J0D01*
G01*
X72600000Y10950000D02*
X73500000Y12250000D01*
X72600000Y9500000D02*
X72600000Y10950000D01*
X72600000Y9500000D02*
X73500000Y8200000D01*
X73500000Y950000D02*
X73500000Y-550000D01*
X73500000Y-550000D02*
X89000000Y-550000D01*
X74500000Y12250000D02*
X73500000Y12250000D01*
X74500000Y12250000D02*
X74500000Y14450000D01*
X74500000Y8200000D02*
X73500000Y8200000D01*
X74500000Y8200000D02*
X74500000Y950000D01*
X74500000Y950000D02*
X73500000Y950000D01*
X88000000Y14450000D02*
X74500000Y14450000D01*
X88000000Y12250000D02*
X88000000Y14450000D01*
X88000000Y12250000D02*
X89000000Y12250000D01*
X88000000Y8200000D02*
X89000000Y8200000D01*
X88000000Y950000D02*
X88000000Y8200000D01*
X89000000Y950000D02*
X88000000Y950000D01*
X89000000Y-550000D02*
X89000000Y950000D01*
X89900000Y10950000D02*
X89000000Y12250000D01*
X89900000Y10950000D02*
X89900000Y9500000D01*
X89900000Y9500000D02*
X89000000Y8200000D01*
X11300000Y67550000D02*
X14300000Y67550000D01*
X14300000Y74650000D01*
X11300000Y74650000D01*
X11300000Y67550000D01*
X14800000Y49970000D02*
X17800000Y49970000D01*
X17800000Y62230000D01*
X14800000Y62230000D01*
X14800000Y49970000D01*
X45670000Y63600000D02*
X57930000Y63600000D01*
X57930000Y60600000D01*
X45670000Y60600000D01*
X45670000Y63600000D01*
X99500000Y3700000D02*
G75*
G02*
X92600000Y3700000I-3450000J0D01*
G01*
X92600000Y3700000D02*
G75*
G02*
X99500000Y3700000I3450000J0D01*
G01*
X77170000Y75600000D02*
X89430000Y75600000D01*
X89430000Y72600000D01*
X77170000Y72600000D01*
X77170000Y75600000D01*
X2530000Y16645000D02*
X2530000Y10555000D01*
X2530000Y10555000D02*
X6070000Y10555000D01*
X6070000Y16645000D02*
X2530000Y16645000D01*
X6070000Y10555000D02*
X6070000Y16645000D01*
X19850000Y30750000D02*
X19850000Y66250000D01*
X19850000Y30750000D02*
X33350000Y30750000D01*
X33350000Y66250000D02*
X19850000Y66250000D01*
X33350000Y66250000D02*
X33350000Y30750000D01*
M02*
