M48
; DRILL file {KiCad 9.0.2} date 2025-10-12T16:52:24+0200
; FORMAT={-:-/ absolute / metric / decimal}
; #@! TF.CreationDate,2025-10-12T16:52:24+02:00
; #@! TF.GenerationSoftware,Kicad,Pcbnew,9.0.2
; #@! TF.FileFunction,MixedPlating,1,2
FMAT,2
METRIC
; #@! TA.AperFunction,Plated,PTH,ComponentDrill
T1C0.700
; #@! TA.AperFunction,Plated,PTH,ViaDrill
T2C0.800
; #@! TA.AperFunction,Plated,PTH,ComponentDrill
T3C0.800
; #@! TA.AperFunction,Plated,PTH,ComponentDrill
T4C0.900
; #@! TA.AperFunction,Plated,PTH,ComponentDrill
T5C0.920
; #@! TA.AperFunction,Plated,PTH,ComponentDrill
T6C1.000
; #@! TA.AperFunction,Plated,PTH,ComponentDrill
T7C1.100
; #@! TA.AperFunction,Plated,PTH,ComponentDrill
T8C1.200
; #@! TA.AperFunction,Plated,PTH,ComponentDrill
T9C2.200
; #@! TA.AperFunction,Plated,PTH,ComponentDrill
T10C2.300
; #@! TA.AperFunction,Plated,PTH,ComponentDrill
T11C3.500
; #@! TA.AperFunction,NonPlated,NPTH,ComponentDrill
T12C3.200
%
G90
G05
T1
X53.64Y55.1
X53.64Y47.48
X58.72Y55.1
X58.72Y47.48
X63.8Y55.1
X63.8Y47.48
X71.42Y55.1
X71.42Y47.48
T2
X17.65Y40.65
X17.7Y48.6
X48.0Y32.15
X48.05Y46.6
X60.4Y31.9
X60.45Y24.85
X70.4Y28.1
X70.4Y15.15
T3
X8.3Y42.6
X12.3Y61.18
X12.3Y51.02
X12.8Y73.6
X12.8Y68.6
X13.3Y42.6
X16.3Y61.18
X16.3Y51.02
X46.72Y65.6
X46.72Y62.1
X56.88Y65.6
X56.88Y62.1
X76.22Y30.1
X77.72Y68.6
X78.22Y74.1
X79.72Y86.6
X81.8Y91.6
X84.8Y59.68
X84.8Y54.6
X86.38Y30.1
X86.8Y91.6
X87.34Y57.14
X87.88Y68.6
X88.38Y74.1
X89.88Y86.6
X91.22Y62.6
X93.76Y60.06
X93.8Y89.85
X93.8Y82.35
X93.8Y78.1
X93.8Y67.94
X96.3Y62.6
X96.3Y56.6
X96.3Y46.44
T4
X59.45Y11.1
X59.45Y8.6
X61.55Y8.6
X64.15Y8.6
X66.25Y11.1
X66.25Y8.6
X76.34Y60.03
X76.34Y47.33
X80.2Y48.6
X92.9Y48.6
X93.8Y12.37
X93.8Y9.83
T5
X77.75Y12.94
X80.25Y12.94
X82.25Y12.94
X84.75Y12.94
T6
X2.8Y49.6
X3.168Y63.6
X3.35Y36.05
X3.35Y24.65
X4.3Y14.875
X4.3Y12.335
X7.8Y49.6
X8.168Y63.6
X10.3Y26.68
X10.3Y21.6
X15.38Y26.68
X15.38Y21.6
X25.57Y73.2
X25.57Y70.66
X28.11Y73.2
X28.11Y70.66
X30.65Y73.2
X30.65Y70.66
X31.76Y27.15
X33.19Y73.2
X33.19Y70.66
X34.3Y27.15
X35.73Y73.2
X35.73Y70.66
X36.84Y27.15
X37.5Y50.525
X37.5Y47.985
X38.27Y73.2
X38.27Y70.66
X39.38Y27.15
X40.81Y73.2
X40.81Y70.66
X43.35Y73.2
X43.35Y70.66
X43.6Y46.47
X43.6Y43.93
X43.6Y41.39
X43.6Y38.85
X45.89Y73.2
X45.89Y70.66
X48.43Y73.2
X48.43Y70.66
X50.97Y73.2
X50.97Y70.66
X53.51Y73.2
X53.51Y70.66
X56.05Y73.2
X56.05Y70.66
X58.59Y73.2
X58.59Y70.66
X61.13Y73.2
X61.13Y70.66
X63.67Y73.2
X63.67Y70.66
X66.21Y73.2
X66.21Y70.66
X68.75Y73.2
X68.75Y70.66
X71.29Y73.2
X71.29Y70.66
X73.83Y73.2
X73.83Y70.66
X81.025Y39.55
X83.565Y39.55
X90.929Y37.1
X95.929Y37.1
T7
X22.2Y51.18
X22.2Y48.64
X22.2Y46.1
T8
X47.7Y20.55
X60.4Y20.55
T9
X56.1Y5.6
X62.85Y4.8
X69.6Y5.6
T10
X74.68Y10.23
X87.82Y10.23
T11
X26.6Y61.2
X26.6Y35.8
T12
X4.05Y95.7
X4.05Y3.7
X96.05Y95.7
X96.05Y3.7
T6
G00X11.25Y14.3
M15
G01X13.85Y14.3
M16
G05
G00X11.45Y8.0
M15
G01X13.65Y8.0
M16
G05
G00X17.35Y12.5
M15
G01X17.35Y10.3
M16
G05
M30
