G04 #@! TF.GenerationSoftware,KiCad,Pcbnew,9.0.2*
G04 #@! TF.CreationDate,2025-10-12T16:52:18+02:00*
G04 #@! TF.ProjectId,PiZero_VT100,50695a65-726f-45f5-9654-3130302e6b69,rev?*
G04 #@! TF.SameCoordinates,PX5e9ac00PYa0ca1c0*
G04 #@! TF.FileFunction,Copper,L1,Top*
G04 #@! TF.FilePolarity,Positive*
%FSLAX46Y46*%
G04 Gerber Fmt 4.6, Leading zero omitted, Abs format (unit mm)*
G04 Created by KiCad (PCBNEW 9.0.2) date 2025-10-12 16:52:18*
%MOMM*%
%LPD*%
G01*
G04 APERTURE LIST*
G04 Aperture macros list*
%AMRoundRect*
0 Rectangle with rounded corners*
0 $1 Rounding radius*
0 $2 $3 $4 $5 $6 $7 $8 $9 X,Y pos of 4 corners*
0 Add a 4 corners polygon primitive as box body*
4,1,4,$2,$3,$4,$5,$6,$7,$8,$9,$2,$3,0*
0 Add four circle primitives for the rounded corners*
1,1,$1+$1,$2,$3*
1,1,$1+$1,$4,$5*
1,1,$1+$1,$6,$7*
1,1,$1+$1,$8,$9*
0 Add four rect primitives between the rounded corners*
20,1,$1+$1,$2,$3,$4,$5,0*
20,1,$1+$1,$4,$5,$6,$7,0*
20,1,$1+$1,$6,$7,$8,$9,0*
20,1,$1+$1,$8,$9,$2,$3,0*%
G04 Aperture macros list end*
G04 #@! TA.AperFunction,ComponentPad*
%ADD10R,4.600000X2.000000*%
G04 #@! TD*
G04 #@! TA.AperFunction,ComponentPad*
%ADD11O,4.200000X2.000000*%
G04 #@! TD*
G04 #@! TA.AperFunction,ComponentPad*
%ADD12O,2.000000X4.200000*%
G04 #@! TD*
G04 #@! TA.AperFunction,ComponentPad*
%ADD13R,1.700000X1.700000*%
G04 #@! TD*
G04 #@! TA.AperFunction,ComponentPad*
%ADD14O,1.700000X1.700000*%
G04 #@! TD*
G04 #@! TA.AperFunction,ComponentPad*
%ADD15C,1.600000*%
G04 #@! TD*
G04 #@! TA.AperFunction,ComponentPad*
%ADD16C,1.700000*%
G04 #@! TD*
G04 #@! TA.AperFunction,ComponentPad*
%ADD17R,1.500000X1.500000*%
G04 #@! TD*
G04 #@! TA.AperFunction,ComponentPad*
%ADD18C,1.500000*%
G04 #@! TD*
G04 #@! TA.AperFunction,ComponentPad*
%ADD19R,2.600000X1.400000*%
G04 #@! TD*
G04 #@! TA.AperFunction,ComponentPad*
%ADD20O,2.600000X1.400000*%
G04 #@! TD*
G04 #@! TA.AperFunction,ComponentPad*
%ADD21RoundRect,0.250000X0.750000X0.750000X-0.750000X0.750000X-0.750000X-0.750000X0.750000X-0.750000X0*%
G04 #@! TD*
G04 #@! TA.AperFunction,ComponentPad*
%ADD22C,2.000000*%
G04 #@! TD*
G04 #@! TA.AperFunction,ComponentPad*
%ADD23O,1.200000X2.200000*%
G04 #@! TD*
G04 #@! TA.AperFunction,ComponentPad*
%ADD24O,2.000000X1.200000*%
G04 #@! TD*
G04 #@! TA.AperFunction,ComponentPad*
%ADD25C,3.400000*%
G04 #@! TD*
G04 #@! TA.AperFunction,ComponentPad*
%ADD26R,2.200000X1.300000*%
G04 #@! TD*
G04 #@! TA.AperFunction,ComponentPad*
%ADD27O,2.200000X1.300000*%
G04 #@! TD*
G04 #@! TA.AperFunction,ComponentPad*
%ADD28RoundRect,0.250000X-0.650000X-0.650000X0.650000X-0.650000X0.650000X0.650000X-0.650000X0.650000X0*%
G04 #@! TD*
G04 #@! TA.AperFunction,ComponentPad*
%ADD29C,1.800000*%
G04 #@! TD*
G04 #@! TA.AperFunction,ComponentPad*
%ADD30R,1.400000X1.400000*%
G04 #@! TD*
G04 #@! TA.AperFunction,ComponentPad*
%ADD31C,1.400000*%
G04 #@! TD*
G04 #@! TA.AperFunction,ComponentPad*
%ADD32R,2.000000X2.000000*%
G04 #@! TD*
G04 #@! TA.AperFunction,ComponentPad*
%ADD33O,2.000000X2.000000*%
G04 #@! TD*
G04 #@! TA.AperFunction,ComponentPad*
%ADD34RoundRect,0.250000X0.650000X-0.650000X0.650000X0.650000X-0.650000X0.650000X-0.650000X-0.650000X0*%
G04 #@! TD*
G04 #@! TA.AperFunction,ComponentPad*
%ADD35RoundRect,0.250001X0.949999X0.949999X-0.949999X0.949999X-0.949999X-0.949999X0.949999X-0.949999X0*%
G04 #@! TD*
G04 #@! TA.AperFunction,ComponentPad*
%ADD36C,2.400000*%
G04 #@! TD*
G04 #@! TA.AperFunction,ComponentPad*
%ADD37R,1.300000X2.500000*%
G04 #@! TD*
G04 #@! TA.AperFunction,ComponentPad*
%ADD38O,1.200000X2.500000*%
G04 #@! TD*
G04 #@! TA.AperFunction,ComponentPad*
%ADD39O,1.500000X2.500000*%
G04 #@! TD*
G04 #@! TA.AperFunction,ComponentPad*
%ADD40C,3.000000*%
G04 #@! TD*
G04 #@! TA.AperFunction,ComponentPad*
%ADD41C,6.000000*%
G04 #@! TD*
G04 #@! TA.AperFunction,ViaPad*
%ADD42C,2.000000*%
G04 #@! TD*
G04 #@! TA.AperFunction,Conductor*
%ADD43C,0.800000*%
G04 #@! TD*
G04 APERTURE END LIST*
D10*
X12550000Y14300000D03*
D11*
X12550000Y8000000D03*
D12*
X17350000Y11400000D03*
D13*
X25570000Y73200000D03*
D14*
X25570000Y70660000D03*
X28110000Y73200000D03*
X28110000Y70660000D03*
X30650000Y73200000D03*
X30650000Y70660000D03*
X33190000Y73200000D03*
X33190000Y70660000D03*
X35730000Y73200000D03*
X35730000Y70660000D03*
X38270000Y73200000D03*
X38270000Y70660000D03*
X40810000Y73200000D03*
X40810000Y70660000D03*
X43350000Y73200000D03*
X43350000Y70660000D03*
X45890000Y73200000D03*
X45890000Y70660000D03*
X48430000Y73200000D03*
X48430000Y70660000D03*
X50970000Y73200000D03*
X50970000Y70660000D03*
X53510000Y73200000D03*
X53510000Y70660000D03*
X56050000Y73200000D03*
X56050000Y70660000D03*
X58590000Y73200000D03*
X58590000Y70660000D03*
X61130000Y73200000D03*
X61130000Y70660000D03*
X63670000Y73200000D03*
X63670000Y70660000D03*
X66210000Y73200000D03*
X66210000Y70660000D03*
X68750000Y73200000D03*
X68750000Y70660000D03*
X71290000Y73200000D03*
X71290000Y70660000D03*
X73830000Y73200000D03*
X73830000Y70660000D03*
D15*
X12300000Y61180000D03*
X12300000Y51020000D03*
D13*
X31760000Y27150000D03*
D16*
X34300000Y27150000D03*
X36840000Y27150000D03*
X39380000Y27150000D03*
D17*
X84800000Y59680000D03*
D18*
X87340000Y57140000D03*
X84800000Y54600000D03*
D15*
X93800000Y89850000D03*
X93800000Y82350000D03*
D19*
X22200000Y51180000D03*
D20*
X22200000Y48640000D03*
X22200000Y46100000D03*
D15*
X86800000Y91600000D03*
X81800000Y91600000D03*
D21*
X8167677Y63600000D03*
D22*
X3167677Y63600000D03*
X3350000Y24650000D03*
X3350000Y36050000D03*
D23*
X64150000Y8600000D03*
X61550000Y8600000D03*
X66250000Y8600000D03*
X59450000Y8600000D03*
D24*
X66250000Y11100000D03*
X59450000Y11100000D03*
D25*
X69600000Y5600000D03*
X56100000Y5600000D03*
X62850000Y4800000D03*
D26*
X93800000Y9830000D03*
D27*
X93800000Y12370000D03*
D17*
X96300000Y62600000D03*
D18*
X93760000Y60060000D03*
X91220000Y62600000D03*
D15*
X79720000Y86600000D03*
X89880000Y86600000D03*
X56880000Y65600000D03*
X46720000Y65600000D03*
D28*
X80200000Y48600000D03*
D29*
X92900000Y48600000D03*
D13*
X37500000Y50525000D03*
D16*
X37500000Y47985000D03*
D30*
X71420000Y55100000D03*
D31*
X63800000Y55100000D03*
X58720000Y55100000D03*
X53640000Y55100000D03*
X53640000Y47480000D03*
X58720000Y47480000D03*
X63800000Y47480000D03*
X71420000Y47480000D03*
D15*
X77720000Y68600000D03*
X87880000Y68600000D03*
D13*
X81025000Y39550000D03*
D16*
X83565000Y39550000D03*
D32*
X90929216Y37100000D03*
D22*
X95929216Y37100000D03*
D15*
X8300000Y42600000D03*
X13300000Y42600000D03*
D32*
X10300000Y21600000D03*
D33*
X15380000Y21600000D03*
X15380000Y26680000D03*
X10300000Y26680000D03*
D34*
X76340000Y47330000D03*
D29*
X76340000Y60030000D03*
D35*
X60400000Y20550000D03*
D36*
X47700000Y20550000D03*
D15*
X76220000Y30100000D03*
X86380000Y30100000D03*
X96300000Y56600000D03*
X96300000Y46440000D03*
D13*
X43600000Y38850000D03*
D16*
X43600000Y41390000D03*
X43600000Y43930000D03*
X43600000Y46470000D03*
D15*
X93800000Y78100000D03*
X93800000Y67940000D03*
D21*
X7800000Y49600000D03*
D22*
X2800000Y49600000D03*
D37*
X77750000Y12940000D03*
D38*
X80250000Y12940000D03*
X82250000Y12940000D03*
D39*
X84750000Y12940000D03*
D40*
X74680000Y10230000D03*
X87820000Y10230000D03*
D15*
X12800000Y68600000D03*
X12800000Y73600000D03*
X16300000Y51020000D03*
X16300000Y61180000D03*
X46720000Y62100000D03*
X56880000Y62100000D03*
X78220000Y74100000D03*
X88380000Y74100000D03*
D13*
X4300000Y14875000D03*
D16*
X4300000Y12335000D03*
D41*
X26600000Y61200000D03*
X26600000Y35800000D03*
D42*
X17700000Y48600000D03*
X17650000Y40650000D03*
X60400000Y31900000D03*
X60450000Y24850000D03*
X48050000Y46600000D03*
X48000000Y32150000D03*
X70400000Y15150000D03*
X70400000Y28100000D03*
D43*
X17700000Y40700000D02*
X17700000Y48600000D01*
X17650000Y40650000D02*
X17700000Y40700000D01*
X60450000Y31850000D02*
X60400000Y31900000D01*
X60450000Y24850000D02*
X60450000Y31850000D01*
X47950000Y46500000D02*
X48050000Y46600000D01*
X48000000Y32150000D02*
X47950000Y32200000D01*
X47950000Y32200000D02*
X47950000Y46500000D01*
X70400000Y15150000D02*
X70400000Y28100000D01*
G04 #@! TA.AperFunction,Conductor*
G36*
X99542539Y99530315D02*
G01*
X99588294Y99477511D01*
X99599500Y99426000D01*
X99599500Y226834D01*
X99579815Y159795D01*
X99527011Y114040D01*
X99474449Y102838D01*
X88473264Y196068D01*
X88406394Y216320D01*
X88361088Y269510D01*
X88350317Y320844D01*
X88361752Y2138911D01*
X88372363Y3825962D01*
X94449500Y3825962D01*
X94449500Y3574038D01*
X94484865Y3350754D01*
X94488910Y3325215D01*
X94566760Y3085617D01*
X94681132Y2861152D01*
X94829201Y2657351D01*
X94829205Y2657346D01*
X95007345Y2479206D01*
X95007350Y2479202D01*
X95125387Y2393444D01*
X95211155Y2331130D01*
X95354184Y2258253D01*
X95435616Y2216761D01*
X95435618Y2216761D01*
X95435621Y2216759D01*
X95675215Y2138910D01*
X95924038Y2099500D01*
X95924039Y2099500D01*
X96175961Y2099500D01*
X96175962Y2099500D01*
X96424785Y2138910D01*
X96664379Y2216759D01*
X96888845Y2331130D01*
X97092656Y2479207D01*
X97270793Y2657344D01*
X97418870Y2861155D01*
X97533241Y3085621D01*
X97611090Y3325215D01*
X97650500Y3574038D01*
X97650500Y3825962D01*
X97611090Y4074785D01*
X97533241Y4314379D01*
X97533239Y4314382D01*
X97533239Y4314384D01*
X97491747Y4395816D01*
X97418870Y4538845D01*
X97399952Y4564883D01*
X97270798Y4742650D01*
X97270794Y4742655D01*
X97092654Y4920795D01*
X97092649Y4920799D01*
X96888848Y5068868D01*
X96888847Y5068869D01*
X96888845Y5068870D01*
X96818747Y5104587D01*
X96664383Y5183240D01*
X96424785Y5261090D01*
X96175962Y5300500D01*
X95924038Y5300500D01*
X95799626Y5280795D01*
X95675214Y5261090D01*
X95435616Y5183240D01*
X95211151Y5068868D01*
X95007350Y4920799D01*
X95007345Y4920795D01*
X94829205Y4742655D01*
X94829201Y4742650D01*
X94681132Y4538849D01*
X94566760Y4314384D01*
X94513593Y4150752D01*
X94488910Y4074785D01*
X94449500Y3825962D01*
X88372363Y3825962D01*
X88399112Y8078952D01*
X88399243Y8079082D01*
X88399243Y8099772D01*
X88399374Y8120600D01*
X88399372Y8120602D01*
X88399373Y8120606D01*
X88399247Y8120914D01*
X88384557Y8135604D01*
X88369978Y8150367D01*
X88369792Y8150369D01*
X88369661Y8150500D01*
X88348822Y8150500D01*
X88328143Y8150630D01*
X88328011Y8150500D01*
X74345578Y8150500D01*
X74345557Y8150504D01*
X74320912Y8150502D01*
X74300005Y8150501D01*
X74299993Y8150500D01*
X74279077Y8150500D01*
X74279076Y8150499D01*
X74267965Y8139385D01*
X74267959Y8139379D01*
X74264287Y8135705D01*
X74249500Y8120918D01*
X74249500Y8120915D01*
X74249498Y8120912D01*
X74249498Y8117538D01*
X74249498Y8117537D01*
X74249500Y8103614D01*
X74249500Y8054443D01*
X74249504Y8054420D01*
X74250400Y324514D01*
X74230723Y257473D01*
X74177925Y211712D01*
X74126400Y200500D01*
X174412Y200500D01*
X107373Y220185D01*
X61618Y272989D01*
X50412Y324438D01*
X48660Y3825962D01*
X2449500Y3825962D01*
X2449500Y3574038D01*
X2484865Y3350754D01*
X2488910Y3325215D01*
X2566760Y3085617D01*
X2681132Y2861152D01*
X2829201Y2657351D01*
X2829205Y2657346D01*
X3007345Y2479206D01*
X3007350Y2479202D01*
X3125387Y2393444D01*
X3211155Y2331130D01*
X3354184Y2258253D01*
X3435616Y2216761D01*
X3435618Y2216761D01*
X3435621Y2216759D01*
X3675215Y2138910D01*
X3924038Y2099500D01*
X3924039Y2099500D01*
X4175961Y2099500D01*
X4175962Y2099500D01*
X4424785Y2138910D01*
X4664379Y2216759D01*
X4888845Y2331130D01*
X5092656Y2479207D01*
X5270793Y2657344D01*
X5418870Y2861155D01*
X5533241Y3085621D01*
X5611090Y3325215D01*
X5650500Y3574038D01*
X5650500Y3825962D01*
X5611090Y4074785D01*
X5533241Y4314379D01*
X5533239Y4314382D01*
X5533239Y4314384D01*
X5491747Y4395816D01*
X5418870Y4538845D01*
X5399952Y4564883D01*
X5270798Y4742650D01*
X5270794Y4742655D01*
X5092654Y4920795D01*
X5092649Y4920799D01*
X4888848Y5068868D01*
X4888847Y5068869D01*
X4888845Y5068870D01*
X4818747Y5104587D01*
X4664383Y5183240D01*
X4424785Y5261090D01*
X4175962Y5300500D01*
X3924038Y5300500D01*
X3799626Y5280795D01*
X3675214Y5261090D01*
X3435616Y5183240D01*
X3211151Y5068868D01*
X3007350Y4920799D01*
X3007345Y4920795D01*
X2829205Y4742655D01*
X2829201Y4742650D01*
X2681132Y4538849D01*
X2566760Y4314384D01*
X2513593Y4150752D01*
X2488910Y4074785D01*
X2449500Y3825962D01*
X48660Y3825962D01*
X48658Y3830772D01*
X47963Y5219513D01*
X47702Y5740432D01*
X53599500Y5740432D01*
X53599500Y5459569D01*
X53630942Y5180506D01*
X53630945Y5180488D01*
X53693439Y4906683D01*
X53693443Y4906671D01*
X53786200Y4641589D01*
X53908053Y4388558D01*
X53913122Y4380491D01*
X54057477Y4150752D01*
X54232584Y3931175D01*
X54431175Y3732584D01*
X54650752Y3557477D01*
X54888555Y3408055D01*
X55141592Y3286199D01*
X55340680Y3216535D01*
X55406670Y3193444D01*
X55406682Y3193440D01*
X55680491Y3130945D01*
X55680497Y3130945D01*
X55680505Y3130943D01*
X55866547Y3109982D01*
X55959569Y3099501D01*
X55959572Y3099500D01*
X55959575Y3099500D01*
X56240428Y3099500D01*
X56240429Y3099501D01*
X56383055Y3115571D01*
X56519494Y3130943D01*
X56519499Y3130944D01*
X56519509Y3130945D01*
X56793318Y3193440D01*
X57058408Y3286199D01*
X57311445Y3408055D01*
X57549248Y3557477D01*
X57768825Y3732584D01*
X57967416Y3931175D01*
X58142523Y4150752D01*
X58291945Y4388555D01*
X58413801Y4641592D01*
X58506560Y4906682D01*
X58514263Y4940432D01*
X60349500Y4940432D01*
X60349500Y4659569D01*
X60380942Y4380506D01*
X60380945Y4380488D01*
X60443439Y4106683D01*
X60443443Y4106671D01*
X60536200Y3841589D01*
X60658053Y3588558D01*
X60658055Y3588555D01*
X60807477Y3350752D01*
X60982584Y3131175D01*
X61181175Y2932584D01*
X61400752Y2757477D01*
X61638555Y2608055D01*
X61891592Y2486199D01*
X62090680Y2416535D01*
X62156670Y2393444D01*
X62156682Y2393440D01*
X62430491Y2330945D01*
X62430497Y2330945D01*
X62430505Y2330943D01*
X62616547Y2309982D01*
X62709569Y2299501D01*
X62709572Y2299500D01*
X62709575Y2299500D01*
X62990428Y2299500D01*
X62990429Y2299501D01*
X63133055Y2315571D01*
X63269494Y2330943D01*
X63269499Y2330944D01*
X63269509Y2330945D01*
X63543318Y2393440D01*
X63808408Y2486199D01*
X64061445Y2608055D01*
X64299248Y2757477D01*
X64518825Y2932584D01*
X64717416Y3131175D01*
X64892523Y3350752D01*
X65041945Y3588555D01*
X65163801Y3841592D01*
X65256560Y4106682D01*
X65319055Y4380491D01*
X65350500Y4659575D01*
X65350500Y4940425D01*
X65323452Y5180488D01*
X65319057Y5219495D01*
X65319054Y5219513D01*
X65256560Y5493318D01*
X65256556Y5493330D01*
X65183207Y5702949D01*
X65181519Y5707773D01*
X65170091Y5740432D01*
X67099500Y5740432D01*
X67099500Y5459569D01*
X67130942Y5180506D01*
X67130945Y5180488D01*
X67193439Y4906683D01*
X67193443Y4906671D01*
X67286200Y4641589D01*
X67408053Y4388558D01*
X67413122Y4380491D01*
X67557477Y4150752D01*
X67732584Y3931175D01*
X67931175Y3732584D01*
X68150752Y3557477D01*
X68388555Y3408055D01*
X68641592Y3286199D01*
X68840680Y3216535D01*
X68906670Y3193444D01*
X68906682Y3193440D01*
X69180491Y3130945D01*
X69180497Y3130945D01*
X69180505Y3130943D01*
X69366547Y3109982D01*
X69459569Y3099501D01*
X69459572Y3099500D01*
X69459575Y3099500D01*
X69740428Y3099500D01*
X69740429Y3099501D01*
X69883055Y3115571D01*
X70019494Y3130943D01*
X70019499Y3130944D01*
X70019509Y3130945D01*
X70293318Y3193440D01*
X70558408Y3286199D01*
X70811445Y3408055D01*
X71049248Y3557477D01*
X71268825Y3732584D01*
X71467416Y3931175D01*
X71642523Y4150752D01*
X71791945Y4388555D01*
X71913801Y4641592D01*
X72006560Y4906682D01*
X72069055Y5180491D01*
X72100500Y5459575D01*
X72100500Y5740425D01*
X72069055Y6019509D01*
X72006560Y6293318D01*
X71913801Y6558408D01*
X71791945Y6811445D01*
X71642523Y7049248D01*
X71467416Y7268825D01*
X71268825Y7467416D01*
X71049248Y7642523D01*
X70811445Y7791945D01*
X70811442Y7791947D01*
X70558411Y7913800D01*
X70293329Y8006557D01*
X70293317Y8006561D01*
X70019512Y8069055D01*
X70019494Y8069058D01*
X69740431Y8100500D01*
X69740425Y8100500D01*
X69459575Y8100500D01*
X69459568Y8100500D01*
X69180505Y8069058D01*
X69180487Y8069055D01*
X68906682Y8006561D01*
X68906670Y8006557D01*
X68641588Y7913800D01*
X68388557Y7791947D01*
X68150753Y7642524D01*
X67931175Y7467417D01*
X67732583Y7268825D01*
X67557476Y7049247D01*
X67408053Y6811443D01*
X67286200Y6558412D01*
X67193443Y6293330D01*
X67193439Y6293318D01*
X67130945Y6019513D01*
X67130942Y6019495D01*
X67099500Y5740432D01*
X65170091Y5740432D01*
X65163801Y5758408D01*
X65041945Y6011445D01*
X64892523Y6249248D01*
X64717416Y6468825D01*
X64518825Y6667416D01*
X64299248Y6842523D01*
X64061445Y6991945D01*
X64061442Y6991947D01*
X63808411Y7113800D01*
X63543329Y7206557D01*
X63543317Y7206561D01*
X63269512Y7269055D01*
X63269494Y7269058D01*
X62990431Y7300500D01*
X62990425Y7300500D01*
X62709575Y7300500D01*
X62709568Y7300500D01*
X62430505Y7269058D01*
X62430487Y7269055D01*
X62156682Y7206561D01*
X62156670Y7206557D01*
X61891588Y7113800D01*
X61638557Y6991947D01*
X61400753Y6842524D01*
X61181175Y6667417D01*
X60982583Y6468825D01*
X60807476Y6249247D01*
X60658053Y6011443D01*
X60536200Y5758412D01*
X60443443Y5493330D01*
X60443439Y5493318D01*
X60380945Y5219513D01*
X60380942Y5219495D01*
X60349500Y4940432D01*
X58514263Y4940432D01*
X58569055Y5180491D01*
X58600500Y5459575D01*
X58600500Y5740425D01*
X58569055Y6019509D01*
X58506560Y6293318D01*
X58413801Y6558408D01*
X58291945Y6811445D01*
X58142523Y7049248D01*
X57967416Y7268825D01*
X57768825Y7467416D01*
X57549248Y7642523D01*
X57311445Y7791945D01*
X57311442Y7791947D01*
X57058411Y7913800D01*
X56793329Y8006557D01*
X56793317Y8006561D01*
X56519512Y8069055D01*
X56519494Y8069058D01*
X56240431Y8100500D01*
X56240425Y8100500D01*
X55959575Y8100500D01*
X55959568Y8100500D01*
X55680505Y8069058D01*
X55680487Y8069055D01*
X55406682Y8006561D01*
X55406670Y8006557D01*
X55141588Y7913800D01*
X54888557Y7791947D01*
X54650753Y7642524D01*
X54431175Y7467417D01*
X54232583Y7268825D01*
X54057476Y7049247D01*
X53908053Y6811443D01*
X53786200Y6558412D01*
X53693443Y6293330D01*
X53693439Y6293318D01*
X53630945Y6019513D01*
X53630942Y6019495D01*
X53599500Y5740432D01*
X47702Y5740432D01*
X46513Y8118005D01*
X9649500Y8118005D01*
X9649500Y7881996D01*
X9649501Y7881980D01*
X9680306Y7647990D01*
X9741394Y7420007D01*
X9831714Y7201955D01*
X9831719Y7201944D01*
X9882609Y7113801D01*
X9949727Y6997550D01*
X9949729Y6997547D01*
X9949730Y6997546D01*
X10093406Y6810303D01*
X10093412Y6810296D01*
X10260295Y6643413D01*
X10260301Y6643408D01*
X10447550Y6499727D01*
X10578918Y6423882D01*
X10651943Y6381720D01*
X10651948Y6381718D01*
X10651951Y6381716D01*
X10870007Y6291394D01*
X11097986Y6230307D01*
X11331989Y6199500D01*
X11331996Y6199500D01*
X13768004Y6199500D01*
X13768011Y6199500D01*
X14002014Y6230307D01*
X14229993Y6291394D01*
X14448049Y6381716D01*
X14652450Y6499727D01*
X14839699Y6643408D01*
X15006592Y6810301D01*
X15150273Y6997550D01*
X15268284Y7201951D01*
X15358606Y7420007D01*
X15419693Y7647986D01*
X15450500Y7881989D01*
X15450500Y8118011D01*
X15419693Y8352014D01*
X15358606Y8579993D01*
X15268284Y8798049D01*
X15268282Y8798052D01*
X15268280Y8798057D01*
X15184361Y8943407D01*
X15150273Y9002450D01*
X15006592Y9189699D01*
X15006587Y9189705D01*
X14839704Y9356588D01*
X14839697Y9356594D01*
X14652454Y9500270D01*
X14652453Y9500271D01*
X14652450Y9500273D01*
X14570957Y9547323D01*
X14448056Y9618281D01*
X14448045Y9618286D01*
X14229993Y9708606D01*
X14002010Y9769694D01*
X13768020Y9800499D01*
X13768017Y9800500D01*
X13768011Y9800500D01*
X11331989Y9800500D01*
X11331983Y9800500D01*
X11331979Y9800499D01*
X11097989Y9769694D01*
X10870006Y9708606D01*
X10651954Y9618286D01*
X10651943Y9618281D01*
X10460909Y9507986D01*
X10450457Y9501951D01*
X10447545Y9500270D01*
X10260302Y9356594D01*
X10260295Y9356588D01*
X10093412Y9189705D01*
X10093406Y9189698D01*
X9949730Y9002455D01*
X9831719Y8798057D01*
X9831714Y8798046D01*
X9741394Y8579994D01*
X9680306Y8352011D01*
X9649501Y8118021D01*
X9649500Y8118005D01*
X46513Y8118005D01*
X42686Y15769961D01*
X2649500Y15769961D01*
X2649500Y13980040D01*
X2664630Y13845751D01*
X2664631Y13845746D01*
X2724211Y13675477D01*
X2820184Y13522738D01*
X2920576Y13422346D01*
X2954061Y13361023D01*
X2949077Y13291331D01*
X2933214Y13261781D01*
X2888367Y13200054D01*
X2770422Y12968577D01*
X2690140Y12721494D01*
X2649500Y12464903D01*
X2649500Y12205098D01*
X2690140Y11948507D01*
X2770422Y11701424D01*
X2817122Y11609772D01*
X2867579Y11510745D01*
X2888368Y11469946D01*
X3015781Y11294577D01*
X3041069Y11259771D01*
X3224771Y11076069D01*
X3434949Y10923366D01*
X3582445Y10848213D01*
X3666423Y10805423D01*
X3666425Y10805423D01*
X3666428Y10805421D01*
X3913507Y10725140D01*
X4045706Y10704203D01*
X4170098Y10684500D01*
X4170103Y10684500D01*
X4429902Y10684500D01*
X4543298Y10702461D01*
X4686493Y10725140D01*
X4933572Y10805421D01*
X5165051Y10923366D01*
X5375229Y11076069D01*
X5558931Y11259771D01*
X5711634Y11469949D01*
X5829579Y11701428D01*
X5909860Y11948507D01*
X5944662Y12168242D01*
X5950500Y12205098D01*
X5950500Y12464903D01*
X5928947Y12600979D01*
X5909860Y12721493D01*
X5829579Y12968572D01*
X5829577Y12968575D01*
X5829577Y12968577D01*
X5767357Y13090688D01*
X5711634Y13200051D01*
X5666785Y13261781D01*
X5643306Y13327584D01*
X5659131Y13395638D01*
X5679423Y13422345D01*
X5698473Y13441395D01*
X5779816Y13522738D01*
X5875789Y13675478D01*
X5935368Y13845745D01*
X5936591Y13856594D01*
X5943504Y13917953D01*
X5950500Y13980046D01*
X5950500Y15344961D01*
X9449500Y15344961D01*
X9449500Y13255040D01*
X9464630Y13120751D01*
X9464631Y13120746D01*
X9524211Y12950477D01*
X9586080Y12852014D01*
X9620184Y12797738D01*
X9747738Y12670184D01*
X9900478Y12574211D01*
X9912547Y12569988D01*
X10070745Y12514632D01*
X10070750Y12514631D01*
X10161246Y12504435D01*
X10205040Y12499501D01*
X10205043Y12499500D01*
X10205046Y12499500D01*
X14894957Y12499500D01*
X14894958Y12499501D01*
X14962104Y12507066D01*
X15029249Y12514631D01*
X15029252Y12514632D01*
X15029255Y12514632D01*
X15199522Y12574211D01*
X15352262Y12670184D01*
X15352262Y12670185D01*
X15358158Y12673889D01*
X15359602Y12671591D01*
X15412849Y12693341D01*
X15481547Y12680599D01*
X15532450Y12632739D01*
X15549500Y12569988D01*
X15549500Y10181996D01*
X15549501Y10181980D01*
X15580306Y9947990D01*
X15641394Y9720007D01*
X15731714Y9501955D01*
X15731719Y9501944D01*
X15774440Y9427951D01*
X15849727Y9297550D01*
X15849729Y9297547D01*
X15849730Y9297546D01*
X15993406Y9110303D01*
X15993412Y9110296D01*
X16160295Y8943413D01*
X16160301Y8943408D01*
X16347550Y8799727D01*
X16478918Y8723882D01*
X16551943Y8681720D01*
X16551948Y8681718D01*
X16551951Y8681716D01*
X16770007Y8591394D01*
X16997986Y8530307D01*
X17231989Y8499500D01*
X17231996Y8499500D01*
X17468004Y8499500D01*
X17468011Y8499500D01*
X17702014Y8530307D01*
X17929993Y8591394D01*
X18148049Y8681716D01*
X18352450Y8799727D01*
X18539699Y8943408D01*
X18706592Y9110301D01*
X18850273Y9297550D01*
X18965455Y9497053D01*
X18968280Y9501944D01*
X18968280Y9501945D01*
X18968284Y9501951D01*
X19058606Y9720007D01*
X19119693Y9947986D01*
X19150500Y10181989D01*
X19150500Y11210222D01*
X57649500Y11210222D01*
X57649500Y10989778D01*
X57659921Y10923985D01*
X57683985Y10772048D01*
X57752103Y10562397D01*
X57752104Y10562394D01*
X57801213Y10466015D01*
X57835922Y10397895D01*
X57852187Y10365975D01*
X57981752Y10187642D01*
X57981756Y10187637D01*
X57981758Y10187635D01*
X58137635Y10031758D01*
X58209087Y9979845D01*
X58251753Y9924516D01*
X58257732Y9854903D01*
X58246687Y9823232D01*
X58152104Y9637607D01*
X58152103Y9637604D01*
X58083985Y9427953D01*
X58049500Y9210222D01*
X58049500Y7989779D01*
X58083985Y7772048D01*
X58152103Y7562397D01*
X58152104Y7562394D01*
X58252187Y7365975D01*
X58381752Y7187642D01*
X58381756Y7187637D01*
X58537636Y7031757D01*
X58537641Y7031753D01*
X58592430Y6991947D01*
X58715978Y6902185D01*
X58833068Y6842524D01*
X58912393Y6802105D01*
X58912396Y6802104D01*
X59017221Y6768045D01*
X59122049Y6733985D01*
X59339778Y6699500D01*
X59339779Y6699500D01*
X59560221Y6699500D01*
X59560222Y6699500D01*
X59777951Y6733985D01*
X59987606Y6802105D01*
X60184022Y6902185D01*
X60362365Y7031758D01*
X60518242Y7187635D01*
X60647815Y7365978D01*
X60747895Y7562394D01*
X60816015Y7772049D01*
X60850500Y7989778D01*
X60850500Y9210222D01*
X64849500Y9210222D01*
X64849500Y7989779D01*
X64883985Y7772048D01*
X64952103Y7562397D01*
X64952104Y7562394D01*
X65052187Y7365975D01*
X65181752Y7187642D01*
X65181756Y7187637D01*
X65337636Y7031757D01*
X65337641Y7031753D01*
X65392430Y6991947D01*
X65515978Y6902185D01*
X65633068Y6842524D01*
X65712393Y6802105D01*
X65712396Y6802104D01*
X65817221Y6768045D01*
X65922049Y6733985D01*
X66139778Y6699500D01*
X66139779Y6699500D01*
X66360221Y6699500D01*
X66360222Y6699500D01*
X66577951Y6733985D01*
X66787606Y6802105D01*
X66984022Y6902185D01*
X67162365Y7031758D01*
X67318242Y7187635D01*
X67447815Y7365978D01*
X67547895Y7562394D01*
X67616015Y7772049D01*
X67650500Y7989778D01*
X67650500Y9210222D01*
X67616015Y9427951D01*
X67554173Y9618284D01*
X67547896Y9637604D01*
X67547895Y9637607D01*
X67505909Y9720007D01*
X67447815Y9834022D01*
X67431260Y9856808D01*
X67318247Y10012359D01*
X67318243Y10012364D01*
X67162363Y10168244D01*
X67162358Y10168248D01*
X66984025Y10297813D01*
X66984024Y10297814D01*
X66984022Y10297815D01*
X66921096Y10329878D01*
X66787606Y10397896D01*
X66787603Y10397897D01*
X66577952Y10466015D01*
X66469086Y10483258D01*
X66360222Y10500500D01*
X66139778Y10500500D01*
X66067201Y10489005D01*
X65922047Y10466015D01*
X65712396Y10397897D01*
X65712393Y10397896D01*
X65515974Y10297813D01*
X65337641Y10168248D01*
X65337636Y10168244D01*
X65181756Y10012364D01*
X65181752Y10012359D01*
X65052187Y9834026D01*
X64952104Y9637607D01*
X64952103Y9637604D01*
X64883985Y9427953D01*
X64849500Y9210222D01*
X60850500Y9210222D01*
X60816015Y9427951D01*
X60754173Y9618284D01*
X60747896Y9637604D01*
X60747893Y9637611D01*
X60653313Y9823231D01*
X60640416Y9891900D01*
X60666692Y9956641D01*
X60690907Y9979842D01*
X60762365Y10031758D01*
X60918242Y10187635D01*
X61047815Y10365978D01*
X61147895Y10562394D01*
X61216015Y10772049D01*
X61250500Y10989778D01*
X61250500Y11210222D01*
X61216015Y11427951D01*
X61147895Y11637606D01*
X61147895Y11637607D01*
X61089405Y11752397D01*
X61047815Y11834022D01*
X61031260Y11856808D01*
X60918247Y12012359D01*
X60918243Y12012364D01*
X60762363Y12168244D01*
X60762358Y12168248D01*
X60584025Y12297813D01*
X60584024Y12297814D01*
X60584022Y12297815D01*
X60521096Y12329878D01*
X60387606Y12397896D01*
X60387603Y12397897D01*
X60177952Y12466015D01*
X60063369Y12484163D01*
X59960222Y12500500D01*
X58939778Y12500500D01*
X58867201Y12489005D01*
X58722047Y12466015D01*
X58512396Y12397897D01*
X58512393Y12397896D01*
X58315974Y12297813D01*
X58137641Y12168248D01*
X58137636Y12168244D01*
X57981756Y12012364D01*
X57981752Y12012359D01*
X57852187Y11834026D01*
X57752104Y11637607D01*
X57752103Y11637604D01*
X57683985Y11427953D01*
X57661775Y11287721D01*
X57649500Y11210222D01*
X19150500Y11210222D01*
X19150500Y12618011D01*
X19119693Y12852014D01*
X19058606Y13079993D01*
X18968284Y13298049D01*
X18968282Y13298052D01*
X18968280Y13298057D01*
X18911941Y13395638D01*
X18850273Y13502450D01*
X18737264Y13649727D01*
X18706593Y13689698D01*
X18706587Y13689705D01*
X18539704Y13856588D01*
X18539697Y13856594D01*
X18352454Y14000270D01*
X18352453Y14000271D01*
X18352450Y14000273D01*
X18270957Y14047323D01*
X18148056Y14118281D01*
X18148045Y14118286D01*
X17929993Y14208606D01*
X17702010Y14269694D01*
X17468020Y14300499D01*
X17468017Y14300500D01*
X17468011Y14300500D01*
X17231989Y14300500D01*
X17231983Y14300500D01*
X17231979Y14300499D01*
X16997989Y14269694D01*
X16770006Y14208606D01*
X16551954Y14118286D01*
X16551943Y14118281D01*
X16347545Y14000270D01*
X16160302Y13856594D01*
X16160295Y13856588D01*
X15993412Y13689705D01*
X15993406Y13689698D01*
X15872876Y13532619D01*
X15816448Y13491416D01*
X15746702Y13487261D01*
X15685782Y13521473D01*
X15653029Y13583190D01*
X15650500Y13608105D01*
X15650500Y15344957D01*
X15650499Y15344961D01*
X15635369Y15479250D01*
X15635368Y15479255D01*
X15575788Y15649524D01*
X15500116Y15769954D01*
X15479816Y15802262D01*
X15352262Y15929816D01*
X15323249Y15948046D01*
X15199523Y16025789D01*
X15029254Y16085369D01*
X15029249Y16085370D01*
X14894960Y16100500D01*
X14894954Y16100500D01*
X10205046Y16100500D01*
X10205039Y16100500D01*
X10070750Y16085370D01*
X10070745Y16085369D01*
X9900476Y16025789D01*
X9747737Y15929816D01*
X9620184Y15802263D01*
X9524211Y15649524D01*
X9464631Y15479255D01*
X9464630Y15479250D01*
X9449500Y15344961D01*
X5950500Y15344961D01*
X5950500Y15769954D01*
X5935368Y15904255D01*
X5875789Y16074522D01*
X5868973Y16085369D01*
X5836582Y16136920D01*
X5779816Y16227262D01*
X5652262Y16354816D01*
X5499523Y16450789D01*
X5329254Y16510369D01*
X5329249Y16510370D01*
X5194960Y16525500D01*
X5194954Y16525500D01*
X3405046Y16525500D01*
X3405039Y16525500D01*
X3270750Y16510370D01*
X3270745Y16510369D01*
X3100476Y16450789D01*
X2947737Y16354816D01*
X2820184Y16227263D01*
X2724211Y16074524D01*
X2664631Y15904255D01*
X2664630Y15904250D01*
X2649500Y15769961D01*
X42686Y15769961D01*
X42684Y15773371D01*
X39247Y22644961D01*
X8499500Y22644961D01*
X8499500Y20555040D01*
X8514630Y20420751D01*
X8514631Y20420746D01*
X8574211Y20250477D01*
X8631762Y20158886D01*
X8670184Y20097738D01*
X8797738Y19970184D01*
X8950478Y19874211D01*
X9120745Y19814632D01*
X9120750Y19814631D01*
X9211246Y19804435D01*
X9255040Y19799501D01*
X9255043Y19799500D01*
X9255046Y19799500D01*
X11344957Y19799500D01*
X11344958Y19799501D01*
X11412104Y19807066D01*
X11479249Y19814631D01*
X11479252Y19814632D01*
X11479255Y19814632D01*
X11649522Y19874211D01*
X11802262Y19970184D01*
X11929816Y20097738D01*
X12025789Y20250478D01*
X12085368Y20420745D01*
X12100500Y20555046D01*
X12100500Y21718005D01*
X13579500Y21718005D01*
X13579500Y21481996D01*
X13579501Y21481980D01*
X13610306Y21247990D01*
X13671394Y21020007D01*
X13761714Y20801955D01*
X13761719Y20801944D01*
X13831473Y20681128D01*
X13879727Y20597550D01*
X13879729Y20597547D01*
X13879730Y20597546D01*
X14023406Y20410303D01*
X14023412Y20410296D01*
X14190295Y20243413D01*
X14190301Y20243408D01*
X14377550Y20099727D01*
X14508918Y20023882D01*
X14581943Y19981720D01*
X14581948Y19981718D01*
X14581951Y19981716D01*
X14800007Y19891394D01*
X15027986Y19830307D01*
X15261989Y19799500D01*
X15261996Y19799500D01*
X15498004Y19799500D01*
X15498011Y19799500D01*
X15732014Y19830307D01*
X15959993Y19891394D01*
X16178049Y19981716D01*
X16382450Y20099727D01*
X16569699Y20243408D01*
X16736592Y20410301D01*
X16880273Y20597550D01*
X16928527Y20681128D01*
X45699500Y20681128D01*
X45699500Y20418873D01*
X45721671Y20250478D01*
X45733730Y20158884D01*
X45784292Y19970184D01*
X45801602Y19905582D01*
X45801605Y19905572D01*
X45901953Y19663310D01*
X45901958Y19663300D01*
X46033075Y19436197D01*
X46192718Y19228149D01*
X46192726Y19228140D01*
X46378140Y19042726D01*
X46378148Y19042719D01*
X46586196Y18883076D01*
X46813299Y18751959D01*
X46813309Y18751954D01*
X47055571Y18651606D01*
X47055581Y18651602D01*
X47308884Y18583730D01*
X47568880Y18549500D01*
X47568887Y18549500D01*
X47831113Y18549500D01*
X47831120Y18549500D01*
X48091116Y18583730D01*
X48344419Y18651602D01*
X48586697Y18751957D01*
X48813803Y18883076D01*
X49021851Y19042718D01*
X49021855Y19042723D01*
X49021860Y19042726D01*
X49207274Y19228140D01*
X49207277Y19228145D01*
X49207282Y19228149D01*
X49366924Y19436197D01*
X49498043Y19663303D01*
X49598398Y19905581D01*
X49666270Y20158884D01*
X49700500Y20418880D01*
X49700500Y20681120D01*
X49666270Y20941116D01*
X49598398Y21194419D01*
X49576208Y21247990D01*
X49498046Y21436691D01*
X49498041Y21436700D01*
X49498040Y21436701D01*
X49431702Y21551604D01*
X58399500Y21551604D01*
X58399500Y19548398D01*
X58414699Y19394069D01*
X58474770Y19196042D01*
X58572313Y19013552D01*
X58572315Y19013550D01*
X58703589Y18853590D01*
X58863549Y18722316D01*
X58863551Y18722314D01*
X59046041Y18624771D01*
X59046043Y18624771D01*
X59046046Y18624769D01*
X59244067Y18564700D01*
X59244066Y18564700D01*
X59254970Y18563627D01*
X59398393Y18549500D01*
X61401606Y18549501D01*
X61555933Y18564700D01*
X61753954Y18624769D01*
X61936450Y18722315D01*
X62096410Y18853590D01*
X62227685Y19013550D01*
X62325231Y19196046D01*
X62385300Y19394067D01*
X62400500Y19548393D01*
X62400499Y21551606D01*
X62385300Y21705933D01*
X62325231Y21903954D01*
X62325229Y21903957D01*
X62325229Y21903959D01*
X62227686Y22086449D01*
X62227684Y22086451D01*
X62096410Y22246411D01*
X61936450Y22377685D01*
X61936448Y22377687D01*
X61753958Y22475230D01*
X61654943Y22505266D01*
X61555933Y22535300D01*
X61555931Y22535301D01*
X61555933Y22535301D01*
X61445220Y22546205D01*
X61401607Y22550500D01*
X61401603Y22550500D01*
X59398397Y22550500D01*
X59244068Y22535301D01*
X59046041Y22475230D01*
X58863551Y22377687D01*
X58863549Y22377685D01*
X58703589Y22246411D01*
X58572315Y22086451D01*
X58572313Y22086449D01*
X58474770Y21903959D01*
X58414699Y21705932D01*
X58399500Y21551604D01*
X49431702Y21551604D01*
X49431700Y21551607D01*
X49366924Y21663804D01*
X49207281Y21871852D01*
X49207274Y21871860D01*
X49021860Y22057274D01*
X49021851Y22057282D01*
X48813803Y22216925D01*
X48586700Y22348042D01*
X48586690Y22348047D01*
X48344428Y22448395D01*
X48344421Y22448397D01*
X48344419Y22448398D01*
X48091116Y22516270D01*
X48033339Y22523877D01*
X47831127Y22550500D01*
X47831120Y22550500D01*
X47568880Y22550500D01*
X47568872Y22550500D01*
X47337772Y22520074D01*
X47308884Y22516270D01*
X47155724Y22475231D01*
X47055581Y22448398D01*
X47055571Y22448395D01*
X46813309Y22348047D01*
X46813299Y22348042D01*
X46586196Y22216925D01*
X46378148Y22057282D01*
X46192718Y21871852D01*
X46033075Y21663804D01*
X45901958Y21436701D01*
X45901953Y21436691D01*
X45801605Y21194429D01*
X45801602Y21194419D01*
X45733730Y20941115D01*
X45699500Y20681128D01*
X16928527Y20681128D01*
X16998284Y20801951D01*
X17088606Y21020007D01*
X17149693Y21247986D01*
X17180500Y21481989D01*
X17180500Y21718011D01*
X17149693Y21952014D01*
X17088606Y22179993D01*
X16998284Y22398049D01*
X16998282Y22398052D01*
X16998280Y22398057D01*
X16956118Y22471082D01*
X16880273Y22602450D01*
X16736592Y22789699D01*
X16736587Y22789705D01*
X16569704Y22956588D01*
X16569697Y22956594D01*
X16382454Y23100270D01*
X16382453Y23100271D01*
X16382450Y23100273D01*
X16296786Y23149731D01*
X16178056Y23218281D01*
X16178045Y23218286D01*
X15959993Y23308606D01*
X15732010Y23369694D01*
X15498020Y23400499D01*
X15498017Y23400500D01*
X15498011Y23400500D01*
X15261989Y23400500D01*
X15261983Y23400500D01*
X15261979Y23400499D01*
X15027989Y23369694D01*
X14800006Y23308606D01*
X14581954Y23218286D01*
X14581943Y23218281D01*
X14377545Y23100270D01*
X14190302Y22956594D01*
X14190295Y22956588D01*
X14023412Y22789705D01*
X14023406Y22789698D01*
X13879730Y22602455D01*
X13761719Y22398057D01*
X13761714Y22398046D01*
X13671394Y22179994D01*
X13610306Y21952011D01*
X13579501Y21718021D01*
X13579500Y21718005D01*
X12100500Y21718005D01*
X12100500Y22644954D01*
X12085368Y22779255D01*
X12025789Y22949522D01*
X12021345Y22956594D01*
X11974143Y23031716D01*
X11929816Y23102262D01*
X11802262Y23229816D01*
X11701058Y23293407D01*
X11649523Y23325789D01*
X11479254Y23385369D01*
X11479249Y23385370D01*
X11344960Y23400500D01*
X11344954Y23400500D01*
X9255046Y23400500D01*
X9255039Y23400500D01*
X9120750Y23385370D01*
X9120745Y23385369D01*
X8950476Y23325789D01*
X8797737Y23229816D01*
X8670184Y23102263D01*
X8574211Y22949524D01*
X8514631Y22779255D01*
X8514630Y22779250D01*
X8499500Y22644961D01*
X39247Y22644961D01*
X39245Y22648371D01*
X38185Y24768005D01*
X1549500Y24768005D01*
X1549500Y24531996D01*
X1549501Y24531980D01*
X1580306Y24297990D01*
X1641394Y24070007D01*
X1731714Y23851955D01*
X1731719Y23851944D01*
X1802677Y23729043D01*
X1849727Y23647550D01*
X1849729Y23647547D01*
X1849730Y23647546D01*
X1993406Y23460303D01*
X1993412Y23460296D01*
X2160295Y23293413D01*
X2160301Y23293408D01*
X2347550Y23149727D01*
X2467789Y23080307D01*
X2551943Y23031720D01*
X2551948Y23031718D01*
X2551951Y23031716D01*
X2770007Y22941394D01*
X2997986Y22880307D01*
X3231989Y22849500D01*
X3231996Y22849500D01*
X3468004Y22849500D01*
X3468011Y22849500D01*
X3702014Y22880307D01*
X3929993Y22941394D01*
X4148049Y23031716D01*
X4352450Y23149727D01*
X4539699Y23293408D01*
X4706592Y23460301D01*
X4850273Y23647550D01*
X4968284Y23851951D01*
X5058606Y24070007D01*
X5119693Y24297986D01*
X5150500Y24531989D01*
X5150500Y24768011D01*
X5119693Y25002014D01*
X5058606Y25229993D01*
X4968284Y25448049D01*
X4968282Y25448052D01*
X4968280Y25448057D01*
X4915115Y25540140D01*
X4850273Y25652450D01*
X4759631Y25770577D01*
X4706593Y25839698D01*
X4706587Y25839705D01*
X4539704Y26006588D01*
X4539697Y26006594D01*
X4352454Y26150270D01*
X4352453Y26150271D01*
X4352450Y26150273D01*
X4230301Y26220796D01*
X4148056Y26268281D01*
X4148045Y26268286D01*
X3929993Y26358606D01*
X3702010Y26419694D01*
X3468020Y26450499D01*
X3468017Y26450500D01*
X3468011Y26450500D01*
X3231989Y26450500D01*
X3231983Y26450500D01*
X3231979Y26450499D01*
X2997989Y26419694D01*
X2770006Y26358606D01*
X2551954Y26268286D01*
X2551943Y26268281D01*
X2347545Y26150270D01*
X2160302Y26006594D01*
X2160295Y26006588D01*
X1993412Y25839705D01*
X1993406Y25839698D01*
X1849730Y25652455D01*
X1731719Y25448057D01*
X1731714Y25448046D01*
X1641394Y25229994D01*
X1580306Y25002011D01*
X1549501Y24768021D01*
X1549500Y24768005D01*
X38185Y24768005D01*
X38183Y24772008D01*
X37169Y26798005D01*
X8499500Y26798005D01*
X8499500Y26561996D01*
X8499501Y26561980D01*
X8530306Y26327990D01*
X8591394Y26100007D01*
X8681714Y25881955D01*
X8681719Y25881944D01*
X8730336Y25797738D01*
X8799727Y25677550D01*
X8799729Y25677547D01*
X8799730Y25677546D01*
X8943406Y25490303D01*
X8943412Y25490296D01*
X9110295Y25323413D01*
X9110301Y25323408D01*
X9297550Y25179727D01*
X9428918Y25103882D01*
X9501943Y25061720D01*
X9501948Y25061718D01*
X9501951Y25061716D01*
X9720007Y24971394D01*
X9947986Y24910307D01*
X10181989Y24879500D01*
X10181996Y24879500D01*
X10418004Y24879500D01*
X10418011Y24879500D01*
X10652014Y24910307D01*
X10879993Y24971394D01*
X11098049Y25061716D01*
X11302450Y25179727D01*
X11489699Y25323408D01*
X11656592Y25490301D01*
X11800273Y25677550D01*
X11918284Y25881951D01*
X12008606Y26100007D01*
X12069693Y26327986D01*
X12100500Y26561989D01*
X12100500Y26798011D01*
X12069693Y27032014D01*
X12008606Y27259993D01*
X11918284Y27478049D01*
X11918282Y27478052D01*
X11918280Y27478057D01*
X11876118Y27551082D01*
X11800273Y27682450D01*
X11741001Y27759694D01*
X11656593Y27869698D01*
X11656587Y27869705D01*
X11489704Y28036588D01*
X11489697Y28036594D01*
X11478793Y28044961D01*
X30109500Y28044961D01*
X30109500Y26255040D01*
X30124630Y26120751D01*
X30124631Y26120746D01*
X30184211Y25950477D01*
X30244636Y25854312D01*
X30280184Y25797738D01*
X30407738Y25670184D01*
X30560478Y25574211D01*
X30730745Y25514632D01*
X30730750Y25514631D01*
X30821246Y25504435D01*
X30865040Y25499501D01*
X30865043Y25499500D01*
X30865046Y25499500D01*
X32654957Y25499500D01*
X32654958Y25499501D01*
X32722104Y25507066D01*
X32789249Y25514631D01*
X32789252Y25514632D01*
X32789255Y25514632D01*
X32959522Y25574211D01*
X33112262Y25670184D01*
X33212655Y25770577D01*
X33273978Y25804062D01*
X33343670Y25799078D01*
X33373218Y25783217D01*
X33434949Y25738366D01*
X33544312Y25682643D01*
X33666423Y25620423D01*
X33666425Y25620423D01*
X33666428Y25620421D01*
X33913507Y25540140D01*
X34045706Y25519203D01*
X34170098Y25499500D01*
X34170103Y25499500D01*
X34429902Y25499500D01*
X34543298Y25517461D01*
X34686493Y25540140D01*
X34933572Y25620421D01*
X35165051Y25738366D01*
X35375229Y25891069D01*
X35482319Y25998159D01*
X35543642Y26031644D01*
X35613334Y26026660D01*
X35657681Y25998159D01*
X35764771Y25891069D01*
X35974949Y25738366D01*
X36108761Y25670185D01*
X36206423Y25620423D01*
X36206425Y25620423D01*
X36206428Y25620421D01*
X36453507Y25540140D01*
X36585706Y25519203D01*
X36710098Y25499500D01*
X36710103Y25499500D01*
X36969902Y25499500D01*
X37083298Y25517461D01*
X37226493Y25540140D01*
X37473572Y25620421D01*
X37705051Y25738366D01*
X37915229Y25891069D01*
X38098931Y26074771D01*
X38251634Y26284949D01*
X38369579Y26516428D01*
X38449860Y26763507D01*
X38473110Y26910304D01*
X38490500Y27020098D01*
X38490500Y27279903D01*
X38468947Y27415979D01*
X38449860Y27536493D01*
X38369579Y27783572D01*
X38369577Y27783575D01*
X38369577Y27783577D01*
X38325692Y27869705D01*
X38251634Y28015051D01*
X38098931Y28225229D01*
X37915229Y28408931D01*
X37859125Y28449693D01*
X37705054Y28561632D01*
X37705053Y28561633D01*
X37705051Y28561634D01*
X37596859Y28616761D01*
X37473576Y28679578D01*
X37226493Y28759860D01*
X36969902Y28800500D01*
X36969897Y28800500D01*
X36710103Y28800500D01*
X36710098Y28800500D01*
X36453506Y28759860D01*
X36206423Y28679578D01*
X35974945Y28561632D01*
X35764774Y28408934D01*
X35764768Y28408929D01*
X35657681Y28301841D01*
X35596358Y28268356D01*
X35526666Y28273340D01*
X35482319Y28301841D01*
X35375231Y28408929D01*
X35375225Y28408934D01*
X35165054Y28561632D01*
X35165053Y28561633D01*
X35165051Y28561634D01*
X35056859Y28616761D01*
X34933576Y28679578D01*
X34686493Y28759860D01*
X34429902Y28800500D01*
X34429897Y28800500D01*
X34170103Y28800500D01*
X34170098Y28800500D01*
X33913506Y28759860D01*
X33666423Y28679578D01*
X33434946Y28561633D01*
X33373219Y28516786D01*
X33307413Y28493307D01*
X33239359Y28509133D01*
X33212654Y28529424D01*
X33112262Y28629816D01*
X32959523Y28725789D01*
X32789254Y28785369D01*
X32789249Y28785370D01*
X32654960Y28800500D01*
X32654954Y28800500D01*
X30865046Y28800500D01*
X30865039Y28800500D01*
X30730750Y28785370D01*
X30730745Y28785369D01*
X30560476Y28725789D01*
X30407737Y28629816D01*
X30280184Y28502263D01*
X30184211Y28349524D01*
X30124631Y28179255D01*
X30124630Y28179250D01*
X30109500Y28044961D01*
X11478793Y28044961D01*
X11302454Y28180270D01*
X11302453Y28180271D01*
X11302450Y28180273D01*
X11220957Y28227323D01*
X11098056Y28298281D01*
X11098045Y28298286D01*
X10879993Y28388606D01*
X10652010Y28449694D01*
X10418020Y28480499D01*
X10418017Y28480500D01*
X10418011Y28480500D01*
X10181989Y28480500D01*
X10181983Y28480500D01*
X10181979Y28480499D01*
X9947989Y28449694D01*
X9720006Y28388606D01*
X9501954Y28298286D01*
X9501943Y28298281D01*
X9297545Y28180270D01*
X9110302Y28036594D01*
X9110295Y28036588D01*
X8943412Y27869705D01*
X8943406Y27869698D01*
X8799730Y27682455D01*
X8681719Y27478057D01*
X8681714Y27478046D01*
X8591394Y27259994D01*
X8530306Y27032011D01*
X8499501Y26798021D01*
X8499500Y26798005D01*
X37169Y26798005D01*
X37167Y26802008D01*
X32482Y36168005D01*
X1549500Y36168005D01*
X1549500Y35931996D01*
X1549501Y35931980D01*
X1550979Y35920751D01*
X1580307Y35697986D01*
X1638256Y35481720D01*
X1641394Y35470007D01*
X1731714Y35251955D01*
X1731719Y35251944D01*
X1802677Y35129043D01*
X1849727Y35047550D01*
X1849729Y35047547D01*
X1849730Y35047546D01*
X1993406Y34860303D01*
X1993412Y34860296D01*
X2160295Y34693413D01*
X2160301Y34693408D01*
X2347550Y34549727D01*
X2478918Y34473882D01*
X2551943Y34431720D01*
X2551948Y34431718D01*
X2551951Y34431716D01*
X2770007Y34341394D01*
X2997986Y34280307D01*
X3231989Y34249500D01*
X3231996Y34249500D01*
X3468004Y34249500D01*
X3468011Y34249500D01*
X3702014Y34280307D01*
X3929993Y34341394D01*
X4148049Y34431716D01*
X4352450Y34549727D01*
X4539699Y34693408D01*
X4706592Y34860301D01*
X4850273Y35047550D01*
X4968284Y35251951D01*
X5058606Y35470007D01*
X5119693Y35697986D01*
X5150500Y35931989D01*
X5150500Y35986704D01*
X22799500Y35986704D01*
X22799500Y35613297D01*
X22836099Y35241689D01*
X22836101Y35241676D01*
X22908950Y34875444D01*
X22908951Y34875440D01*
X22913545Y34860296D01*
X23017347Y34518105D01*
X23160243Y34173124D01*
X23160250Y34173110D01*
X23336264Y33843808D01*
X23336275Y33843790D01*
X23543732Y33533310D01*
X23780623Y33244657D01*
X24044656Y32980624D01*
X24333309Y32743733D01*
X24333315Y32743729D01*
X24643796Y32536271D01*
X24973117Y32360246D01*
X25318106Y32217347D01*
X25675440Y32108951D01*
X26041678Y32036101D01*
X26413293Y31999500D01*
X26413296Y31999500D01*
X26786704Y31999500D01*
X26786707Y31999500D01*
X27158322Y32036101D01*
X27524560Y32108951D01*
X27881894Y32217347D01*
X28004193Y32268005D01*
X46199500Y32268005D01*
X46199500Y32031996D01*
X46199501Y32031980D01*
X46230306Y31797990D01*
X46291394Y31570007D01*
X46381714Y31351955D01*
X46381719Y31351944D01*
X46452677Y31229043D01*
X46499727Y31147550D01*
X46499729Y31147547D01*
X46499730Y31147546D01*
X46643406Y30960303D01*
X46643412Y30960296D01*
X46810295Y30793413D01*
X46810301Y30793408D01*
X46997550Y30649727D01*
X47128918Y30573882D01*
X47201943Y30531720D01*
X47201948Y30531718D01*
X47201951Y30531716D01*
X47420007Y30441394D01*
X47647986Y30380307D01*
X47881989Y30349500D01*
X47881996Y30349500D01*
X48118004Y30349500D01*
X48118011Y30349500D01*
X48352014Y30380307D01*
X48579993Y30441394D01*
X48798049Y30531716D01*
X49002450Y30649727D01*
X49189699Y30793408D01*
X49356592Y30960301D01*
X49500273Y31147550D01*
X49618284Y31351951D01*
X49708606Y31570007D01*
X49769693Y31797986D01*
X49798659Y32018005D01*
X58599500Y32018005D01*
X58599500Y31781996D01*
X58599501Y31781980D01*
X58630306Y31547990D01*
X58691394Y31320007D01*
X58781714Y31101955D01*
X58781719Y31101944D01*
X58852677Y30979043D01*
X58899727Y30897550D01*
X58899729Y30897547D01*
X58899730Y30897546D01*
X59043406Y30710303D01*
X59043412Y30710296D01*
X59213171Y30540537D01*
X59210926Y30538293D01*
X59243014Y30492425D01*
X59249500Y30452848D01*
X59249500Y26247154D01*
X59229815Y26180115D01*
X59213181Y26159473D01*
X59093412Y26039705D01*
X59093406Y26039698D01*
X58949730Y25852455D01*
X58831719Y25648057D01*
X58831714Y25648046D01*
X58741394Y25429994D01*
X58680306Y25202011D01*
X58649501Y24968021D01*
X58649500Y24968005D01*
X58649500Y24731996D01*
X58649501Y24731980D01*
X58680306Y24497990D01*
X58741394Y24270007D01*
X58831714Y24051955D01*
X58831719Y24051944D01*
X58902677Y23929043D01*
X58949727Y23847550D01*
X58949729Y23847547D01*
X58949730Y23847546D01*
X59093406Y23660303D01*
X59093412Y23660296D01*
X59260295Y23493413D01*
X59260301Y23493408D01*
X59447550Y23349727D01*
X59578918Y23273882D01*
X59651943Y23231720D01*
X59651948Y23231718D01*
X59651951Y23231716D01*
X59870007Y23141394D01*
X60097986Y23080307D01*
X60331989Y23049500D01*
X60331996Y23049500D01*
X60568004Y23049500D01*
X60568011Y23049500D01*
X60802014Y23080307D01*
X61029993Y23141394D01*
X61248049Y23231716D01*
X61452450Y23349727D01*
X61639699Y23493408D01*
X61806592Y23660301D01*
X61950273Y23847550D01*
X62068284Y24051951D01*
X62158606Y24270007D01*
X62219693Y24497986D01*
X62250500Y24731989D01*
X62250500Y24968011D01*
X62219693Y25202014D01*
X62158606Y25429993D01*
X62068284Y25648049D01*
X62068282Y25648052D01*
X62068280Y25648057D01*
X61990246Y25783214D01*
X61950273Y25852450D01*
X61806592Y26039699D01*
X61806587Y26039705D01*
X61686819Y26159473D01*
X61653334Y26220796D01*
X61650500Y26247154D01*
X61650500Y28218005D01*
X68599500Y28218005D01*
X68599500Y27981996D01*
X68599501Y27981980D01*
X68630306Y27747990D01*
X68691394Y27520007D01*
X68781714Y27301955D01*
X68781719Y27301944D01*
X68805940Y27259993D01*
X68899727Y27097550D01*
X68899729Y27097547D01*
X68899730Y27097546D01*
X69043405Y26910304D01*
X69043407Y26910302D01*
X69043408Y26910301D01*
X69163182Y26790527D01*
X69196666Y26729206D01*
X69199500Y26702847D01*
X69199500Y16547154D01*
X69179815Y16480115D01*
X69163181Y16459473D01*
X69043412Y16339705D01*
X69043406Y16339698D01*
X68899730Y16152455D01*
X68781719Y15948057D01*
X68781714Y15948046D01*
X68691394Y15729994D01*
X68630306Y15502011D01*
X68599501Y15268021D01*
X68599500Y15268011D01*
X68599500Y15031989D01*
X68630307Y14797986D01*
X68658636Y14692262D01*
X68691394Y14570007D01*
X68781714Y14351955D01*
X68781719Y14351944D01*
X68849260Y14234961D01*
X68899727Y14147550D01*
X68899729Y14147547D01*
X68899730Y14147546D01*
X69043406Y13960303D01*
X69043412Y13960296D01*
X69210295Y13793413D01*
X69210302Y13793407D01*
X69221540Y13784784D01*
X69397550Y13649727D01*
X69528918Y13573882D01*
X69601943Y13531720D01*
X69601948Y13531718D01*
X69601951Y13531716D01*
X69820007Y13441394D01*
X70047986Y13380307D01*
X70281989Y13349500D01*
X70281996Y13349500D01*
X70518004Y13349500D01*
X70518011Y13349500D01*
X70752014Y13380307D01*
X70979993Y13441394D01*
X71198049Y13531716D01*
X71402450Y13649727D01*
X71589699Y13793408D01*
X71756592Y13960301D01*
X71900273Y14147550D01*
X71950740Y14234961D01*
X76299500Y14234961D01*
X76299500Y11645040D01*
X76314630Y11510751D01*
X76314631Y11510746D01*
X76374211Y11340477D01*
X76448808Y11221758D01*
X76470184Y11187738D01*
X76597738Y11060184D01*
X76652506Y11025771D01*
X76706086Y10992104D01*
X76750478Y10964211D01*
X76878255Y10919500D01*
X76920745Y10904632D01*
X76920750Y10904631D01*
X77011246Y10894435D01*
X77055040Y10889501D01*
X77055043Y10889500D01*
X77055046Y10889500D01*
X78444957Y10889500D01*
X78444958Y10889501D01*
X78512104Y10897066D01*
X78579249Y10904631D01*
X78579252Y10904632D01*
X78579255Y10904632D01*
X78749522Y10964211D01*
X78902262Y11060184D01*
X79029816Y11187738D01*
X79079001Y11266016D01*
X79131330Y11312302D01*
X79200384Y11322952D01*
X79264232Y11294577D01*
X79271672Y11287721D01*
X79337636Y11221757D01*
X79337641Y11221753D01*
X79464725Y11129422D01*
X79515978Y11092185D01*
X79644375Y11026763D01*
X79712393Y10992105D01*
X79712396Y10992104D01*
X79798241Y10964212D01*
X79922049Y10923985D01*
X80139778Y10889500D01*
X80139779Y10889500D01*
X80360221Y10889500D01*
X80360222Y10889500D01*
X80577951Y10923985D01*
X80787606Y10992105D01*
X80984022Y11092185D01*
X81162365Y11221758D01*
X81162371Y11221765D01*
X81166061Y11224915D01*
X81166736Y11224125D01*
X81223642Y11255197D01*
X81293334Y11250213D01*
X81333498Y11224400D01*
X81333939Y11224915D01*
X81337641Y11221753D01*
X81464725Y11129422D01*
X81515978Y11092185D01*
X81644375Y11026763D01*
X81712393Y10992105D01*
X81712396Y10992104D01*
X81798241Y10964212D01*
X81922049Y10923985D01*
X82139778Y10889500D01*
X82139779Y10889500D01*
X82360221Y10889500D01*
X82360222Y10889500D01*
X82577951Y10923985D01*
X82787606Y10992105D01*
X82984022Y11092185D01*
X83162365Y11221758D01*
X83318242Y11377635D01*
X83447815Y11555978D01*
X83547895Y11752394D01*
X83616015Y11962049D01*
X83650500Y12179778D01*
X83650500Y12484163D01*
X91899500Y12484163D01*
X91899500Y12255838D01*
X91935215Y12030340D01*
X92005770Y11813197D01*
X92062720Y11701428D01*
X92109421Y11609772D01*
X92243621Y11425063D01*
X92405063Y11263621D01*
X92589772Y11129421D01*
X92662846Y11092188D01*
X92793196Y11025771D01*
X92793198Y11025771D01*
X92793201Y11025769D01*
X92909592Y10987951D01*
X93010339Y10955216D01*
X93235838Y10919500D01*
X93235843Y10919500D01*
X94364162Y10919500D01*
X94589660Y10955216D01*
X94806799Y11025769D01*
X95010228Y11129421D01*
X95194937Y11263621D01*
X95356379Y11425063D01*
X95490579Y11609772D01*
X95594231Y11813201D01*
X95664784Y12030340D01*
X95700500Y12255838D01*
X95700500Y12484163D01*
X95664784Y12709661D01*
X95594229Y12926804D01*
X95516174Y13079994D01*
X95490579Y13130228D01*
X95356379Y13314937D01*
X95194937Y13476379D01*
X95010228Y13610579D01*
X94933388Y13649731D01*
X94806803Y13714230D01*
X94589660Y13784785D01*
X94364162Y13820500D01*
X94364157Y13820500D01*
X93235843Y13820500D01*
X93235838Y13820500D01*
X93010339Y13784785D01*
X92793196Y13714230D01*
X92589771Y13610579D01*
X92405061Y13476378D01*
X92243622Y13314939D01*
X92109421Y13130229D01*
X92005770Y12926804D01*
X91935215Y12709661D01*
X91899500Y12484163D01*
X83650500Y12484163D01*
X83650500Y13700222D01*
X83616015Y13917951D01*
X83550924Y14118284D01*
X83547896Y14127604D01*
X83547895Y14127607D01*
X83475497Y14269693D01*
X83447815Y14324022D01*
X83414955Y14369250D01*
X83318247Y14502359D01*
X83318243Y14502364D01*
X83162363Y14658244D01*
X83162358Y14658248D01*
X82984025Y14787813D01*
X82984024Y14787814D01*
X82984022Y14787815D01*
X82921096Y14819878D01*
X82787606Y14887896D01*
X82787603Y14887897D01*
X82577952Y14956015D01*
X82455749Y14975370D01*
X82360222Y14990500D01*
X82139778Y14990500D01*
X82067201Y14979005D01*
X81922047Y14956015D01*
X81712396Y14887897D01*
X81712393Y14887896D01*
X81515974Y14787813D01*
X81337641Y14658248D01*
X81333939Y14655085D01*
X81333263Y14655876D01*
X81276358Y14624803D01*
X81206666Y14629787D01*
X81166501Y14655601D01*
X81166061Y14655085D01*
X81162358Y14658248D01*
X80984025Y14787813D01*
X80984024Y14787814D01*
X80984022Y14787815D01*
X80921096Y14819878D01*
X80787606Y14887896D01*
X80787603Y14887897D01*
X80577952Y14956015D01*
X80455749Y14975370D01*
X80360222Y14990500D01*
X80139778Y14990500D01*
X80067201Y14979005D01*
X79922047Y14956015D01*
X79712396Y14887897D01*
X79712393Y14887896D01*
X79515974Y14787813D01*
X79337641Y14658249D01*
X79271671Y14592279D01*
X79210347Y14558795D01*
X79140656Y14563781D01*
X79084723Y14605653D01*
X79079004Y14613980D01*
X79029816Y14692262D01*
X78902262Y14819816D01*
X78749523Y14915789D01*
X78579254Y14975369D01*
X78579249Y14975370D01*
X78444960Y14990500D01*
X78444954Y14990500D01*
X77055046Y14990500D01*
X77055039Y14990500D01*
X76920750Y14975370D01*
X76920745Y14975369D01*
X76750476Y14915789D01*
X76597737Y14819816D01*
X76470184Y14692263D01*
X76374211Y14539524D01*
X76314631Y14369255D01*
X76314630Y14369250D01*
X76299500Y14234961D01*
X71950740Y14234961D01*
X72018284Y14351951D01*
X72108606Y14570007D01*
X72169693Y14797986D01*
X72200500Y15031989D01*
X72200500Y15268011D01*
X72169693Y15502014D01*
X72108606Y15729993D01*
X72018284Y15948049D01*
X72018282Y15948052D01*
X72018280Y15948057D01*
X71973401Y16025789D01*
X71900273Y16152450D01*
X71756592Y16339699D01*
X71756587Y16339705D01*
X71636819Y16459473D01*
X71603334Y16520796D01*
X71600500Y16547154D01*
X71600500Y26702847D01*
X71620185Y26769886D01*
X71636814Y26790524D01*
X71756592Y26910301D01*
X71900273Y27097550D01*
X72018284Y27301951D01*
X72108606Y27520007D01*
X72169693Y27747986D01*
X72200500Y27981989D01*
X72200500Y28218011D01*
X72169693Y28452014D01*
X72108606Y28679993D01*
X72018284Y28898049D01*
X72018282Y28898052D01*
X72018280Y28898057D01*
X71976118Y28971082D01*
X71900273Y29102450D01*
X71756592Y29289699D01*
X71756587Y29289705D01*
X71589704Y29456588D01*
X71589697Y29456594D01*
X71402454Y29600270D01*
X71402453Y29600271D01*
X71402450Y29600273D01*
X71320957Y29647323D01*
X71198056Y29718281D01*
X71198045Y29718286D01*
X70979993Y29808606D01*
X70752010Y29869694D01*
X70518020Y29900499D01*
X70518017Y29900500D01*
X70518011Y29900500D01*
X70281989Y29900500D01*
X70281983Y29900500D01*
X70281979Y29900499D01*
X70047989Y29869694D01*
X69820006Y29808606D01*
X69601954Y29718286D01*
X69601943Y29718281D01*
X69397545Y29600270D01*
X69210302Y29456594D01*
X69210295Y29456588D01*
X69043412Y29289705D01*
X69043406Y29289698D01*
X68899730Y29102455D01*
X68781719Y28898057D01*
X68781714Y28898046D01*
X68691394Y28679994D01*
X68630306Y28452011D01*
X68599501Y28218021D01*
X68599500Y28218005D01*
X61650500Y28218005D01*
X61650500Y30225962D01*
X74619500Y30225962D01*
X74619500Y29974039D01*
X74658910Y29725215D01*
X74736760Y29485617D01*
X74851132Y29261152D01*
X74999201Y29057351D01*
X74999205Y29057346D01*
X75177345Y28879206D01*
X75177350Y28879202D01*
X75341611Y28759860D01*
X75381155Y28731130D01*
X75482330Y28679579D01*
X75605616Y28616761D01*
X75605618Y28616761D01*
X75605621Y28616759D01*
X75845215Y28538910D01*
X76094038Y28499500D01*
X76094039Y28499500D01*
X76345961Y28499500D01*
X76345962Y28499500D01*
X76594785Y28538910D01*
X76834379Y28616759D01*
X77058845Y28731130D01*
X77262656Y28879207D01*
X77440793Y29057344D01*
X77588870Y29261155D01*
X77703241Y29485621D01*
X77781090Y29725215D01*
X77820500Y29974038D01*
X77820500Y30225962D01*
X84779500Y30225962D01*
X84779500Y29974039D01*
X84818910Y29725215D01*
X84896760Y29485617D01*
X85011132Y29261152D01*
X85159201Y29057351D01*
X85159205Y29057346D01*
X85337345Y28879206D01*
X85337350Y28879202D01*
X85501611Y28759860D01*
X85541155Y28731130D01*
X85642330Y28679579D01*
X85765616Y28616761D01*
X85765618Y28616761D01*
X85765621Y28616759D01*
X86005215Y28538910D01*
X86254038Y28499500D01*
X86254039Y28499500D01*
X86505961Y28499500D01*
X86505962Y28499500D01*
X86754785Y28538910D01*
X86994379Y28616759D01*
X87218845Y28731130D01*
X87422656Y28879207D01*
X87600793Y29057344D01*
X87748870Y29261155D01*
X87863241Y29485621D01*
X87941090Y29725215D01*
X87980500Y29974038D01*
X87980500Y30225962D01*
X87941090Y30474785D01*
X87863241Y30714379D01*
X87863239Y30714382D01*
X87863239Y30714384D01*
X87821747Y30795816D01*
X87748870Y30938845D01*
X87630364Y31101955D01*
X87600798Y31142650D01*
X87600794Y31142655D01*
X87422654Y31320795D01*
X87422649Y31320799D01*
X87218848Y31468868D01*
X87218847Y31468869D01*
X87218845Y31468870D01*
X87148747Y31504587D01*
X86994383Y31583240D01*
X86754785Y31661090D01*
X86505962Y31700500D01*
X86254038Y31700500D01*
X86129626Y31680795D01*
X86005214Y31661090D01*
X85765616Y31583240D01*
X85541151Y31468868D01*
X85337350Y31320799D01*
X85337345Y31320795D01*
X85159205Y31142655D01*
X85159201Y31142650D01*
X85011132Y30938849D01*
X84896760Y30714384D01*
X84818910Y30474786D01*
X84779500Y30225962D01*
X77820500Y30225962D01*
X77781090Y30474785D01*
X77703241Y30714379D01*
X77703239Y30714382D01*
X77703239Y30714384D01*
X77661747Y30795816D01*
X77588870Y30938845D01*
X77470364Y31101955D01*
X77440798Y31142650D01*
X77440794Y31142655D01*
X77262654Y31320795D01*
X77262649Y31320799D01*
X77058848Y31468868D01*
X77058847Y31468869D01*
X77058845Y31468870D01*
X76988747Y31504587D01*
X76834383Y31583240D01*
X76594785Y31661090D01*
X76345962Y31700500D01*
X76094038Y31700500D01*
X75969626Y31680795D01*
X75845214Y31661090D01*
X75605616Y31583240D01*
X75381151Y31468868D01*
X75177350Y31320799D01*
X75177345Y31320795D01*
X74999205Y31142655D01*
X74999201Y31142650D01*
X74851132Y30938849D01*
X74736760Y30714384D01*
X74658910Y30474786D01*
X74619500Y30225962D01*
X61650500Y30225962D01*
X61650500Y30552847D01*
X61670185Y30619886D01*
X61686814Y30640524D01*
X61756592Y30710301D01*
X61900273Y30897550D01*
X62018284Y31101951D01*
X62108606Y31320007D01*
X62169693Y31547986D01*
X62200500Y31781989D01*
X62200500Y32018011D01*
X62169693Y32252014D01*
X62108606Y32479993D01*
X62018284Y32698049D01*
X62018282Y32698052D01*
X62018280Y32698057D01*
X61976118Y32771082D01*
X61900273Y32902450D01*
X61756592Y33089699D01*
X61756587Y33089705D01*
X61589704Y33256588D01*
X61589697Y33256594D01*
X61402454Y33400270D01*
X61402453Y33400271D01*
X61402450Y33400273D01*
X61320957Y33447323D01*
X61198056Y33518281D01*
X61198045Y33518286D01*
X60979993Y33608606D01*
X60752010Y33669694D01*
X60518020Y33700499D01*
X60518017Y33700500D01*
X60518011Y33700500D01*
X60281989Y33700500D01*
X60281983Y33700500D01*
X60281979Y33700499D01*
X60047989Y33669694D01*
X59820006Y33608606D01*
X59601954Y33518286D01*
X59601943Y33518281D01*
X59397545Y33400270D01*
X59210302Y33256594D01*
X59210295Y33256588D01*
X59043412Y33089705D01*
X59043406Y33089698D01*
X58899730Y32902455D01*
X58781719Y32698057D01*
X58781714Y32698046D01*
X58691394Y32479994D01*
X58630306Y32252011D01*
X58599501Y32018021D01*
X58599500Y32018005D01*
X49798659Y32018005D01*
X49800500Y32031989D01*
X49800500Y32268011D01*
X49769693Y32502014D01*
X49708606Y32729993D01*
X49618284Y32948049D01*
X49618282Y32948052D01*
X49618280Y32948057D01*
X49576118Y33021082D01*
X49500273Y33152450D01*
X49356592Y33339699D01*
X49356588Y33339704D01*
X49186829Y33509462D01*
X49188040Y33510674D01*
X49154887Y33564462D01*
X49150500Y33597152D01*
X49150500Y40444961D01*
X79374500Y40444961D01*
X79374500Y38655040D01*
X79389630Y38520751D01*
X79389631Y38520746D01*
X79449211Y38350477D01*
X79509636Y38254312D01*
X79545184Y38197738D01*
X79672738Y38070184D01*
X79825478Y37974211D01*
X79995745Y37914632D01*
X79995750Y37914631D01*
X80086246Y37904435D01*
X80130040Y37899501D01*
X80130043Y37899500D01*
X80130046Y37899500D01*
X81919957Y37899500D01*
X81919958Y37899501D01*
X81987104Y37907066D01*
X82054249Y37914631D01*
X82054252Y37914632D01*
X82054255Y37914632D01*
X82224522Y37974211D01*
X82377262Y38070184D01*
X82477655Y38170577D01*
X82538978Y38204062D01*
X82608670Y38199078D01*
X82638218Y38183217D01*
X82699949Y38138366D01*
X82770428Y38102455D01*
X82931423Y38020423D01*
X82931425Y38020423D01*
X82931428Y38020421D01*
X83178507Y37940140D01*
X83310706Y37919203D01*
X83435098Y37899500D01*
X83435103Y37899500D01*
X83694902Y37899500D01*
X83808298Y37917461D01*
X83951493Y37940140D01*
X84198572Y38020421D01*
X84430051Y38138366D01*
X84439128Y38144961D01*
X89128716Y38144961D01*
X89128716Y36055040D01*
X89143846Y35920751D01*
X89143847Y35920746D01*
X89203427Y35750477D01*
X89236407Y35697990D01*
X89299400Y35597738D01*
X89426954Y35470184D01*
X89579694Y35374211D01*
X89749961Y35314632D01*
X89749966Y35314631D01*
X89840462Y35304435D01*
X89884256Y35299501D01*
X89884259Y35299500D01*
X89884262Y35299500D01*
X91974173Y35299500D01*
X91974174Y35299501D01*
X92041320Y35307066D01*
X92108465Y35314631D01*
X92108468Y35314632D01*
X92108471Y35314632D01*
X92278738Y35374211D01*
X92431478Y35470184D01*
X92559032Y35597738D01*
X92655005Y35750478D01*
X92714584Y35920745D01*
X92729716Y36055046D01*
X92729716Y37218005D01*
X94128716Y37218005D01*
X94128716Y36981996D01*
X94128717Y36981980D01*
X94159522Y36747990D01*
X94220610Y36520007D01*
X94310930Y36301955D01*
X94310935Y36301944D01*
X94381893Y36179043D01*
X94428943Y36097550D01*
X94428945Y36097547D01*
X94428946Y36097546D01*
X94572622Y35910303D01*
X94572628Y35910296D01*
X94739511Y35743413D01*
X94739517Y35743408D01*
X94926766Y35599727D01*
X95058134Y35523882D01*
X95131159Y35481720D01*
X95131164Y35481718D01*
X95131167Y35481716D01*
X95349223Y35391394D01*
X95577202Y35330307D01*
X95811205Y35299500D01*
X95811212Y35299500D01*
X96047220Y35299500D01*
X96047227Y35299500D01*
X96281230Y35330307D01*
X96509209Y35391394D01*
X96727265Y35481716D01*
X96931666Y35599727D01*
X97118915Y35743408D01*
X97285808Y35910301D01*
X97429489Y36097550D01*
X97547500Y36301951D01*
X97637822Y36520007D01*
X97698909Y36747986D01*
X97729716Y36981989D01*
X97729716Y37218011D01*
X97698909Y37452014D01*
X97637822Y37679993D01*
X97547500Y37898049D01*
X97547498Y37898052D01*
X97547496Y37898057D01*
X97476847Y38020423D01*
X97429489Y38102450D01*
X97355344Y38199078D01*
X97285809Y38289698D01*
X97285803Y38289705D01*
X97118920Y38456588D01*
X97118913Y38456594D01*
X96931670Y38600270D01*
X96931669Y38600271D01*
X96931666Y38600273D01*
X96836807Y38655040D01*
X96727272Y38718281D01*
X96727261Y38718286D01*
X96509209Y38808606D01*
X96356591Y38849500D01*
X96281230Y38869693D01*
X96281229Y38869694D01*
X96281226Y38869694D01*
X96047236Y38900499D01*
X96047233Y38900500D01*
X96047227Y38900500D01*
X95811205Y38900500D01*
X95811199Y38900500D01*
X95811195Y38900499D01*
X95577205Y38869694D01*
X95349222Y38808606D01*
X95131170Y38718286D01*
X95131159Y38718281D01*
X94926761Y38600270D01*
X94739518Y38456594D01*
X94739511Y38456588D01*
X94572628Y38289705D01*
X94572622Y38289698D01*
X94428946Y38102455D01*
X94310935Y37898057D01*
X94310930Y37898046D01*
X94220610Y37679994D01*
X94159522Y37452011D01*
X94128717Y37218021D01*
X94128716Y37218005D01*
X92729716Y37218005D01*
X92729716Y38144954D01*
X92718021Y38248752D01*
X92714585Y38279250D01*
X92714584Y38279255D01*
X92655004Y38449524D01*
X92610249Y38520751D01*
X92559032Y38602262D01*
X92431478Y38729816D01*
X92306085Y38808606D01*
X92278739Y38825789D01*
X92108470Y38885369D01*
X92108465Y38885370D01*
X91974176Y38900500D01*
X91974170Y38900500D01*
X89884262Y38900500D01*
X89884255Y38900500D01*
X89749966Y38885370D01*
X89749961Y38885369D01*
X89579692Y38825789D01*
X89426953Y38729816D01*
X89299400Y38602263D01*
X89203427Y38449524D01*
X89143847Y38279255D01*
X89143846Y38279250D01*
X89128716Y38144961D01*
X84439128Y38144961D01*
X84640229Y38291069D01*
X84823931Y38474771D01*
X84976634Y38684949D01*
X85094579Y38916428D01*
X85174860Y39163507D01*
X85209569Y39382653D01*
X85215500Y39420098D01*
X85215500Y39679903D01*
X85186908Y39860423D01*
X85174860Y39936493D01*
X85094579Y40183572D01*
X85094577Y40183575D01*
X85094577Y40183577D01*
X85027727Y40314775D01*
X84976634Y40415051D01*
X84823931Y40625229D01*
X84640229Y40808931D01*
X84511770Y40902262D01*
X84430054Y40961632D01*
X84430053Y40961633D01*
X84430051Y40961634D01*
X84347871Y41003507D01*
X84198576Y41079578D01*
X83951493Y41159860D01*
X83694902Y41200500D01*
X83694897Y41200500D01*
X83435103Y41200500D01*
X83435098Y41200500D01*
X83178506Y41159860D01*
X82931423Y41079578D01*
X82699946Y40961633D01*
X82638219Y40916786D01*
X82572413Y40893307D01*
X82504359Y40909133D01*
X82477654Y40929424D01*
X82377262Y41029816D01*
X82224523Y41125789D01*
X82054254Y41185369D01*
X82054249Y41185370D01*
X81919960Y41200500D01*
X81919954Y41200500D01*
X80130046Y41200500D01*
X80130039Y41200500D01*
X79995750Y41185370D01*
X79995745Y41185369D01*
X79825476Y41125789D01*
X79672737Y41029816D01*
X79545184Y40902263D01*
X79449211Y40749524D01*
X79389631Y40579255D01*
X79389630Y40579250D01*
X79374500Y40444961D01*
X49150500Y40444961D01*
X49150500Y45113814D01*
X49170185Y45180853D01*
X49199013Y45212190D01*
X49239699Y45243408D01*
X49406592Y45410301D01*
X49550273Y45597550D01*
X49668284Y45801951D01*
X49758606Y46020007D01*
X49819693Y46247986D01*
X49850500Y46481989D01*
X49850500Y46718011D01*
X49819693Y46952014D01*
X49758606Y47179993D01*
X49668284Y47398049D01*
X49668282Y47398052D01*
X49668280Y47398057D01*
X49585773Y47540962D01*
X49552786Y47598098D01*
X52139500Y47598098D01*
X52139500Y47361903D01*
X52176446Y47128632D01*
X52249433Y46904004D01*
X52294893Y46814785D01*
X52356657Y46693567D01*
X52495483Y46502490D01*
X52662490Y46335483D01*
X52853567Y46196657D01*
X52952991Y46145998D01*
X53064003Y46089434D01*
X53064005Y46089434D01*
X53064008Y46089432D01*
X53138540Y46065215D01*
X53288631Y46016447D01*
X53521903Y45979500D01*
X53521908Y45979500D01*
X53758097Y45979500D01*
X53991368Y46016447D01*
X54215992Y46089432D01*
X54426433Y46196657D01*
X54617510Y46335483D01*
X54784517Y46502490D01*
X54923343Y46693567D01*
X55030568Y46904008D01*
X55103553Y47128632D01*
X55112172Y47183052D01*
X55140500Y47361903D01*
X55140500Y47598098D01*
X57219500Y47598098D01*
X57219500Y47361903D01*
X57256446Y47128632D01*
X57329433Y46904004D01*
X57374893Y46814785D01*
X57436657Y46693567D01*
X57575483Y46502490D01*
X57742490Y46335483D01*
X57933567Y46196657D01*
X58032991Y46145998D01*
X58144003Y46089434D01*
X58144005Y46089434D01*
X58144008Y46089432D01*
X58218540Y46065215D01*
X58368631Y46016447D01*
X58601903Y45979500D01*
X58601908Y45979500D01*
X58838097Y45979500D01*
X59071368Y46016447D01*
X59295992Y46089432D01*
X59506433Y46196657D01*
X59697510Y46335483D01*
X59864517Y46502490D01*
X60003343Y46693567D01*
X60110568Y46904008D01*
X60183553Y47128632D01*
X60192172Y47183052D01*
X60220500Y47361903D01*
X60220500Y47598098D01*
X62299500Y47598098D01*
X62299500Y47361903D01*
X62336446Y47128632D01*
X62409433Y46904004D01*
X62454893Y46814785D01*
X62516657Y46693567D01*
X62655483Y46502490D01*
X62822490Y46335483D01*
X63013567Y46196657D01*
X63112991Y46145998D01*
X63224003Y46089434D01*
X63224005Y46089434D01*
X63224008Y46089432D01*
X63298540Y46065215D01*
X63448631Y46016447D01*
X63681903Y45979500D01*
X63681908Y45979500D01*
X63918097Y45979500D01*
X64151368Y46016447D01*
X64375992Y46089432D01*
X64586433Y46196657D01*
X64777510Y46335483D01*
X64944517Y46502490D01*
X65083343Y46693567D01*
X65190568Y46904008D01*
X65263553Y47128632D01*
X65272172Y47183052D01*
X65300500Y47361903D01*
X65300500Y47598098D01*
X69919500Y47598098D01*
X69919500Y47361903D01*
X69956446Y47128632D01*
X70029433Y46904004D01*
X70074893Y46814785D01*
X70136657Y46693567D01*
X70275483Y46502490D01*
X70442490Y46335483D01*
X70633567Y46196657D01*
X70732991Y46145998D01*
X70844003Y46089434D01*
X70844005Y46089434D01*
X70844008Y46089432D01*
X70918540Y46065215D01*
X71068631Y46016447D01*
X71301903Y45979500D01*
X71301908Y45979500D01*
X71538097Y45979500D01*
X71771368Y46016447D01*
X71995992Y46089432D01*
X72206433Y46196657D01*
X72397510Y46335483D01*
X72564517Y46502490D01*
X72703343Y46693567D01*
X72810568Y46904008D01*
X72883553Y47128632D01*
X72892172Y47183052D01*
X72920500Y47361903D01*
X72920500Y47598098D01*
X72883553Y47831369D01*
X72853702Y47923240D01*
X72818492Y48031605D01*
X74639500Y48031605D01*
X74639500Y46628396D01*
X74654699Y46474068D01*
X74654700Y46474066D01*
X74714768Y46276046D01*
X74812315Y46093550D01*
X74812317Y46093548D01*
X74943589Y45933590D01*
X75040209Y45854298D01*
X75103550Y45802315D01*
X75286046Y45704768D01*
X75484066Y45644700D01*
X75484065Y45644700D01*
X75522647Y45640900D01*
X75638392Y45629500D01*
X75638395Y45629500D01*
X77041605Y45629500D01*
X77041608Y45629500D01*
X77195934Y45644700D01*
X77393954Y45704768D01*
X77576450Y45802315D01*
X77736410Y45933590D01*
X77867685Y46093550D01*
X77965232Y46276046D01*
X78025300Y46474066D01*
X78034351Y46565962D01*
X94699500Y46565962D01*
X94699500Y46314038D01*
X94734422Y46093550D01*
X94738910Y46065215D01*
X94816760Y45825617D01*
X94895413Y45671253D01*
X94929198Y45604946D01*
X94931132Y45601152D01*
X95079201Y45397351D01*
X95079205Y45397346D01*
X95257345Y45219206D01*
X95257350Y45219202D01*
X95402405Y45113814D01*
X95461155Y45071130D01*
X95590487Y45005232D01*
X95685616Y44956761D01*
X95685618Y44956761D01*
X95685621Y44956759D01*
X95925215Y44878910D01*
X96174038Y44839500D01*
X96174039Y44839500D01*
X96425961Y44839500D01*
X96425962Y44839500D01*
X96674785Y44878910D01*
X96914379Y44956759D01*
X97138845Y45071130D01*
X97342656Y45219207D01*
X97520793Y45397344D01*
X97668870Y45601155D01*
X97783241Y45825621D01*
X97861090Y46065215D01*
X97900500Y46314038D01*
X97900500Y46565962D01*
X97861090Y46814785D01*
X97783241Y47054379D01*
X97783239Y47054382D01*
X97783239Y47054384D01*
X97741747Y47135816D01*
X97668870Y47278845D01*
X97608525Y47361903D01*
X97520798Y47482650D01*
X97520794Y47482655D01*
X97342654Y47660795D01*
X97342649Y47660799D01*
X97138848Y47808868D01*
X97138847Y47808869D01*
X97138845Y47808870D01*
X97051122Y47853567D01*
X96914383Y47923240D01*
X96674785Y48001090D01*
X96425962Y48040500D01*
X96174038Y48040500D01*
X96117897Y48031608D01*
X95925214Y48001090D01*
X95685616Y47923240D01*
X95461151Y47808868D01*
X95257350Y47660799D01*
X95257345Y47660795D01*
X95079205Y47482655D01*
X95079201Y47482650D01*
X94931132Y47278849D01*
X94816760Y47054384D01*
X94738910Y46814786D01*
X94738910Y46814785D01*
X94699500Y46565962D01*
X78034351Y46565962D01*
X78040500Y46628392D01*
X78040500Y48031608D01*
X78025300Y48185934D01*
X77965232Y48383954D01*
X77867685Y48566450D01*
X77803986Y48644068D01*
X77736410Y48726411D01*
X77576452Y48857683D01*
X77576453Y48857683D01*
X77576450Y48857685D01*
X77393954Y48955232D01*
X77195934Y49015300D01*
X77195932Y49015301D01*
X77195934Y49015301D01*
X77076805Y49027034D01*
X77041608Y49030500D01*
X75638392Y49030500D01*
X75600298Y49026749D01*
X75484067Y49015301D01*
X75286043Y48955231D01*
X75175898Y48896357D01*
X75103550Y48857685D01*
X75103548Y48857684D01*
X75103547Y48857683D01*
X74943589Y48726411D01*
X74812317Y48566453D01*
X74714769Y48383957D01*
X74654699Y48185933D01*
X74639500Y48031605D01*
X72818492Y48031605D01*
X72810568Y48055992D01*
X72810566Y48055995D01*
X72810566Y48055997D01*
X72744359Y48185934D01*
X72703343Y48266433D01*
X72564517Y48457510D01*
X72397510Y48624517D01*
X72206433Y48763343D01*
X71995996Y48870567D01*
X71771368Y48943554D01*
X71538097Y48980500D01*
X71538092Y48980500D01*
X71301908Y48980500D01*
X71301903Y48980500D01*
X71068631Y48943554D01*
X70844003Y48870567D01*
X70633566Y48763343D01*
X70562166Y48711467D01*
X70442490Y48624517D01*
X70442488Y48624515D01*
X70442487Y48624515D01*
X70275485Y48457513D01*
X70275485Y48457512D01*
X70275483Y48457510D01*
X70222041Y48383954D01*
X70136657Y48266434D01*
X70029433Y48055997D01*
X69956446Y47831369D01*
X69919500Y47598098D01*
X65300500Y47598098D01*
X65263553Y47831369D01*
X65198491Y48031608D01*
X65190568Y48055992D01*
X65190566Y48055995D01*
X65190566Y48055997D01*
X65124359Y48185934D01*
X65083343Y48266433D01*
X64944517Y48457510D01*
X64777510Y48624517D01*
X64586433Y48763343D01*
X64375996Y48870567D01*
X64151368Y48943554D01*
X63918097Y48980500D01*
X63918092Y48980500D01*
X63681908Y48980500D01*
X63681903Y48980500D01*
X63448631Y48943554D01*
X63224003Y48870567D01*
X63013566Y48763343D01*
X62942166Y48711467D01*
X62822490Y48624517D01*
X62822488Y48624515D01*
X62822487Y48624515D01*
X62655485Y48457513D01*
X62655485Y48457512D01*
X62655483Y48457510D01*
X62602041Y48383954D01*
X62516657Y48266434D01*
X62409433Y48055997D01*
X62336446Y47831369D01*
X62299500Y47598098D01*
X60220500Y47598098D01*
X60183553Y47831369D01*
X60118491Y48031608D01*
X60110568Y48055992D01*
X60110566Y48055995D01*
X60110566Y48055997D01*
X60044359Y48185934D01*
X60003343Y48266433D01*
X59864517Y48457510D01*
X59697510Y48624517D01*
X59506433Y48763343D01*
X59295996Y48870567D01*
X59071368Y48943554D01*
X58838097Y48980500D01*
X58838092Y48980500D01*
X58601908Y48980500D01*
X58601903Y48980500D01*
X58368631Y48943554D01*
X58144003Y48870567D01*
X57933566Y48763343D01*
X57862166Y48711467D01*
X57742490Y48624517D01*
X57742488Y48624515D01*
X57742487Y48624515D01*
X57575485Y48457513D01*
X57575485Y48457512D01*
X57575483Y48457510D01*
X57522041Y48383954D01*
X57436657Y48266434D01*
X57329433Y48055997D01*
X57256446Y47831369D01*
X57219500Y47598098D01*
X55140500Y47598098D01*
X55103553Y47831369D01*
X55038491Y48031608D01*
X55030568Y48055992D01*
X55030566Y48055995D01*
X55030566Y48055997D01*
X54964359Y48185934D01*
X54923343Y48266433D01*
X54784517Y48457510D01*
X54617510Y48624517D01*
X54426433Y48763343D01*
X54215996Y48870567D01*
X53991368Y48943554D01*
X53758097Y48980500D01*
X53758092Y48980500D01*
X53521908Y48980500D01*
X53521903Y48980500D01*
X53288631Y48943554D01*
X53064003Y48870567D01*
X52853566Y48763343D01*
X52782166Y48711467D01*
X52662490Y48624517D01*
X52662488Y48624515D01*
X52662487Y48624515D01*
X52495485Y48457513D01*
X52495485Y48457512D01*
X52495483Y48457510D01*
X52442041Y48383954D01*
X52356657Y48266434D01*
X52249433Y48055997D01*
X52176446Y47831369D01*
X52139500Y47598098D01*
X49552786Y47598098D01*
X49550273Y47602450D01*
X49550267Y47602458D01*
X49406593Y47789698D01*
X49406587Y47789705D01*
X49239704Y47956588D01*
X49239697Y47956594D01*
X49052454Y48100270D01*
X49052453Y48100271D01*
X49052450Y48100273D01*
X48970957Y48147323D01*
X48848056Y48218281D01*
X48848045Y48218286D01*
X48629993Y48308606D01*
X48402010Y48369694D01*
X48168020Y48400499D01*
X48168017Y48400500D01*
X48168011Y48400500D01*
X47931989Y48400500D01*
X47931983Y48400500D01*
X47931979Y48400499D01*
X47697989Y48369694D01*
X47470006Y48308606D01*
X47251954Y48218286D01*
X47251943Y48218281D01*
X47047545Y48100270D01*
X46860302Y47956594D01*
X46860295Y47956588D01*
X46693412Y47789705D01*
X46693406Y47789698D01*
X46549730Y47602455D01*
X46431719Y47398057D01*
X46431714Y47398046D01*
X46341394Y47179994D01*
X46280306Y46952011D01*
X46249501Y46718021D01*
X46249500Y46718005D01*
X46249500Y46481996D01*
X46249501Y46481980D01*
X46276612Y46276046D01*
X46280307Y46247986D01*
X46288317Y46218092D01*
X46341394Y46020007D01*
X46431714Y45801955D01*
X46431719Y45801944D01*
X46502677Y45679043D01*
X46549727Y45597550D01*
X46549729Y45597547D01*
X46549730Y45597546D01*
X46693406Y45410303D01*
X46693411Y45410297D01*
X46713179Y45390530D01*
X46746666Y45329208D01*
X46749500Y45302847D01*
X46749500Y33497154D01*
X46729815Y33430115D01*
X46713181Y33409473D01*
X46643412Y33339705D01*
X46643406Y33339698D01*
X46499730Y33152455D01*
X46381719Y32948057D01*
X46381714Y32948046D01*
X46291394Y32729994D01*
X46230306Y32502011D01*
X46199501Y32268021D01*
X46199500Y32268005D01*
X28004193Y32268005D01*
X28226883Y32360246D01*
X28556204Y32536271D01*
X28866685Y32743729D01*
X29155338Y32980619D01*
X29419381Y33244662D01*
X29643933Y33518281D01*
X29656267Y33533310D01*
X29656267Y33533311D01*
X29656271Y33533315D01*
X29863729Y33843796D01*
X30039754Y34173117D01*
X30182653Y34518106D01*
X30291049Y34875440D01*
X30363899Y35241678D01*
X30400500Y35613293D01*
X30400500Y35986707D01*
X30363899Y36358322D01*
X30291049Y36724560D01*
X30182653Y37081894D01*
X30039754Y37426883D01*
X29863729Y37756204D01*
X29656271Y38066685D01*
X29656267Y38066691D01*
X29419376Y38355344D01*
X29155343Y38619377D01*
X28866690Y38856268D01*
X28556210Y39063725D01*
X28556209Y39063726D01*
X28556204Y39063729D01*
X28556199Y39063732D01*
X28556192Y39063736D01*
X28226890Y39239750D01*
X28226883Y39239754D01*
X28226876Y39239757D01*
X27881895Y39382653D01*
X27625939Y39460296D01*
X27524560Y39491049D01*
X27524557Y39491050D01*
X27524556Y39491050D01*
X27158324Y39563899D01*
X27158311Y39563901D01*
X26877293Y39591578D01*
X26786707Y39600500D01*
X26413293Y39600500D01*
X26329514Y39592249D01*
X26041688Y39563901D01*
X26041675Y39563899D01*
X25675443Y39491050D01*
X25318104Y39382653D01*
X24973123Y39239757D01*
X24973109Y39239750D01*
X24643807Y39063736D01*
X24643789Y39063725D01*
X24333309Y38856268D01*
X24044656Y38619377D01*
X23780623Y38355344D01*
X23543732Y38066691D01*
X23336275Y37756211D01*
X23336264Y37756193D01*
X23160250Y37426891D01*
X23160243Y37426877D01*
X23017347Y37081896D01*
X22908950Y36724557D01*
X22836101Y36358325D01*
X22836099Y36358312D01*
X22799500Y35986704D01*
X5150500Y35986704D01*
X5150500Y36168011D01*
X5119693Y36402014D01*
X5058606Y36629993D01*
X4968284Y36848049D01*
X4968282Y36848052D01*
X4968280Y36848057D01*
X4926118Y36921082D01*
X4850273Y37052450D01*
X4791001Y37129694D01*
X4706593Y37239698D01*
X4706587Y37239705D01*
X4539704Y37406588D01*
X4539697Y37406594D01*
X4352454Y37550270D01*
X4352453Y37550271D01*
X4352450Y37550273D01*
X4270957Y37597323D01*
X4148056Y37668281D01*
X4148045Y37668286D01*
X3929993Y37758606D01*
X3702010Y37819694D01*
X3468020Y37850499D01*
X3468017Y37850500D01*
X3468011Y37850500D01*
X3231989Y37850500D01*
X3231983Y37850500D01*
X3231979Y37850499D01*
X2997989Y37819694D01*
X2770006Y37758606D01*
X2551954Y37668286D01*
X2551943Y37668281D01*
X2347545Y37550270D01*
X2160302Y37406594D01*
X2160295Y37406588D01*
X1993412Y37239705D01*
X1993406Y37239698D01*
X1849730Y37052455D01*
X1731719Y36848057D01*
X1731714Y36848046D01*
X1641394Y36629994D01*
X1580306Y36402011D01*
X1549501Y36168021D01*
X1549500Y36168005D01*
X32482Y36168005D01*
X32480Y36172008D01*
X29201Y42725962D01*
X6699500Y42725962D01*
X6699500Y42474039D01*
X6738910Y42225215D01*
X6816760Y41985617D01*
X6837053Y41945791D01*
X6923314Y41776494D01*
X6931132Y41761152D01*
X7079201Y41557351D01*
X7079205Y41557346D01*
X7257345Y41379206D01*
X7257350Y41379202D01*
X7421277Y41260103D01*
X7461155Y41231130D01*
X7601030Y41159860D01*
X7685616Y41116761D01*
X7685618Y41116761D01*
X7685621Y41116759D01*
X7925215Y41038910D01*
X8174038Y40999500D01*
X8174039Y40999500D01*
X8425961Y40999500D01*
X8425962Y40999500D01*
X8674785Y41038910D01*
X8914379Y41116759D01*
X9138845Y41231130D01*
X9342656Y41379207D01*
X9520793Y41557344D01*
X9668870Y41761155D01*
X9783241Y41985621D01*
X9861090Y42225215D01*
X9900500Y42474038D01*
X9900500Y42725962D01*
X9861090Y42974785D01*
X9783241Y43214379D01*
X9783239Y43214382D01*
X9783239Y43214384D01*
X9741435Y43296428D01*
X9668870Y43438845D01*
X9592829Y43543507D01*
X9520798Y43642650D01*
X9520794Y43642655D01*
X9342654Y43820795D01*
X9342649Y43820799D01*
X9138848Y43968868D01*
X9138847Y43968869D01*
X9138845Y43968870D01*
X9068747Y44004587D01*
X8914383Y44083240D01*
X8674785Y44161090D01*
X8425962Y44200500D01*
X8174038Y44200500D01*
X8049626Y44180795D01*
X7925214Y44161090D01*
X7685616Y44083240D01*
X7461151Y43968868D01*
X7257350Y43820799D01*
X7257345Y43820795D01*
X7079205Y43642655D01*
X7079201Y43642650D01*
X6931132Y43438849D01*
X6816760Y43214384D01*
X6738910Y42974786D01*
X6699500Y42725962D01*
X29201Y42725962D01*
X29199Y42730772D01*
X26118Y48889632D01*
X25362Y50401605D01*
X5999500Y50401605D01*
X5999500Y48798396D01*
X6014699Y48644068D01*
X6038243Y48566453D01*
X6074768Y48446046D01*
X6172315Y48263550D01*
X6172317Y48263548D01*
X6303589Y48103590D01*
X6366185Y48052220D01*
X6463550Y47972315D01*
X6646046Y47874768D01*
X6844066Y47814700D01*
X6844065Y47814700D01*
X6882647Y47810900D01*
X6998392Y47799500D01*
X6998395Y47799500D01*
X8601605Y47799500D01*
X8601608Y47799500D01*
X8755934Y47814700D01*
X8953954Y47874768D01*
X9136450Y47972315D01*
X9296410Y48103590D01*
X9427685Y48263550D01*
X9525232Y48446046D01*
X9585300Y48644066D01*
X9600500Y48798392D01*
X9600500Y50401608D01*
X9585300Y50555934D01*
X9525232Y50753954D01*
X9427685Y50936450D01*
X9316304Y51072169D01*
X9316303Y51072171D01*
X9296412Y51096409D01*
X9236031Y51145962D01*
X10699500Y51145962D01*
X10699500Y50894039D01*
X10738910Y50645215D01*
X10816760Y50405617D01*
X10885145Y50271406D01*
X10914542Y50213710D01*
X10931132Y50181152D01*
X11079201Y49977351D01*
X11079205Y49977346D01*
X11257345Y49799206D01*
X11257350Y49799202D01*
X11394637Y49699458D01*
X11461155Y49651130D01*
X11604184Y49578253D01*
X11685616Y49536761D01*
X11685618Y49536761D01*
X11685621Y49536759D01*
X11925215Y49458910D01*
X12174038Y49419500D01*
X12174039Y49419500D01*
X12425961Y49419500D01*
X12425962Y49419500D01*
X12674785Y49458910D01*
X12914379Y49536759D01*
X13138845Y49651130D01*
X13342656Y49799207D01*
X13520793Y49977344D01*
X13668870Y50181155D01*
X13783241Y50405621D01*
X13861090Y50645215D01*
X13900500Y50894038D01*
X13900500Y51145962D01*
X14699500Y51145962D01*
X14699500Y50894039D01*
X14738910Y50645215D01*
X14816760Y50405617D01*
X14885145Y50271406D01*
X14914542Y50213710D01*
X14931132Y50181152D01*
X15079201Y49977351D01*
X15079205Y49977346D01*
X15257345Y49799206D01*
X15257350Y49799202D01*
X15394637Y49699458D01*
X15461155Y49651130D01*
X15604184Y49578253D01*
X15685616Y49536761D01*
X15685618Y49536761D01*
X15685621Y49536759D01*
X15811830Y49495751D01*
X15925208Y49458912D01*
X15925209Y49458912D01*
X15925215Y49458910D01*
X15940382Y49456508D01*
X16003515Y49426580D01*
X16040447Y49367269D01*
X16039450Y49297406D01*
X16035544Y49286583D01*
X15991395Y49179997D01*
X15930306Y48952011D01*
X15899501Y48718021D01*
X15899500Y48718005D01*
X15899500Y48481996D01*
X15899501Y48481980D01*
X15927731Y48267548D01*
X15930307Y48247986D01*
X15946934Y48185934D01*
X15991394Y48020007D01*
X16081714Y47801955D01*
X16081719Y47801944D01*
X16123872Y47728934D01*
X16199727Y47597550D01*
X16199729Y47597547D01*
X16199730Y47597546D01*
X16343405Y47410304D01*
X16343407Y47410302D01*
X16343408Y47410301D01*
X16463182Y47290527D01*
X16496666Y47229206D01*
X16499500Y47202847D01*
X16499500Y42097152D01*
X16479815Y42030113D01*
X16462678Y42009955D01*
X16463171Y42009462D01*
X16293411Y41839704D01*
X16293406Y41839698D01*
X16149730Y41652455D01*
X16031719Y41448057D01*
X16031714Y41448046D01*
X15941394Y41229994D01*
X15880306Y41002011D01*
X15849501Y40768021D01*
X15849500Y40768005D01*
X15849500Y40531996D01*
X15849501Y40531980D01*
X15880306Y40297990D01*
X15941394Y40070007D01*
X16031714Y39851955D01*
X16031719Y39851944D01*
X16073176Y39780140D01*
X16149727Y39647550D01*
X16149729Y39647547D01*
X16149730Y39647546D01*
X16293406Y39460303D01*
X16293412Y39460296D01*
X16460295Y39293413D01*
X16460302Y39293407D01*
X16570306Y39208999D01*
X16647550Y39149727D01*
X16778918Y39073882D01*
X16851943Y39031720D01*
X16851948Y39031718D01*
X16851951Y39031716D01*
X17070007Y38941394D01*
X17297986Y38880307D01*
X17531989Y38849500D01*
X17531996Y38849500D01*
X17768004Y38849500D01*
X17768011Y38849500D01*
X18002014Y38880307D01*
X18229993Y38941394D01*
X18448049Y39031716D01*
X18652450Y39149727D01*
X18839699Y39293408D01*
X19006592Y39460301D01*
X19150273Y39647550D01*
X19268284Y39851951D01*
X19358606Y40070007D01*
X19419693Y40297986D01*
X19450500Y40531989D01*
X19450500Y40768011D01*
X19419693Y41002014D01*
X19358606Y41229993D01*
X19268284Y41448049D01*
X19268282Y41448052D01*
X19268280Y41448057D01*
X19205178Y41557351D01*
X19150273Y41652450D01*
X19006592Y41839699D01*
X19006587Y41839705D01*
X18936819Y41909473D01*
X18903334Y41970796D01*
X18900500Y41997154D01*
X18900500Y47202847D01*
X18920185Y47269886D01*
X18936814Y47290524D01*
X19056592Y47410301D01*
X19200273Y47597550D01*
X19318284Y47801951D01*
X19408606Y48020007D01*
X19469693Y48247986D01*
X19500500Y48481989D01*
X19500500Y48718011D01*
X19469693Y48952014D01*
X19408606Y49179993D01*
X19318284Y49398049D01*
X19318282Y49398052D01*
X19318280Y49398057D01*
X19261879Y49495745D01*
X19200273Y49602450D01*
X19107293Y49723624D01*
X19056593Y49789698D01*
X19056587Y49789705D01*
X18889704Y49956588D01*
X18889697Y49956594D01*
X18702454Y50100270D01*
X18702453Y50100271D01*
X18702450Y50100273D01*
X18620957Y50147323D01*
X18498056Y50218281D01*
X18498045Y50218286D01*
X18279993Y50308606D01*
X18052010Y50369694D01*
X17930889Y50385640D01*
X17866993Y50413907D01*
X17828522Y50472232D01*
X17827691Y50542096D01*
X17829133Y50546863D01*
X17861090Y50645215D01*
X17900500Y50894038D01*
X17900500Y51145962D01*
X17861090Y51394785D01*
X17783241Y51634379D01*
X17783239Y51634382D01*
X17783239Y51634384D01*
X17668868Y51858849D01*
X17620835Y51924961D01*
X20099500Y51924961D01*
X20099500Y50435040D01*
X20114630Y50300751D01*
X20114631Y50300746D01*
X20174211Y50130477D01*
X20270184Y49977738D01*
X20397740Y49850182D01*
X20444431Y49820845D01*
X20490723Y49768511D01*
X20501372Y49699458D01*
X20472997Y49635609D01*
X20466147Y49628176D01*
X20455488Y49617517D01*
X20455485Y49617513D01*
X20455483Y49617510D01*
X20404097Y49546783D01*
X20316657Y49426434D01*
X20209433Y49215997D01*
X20136446Y48991369D01*
X20099500Y48758098D01*
X20099500Y48521903D01*
X20136446Y48288632D01*
X20209433Y48064004D01*
X20316657Y47853567D01*
X20455483Y47662490D01*
X20622490Y47495483D01*
X20657127Y47470317D01*
X20699792Y47414987D01*
X20705771Y47345374D01*
X20673165Y47283579D01*
X20657130Y47269685D01*
X20639365Y47256778D01*
X20622488Y47244516D01*
X20455485Y47077513D01*
X20455485Y47077512D01*
X20455483Y47077510D01*
X20395862Y46995450D01*
X20316657Y46886434D01*
X20209433Y46675997D01*
X20136446Y46451369D01*
X20099500Y46218098D01*
X20099500Y45981903D01*
X20136446Y45748632D01*
X20209433Y45524004D01*
X20316657Y45313567D01*
X20455483Y45122490D01*
X20622490Y44955483D01*
X20813567Y44816657D01*
X20912991Y44765998D01*
X21024003Y44709434D01*
X21024005Y44709434D01*
X21024008Y44709432D01*
X21144412Y44670311D01*
X21248631Y44636447D01*
X21481903Y44599500D01*
X21481908Y44599500D01*
X22918097Y44599500D01*
X23151368Y44636447D01*
X23375992Y44709432D01*
X23586433Y44816657D01*
X23777510Y44955483D01*
X23944517Y45122490D01*
X24083343Y45313567D01*
X24190568Y45524008D01*
X24263553Y45748632D01*
X24271998Y45801951D01*
X24300500Y45981903D01*
X24300500Y46218098D01*
X24263553Y46451369D01*
X24226160Y46566450D01*
X24215291Y46599903D01*
X41949500Y46599903D01*
X41949500Y46340098D01*
X41990140Y46083507D01*
X42070422Y45836424D01*
X42188368Y45604946D01*
X42341066Y45394775D01*
X42341071Y45394769D01*
X42448159Y45287681D01*
X42481644Y45226358D01*
X42476660Y45156666D01*
X42448159Y45112319D01*
X42341071Y45005232D01*
X42341066Y45005226D01*
X42188368Y44795055D01*
X42070422Y44563577D01*
X41990140Y44316494D01*
X41949500Y44059903D01*
X41949500Y43800098D01*
X41990140Y43543507D01*
X42070422Y43296424D01*
X42188368Y43064946D01*
X42341066Y42854775D01*
X42341071Y42854769D01*
X42448159Y42747681D01*
X42481644Y42686358D01*
X42476660Y42616666D01*
X42448159Y42572319D01*
X42341071Y42465232D01*
X42341066Y42465226D01*
X42188368Y42255055D01*
X42070422Y42023577D01*
X41990140Y41776494D01*
X41949500Y41519903D01*
X41949500Y41260098D01*
X41990140Y41003507D01*
X42070422Y40756424D01*
X42137272Y40625226D01*
X42184775Y40531996D01*
X42188368Y40524946D01*
X42268211Y40415051D01*
X42341069Y40314771D01*
X42524771Y40131069D01*
X42734949Y39978366D01*
X42882445Y39903213D01*
X42966423Y39860423D01*
X42966425Y39860423D01*
X42966428Y39860421D01*
X43213507Y39780140D01*
X43345706Y39759203D01*
X43470098Y39739500D01*
X43470103Y39739500D01*
X43729902Y39739500D01*
X43843298Y39757461D01*
X43986493Y39780140D01*
X44233572Y39860421D01*
X44465051Y39978366D01*
X44675229Y40131069D01*
X44858931Y40314771D01*
X45011634Y40524949D01*
X45129579Y40756428D01*
X45209860Y41003507D01*
X45234623Y41159860D01*
X45250500Y41260098D01*
X45250500Y41519903D01*
X45228947Y41655979D01*
X45209860Y41776493D01*
X45129579Y42023572D01*
X45129577Y42023575D01*
X45129577Y42023577D01*
X45026836Y42225215D01*
X45011634Y42255051D01*
X44858931Y42465229D01*
X44751841Y42572319D01*
X44718356Y42633642D01*
X44723340Y42703334D01*
X44751841Y42747681D01*
X44858931Y42854771D01*
X45011634Y43064949D01*
X45129579Y43296428D01*
X45209860Y43543507D01*
X45232539Y43686702D01*
X45250500Y43800098D01*
X45250500Y44059903D01*
X45228231Y44200500D01*
X45209860Y44316493D01*
X45129579Y44563572D01*
X45129577Y44563575D01*
X45129577Y44563577D01*
X45055258Y44709434D01*
X45011634Y44795051D01*
X44858931Y45005229D01*
X44751841Y45112319D01*
X44718356Y45173642D01*
X44723340Y45243334D01*
X44751841Y45287681D01*
X44793368Y45329208D01*
X44858931Y45394771D01*
X45011634Y45604949D01*
X45129579Y45836428D01*
X45209860Y46083507D01*
X45232539Y46226702D01*
X45250500Y46340098D01*
X45250500Y46599903D01*
X45228947Y46735979D01*
X45209860Y46856493D01*
X45129579Y47103572D01*
X45129577Y47103575D01*
X45129577Y47103577D01*
X45065565Y47229206D01*
X45011634Y47335051D01*
X44858931Y47545229D01*
X44675229Y47728931D01*
X44675225Y47728934D01*
X44465054Y47881632D01*
X44465053Y47881633D01*
X44465051Y47881634D01*
X44383393Y47923241D01*
X44233576Y47999578D01*
X43986493Y48079860D01*
X43729902Y48120500D01*
X43729897Y48120500D01*
X43470103Y48120500D01*
X43470098Y48120500D01*
X43213506Y48079860D01*
X42966423Y47999578D01*
X42734945Y47881632D01*
X42524774Y47728934D01*
X42524768Y47728929D01*
X42341071Y47545232D01*
X42341066Y47545226D01*
X42188368Y47335055D01*
X42070422Y47103577D01*
X41990140Y46856494D01*
X41949500Y46599903D01*
X24215291Y46599903D01*
X24190568Y46675992D01*
X24083343Y46886433D01*
X23944517Y47077510D01*
X23777510Y47244517D01*
X23742872Y47269683D01*
X23700207Y47325011D01*
X23694228Y47394625D01*
X23726833Y47456420D01*
X23742873Y47470318D01*
X23777510Y47495483D01*
X23944517Y47662490D01*
X24083343Y47853567D01*
X24190568Y48064008D01*
X24263553Y48288632D01*
X24276392Y48369694D01*
X24300500Y48521903D01*
X24300500Y48758098D01*
X24263553Y48991369D01*
X24202264Y49179994D01*
X24190568Y49215992D01*
X24190566Y49215995D01*
X24190566Y49215997D01*
X24124526Y49345607D01*
X24083343Y49426433D01*
X23944517Y49617510D01*
X23933858Y49628169D01*
X23900373Y49689492D01*
X23905357Y49759184D01*
X23947229Y49815117D01*
X23955559Y49820839D01*
X24002262Y49850184D01*
X24129816Y49977738D01*
X24225789Y50130478D01*
X24285368Y50300745D01*
X24300500Y50435046D01*
X24300500Y51419961D01*
X35849500Y51419961D01*
X35849500Y49630040D01*
X35864630Y49495751D01*
X35864631Y49495746D01*
X35924211Y49325477D01*
X35993006Y49215992D01*
X36020184Y49172738D01*
X36147738Y49045184D01*
X36195298Y49015300D01*
X36296021Y48952011D01*
X36300478Y48949211D01*
X36348370Y48932453D01*
X36470745Y48889632D01*
X36470750Y48889631D01*
X36561246Y48879435D01*
X36605040Y48874501D01*
X36605043Y48874500D01*
X36605046Y48874500D01*
X38394957Y48874500D01*
X38394958Y48874501D01*
X38462104Y48882066D01*
X38529249Y48889631D01*
X38529252Y48889632D01*
X38529255Y48889632D01*
X38699522Y48949211D01*
X38852262Y49045184D01*
X38979816Y49172738D01*
X39060789Y49301605D01*
X78499500Y49301605D01*
X78499500Y47898396D01*
X78514699Y47744068D01*
X78539446Y47662489D01*
X78574768Y47546046D01*
X78672315Y47363550D01*
X78703943Y47325011D01*
X78803589Y47203590D01*
X78894927Y47128632D01*
X78963550Y47072315D01*
X79146046Y46974768D01*
X79344066Y46914700D01*
X79344065Y46914700D01*
X79382647Y46910900D01*
X79498392Y46899500D01*
X79498395Y46899500D01*
X80901605Y46899500D01*
X80901608Y46899500D01*
X81055934Y46914700D01*
X81253954Y46974768D01*
X81436450Y47072315D01*
X81596410Y47203590D01*
X81727685Y47363550D01*
X81825232Y47546046D01*
X81885300Y47744066D01*
X81900500Y47898392D01*
X81900500Y48711451D01*
X91199500Y48711451D01*
X91199500Y48488550D01*
X91199501Y48488534D01*
X91228594Y48267548D01*
X91228595Y48267543D01*
X91228596Y48267537D01*
X91285278Y48055997D01*
X91286290Y48052220D01*
X91286293Y48052210D01*
X91359792Y47874768D01*
X91371595Y47846274D01*
X91483052Y47653226D01*
X91483057Y47653220D01*
X91483058Y47653218D01*
X91618751Y47476378D01*
X91618757Y47476371D01*
X91776370Y47318758D01*
X91776376Y47318753D01*
X91953226Y47183052D01*
X92146274Y47071595D01*
X92352219Y46986290D01*
X92567537Y46928596D01*
X92788543Y46899500D01*
X92788550Y46899500D01*
X93011450Y46899500D01*
X93011457Y46899500D01*
X93232463Y46928596D01*
X93447781Y46986290D01*
X93653726Y47071595D01*
X93846774Y47183052D01*
X94023624Y47318753D01*
X94181247Y47476376D01*
X94316948Y47653226D01*
X94428405Y47846274D01*
X94513710Y48052219D01*
X94571404Y48267537D01*
X94600500Y48488543D01*
X94600500Y48711457D01*
X94571404Y48932463D01*
X94513710Y49147781D01*
X94503372Y49172738D01*
X94440106Y49325477D01*
X94428405Y49353726D01*
X94316948Y49546774D01*
X94181247Y49723624D01*
X94181242Y49723630D01*
X94023629Y49881243D01*
X94023622Y49881249D01*
X93846782Y50016942D01*
X93846780Y50016943D01*
X93846774Y50016948D01*
X93653726Y50128405D01*
X93653722Y50128407D01*
X93447790Y50213707D01*
X93447783Y50213709D01*
X93447781Y50213710D01*
X93232463Y50271404D01*
X93232457Y50271405D01*
X93232452Y50271406D01*
X93011466Y50300499D01*
X93011463Y50300500D01*
X93011457Y50300500D01*
X92788543Y50300500D01*
X92788537Y50300500D01*
X92788533Y50300499D01*
X92567547Y50271406D01*
X92567540Y50271405D01*
X92567537Y50271404D01*
X92369278Y50218281D01*
X92352219Y50213710D01*
X92352209Y50213707D01*
X92146277Y50128407D01*
X92146273Y50128405D01*
X91953226Y50016948D01*
X91953217Y50016942D01*
X91776377Y49881249D01*
X91776370Y49881243D01*
X91618757Y49723630D01*
X91618751Y49723623D01*
X91483058Y49546783D01*
X91483052Y49546774D01*
X91371595Y49353727D01*
X91371593Y49353723D01*
X91286293Y49147791D01*
X91286290Y49147781D01*
X91241468Y48980500D01*
X91228597Y48932466D01*
X91228594Y48932453D01*
X91199501Y48711467D01*
X91199500Y48711451D01*
X81900500Y48711451D01*
X81900500Y49301608D01*
X81885300Y49455934D01*
X81825232Y49653954D01*
X81727685Y49836450D01*
X81629086Y49956594D01*
X81596410Y49996411D01*
X81436452Y50127683D01*
X81436453Y50127683D01*
X81436450Y50127685D01*
X81253954Y50225232D01*
X81055934Y50285300D01*
X81055932Y50285301D01*
X81055934Y50285301D01*
X80936805Y50297034D01*
X80901608Y50300500D01*
X79498392Y50300500D01*
X79460298Y50296749D01*
X79344067Y50285301D01*
X79146043Y50225231D01*
X79124484Y50213707D01*
X78963550Y50127685D01*
X78963548Y50127684D01*
X78963547Y50127683D01*
X78803589Y49996411D01*
X78683586Y49850184D01*
X78672315Y49836450D01*
X78647329Y49789705D01*
X78574769Y49653957D01*
X78514699Y49455933D01*
X78499500Y49301605D01*
X39060789Y49301605D01*
X39075789Y49325478D01*
X39082832Y49345605D01*
X39082833Y49345607D01*
X39135366Y49495738D01*
X39135369Y49495751D01*
X39147391Y49602455D01*
X39150500Y49630046D01*
X39150500Y51419954D01*
X39135368Y51554255D01*
X39075789Y51724522D01*
X38979816Y51877262D01*
X38852262Y52004816D01*
X38760212Y52062655D01*
X38699523Y52100789D01*
X38529254Y52160369D01*
X38529249Y52160370D01*
X38394960Y52175500D01*
X38394954Y52175500D01*
X36605046Y52175500D01*
X36605039Y52175500D01*
X36470750Y52160370D01*
X36470745Y52160369D01*
X36300476Y52100789D01*
X36147737Y52004816D01*
X36020184Y51877263D01*
X35924211Y51724524D01*
X35864631Y51554255D01*
X35864630Y51554250D01*
X35849500Y51419961D01*
X24300500Y51419961D01*
X24300500Y51924954D01*
X24285368Y52059255D01*
X24225789Y52229522D01*
X24129816Y52382262D01*
X24002262Y52509816D01*
X23849523Y52605789D01*
X23679254Y52665369D01*
X23679249Y52665370D01*
X23544960Y52680500D01*
X23544954Y52680500D01*
X20855046Y52680500D01*
X20855039Y52680500D01*
X20720750Y52665370D01*
X20720745Y52665369D01*
X20550476Y52605789D01*
X20397737Y52509816D01*
X20270184Y52382263D01*
X20174211Y52229524D01*
X20114631Y52059255D01*
X20114630Y52059250D01*
X20099500Y51924961D01*
X17620835Y51924961D01*
X17520798Y52062650D01*
X17520794Y52062655D01*
X17342654Y52240795D01*
X17342649Y52240799D01*
X17138848Y52388868D01*
X17138847Y52388869D01*
X17138845Y52388870D01*
X17068747Y52424587D01*
X16914383Y52503240D01*
X16674785Y52581090D01*
X16425962Y52620500D01*
X16174038Y52620500D01*
X16081157Y52605789D01*
X15925214Y52581090D01*
X15685616Y52503240D01*
X15461151Y52388868D01*
X15257350Y52240799D01*
X15257345Y52240795D01*
X15079205Y52062655D01*
X15079201Y52062650D01*
X14931132Y51858849D01*
X14816760Y51634384D01*
X14738910Y51394786D01*
X14699500Y51145962D01*
X13900500Y51145962D01*
X13861090Y51394785D01*
X13783241Y51634379D01*
X13783239Y51634382D01*
X13783239Y51634384D01*
X13737310Y51724524D01*
X13668870Y51858845D01*
X13620834Y51924961D01*
X13520798Y52062650D01*
X13520794Y52062655D01*
X13342654Y52240795D01*
X13342649Y52240799D01*
X13138848Y52388868D01*
X13138847Y52388869D01*
X13138845Y52388870D01*
X13068747Y52424587D01*
X12914383Y52503240D01*
X12674785Y52581090D01*
X12425962Y52620500D01*
X12174038Y52620500D01*
X12081157Y52605789D01*
X11925214Y52581090D01*
X11685616Y52503240D01*
X11461151Y52388868D01*
X11257350Y52240799D01*
X11257345Y52240795D01*
X11079205Y52062655D01*
X11079201Y52062650D01*
X10931132Y51858849D01*
X10816760Y51634384D01*
X10738910Y51394786D01*
X10699500Y51145962D01*
X9236031Y51145962D01*
X9136452Y51227683D01*
X9136453Y51227683D01*
X9136450Y51227685D01*
X8953954Y51325232D01*
X8755934Y51385300D01*
X8755932Y51385301D01*
X8755934Y51385301D01*
X8636805Y51397034D01*
X8601608Y51400500D01*
X6998392Y51400500D01*
X6960298Y51396749D01*
X6844067Y51385301D01*
X6646043Y51325231D01*
X6535898Y51266357D01*
X6463550Y51227685D01*
X6463548Y51227684D01*
X6463547Y51227683D01*
X6303589Y51096411D01*
X6172317Y50936453D01*
X6074769Y50753957D01*
X6014699Y50555933D01*
X6006456Y50472232D01*
X5999896Y50405621D01*
X5999500Y50401605D01*
X25362Y50401605D01*
X24371Y52382263D01*
X22952Y55218098D01*
X52139500Y55218098D01*
X52139500Y54981903D01*
X52176446Y54748632D01*
X52249433Y54524004D01*
X52335522Y54355046D01*
X52356657Y54313567D01*
X52495483Y54122490D01*
X52662490Y53955483D01*
X52853567Y53816657D01*
X52952991Y53765998D01*
X53064003Y53709434D01*
X53064005Y53709434D01*
X53064008Y53709432D01*
X53172404Y53674212D01*
X53288631Y53636447D01*
X53521903Y53599500D01*
X53521908Y53599500D01*
X53758097Y53599500D01*
X53991368Y53636447D01*
X54215992Y53709432D01*
X54426433Y53816657D01*
X54617510Y53955483D01*
X54784517Y54122490D01*
X54923343Y54313567D01*
X55030568Y54524008D01*
X55103553Y54748632D01*
X55140500Y54981903D01*
X55140500Y55218098D01*
X57219500Y55218098D01*
X57219500Y54981903D01*
X57256446Y54748632D01*
X57329433Y54524004D01*
X57415522Y54355046D01*
X57436657Y54313567D01*
X57575483Y54122490D01*
X57742490Y53955483D01*
X57933567Y53816657D01*
X58032991Y53765998D01*
X58144003Y53709434D01*
X58144005Y53709434D01*
X58144008Y53709432D01*
X58252404Y53674212D01*
X58368631Y53636447D01*
X58601903Y53599500D01*
X58601908Y53599500D01*
X58838097Y53599500D01*
X59071368Y53636447D01*
X59295992Y53709432D01*
X59506433Y53816657D01*
X59697510Y53955483D01*
X59864517Y54122490D01*
X60003343Y54313567D01*
X60110568Y54524008D01*
X60183553Y54748632D01*
X60220500Y54981903D01*
X60220500Y55218098D01*
X62299500Y55218098D01*
X62299500Y54981903D01*
X62336446Y54748632D01*
X62409433Y54524004D01*
X62495522Y54355046D01*
X62516657Y54313567D01*
X62655483Y54122490D01*
X62822490Y53955483D01*
X63013567Y53816657D01*
X63112991Y53765998D01*
X63224003Y53709434D01*
X63224005Y53709434D01*
X63224008Y53709432D01*
X63332404Y53674212D01*
X63448631Y53636447D01*
X63681903Y53599500D01*
X63681908Y53599500D01*
X63918097Y53599500D01*
X64151368Y53636447D01*
X64375992Y53709432D01*
X64586433Y53816657D01*
X64777510Y53955483D01*
X64944517Y54122490D01*
X65083343Y54313567D01*
X65190568Y54524008D01*
X65263553Y54748632D01*
X65300500Y54981903D01*
X65300500Y55218098D01*
X65263553Y55451369D01*
X65190566Y55675997D01*
X65131389Y55792138D01*
X65112492Y55829225D01*
X65104474Y55844961D01*
X69919500Y55844961D01*
X69919500Y54355040D01*
X69934630Y54220751D01*
X69934631Y54220746D01*
X69994211Y54050477D01*
X70053898Y53955486D01*
X70090184Y53897738D01*
X70217738Y53770184D01*
X70370478Y53674211D01*
X70540745Y53614632D01*
X70540750Y53614631D01*
X70631246Y53604435D01*
X70675040Y53599501D01*
X70675043Y53599500D01*
X70675046Y53599500D01*
X72164957Y53599500D01*
X72164958Y53599501D01*
X72232104Y53607066D01*
X72299249Y53614631D01*
X72299252Y53614632D01*
X72299255Y53614632D01*
X72469522Y53674211D01*
X72622262Y53770184D01*
X72749816Y53897738D01*
X72845789Y54050478D01*
X72905368Y54220745D01*
X72920500Y54355046D01*
X72920500Y55844954D01*
X72915565Y55888754D01*
X72905369Y55979250D01*
X72905368Y55979255D01*
X72852648Y56129919D01*
X72845789Y56149522D01*
X72749816Y56302262D01*
X72622262Y56429816D01*
X72469523Y56525789D01*
X72299254Y56585369D01*
X72299249Y56585370D01*
X72164960Y56600500D01*
X72164954Y56600500D01*
X70675046Y56600500D01*
X70675039Y56600500D01*
X70540750Y56585370D01*
X70540745Y56585369D01*
X70370476Y56525789D01*
X70217737Y56429816D01*
X70090184Y56302263D01*
X69994211Y56149524D01*
X69934631Y55979255D01*
X69934630Y55979250D01*
X69919500Y55844961D01*
X65104474Y55844961D01*
X65083343Y55886433D01*
X64944517Y56077510D01*
X64777510Y56244517D01*
X64586433Y56383343D01*
X64495225Y56429816D01*
X64375996Y56490567D01*
X64151368Y56563554D01*
X63918097Y56600500D01*
X63918092Y56600500D01*
X63681908Y56600500D01*
X63681903Y56600500D01*
X63448631Y56563554D01*
X63224003Y56490567D01*
X63013566Y56383343D01*
X62936510Y56327358D01*
X62822490Y56244517D01*
X62822488Y56244515D01*
X62822487Y56244515D01*
X62655485Y56077513D01*
X62655485Y56077512D01*
X62655483Y56077510D01*
X62595862Y55995450D01*
X62516657Y55886434D01*
X62409433Y55675997D01*
X62336446Y55451369D01*
X62299500Y55218098D01*
X60220500Y55218098D01*
X60183553Y55451369D01*
X60110566Y55675997D01*
X60040302Y55813897D01*
X60003343Y55886433D01*
X59864517Y56077510D01*
X59697510Y56244517D01*
X59506433Y56383343D01*
X59415225Y56429816D01*
X59295996Y56490567D01*
X59071368Y56563554D01*
X58838097Y56600500D01*
X58838092Y56600500D01*
X58601908Y56600500D01*
X58601903Y56600500D01*
X58368631Y56563554D01*
X58144003Y56490567D01*
X57933566Y56383343D01*
X57856510Y56327358D01*
X57742490Y56244517D01*
X57742488Y56244515D01*
X57742487Y56244515D01*
X57575485Y56077513D01*
X57575485Y56077512D01*
X57575483Y56077510D01*
X57515862Y55995450D01*
X57436657Y55886434D01*
X57329433Y55675997D01*
X57256446Y55451369D01*
X57219500Y55218098D01*
X55140500Y55218098D01*
X55103553Y55451369D01*
X55030566Y55675997D01*
X54960302Y55813897D01*
X54923343Y55886433D01*
X54784517Y56077510D01*
X54617510Y56244517D01*
X54426433Y56383343D01*
X54335225Y56429816D01*
X54215996Y56490567D01*
X53991368Y56563554D01*
X53758097Y56600500D01*
X53758092Y56600500D01*
X53521908Y56600500D01*
X53521903Y56600500D01*
X53288631Y56563554D01*
X53064003Y56490567D01*
X52853566Y56383343D01*
X52776510Y56327358D01*
X52662490Y56244517D01*
X52662488Y56244515D01*
X52662487Y56244515D01*
X52495485Y56077513D01*
X52495485Y56077512D01*
X52495483Y56077510D01*
X52435862Y55995450D01*
X52356657Y55886434D01*
X52249433Y55675997D01*
X52176446Y55451369D01*
X52139500Y55218098D01*
X22952Y55218098D01*
X22950Y55222902D01*
X19907Y61305962D01*
X14699500Y61305962D01*
X14699500Y61054038D01*
X14711736Y60976783D01*
X14738910Y60805215D01*
X14816760Y60565617D01*
X14931132Y60341152D01*
X15079201Y60137351D01*
X15079205Y60137346D01*
X15257345Y59959206D01*
X15257350Y59959202D01*
X15313916Y59918105D01*
X15461155Y59811130D01*
X15604184Y59738253D01*
X15685616Y59696761D01*
X15685618Y59696761D01*
X15685621Y59696759D01*
X15925215Y59618910D01*
X16174038Y59579500D01*
X16174039Y59579500D01*
X16425961Y59579500D01*
X16425962Y59579500D01*
X16674785Y59618910D01*
X16914379Y59696759D01*
X17138845Y59811130D01*
X17342656Y59959207D01*
X17520793Y60137344D01*
X17668870Y60341155D01*
X17783241Y60565621D01*
X17861090Y60805215D01*
X17900500Y61054038D01*
X17900500Y61305962D01*
X17887712Y61386704D01*
X22799500Y61386704D01*
X22799500Y61013297D01*
X22836099Y60641689D01*
X22836101Y60641676D01*
X22908950Y60275444D01*
X23017347Y59918105D01*
X23160243Y59573124D01*
X23160250Y59573110D01*
X23336264Y59243808D01*
X23336275Y59243790D01*
X23543732Y58933310D01*
X23780623Y58644657D01*
X24044656Y58380624D01*
X24333309Y58143733D01*
X24333315Y58143729D01*
X24643796Y57936271D01*
X24973117Y57760246D01*
X25318106Y57617347D01*
X25675440Y57508951D01*
X26041678Y57436101D01*
X26413293Y57399500D01*
X26413296Y57399500D01*
X26786704Y57399500D01*
X26786707Y57399500D01*
X27158322Y57436101D01*
X27524560Y57508951D01*
X27881894Y57617347D01*
X28226883Y57760246D01*
X28556204Y57936271D01*
X28866685Y58143729D01*
X28874428Y58150083D01*
X28965819Y58225086D01*
X29155338Y58380619D01*
X29419381Y58644662D01*
X29656271Y58933315D01*
X29863729Y59243796D01*
X30039754Y59573117D01*
X30182653Y59918106D01*
X30250404Y60141451D01*
X74639500Y60141451D01*
X74639500Y59918550D01*
X74639501Y59918534D01*
X74668594Y59697548D01*
X74668595Y59697543D01*
X74668596Y59697537D01*
X74701934Y59573117D01*
X74726290Y59482220D01*
X74726293Y59482210D01*
X74811593Y59276278D01*
X74811595Y59276274D01*
X74923052Y59083226D01*
X74923057Y59083220D01*
X74923058Y59083218D01*
X75058751Y58906378D01*
X75058757Y58906371D01*
X75216370Y58748758D01*
X75216377Y58748752D01*
X75292293Y58690500D01*
X75393226Y58613052D01*
X75586274Y58501595D01*
X75792219Y58416290D01*
X76007537Y58358596D01*
X76228543Y58329500D01*
X76228550Y58329500D01*
X76451450Y58329500D01*
X76451457Y58329500D01*
X76672463Y58358596D01*
X76887781Y58416290D01*
X77093726Y58501595D01*
X77286774Y58613052D01*
X77463624Y58748753D01*
X77621247Y58906376D01*
X77756948Y59083226D01*
X77868405Y59276274D01*
X77953710Y59482219D01*
X78011404Y59697537D01*
X78040500Y59918543D01*
X78040500Y60141457D01*
X78011404Y60362463D01*
X77981260Y60474961D01*
X83249500Y60474961D01*
X83249500Y58885040D01*
X83264630Y58750751D01*
X83264631Y58750746D01*
X83324211Y58580477D01*
X83373777Y58501594D01*
X83420184Y58427738D01*
X83547738Y58300184D01*
X83638080Y58243418D01*
X83696505Y58206707D01*
X83700478Y58204211D01*
X83823711Y58161090D01*
X83870745Y58144632D01*
X83870750Y58144631D01*
X83961246Y58134435D01*
X84005040Y58129501D01*
X84005043Y58129500D01*
X84005046Y58129500D01*
X85594957Y58129500D01*
X85594958Y58129501D01*
X85662104Y58137066D01*
X85729249Y58144631D01*
X85729252Y58144632D01*
X85729255Y58144632D01*
X85899522Y58204211D01*
X85902503Y58206084D01*
X85904706Y58206707D01*
X85905795Y58207231D01*
X85905886Y58207041D01*
X85969740Y58225086D01*
X86036575Y58204720D01*
X86081791Y58151453D01*
X86091030Y58082197D01*
X86068797Y58028207D01*
X86013893Y57952639D01*
X85903097Y57735188D01*
X85827678Y57503073D01*
X85817071Y57436102D01*
X85789500Y57262027D01*
X85789500Y57017973D01*
X85827679Y56776924D01*
X85897007Y56563554D01*
X85903097Y56544813D01*
X86013896Y56327358D01*
X86157339Y56129924D01*
X86157343Y56129919D01*
X86329918Y55957344D01*
X86329923Y55957340D01*
X86427518Y55886434D01*
X86527361Y55813894D01*
X86744815Y55703096D01*
X86976924Y55627679D01*
X87217973Y55589500D01*
X87217974Y55589500D01*
X87462026Y55589500D01*
X87462027Y55589500D01*
X87703076Y55627679D01*
X87935185Y55703096D01*
X88152639Y55813894D01*
X88350083Y55957345D01*
X88522655Y56129917D01*
X88666106Y56327361D01*
X88776904Y56544815D01*
X88835762Y56725962D01*
X94699500Y56725962D01*
X94699500Y56474039D01*
X94738910Y56225215D01*
X94816760Y55985617D01*
X94888429Y55844961D01*
X94915343Y55792138D01*
X94931132Y55761152D01*
X95079201Y55557351D01*
X95079205Y55557346D01*
X95257345Y55379206D01*
X95257350Y55379202D01*
X95435117Y55250048D01*
X95461155Y55231130D01*
X95604184Y55158253D01*
X95685616Y55116761D01*
X95685618Y55116761D01*
X95685621Y55116759D01*
X95925215Y55038910D01*
X96174038Y54999500D01*
X96174039Y54999500D01*
X96425961Y54999500D01*
X96425962Y54999500D01*
X96674785Y55038910D01*
X96914379Y55116759D01*
X97138845Y55231130D01*
X97342656Y55379207D01*
X97520793Y55557344D01*
X97668870Y55761155D01*
X97783241Y55985621D01*
X97861090Y56225215D01*
X97900500Y56474038D01*
X97900500Y56725962D01*
X97861090Y56974785D01*
X97783241Y57214379D01*
X97783239Y57214382D01*
X97783239Y57214384D01*
X97688917Y57399500D01*
X97668870Y57438845D01*
X97617935Y57508951D01*
X97520798Y57642650D01*
X97520794Y57642655D01*
X97342654Y57820795D01*
X97342649Y57820799D01*
X97138848Y57968868D01*
X97138847Y57968869D01*
X97138845Y57968870D01*
X97068747Y58004587D01*
X96914383Y58083240D01*
X96674785Y58161090D01*
X96425962Y58200500D01*
X96174038Y58200500D01*
X96049626Y58180795D01*
X95925214Y58161090D01*
X95685616Y58083240D01*
X95461151Y57968868D01*
X95257350Y57820799D01*
X95257345Y57820795D01*
X95079205Y57642655D01*
X95079201Y57642650D01*
X94931132Y57438849D01*
X94816760Y57214384D01*
X94738910Y56974786D01*
X94699500Y56725962D01*
X88835762Y56725962D01*
X88852321Y56776924D01*
X88890500Y57017973D01*
X88890500Y57262027D01*
X88852321Y57503076D01*
X88776904Y57735185D01*
X88666106Y57952639D01*
X88571977Y58082197D01*
X88522660Y58150077D01*
X88522656Y58150082D01*
X88350081Y58322657D01*
X88350076Y58322661D01*
X88152642Y58466104D01*
X88152641Y58466105D01*
X88152639Y58466106D01*
X87935185Y58576904D01*
X87703076Y58652321D01*
X87703074Y58652322D01*
X87703072Y58652322D01*
X87534769Y58678979D01*
X87462027Y58690500D01*
X87217973Y58690500D01*
X87162093Y58681650D01*
X86976927Y58652322D01*
X86744812Y58576903D01*
X86527361Y58466107D01*
X86451793Y58411203D01*
X86385986Y58387724D01*
X86317933Y58403550D01*
X86269238Y58453656D01*
X86255363Y58522134D01*
X86272806Y58574187D01*
X86272769Y58574205D01*
X86272913Y58574505D01*
X86273916Y58577497D01*
X86274067Y58577739D01*
X86275789Y58580478D01*
X86335368Y58750745D01*
X86350500Y58885046D01*
X86350500Y60182027D01*
X92209500Y60182027D01*
X92209500Y59937973D01*
X92247679Y59696924D01*
X92323096Y59464815D01*
X92419162Y59276274D01*
X92433896Y59247358D01*
X92577339Y59049924D01*
X92577343Y59049919D01*
X92749918Y58877344D01*
X92749923Y58877340D01*
X92922136Y58752221D01*
X92947361Y58733894D01*
X93164815Y58623096D01*
X93396924Y58547679D01*
X93637973Y58509500D01*
X93637974Y58509500D01*
X93882026Y58509500D01*
X93882027Y58509500D01*
X94123076Y58547679D01*
X94355185Y58623096D01*
X94572639Y58733894D01*
X94770083Y58877345D01*
X94942655Y59049917D01*
X95086106Y59247361D01*
X95196904Y59464815D01*
X95272321Y59696924D01*
X95310500Y59937973D01*
X95310500Y60182027D01*
X95272321Y60423076D01*
X95196904Y60655185D01*
X95086106Y60872639D01*
X95031202Y60948208D01*
X95007723Y61014013D01*
X95023548Y61082067D01*
X95073654Y61130762D01*
X95142132Y61144637D01*
X95194187Y61127194D01*
X95194205Y61127231D01*
X95194500Y61127089D01*
X95197490Y61126087D01*
X95200473Y61124213D01*
X95200477Y61124212D01*
X95200478Y61124211D01*
X95320919Y61082067D01*
X95370745Y61064632D01*
X95370750Y61064631D01*
X95461246Y61054435D01*
X95505040Y61049501D01*
X95505043Y61049500D01*
X95505046Y61049500D01*
X97094957Y61049500D01*
X97094958Y61049501D01*
X97164634Y61057351D01*
X97229249Y61064631D01*
X97229252Y61064632D01*
X97229255Y61064632D01*
X97399522Y61124211D01*
X97552262Y61220184D01*
X97679816Y61347738D01*
X97775789Y61500478D01*
X97835368Y61670745D01*
X97838823Y61701404D01*
X97845234Y61758312D01*
X97850500Y61805046D01*
X97850500Y63394954D01*
X97835368Y63529255D01*
X97775789Y63699522D01*
X97775174Y63700500D01*
X97679815Y63852263D01*
X97552262Y63979816D01*
X97399523Y64075789D01*
X97229254Y64135369D01*
X97229249Y64135370D01*
X97094960Y64150500D01*
X97094954Y64150500D01*
X95505046Y64150500D01*
X95505039Y64150500D01*
X95370750Y64135370D01*
X95370745Y64135369D01*
X95200476Y64075789D01*
X95047737Y63979816D01*
X94920184Y63852263D01*
X94824211Y63699524D01*
X94764631Y63529255D01*
X94764630Y63529250D01*
X94749500Y63394961D01*
X94749500Y61805040D01*
X94764630Y61670751D01*
X94764631Y61670746D01*
X94824212Y61500473D01*
X94826088Y61497488D01*
X94826709Y61495288D01*
X94827231Y61494205D01*
X94827041Y61494114D01*
X94845084Y61430250D01*
X94824714Y61363416D01*
X94771443Y61318205D01*
X94702186Y61308972D01*
X94648206Y61331204D01*
X94572642Y61386104D01*
X94572641Y61386105D01*
X94572639Y61386106D01*
X94355185Y61496904D01*
X94123076Y61572321D01*
X94123074Y61572322D01*
X94123072Y61572322D01*
X93954769Y61598979D01*
X93882027Y61610500D01*
X93637973Y61610500D01*
X93582093Y61601650D01*
X93396927Y61572322D01*
X93164812Y61496903D01*
X92947357Y61386104D01*
X92749923Y61242661D01*
X92749918Y61242657D01*
X92577343Y61070082D01*
X92577339Y61070077D01*
X92433896Y60872643D01*
X92323097Y60655188D01*
X92247678Y60423073D01*
X92234703Y60341152D01*
X92209500Y60182027D01*
X86350500Y60182027D01*
X86350500Y60474954D01*
X86340285Y60565617D01*
X86335369Y60609250D01*
X86335368Y60609255D01*
X86275788Y60779524D01*
X86179815Y60932263D01*
X86052262Y61059816D01*
X85899523Y61155789D01*
X85729254Y61215369D01*
X85729249Y61215370D01*
X85594960Y61230500D01*
X85594954Y61230500D01*
X84005046Y61230500D01*
X84005039Y61230500D01*
X83870750Y61215370D01*
X83870745Y61215369D01*
X83700476Y61155789D01*
X83547737Y61059816D01*
X83420184Y60932263D01*
X83324211Y60779524D01*
X83264631Y60609255D01*
X83264630Y60609250D01*
X83249500Y60474961D01*
X77981260Y60474961D01*
X77953710Y60577781D01*
X77868405Y60783726D01*
X77756948Y60976774D01*
X77695123Y61057346D01*
X77621248Y61153623D01*
X77621242Y61153630D01*
X77463629Y61311243D01*
X77463622Y61311249D01*
X77286782Y61446942D01*
X77286780Y61446943D01*
X77286774Y61446948D01*
X77093726Y61558405D01*
X77093722Y61558407D01*
X76887790Y61643707D01*
X76887783Y61643709D01*
X76887781Y61643710D01*
X76672463Y61701404D01*
X76672457Y61701405D01*
X76672452Y61701406D01*
X76451466Y61730499D01*
X76451463Y61730500D01*
X76451457Y61730500D01*
X76228543Y61730500D01*
X76228537Y61730500D01*
X76228533Y61730499D01*
X76007547Y61701406D01*
X76007540Y61701405D01*
X76007537Y61701404D01*
X75792219Y61643710D01*
X75792209Y61643707D01*
X75586277Y61558407D01*
X75586273Y61558405D01*
X75393226Y61446948D01*
X75393217Y61446942D01*
X75216377Y61311249D01*
X75216370Y61311243D01*
X75058757Y61153630D01*
X75058751Y61153623D01*
X74923058Y60976783D01*
X74923052Y60976774D01*
X74811595Y60783727D01*
X74811593Y60783723D01*
X74726293Y60577791D01*
X74726290Y60577781D01*
X74668597Y60362466D01*
X74668594Y60362453D01*
X74639501Y60141467D01*
X74639500Y60141451D01*
X30250404Y60141451D01*
X30291049Y60275440D01*
X30363899Y60641678D01*
X30400500Y61013293D01*
X30400500Y61386707D01*
X30363899Y61758322D01*
X30291049Y62124560D01*
X30260289Y62225962D01*
X45119500Y62225962D01*
X45119500Y61974038D01*
X45119773Y61972315D01*
X45158910Y61725215D01*
X45236760Y61485617D01*
X45351132Y61261152D01*
X45499201Y61057351D01*
X45499205Y61057346D01*
X45677345Y60879206D01*
X45677350Y60879202D01*
X45808767Y60783723D01*
X45881155Y60731130D01*
X46024184Y60658253D01*
X46105616Y60616761D01*
X46105618Y60616761D01*
X46105621Y60616759D01*
X46345215Y60538910D01*
X46594038Y60499500D01*
X46594039Y60499500D01*
X46845961Y60499500D01*
X46845962Y60499500D01*
X47094785Y60538910D01*
X47334379Y60616759D01*
X47558845Y60731130D01*
X47762656Y60879207D01*
X47940793Y61057344D01*
X48088870Y61261155D01*
X48203241Y61485621D01*
X48281090Y61725215D01*
X48320500Y61974038D01*
X48320500Y62225962D01*
X55279500Y62225962D01*
X55279500Y61974038D01*
X55279773Y61972315D01*
X55318910Y61725215D01*
X55396760Y61485617D01*
X55511132Y61261152D01*
X55659201Y61057351D01*
X55659205Y61057346D01*
X55837345Y60879206D01*
X55837350Y60879202D01*
X55968767Y60783723D01*
X56041155Y60731130D01*
X56184184Y60658253D01*
X56265616Y60616761D01*
X56265618Y60616761D01*
X56265621Y60616759D01*
X56505215Y60538910D01*
X56754038Y60499500D01*
X56754039Y60499500D01*
X57005961Y60499500D01*
X57005962Y60499500D01*
X57254785Y60538910D01*
X57494379Y60616759D01*
X57718845Y60731130D01*
X57922656Y60879207D01*
X58100793Y61057344D01*
X58248870Y61261155D01*
X58363241Y61485621D01*
X58441090Y61725215D01*
X58480500Y61974038D01*
X58480500Y62225962D01*
X58441090Y62474785D01*
X58363241Y62714379D01*
X58363239Y62714382D01*
X58363239Y62714384D01*
X58305913Y62826891D01*
X58248870Y62938845D01*
X58229952Y62964883D01*
X58100798Y63142650D01*
X58100794Y63142655D01*
X57922654Y63320795D01*
X57922649Y63320799D01*
X57718848Y63468868D01*
X57718847Y63468869D01*
X57718845Y63468870D01*
X57648747Y63504587D01*
X57494383Y63583240D01*
X57254785Y63661090D01*
X57005962Y63700500D01*
X56754038Y63700500D01*
X56629626Y63680795D01*
X56505214Y63661090D01*
X56265616Y63583240D01*
X56041151Y63468868D01*
X55837350Y63320799D01*
X55837345Y63320795D01*
X55659205Y63142655D01*
X55659201Y63142650D01*
X55511132Y62938849D01*
X55396760Y62714384D01*
X55321220Y62481894D01*
X55318910Y62474785D01*
X55279500Y62225962D01*
X48320500Y62225962D01*
X48281090Y62474785D01*
X48203241Y62714379D01*
X48203239Y62714382D01*
X48203239Y62714384D01*
X48145913Y62826891D01*
X48088870Y62938845D01*
X48069952Y62964883D01*
X47940798Y63142650D01*
X47940794Y63142655D01*
X47762654Y63320795D01*
X47762649Y63320799D01*
X47558848Y63468868D01*
X47558847Y63468869D01*
X47558845Y63468870D01*
X47488747Y63504587D01*
X47334383Y63583240D01*
X47094785Y63661090D01*
X46845962Y63700500D01*
X46594038Y63700500D01*
X46469626Y63680795D01*
X46345214Y63661090D01*
X46105616Y63583240D01*
X45881151Y63468868D01*
X45677350Y63320799D01*
X45677345Y63320795D01*
X45499205Y63142655D01*
X45499201Y63142650D01*
X45351132Y62938849D01*
X45236760Y62714384D01*
X45161220Y62481894D01*
X45158910Y62474785D01*
X45119500Y62225962D01*
X30260289Y62225962D01*
X30248887Y62263548D01*
X30241524Y62287822D01*
X30182653Y62481894D01*
X30039754Y62826883D01*
X29863729Y63156204D01*
X29656271Y63466685D01*
X29656267Y63466691D01*
X29419376Y63755344D01*
X29155343Y64019377D01*
X28866690Y64256268D01*
X28556210Y64463725D01*
X28556209Y64463726D01*
X28556204Y64463729D01*
X28556199Y64463732D01*
X28556192Y64463736D01*
X28226890Y64639750D01*
X28226883Y64639754D01*
X27951180Y64753954D01*
X27881895Y64782653D01*
X27672119Y64846288D01*
X27524560Y64891049D01*
X27524557Y64891050D01*
X27524556Y64891050D01*
X27158324Y64963899D01*
X27158311Y64963901D01*
X26877293Y64991578D01*
X26786707Y65000500D01*
X26413293Y65000500D01*
X26329514Y64992249D01*
X26041688Y64963901D01*
X26041675Y64963899D01*
X25675443Y64891050D01*
X25318104Y64782653D01*
X24973123Y64639757D01*
X24973109Y64639750D01*
X24643807Y64463736D01*
X24643789Y64463725D01*
X24333309Y64256268D01*
X24044656Y64019377D01*
X23780623Y63755344D01*
X23543732Y63466691D01*
X23336275Y63156211D01*
X23336264Y63156193D01*
X23160250Y62826891D01*
X23160243Y62826877D01*
X23017347Y62481896D01*
X22908950Y62124557D01*
X22836101Y61758325D01*
X22836099Y61758312D01*
X22799500Y61386704D01*
X17887712Y61386704D01*
X17861090Y61554785D01*
X17783241Y61794379D01*
X17783239Y61794382D01*
X17783239Y61794384D01*
X17692578Y61972315D01*
X17668870Y62018845D01*
X17649952Y62044883D01*
X17520798Y62222650D01*
X17520794Y62222655D01*
X17342654Y62400795D01*
X17342649Y62400799D01*
X17138848Y62548868D01*
X17138847Y62548869D01*
X17138845Y62548870D01*
X17068747Y62584587D01*
X16914383Y62663240D01*
X16674785Y62741090D01*
X16425962Y62780500D01*
X16174038Y62780500D01*
X16049626Y62760795D01*
X15925214Y62741090D01*
X15685616Y62663240D01*
X15461151Y62548868D01*
X15257350Y62400799D01*
X15257345Y62400795D01*
X15079205Y62222655D01*
X15079201Y62222650D01*
X14931132Y62018849D01*
X14816760Y61794384D01*
X14738910Y61554786D01*
X14727955Y61485621D01*
X14699500Y61305962D01*
X19907Y61305962D01*
X19905Y61310772D01*
X18358Y64401605D01*
X6367177Y64401605D01*
X6367177Y62798396D01*
X6382376Y62644068D01*
X6382377Y62644066D01*
X6442445Y62446046D01*
X6539992Y62263550D01*
X6573553Y62222656D01*
X6671266Y62103590D01*
X6767886Y62024298D01*
X6831227Y61972315D01*
X7013723Y61874768D01*
X7211743Y61814700D01*
X7211742Y61814700D01*
X7250324Y61810900D01*
X7366069Y61799500D01*
X7366072Y61799500D01*
X8969282Y61799500D01*
X8969285Y61799500D01*
X9123611Y61814700D01*
X9321631Y61874768D01*
X9504127Y61972315D01*
X9664087Y62103590D01*
X9795362Y62263550D01*
X9892909Y62446046D01*
X9952977Y62644066D01*
X9968177Y62798392D01*
X9968177Y64401608D01*
X9952977Y64555934D01*
X9892909Y64753954D01*
X9795362Y64936450D01*
X9742798Y65000500D01*
X9664087Y65096411D01*
X9546354Y65193031D01*
X9504127Y65227685D01*
X9321631Y65325232D01*
X9123611Y65385300D01*
X9123609Y65385301D01*
X9123611Y65385301D01*
X9004482Y65397034D01*
X8969285Y65400500D01*
X7366069Y65400500D01*
X7327975Y65396749D01*
X7211744Y65385301D01*
X7013720Y65325231D01*
X6903575Y65266357D01*
X6831227Y65227685D01*
X6831225Y65227684D01*
X6831224Y65227683D01*
X6671266Y65096411D01*
X6539994Y64936453D01*
X6539992Y64936450D01*
X6501320Y64864102D01*
X6442446Y64753957D01*
X6382376Y64555933D01*
X6367177Y64401605D01*
X18358Y64401605D01*
X18357Y64404590D01*
X17696Y65725962D01*
X45119500Y65725962D01*
X45119500Y65474039D01*
X45158910Y65225215D01*
X45236760Y64985617D01*
X45315413Y64831253D01*
X45340176Y64782653D01*
X45351132Y64761152D01*
X45499201Y64557351D01*
X45499205Y64557346D01*
X45677345Y64379206D01*
X45677350Y64379202D01*
X45846551Y64256271D01*
X45881155Y64231130D01*
X46024184Y64158253D01*
X46105616Y64116761D01*
X46105618Y64116761D01*
X46105621Y64116759D01*
X46345215Y64038910D01*
X46594038Y63999500D01*
X46594039Y63999500D01*
X46845961Y63999500D01*
X46845962Y63999500D01*
X47094785Y64038910D01*
X47334379Y64116759D01*
X47558845Y64231130D01*
X47762656Y64379207D01*
X47940793Y64557344D01*
X48088870Y64761155D01*
X48203241Y64985621D01*
X48281090Y65225215D01*
X48320500Y65474038D01*
X48320500Y65725962D01*
X48281090Y65974785D01*
X48203241Y66214379D01*
X48203239Y66214382D01*
X48203239Y66214384D01*
X48161747Y66295816D01*
X48088870Y66438845D01*
X47992760Y66571130D01*
X47940798Y66642650D01*
X47940794Y66642655D01*
X47762654Y66820795D01*
X47762649Y66820799D01*
X47558848Y66968868D01*
X47558847Y66968869D01*
X47558845Y66968870D01*
X47421384Y67038910D01*
X47334383Y67083240D01*
X47094785Y67161090D01*
X46845962Y67200500D01*
X46594038Y67200500D01*
X46469626Y67180795D01*
X46345214Y67161090D01*
X46105616Y67083240D01*
X45881151Y66968868D01*
X45677350Y66820799D01*
X45677345Y66820795D01*
X45499205Y66642655D01*
X45499201Y66642650D01*
X45351132Y66438849D01*
X45236760Y66214384D01*
X45158910Y65974786D01*
X45119500Y65725962D01*
X17696Y65725962D01*
X17694Y65730772D01*
X16195Y68725962D01*
X11199500Y68725962D01*
X11199500Y68474039D01*
X11238910Y68225215D01*
X11316760Y67985617D01*
X11431132Y67761152D01*
X11579201Y67557351D01*
X11579205Y67557346D01*
X11757345Y67379206D01*
X11757350Y67379202D01*
X11831104Y67325617D01*
X11961155Y67231130D01*
X12098616Y67161090D01*
X12185616Y67116761D01*
X12185618Y67116761D01*
X12185621Y67116759D01*
X12425215Y67038910D01*
X12674038Y66999500D01*
X12674039Y66999500D01*
X12925961Y66999500D01*
X12925962Y66999500D01*
X13174785Y67038910D01*
X13414379Y67116759D01*
X13638845Y67231130D01*
X13842656Y67379207D01*
X14020793Y67557344D01*
X14168870Y67761155D01*
X14283241Y67985621D01*
X14361090Y68225215D01*
X14400500Y68474038D01*
X14400500Y68725962D01*
X76119500Y68725962D01*
X76119500Y68474039D01*
X76158910Y68225215D01*
X76236760Y67985617D01*
X76351132Y67761152D01*
X76499201Y67557351D01*
X76499205Y67557346D01*
X76677345Y67379206D01*
X76677350Y67379202D01*
X76751104Y67325617D01*
X76881155Y67231130D01*
X77018616Y67161090D01*
X77105616Y67116761D01*
X77105618Y67116761D01*
X77105621Y67116759D01*
X77345215Y67038910D01*
X77594038Y66999500D01*
X77594039Y66999500D01*
X77845961Y66999500D01*
X77845962Y66999500D01*
X78094785Y67038910D01*
X78334379Y67116759D01*
X78558845Y67231130D01*
X78762656Y67379207D01*
X78940793Y67557344D01*
X79088870Y67761155D01*
X79203241Y67985621D01*
X79281090Y68225215D01*
X79320500Y68474038D01*
X79320500Y68725962D01*
X86279500Y68725962D01*
X86279500Y68474039D01*
X86318910Y68225215D01*
X86396760Y67985617D01*
X86511132Y67761152D01*
X86659201Y67557351D01*
X86659205Y67557346D01*
X86837345Y67379206D01*
X86837350Y67379202D01*
X86911104Y67325617D01*
X87041155Y67231130D01*
X87178616Y67161090D01*
X87265616Y67116761D01*
X87265618Y67116761D01*
X87265621Y67116759D01*
X87505215Y67038910D01*
X87754038Y66999500D01*
X87754039Y66999500D01*
X88005961Y66999500D01*
X88005962Y66999500D01*
X88254785Y67038910D01*
X88494379Y67116759D01*
X88718845Y67231130D01*
X88922656Y67379207D01*
X89100793Y67557344D01*
X89248870Y67761155D01*
X89363241Y67985621D01*
X89389345Y68065962D01*
X92199500Y68065962D01*
X92199500Y67814038D01*
X92238910Y67565215D01*
X92316760Y67325617D01*
X92380511Y67200500D01*
X92423179Y67116759D01*
X92431132Y67101152D01*
X92579201Y66897351D01*
X92579205Y66897346D01*
X92757345Y66719206D01*
X92757350Y66719202D01*
X92862709Y66642655D01*
X92961155Y66571130D01*
X93104184Y66498253D01*
X93185616Y66456761D01*
X93185618Y66456761D01*
X93185621Y66456759D01*
X93425215Y66378910D01*
X93674038Y66339500D01*
X93674039Y66339500D01*
X93925961Y66339500D01*
X93925962Y66339500D01*
X94174785Y66378910D01*
X94414379Y66456759D01*
X94638845Y66571130D01*
X94842656Y66719207D01*
X95020793Y66897344D01*
X95168870Y67101155D01*
X95283241Y67325621D01*
X95361090Y67565215D01*
X95400500Y67814038D01*
X95400500Y68065962D01*
X95361090Y68314785D01*
X95283241Y68554379D01*
X95283239Y68554382D01*
X95283239Y68554384D01*
X95193364Y68730772D01*
X95168870Y68778845D01*
X95026511Y68974786D01*
X95020798Y68982650D01*
X95020794Y68982655D01*
X94842654Y69160795D01*
X94842649Y69160799D01*
X94638848Y69308868D01*
X94638847Y69308869D01*
X94638845Y69308870D01*
X94568747Y69344587D01*
X94414383Y69423240D01*
X94174785Y69501090D01*
X94130153Y69508159D01*
X93925962Y69540500D01*
X93674038Y69540500D01*
X93549626Y69520795D01*
X93425214Y69501090D01*
X93185616Y69423240D01*
X92961151Y69308868D01*
X92757350Y69160799D01*
X92757345Y69160795D01*
X92579205Y68982655D01*
X92579201Y68982650D01*
X92431132Y68778849D01*
X92316760Y68554384D01*
X92238910Y68314786D01*
X92238910Y68314785D01*
X92199500Y68065962D01*
X89389345Y68065962D01*
X89441090Y68225215D01*
X89480500Y68474038D01*
X89480500Y68725962D01*
X89441090Y68974785D01*
X89363241Y69214379D01*
X89363239Y69214382D01*
X89363239Y69214384D01*
X89321747Y69295816D01*
X89248870Y69438845D01*
X89229952Y69464883D01*
X89100798Y69642650D01*
X89100794Y69642655D01*
X88922654Y69820795D01*
X88922649Y69820799D01*
X88718848Y69968868D01*
X88718847Y69968869D01*
X88718845Y69968870D01*
X88605881Y70026428D01*
X88494383Y70083240D01*
X88254785Y70161090D01*
X88005962Y70200500D01*
X87754038Y70200500D01*
X87629626Y70180795D01*
X87505214Y70161090D01*
X87265616Y70083240D01*
X87041151Y69968868D01*
X86837350Y69820799D01*
X86837345Y69820795D01*
X86659205Y69642655D01*
X86659201Y69642650D01*
X86511132Y69438849D01*
X86396760Y69214384D01*
X86318910Y68974786D01*
X86279500Y68725962D01*
X79320500Y68725962D01*
X79281090Y68974785D01*
X79203241Y69214379D01*
X79203239Y69214382D01*
X79203239Y69214384D01*
X79161747Y69295816D01*
X79088870Y69438845D01*
X79069952Y69464883D01*
X78940798Y69642650D01*
X78940794Y69642655D01*
X78762654Y69820795D01*
X78762649Y69820799D01*
X78558848Y69968868D01*
X78558847Y69968869D01*
X78558845Y69968870D01*
X78445881Y70026428D01*
X78334383Y70083240D01*
X78094785Y70161090D01*
X77845962Y70200500D01*
X77594038Y70200500D01*
X77469626Y70180795D01*
X77345214Y70161090D01*
X77105616Y70083240D01*
X76881151Y69968868D01*
X76677350Y69820799D01*
X76677345Y69820795D01*
X76499205Y69642655D01*
X76499201Y69642650D01*
X76351132Y69438849D01*
X76236760Y69214384D01*
X76158910Y68974786D01*
X76119500Y68725962D01*
X14400500Y68725962D01*
X14361090Y68974785D01*
X14283241Y69214379D01*
X14283239Y69214382D01*
X14283239Y69214384D01*
X14241747Y69295816D01*
X14168870Y69438845D01*
X14149952Y69464883D01*
X14020798Y69642650D01*
X14020794Y69642655D01*
X13842654Y69820795D01*
X13842649Y69820799D01*
X13638848Y69968868D01*
X13638847Y69968869D01*
X13638845Y69968870D01*
X13525881Y70026428D01*
X13414383Y70083240D01*
X13174785Y70161090D01*
X12925962Y70200500D01*
X12674038Y70200500D01*
X12549626Y70180795D01*
X12425214Y70161090D01*
X12185616Y70083240D01*
X11961151Y69968868D01*
X11757350Y69820799D01*
X11757345Y69820795D01*
X11579205Y69642655D01*
X11579201Y69642650D01*
X11431132Y69438849D01*
X11316760Y69214384D01*
X11238910Y68974786D01*
X11199500Y68725962D01*
X16195Y68725962D01*
X16193Y68730772D01*
X13510Y74094961D01*
X23919500Y74094961D01*
X23919500Y72305040D01*
X23934630Y72170751D01*
X23934631Y72170746D01*
X23994211Y72000477D01*
X24090184Y71847738D01*
X24190576Y71747346D01*
X24224061Y71686023D01*
X24219077Y71616331D01*
X24203214Y71586781D01*
X24158367Y71525054D01*
X24040422Y71293577D01*
X23960140Y71046494D01*
X23919500Y70789903D01*
X23919500Y70530098D01*
X23960140Y70273507D01*
X24040422Y70026424D01*
X24158368Y69794946D01*
X24299999Y69600007D01*
X24311069Y69584771D01*
X24494771Y69401069D01*
X24704949Y69248366D01*
X24852445Y69173213D01*
X24936423Y69130423D01*
X24936425Y69130423D01*
X24936428Y69130421D01*
X25183507Y69050140D01*
X25315706Y69029203D01*
X25440098Y69009500D01*
X25440103Y69009500D01*
X25699902Y69009500D01*
X25813298Y69027461D01*
X25956493Y69050140D01*
X26203572Y69130421D01*
X26435051Y69248366D01*
X26645229Y69401069D01*
X26752319Y69508159D01*
X26813642Y69541644D01*
X26883334Y69536660D01*
X26927681Y69508159D01*
X27034771Y69401069D01*
X27244949Y69248366D01*
X27392445Y69173213D01*
X27476423Y69130423D01*
X27476425Y69130423D01*
X27476428Y69130421D01*
X27723507Y69050140D01*
X27855706Y69029203D01*
X27980098Y69009500D01*
X27980103Y69009500D01*
X28239902Y69009500D01*
X28353298Y69027461D01*
X28496493Y69050140D01*
X28743572Y69130421D01*
X28975051Y69248366D01*
X29185229Y69401069D01*
X29368931Y69584771D01*
X29521634Y69794949D01*
X29639579Y70026428D01*
X29719860Y70273507D01*
X29742539Y70416702D01*
X29760500Y70530098D01*
X29760500Y70789903D01*
X29738947Y70925979D01*
X29719860Y71046493D01*
X29639579Y71293572D01*
X29639577Y71293575D01*
X29639577Y71293577D01*
X29596787Y71377555D01*
X29521634Y71525051D01*
X29368931Y71735229D01*
X29261841Y71842319D01*
X29257502Y71850265D01*
X29250255Y71855690D01*
X29241020Y71880450D01*
X29228356Y71903642D01*
X29229001Y71912672D01*
X29225838Y71921154D01*
X29231454Y71946975D01*
X29233340Y71973334D01*
X29239158Y71982388D01*
X29240690Y71989427D01*
X29261841Y72017681D01*
X29292319Y72048159D01*
X29353642Y72081644D01*
X29423334Y72076660D01*
X29467681Y72048159D01*
X29574771Y71941069D01*
X29784949Y71788366D01*
X29889230Y71735232D01*
X30016423Y71670423D01*
X30016425Y71670423D01*
X30016428Y71670421D01*
X30263507Y71590140D01*
X30395706Y71569203D01*
X30520098Y71549500D01*
X30520103Y71549500D01*
X30779902Y71549500D01*
X30893298Y71567461D01*
X31036493Y71590140D01*
X31283572Y71670421D01*
X31515051Y71788366D01*
X31725229Y71941069D01*
X31832319Y72048159D01*
X31840264Y72052498D01*
X31845691Y72059746D01*
X31870450Y72068981D01*
X31893642Y72081644D01*
X31902672Y72080999D01*
X31911156Y72084162D01*
X31936974Y72078546D01*
X31963334Y72076660D01*
X31972389Y72070841D01*
X31979429Y72069309D01*
X32007679Y72048161D01*
X32038159Y72017681D01*
X32038160Y72017680D01*
X32071644Y71956356D01*
X32066658Y71886665D01*
X32038159Y71842319D01*
X31931066Y71735226D01*
X31778368Y71525055D01*
X31660422Y71293577D01*
X31580140Y71046494D01*
X31539500Y70789903D01*
X31539500Y70530098D01*
X31580140Y70273507D01*
X31660422Y70026424D01*
X31778368Y69794946D01*
X31919999Y69600007D01*
X31931069Y69584771D01*
X32114771Y69401069D01*
X32324949Y69248366D01*
X32472445Y69173213D01*
X32556423Y69130423D01*
X32556425Y69130423D01*
X32556428Y69130421D01*
X32803507Y69050140D01*
X32935706Y69029203D01*
X33060098Y69009500D01*
X33060103Y69009500D01*
X33319902Y69009500D01*
X33433298Y69027461D01*
X33576493Y69050140D01*
X33823572Y69130421D01*
X34055051Y69248366D01*
X34265229Y69401069D01*
X34372319Y69508159D01*
X34433642Y69541644D01*
X34503334Y69536660D01*
X34547681Y69508159D01*
X34654771Y69401069D01*
X34864949Y69248366D01*
X35012445Y69173213D01*
X35096423Y69130423D01*
X35096425Y69130423D01*
X35096428Y69130421D01*
X35343507Y69050140D01*
X35475706Y69029203D01*
X35600098Y69009500D01*
X35600103Y69009500D01*
X35859902Y69009500D01*
X35973298Y69027461D01*
X36116493Y69050140D01*
X36363572Y69130421D01*
X36595051Y69248366D01*
X36805229Y69401069D01*
X36912319Y69508159D01*
X36973642Y69541644D01*
X37043334Y69536660D01*
X37087681Y69508159D01*
X37194771Y69401069D01*
X37404949Y69248366D01*
X37552445Y69173213D01*
X37636423Y69130423D01*
X37636425Y69130423D01*
X37636428Y69130421D01*
X37883507Y69050140D01*
X38015706Y69029203D01*
X38140098Y69009500D01*
X38140103Y69009500D01*
X38399902Y69009500D01*
X38513298Y69027461D01*
X38656493Y69050140D01*
X38903572Y69130421D01*
X39135051Y69248366D01*
X39345229Y69401069D01*
X39452319Y69508159D01*
X39513642Y69541644D01*
X39583334Y69536660D01*
X39627681Y69508159D01*
X39734771Y69401069D01*
X39944949Y69248366D01*
X40092445Y69173213D01*
X40176423Y69130423D01*
X40176425Y69130423D01*
X40176428Y69130421D01*
X40423507Y69050140D01*
X40555706Y69029203D01*
X40680098Y69009500D01*
X40680103Y69009500D01*
X40939902Y69009500D01*
X41053298Y69027461D01*
X41196493Y69050140D01*
X41443572Y69130421D01*
X41675051Y69248366D01*
X41885229Y69401069D01*
X41992319Y69508159D01*
X42053642Y69541644D01*
X42123334Y69536660D01*
X42167681Y69508159D01*
X42274771Y69401069D01*
X42484949Y69248366D01*
X42632445Y69173213D01*
X42716423Y69130423D01*
X42716425Y69130423D01*
X42716428Y69130421D01*
X42963507Y69050140D01*
X43095706Y69029203D01*
X43220098Y69009500D01*
X43220103Y69009500D01*
X43479902Y69009500D01*
X43593298Y69027461D01*
X43736493Y69050140D01*
X43983572Y69130421D01*
X44215051Y69248366D01*
X44425229Y69401069D01*
X44532319Y69508159D01*
X44593642Y69541644D01*
X44663334Y69536660D01*
X44707681Y69508159D01*
X44814771Y69401069D01*
X45024949Y69248366D01*
X45172445Y69173213D01*
X45256423Y69130423D01*
X45256425Y69130423D01*
X45256428Y69130421D01*
X45503507Y69050140D01*
X45635706Y69029203D01*
X45760098Y69009500D01*
X45760103Y69009500D01*
X46019902Y69009500D01*
X46133298Y69027461D01*
X46276493Y69050140D01*
X46523572Y69130421D01*
X46755051Y69248366D01*
X46965229Y69401069D01*
X47072319Y69508159D01*
X47133642Y69541644D01*
X47203334Y69536660D01*
X47247681Y69508159D01*
X47354771Y69401069D01*
X47564949Y69248366D01*
X47712445Y69173213D01*
X47796423Y69130423D01*
X47796425Y69130423D01*
X47796428Y69130421D01*
X48043507Y69050140D01*
X48175706Y69029203D01*
X48300098Y69009500D01*
X48300103Y69009500D01*
X48559902Y69009500D01*
X48673298Y69027461D01*
X48816493Y69050140D01*
X49063572Y69130421D01*
X49295051Y69248366D01*
X49505229Y69401069D01*
X49612319Y69508159D01*
X49673642Y69541644D01*
X49743334Y69536660D01*
X49787681Y69508159D01*
X49894771Y69401069D01*
X50104949Y69248366D01*
X50252445Y69173213D01*
X50336423Y69130423D01*
X50336425Y69130423D01*
X50336428Y69130421D01*
X50583507Y69050140D01*
X50715706Y69029203D01*
X50840098Y69009500D01*
X50840103Y69009500D01*
X51099902Y69009500D01*
X51213298Y69027461D01*
X51356493Y69050140D01*
X51603572Y69130421D01*
X51835051Y69248366D01*
X52045229Y69401069D01*
X52152319Y69508159D01*
X52213642Y69541644D01*
X52283334Y69536660D01*
X52327681Y69508159D01*
X52434771Y69401069D01*
X52644949Y69248366D01*
X52792445Y69173213D01*
X52876423Y69130423D01*
X52876425Y69130423D01*
X52876428Y69130421D01*
X53123507Y69050140D01*
X53255706Y69029203D01*
X53380098Y69009500D01*
X53380103Y69009500D01*
X53639902Y69009500D01*
X53753298Y69027461D01*
X53896493Y69050140D01*
X54143572Y69130421D01*
X54375051Y69248366D01*
X54585229Y69401069D01*
X54692319Y69508159D01*
X54753642Y69541644D01*
X54823334Y69536660D01*
X54867681Y69508159D01*
X54974771Y69401069D01*
X55184949Y69248366D01*
X55332445Y69173213D01*
X55416423Y69130423D01*
X55416425Y69130423D01*
X55416428Y69130421D01*
X55663507Y69050140D01*
X55795706Y69029203D01*
X55920098Y69009500D01*
X55920103Y69009500D01*
X56179902Y69009500D01*
X56293298Y69027461D01*
X56436493Y69050140D01*
X56683572Y69130421D01*
X56915051Y69248366D01*
X57125229Y69401069D01*
X57232319Y69508159D01*
X57293642Y69541644D01*
X57363334Y69536660D01*
X57407681Y69508159D01*
X57514771Y69401069D01*
X57724949Y69248366D01*
X57872445Y69173213D01*
X57956423Y69130423D01*
X57956425Y69130423D01*
X57956428Y69130421D01*
X58203507Y69050140D01*
X58335706Y69029203D01*
X58460098Y69009500D01*
X58460103Y69009500D01*
X58719902Y69009500D01*
X58833298Y69027461D01*
X58976493Y69050140D01*
X59223572Y69130421D01*
X59455051Y69248366D01*
X59665229Y69401069D01*
X59772319Y69508159D01*
X59833642Y69541644D01*
X59903334Y69536660D01*
X59947681Y69508159D01*
X60054771Y69401069D01*
X60264949Y69248366D01*
X60412445Y69173213D01*
X60496423Y69130423D01*
X60496425Y69130423D01*
X60496428Y69130421D01*
X60743507Y69050140D01*
X60875706Y69029203D01*
X61000098Y69009500D01*
X61000103Y69009500D01*
X61259902Y69009500D01*
X61373298Y69027461D01*
X61516493Y69050140D01*
X61763572Y69130421D01*
X61995051Y69248366D01*
X62205229Y69401069D01*
X62312319Y69508159D01*
X62373642Y69541644D01*
X62443334Y69536660D01*
X62487681Y69508159D01*
X62594771Y69401069D01*
X62804949Y69248366D01*
X62952445Y69173213D01*
X63036423Y69130423D01*
X63036425Y69130423D01*
X63036428Y69130421D01*
X63283507Y69050140D01*
X63415706Y69029203D01*
X63540098Y69009500D01*
X63540103Y69009500D01*
X63799902Y69009500D01*
X63913298Y69027461D01*
X64056493Y69050140D01*
X64303572Y69130421D01*
X64535051Y69248366D01*
X64745229Y69401069D01*
X64852319Y69508159D01*
X64913642Y69541644D01*
X64983334Y69536660D01*
X65027681Y69508159D01*
X65134771Y69401069D01*
X65344949Y69248366D01*
X65492445Y69173213D01*
X65576423Y69130423D01*
X65576425Y69130423D01*
X65576428Y69130421D01*
X65823507Y69050140D01*
X65955706Y69029203D01*
X66080098Y69009500D01*
X66080103Y69009500D01*
X66339902Y69009500D01*
X66453298Y69027461D01*
X66596493Y69050140D01*
X66843572Y69130421D01*
X67075051Y69248366D01*
X67285229Y69401069D01*
X67392319Y69508159D01*
X67453642Y69541644D01*
X67523334Y69536660D01*
X67567681Y69508159D01*
X67674771Y69401069D01*
X67884949Y69248366D01*
X68032445Y69173213D01*
X68116423Y69130423D01*
X68116425Y69130423D01*
X68116428Y69130421D01*
X68363507Y69050140D01*
X68495706Y69029203D01*
X68620098Y69009500D01*
X68620103Y69009500D01*
X68879902Y69009500D01*
X68993298Y69027461D01*
X69136493Y69050140D01*
X69383572Y69130421D01*
X69615051Y69248366D01*
X69825229Y69401069D01*
X69932319Y69508159D01*
X69993642Y69541644D01*
X70063334Y69536660D01*
X70107681Y69508159D01*
X70214771Y69401069D01*
X70424949Y69248366D01*
X70572445Y69173213D01*
X70656423Y69130423D01*
X70656425Y69130423D01*
X70656428Y69130421D01*
X70903507Y69050140D01*
X71035706Y69029203D01*
X71160098Y69009500D01*
X71160103Y69009500D01*
X71419902Y69009500D01*
X71533298Y69027461D01*
X71676493Y69050140D01*
X71923572Y69130421D01*
X72155051Y69248366D01*
X72365229Y69401069D01*
X72472319Y69508159D01*
X72533642Y69541644D01*
X72603334Y69536660D01*
X72647681Y69508159D01*
X72754771Y69401069D01*
X72964949Y69248366D01*
X73112445Y69173213D01*
X73196423Y69130423D01*
X73196425Y69130423D01*
X73196428Y69130421D01*
X73443507Y69050140D01*
X73575706Y69029203D01*
X73700098Y69009500D01*
X73700103Y69009500D01*
X73959902Y69009500D01*
X74073298Y69027461D01*
X74216493Y69050140D01*
X74463572Y69130421D01*
X74695051Y69248366D01*
X74905229Y69401069D01*
X75088931Y69584771D01*
X75241634Y69794949D01*
X75359579Y70026428D01*
X75439860Y70273507D01*
X75462539Y70416702D01*
X75480500Y70530098D01*
X75480500Y70789903D01*
X75458947Y70925979D01*
X75439860Y71046493D01*
X75359579Y71293572D01*
X75359577Y71293575D01*
X75359577Y71293577D01*
X75316787Y71377555D01*
X75241634Y71525051D01*
X75088931Y71735229D01*
X74981841Y71842319D01*
X74948356Y71903642D01*
X74953340Y71973334D01*
X74981841Y72017681D01*
X75035001Y72070841D01*
X75088931Y72124771D01*
X75241634Y72334949D01*
X75359579Y72566428D01*
X75439860Y72813507D01*
X75462539Y72956702D01*
X75480500Y73070098D01*
X75480500Y73329903D01*
X75455836Y73485621D01*
X75439860Y73586493D01*
X75359579Y73833572D01*
X75359577Y73833575D01*
X75359577Y73833577D01*
X75241633Y74065052D01*
X75219903Y74094961D01*
X75124725Y74225962D01*
X76619500Y74225962D01*
X76619500Y73974039D01*
X76658910Y73725215D01*
X76736760Y73485617D01*
X76851132Y73261152D01*
X76999201Y73057351D01*
X76999205Y73057346D01*
X77177345Y72879206D01*
X77177350Y72879202D01*
X77355117Y72750048D01*
X77381155Y72731130D01*
X77524184Y72658253D01*
X77605616Y72616761D01*
X77605618Y72616761D01*
X77605621Y72616759D01*
X77845215Y72538910D01*
X78094038Y72499500D01*
X78094039Y72499500D01*
X78345961Y72499500D01*
X78345962Y72499500D01*
X78594785Y72538910D01*
X78834379Y72616759D01*
X79058845Y72731130D01*
X79262656Y72879207D01*
X79440793Y73057344D01*
X79588870Y73261155D01*
X79703241Y73485621D01*
X79781090Y73725215D01*
X79820500Y73974038D01*
X79820500Y74225962D01*
X86779500Y74225962D01*
X86779500Y73974039D01*
X86818910Y73725215D01*
X86896760Y73485617D01*
X87011132Y73261152D01*
X87159201Y73057351D01*
X87159205Y73057346D01*
X87337345Y72879206D01*
X87337350Y72879202D01*
X87515117Y72750048D01*
X87541155Y72731130D01*
X87684184Y72658253D01*
X87765616Y72616761D01*
X87765618Y72616761D01*
X87765621Y72616759D01*
X88005215Y72538910D01*
X88254038Y72499500D01*
X88254039Y72499500D01*
X88505961Y72499500D01*
X88505962Y72499500D01*
X88754785Y72538910D01*
X88994379Y72616759D01*
X89218845Y72731130D01*
X89422656Y72879207D01*
X89600793Y73057344D01*
X89748870Y73261155D01*
X89863241Y73485621D01*
X89941090Y73725215D01*
X89980500Y73974038D01*
X89980500Y74225962D01*
X89941090Y74474785D01*
X89863241Y74714379D01*
X89863239Y74714382D01*
X89863239Y74714384D01*
X89801594Y74835368D01*
X89748870Y74938845D01*
X89729952Y74964883D01*
X89600798Y75142650D01*
X89600794Y75142655D01*
X89422654Y75320795D01*
X89422649Y75320799D01*
X89218848Y75468868D01*
X89218847Y75468869D01*
X89218845Y75468870D01*
X89148747Y75504587D01*
X88994383Y75583240D01*
X88754785Y75661090D01*
X88505962Y75700500D01*
X88254038Y75700500D01*
X88129626Y75680795D01*
X88005214Y75661090D01*
X87765616Y75583240D01*
X87541151Y75468868D01*
X87337350Y75320799D01*
X87337345Y75320795D01*
X87159205Y75142655D01*
X87159201Y75142650D01*
X87011132Y74938849D01*
X86896760Y74714384D01*
X86818910Y74474786D01*
X86779500Y74225962D01*
X79820500Y74225962D01*
X79781090Y74474785D01*
X79703241Y74714379D01*
X79703239Y74714382D01*
X79703239Y74714384D01*
X79641594Y74835368D01*
X79588870Y74938845D01*
X79569952Y74964883D01*
X79440798Y75142650D01*
X79440794Y75142655D01*
X79262654Y75320795D01*
X79262649Y75320799D01*
X79058848Y75468868D01*
X79058847Y75468869D01*
X79058845Y75468870D01*
X78988747Y75504587D01*
X78834383Y75583240D01*
X78594785Y75661090D01*
X78345962Y75700500D01*
X78094038Y75700500D01*
X77969626Y75680795D01*
X77845214Y75661090D01*
X77605616Y75583240D01*
X77381151Y75468868D01*
X77177350Y75320799D01*
X77177345Y75320795D01*
X76999205Y75142655D01*
X76999201Y75142650D01*
X76851132Y74938849D01*
X76736760Y74714384D01*
X76658910Y74474786D01*
X76619500Y74225962D01*
X75124725Y74225962D01*
X75088931Y74275229D01*
X74905229Y74458931D01*
X74883408Y74474785D01*
X74695054Y74611632D01*
X74695053Y74611633D01*
X74695051Y74611634D01*
X74622764Y74648466D01*
X74463576Y74729578D01*
X74216493Y74809860D01*
X73959902Y74850500D01*
X73959897Y74850500D01*
X73700103Y74850500D01*
X73700098Y74850500D01*
X73443506Y74809860D01*
X73196423Y74729578D01*
X72964945Y74611632D01*
X72754774Y74458934D01*
X72754768Y74458929D01*
X72647681Y74351841D01*
X72586358Y74318356D01*
X72516666Y74323340D01*
X72472319Y74351841D01*
X72365231Y74458929D01*
X72365225Y74458934D01*
X72155054Y74611632D01*
X72155053Y74611633D01*
X72155051Y74611634D01*
X72082764Y74648466D01*
X71923576Y74729578D01*
X71676493Y74809860D01*
X71419902Y74850500D01*
X71419897Y74850500D01*
X71160103Y74850500D01*
X71160098Y74850500D01*
X70903506Y74809860D01*
X70656423Y74729578D01*
X70424945Y74611632D01*
X70214774Y74458934D01*
X70214768Y74458929D01*
X70107681Y74351841D01*
X70046358Y74318356D01*
X69976666Y74323340D01*
X69932319Y74351841D01*
X69825231Y74458929D01*
X69825225Y74458934D01*
X69615054Y74611632D01*
X69615053Y74611633D01*
X69615051Y74611634D01*
X69542764Y74648466D01*
X69383576Y74729578D01*
X69136493Y74809860D01*
X68879902Y74850500D01*
X68879897Y74850500D01*
X68620103Y74850500D01*
X68620098Y74850500D01*
X68363506Y74809860D01*
X68116423Y74729578D01*
X67884945Y74611632D01*
X67674774Y74458934D01*
X67674768Y74458929D01*
X67567681Y74351841D01*
X67506358Y74318356D01*
X67436666Y74323340D01*
X67392319Y74351841D01*
X67285231Y74458929D01*
X67285225Y74458934D01*
X67075054Y74611632D01*
X67075053Y74611633D01*
X67075051Y74611634D01*
X67002764Y74648466D01*
X66843576Y74729578D01*
X66596493Y74809860D01*
X66339902Y74850500D01*
X66339897Y74850500D01*
X66080103Y74850500D01*
X66080098Y74850500D01*
X65823506Y74809860D01*
X65576423Y74729578D01*
X65344945Y74611632D01*
X65134774Y74458934D01*
X65134768Y74458929D01*
X65027681Y74351841D01*
X64966358Y74318356D01*
X64896666Y74323340D01*
X64852319Y74351841D01*
X64745231Y74458929D01*
X64745225Y74458934D01*
X64535054Y74611632D01*
X64535053Y74611633D01*
X64535051Y74611634D01*
X64462764Y74648466D01*
X64303576Y74729578D01*
X64056493Y74809860D01*
X63799902Y74850500D01*
X63799897Y74850500D01*
X63540103Y74850500D01*
X63540098Y74850500D01*
X63283506Y74809860D01*
X63036423Y74729578D01*
X62804945Y74611632D01*
X62594774Y74458934D01*
X62594768Y74458929D01*
X62487681Y74351841D01*
X62426358Y74318356D01*
X62356666Y74323340D01*
X62312319Y74351841D01*
X62205231Y74458929D01*
X62205225Y74458934D01*
X61995054Y74611632D01*
X61995053Y74611633D01*
X61995051Y74611634D01*
X61922764Y74648466D01*
X61763576Y74729578D01*
X61516493Y74809860D01*
X61259902Y74850500D01*
X61259897Y74850500D01*
X61000103Y74850500D01*
X61000098Y74850500D01*
X60743506Y74809860D01*
X60496423Y74729578D01*
X60264945Y74611632D01*
X60054774Y74458934D01*
X60054768Y74458929D01*
X59947681Y74351841D01*
X59886358Y74318356D01*
X59816666Y74323340D01*
X59772319Y74351841D01*
X59665231Y74458929D01*
X59665225Y74458934D01*
X59455054Y74611632D01*
X59455053Y74611633D01*
X59455051Y74611634D01*
X59382764Y74648466D01*
X59223576Y74729578D01*
X58976493Y74809860D01*
X58719902Y74850500D01*
X58719897Y74850500D01*
X58460103Y74850500D01*
X58460098Y74850500D01*
X58203506Y74809860D01*
X57956423Y74729578D01*
X57724945Y74611632D01*
X57514774Y74458934D01*
X57514768Y74458929D01*
X57407681Y74351841D01*
X57346358Y74318356D01*
X57276666Y74323340D01*
X57232319Y74351841D01*
X57125231Y74458929D01*
X57125225Y74458934D01*
X56915054Y74611632D01*
X56915053Y74611633D01*
X56915051Y74611634D01*
X56842764Y74648466D01*
X56683576Y74729578D01*
X56436493Y74809860D01*
X56179902Y74850500D01*
X56179897Y74850500D01*
X55920103Y74850500D01*
X55920098Y74850500D01*
X55663506Y74809860D01*
X55416423Y74729578D01*
X55184945Y74611632D01*
X54974774Y74458934D01*
X54974768Y74458929D01*
X54867681Y74351841D01*
X54806358Y74318356D01*
X54736666Y74323340D01*
X54692319Y74351841D01*
X54585231Y74458929D01*
X54585225Y74458934D01*
X54375054Y74611632D01*
X54375053Y74611633D01*
X54375051Y74611634D01*
X54302764Y74648466D01*
X54143576Y74729578D01*
X53896493Y74809860D01*
X53639902Y74850500D01*
X53639897Y74850500D01*
X53380103Y74850500D01*
X53380098Y74850500D01*
X53123506Y74809860D01*
X52876423Y74729578D01*
X52644945Y74611632D01*
X52434774Y74458934D01*
X52434768Y74458929D01*
X52327681Y74351841D01*
X52266358Y74318356D01*
X52196666Y74323340D01*
X52152319Y74351841D01*
X52045231Y74458929D01*
X52045225Y74458934D01*
X51835054Y74611632D01*
X51835053Y74611633D01*
X51835051Y74611634D01*
X51762764Y74648466D01*
X51603576Y74729578D01*
X51356493Y74809860D01*
X51099902Y74850500D01*
X51099897Y74850500D01*
X50840103Y74850500D01*
X50840098Y74850500D01*
X50583506Y74809860D01*
X50336423Y74729578D01*
X50104945Y74611632D01*
X49894774Y74458934D01*
X49894768Y74458929D01*
X49787681Y74351841D01*
X49726358Y74318356D01*
X49656666Y74323340D01*
X49612319Y74351841D01*
X49505231Y74458929D01*
X49505225Y74458934D01*
X49295054Y74611632D01*
X49295053Y74611633D01*
X49295051Y74611634D01*
X49222764Y74648466D01*
X49063576Y74729578D01*
X48816493Y74809860D01*
X48559902Y74850500D01*
X48559897Y74850500D01*
X48300103Y74850500D01*
X48300098Y74850500D01*
X48043506Y74809860D01*
X47796423Y74729578D01*
X47564945Y74611632D01*
X47354774Y74458934D01*
X47354768Y74458929D01*
X47247681Y74351841D01*
X47186358Y74318356D01*
X47116666Y74323340D01*
X47072319Y74351841D01*
X46965231Y74458929D01*
X46965225Y74458934D01*
X46755054Y74611632D01*
X46755053Y74611633D01*
X46755051Y74611634D01*
X46682764Y74648466D01*
X46523576Y74729578D01*
X46276493Y74809860D01*
X46019902Y74850500D01*
X46019897Y74850500D01*
X45760103Y74850500D01*
X45760098Y74850500D01*
X45503506Y74809860D01*
X45256423Y74729578D01*
X45024945Y74611632D01*
X44814774Y74458934D01*
X44814768Y74458929D01*
X44707681Y74351841D01*
X44646358Y74318356D01*
X44576666Y74323340D01*
X44532319Y74351841D01*
X44425231Y74458929D01*
X44425225Y74458934D01*
X44215054Y74611632D01*
X44215053Y74611633D01*
X44215051Y74611634D01*
X44142764Y74648466D01*
X43983576Y74729578D01*
X43736493Y74809860D01*
X43479902Y74850500D01*
X43479897Y74850500D01*
X43220103Y74850500D01*
X43220098Y74850500D01*
X42963506Y74809860D01*
X42716423Y74729578D01*
X42484945Y74611632D01*
X42274774Y74458934D01*
X42274768Y74458929D01*
X42167681Y74351841D01*
X42106358Y74318356D01*
X42036666Y74323340D01*
X41992319Y74351841D01*
X41885231Y74458929D01*
X41885225Y74458934D01*
X41675054Y74611632D01*
X41675053Y74611633D01*
X41675051Y74611634D01*
X41602764Y74648466D01*
X41443576Y74729578D01*
X41196493Y74809860D01*
X40939902Y74850500D01*
X40939897Y74850500D01*
X40680103Y74850500D01*
X40680098Y74850500D01*
X40423506Y74809860D01*
X40176423Y74729578D01*
X39944945Y74611632D01*
X39734774Y74458934D01*
X39734768Y74458929D01*
X39627681Y74351841D01*
X39566358Y74318356D01*
X39496666Y74323340D01*
X39452319Y74351841D01*
X39345231Y74458929D01*
X39345225Y74458934D01*
X39135054Y74611632D01*
X39135053Y74611633D01*
X39135051Y74611634D01*
X39062764Y74648466D01*
X38903576Y74729578D01*
X38656493Y74809860D01*
X38399902Y74850500D01*
X38399897Y74850500D01*
X38140103Y74850500D01*
X38140098Y74850500D01*
X37883506Y74809860D01*
X37636423Y74729578D01*
X37404945Y74611632D01*
X37194774Y74458934D01*
X37194768Y74458929D01*
X37011071Y74275232D01*
X37011066Y74275226D01*
X36858368Y74065055D01*
X36740422Y73833577D01*
X36660140Y73586494D01*
X36619500Y73329903D01*
X36619500Y73070098D01*
X36660140Y72813507D01*
X36740422Y72566424D01*
X36858368Y72334946D01*
X37011066Y72124775D01*
X37011071Y72124769D01*
X37118159Y72017681D01*
X37122497Y72009736D01*
X37129745Y72004310D01*
X37138979Y71979551D01*
X37151644Y71956358D01*
X37150998Y71947329D01*
X37154162Y71938846D01*
X37148545Y71913026D01*
X37146660Y71886666D01*
X37140841Y71877613D01*
X37139310Y71870573D01*
X37118159Y71842319D01*
X37087681Y71811841D01*
X37026358Y71778356D01*
X36956666Y71783340D01*
X36912319Y71811841D01*
X36805231Y71918929D01*
X36805225Y71918934D01*
X36595054Y72071632D01*
X36595053Y72071633D01*
X36595051Y72071634D01*
X36522764Y72108466D01*
X36363576Y72189578D01*
X36116493Y72269860D01*
X35859902Y72310500D01*
X35859897Y72310500D01*
X35600103Y72310500D01*
X35600098Y72310500D01*
X35343506Y72269860D01*
X35096423Y72189578D01*
X34864945Y72071632D01*
X34654774Y71918934D01*
X34547681Y71811841D01*
X34539735Y71807503D01*
X34534312Y71800257D01*
X34509552Y71791022D01*
X34486358Y71778357D01*
X34477329Y71779003D01*
X34468848Y71775839D01*
X34443026Y71781456D01*
X34416666Y71783341D01*
X34407612Y71789160D01*
X34400575Y71790690D01*
X34372320Y71811840D01*
X34372319Y71811841D01*
X34341840Y71842320D01*
X34308356Y71903640D01*
X34313340Y71973332D01*
X34341841Y72017681D01*
X34395001Y72070841D01*
X34448931Y72124771D01*
X34601634Y72334949D01*
X34719579Y72566428D01*
X34799860Y72813507D01*
X34822539Y72956702D01*
X34840500Y73070098D01*
X34840500Y73329903D01*
X34815836Y73485621D01*
X34799860Y73586493D01*
X34719579Y73833572D01*
X34719577Y73833575D01*
X34719577Y73833577D01*
X34676787Y73917555D01*
X34601634Y74065051D01*
X34448931Y74275229D01*
X34265229Y74458931D01*
X34243408Y74474785D01*
X34055054Y74611632D01*
X34055053Y74611633D01*
X34055051Y74611634D01*
X33982764Y74648466D01*
X33823576Y74729578D01*
X33576493Y74809860D01*
X33319902Y74850500D01*
X33319897Y74850500D01*
X33060103Y74850500D01*
X33060098Y74850500D01*
X32803506Y74809860D01*
X32556423Y74729578D01*
X32324945Y74611632D01*
X32114774Y74458934D01*
X32114768Y74458929D01*
X32007681Y74351841D01*
X31946358Y74318356D01*
X31876666Y74323340D01*
X31832319Y74351841D01*
X31725231Y74458929D01*
X31725225Y74458934D01*
X31515054Y74611632D01*
X31515053Y74611633D01*
X31515051Y74611634D01*
X31442764Y74648466D01*
X31283576Y74729578D01*
X31036493Y74809860D01*
X30779902Y74850500D01*
X30779897Y74850500D01*
X30520103Y74850500D01*
X30520098Y74850500D01*
X30263506Y74809860D01*
X30016423Y74729578D01*
X29784945Y74611632D01*
X29574774Y74458934D01*
X29574768Y74458929D01*
X29467681Y74351841D01*
X29406358Y74318356D01*
X29336666Y74323340D01*
X29292319Y74351841D01*
X29185231Y74458929D01*
X29185225Y74458934D01*
X28975054Y74611632D01*
X28975053Y74611633D01*
X28975051Y74611634D01*
X28902764Y74648466D01*
X28743576Y74729578D01*
X28496493Y74809860D01*
X28239902Y74850500D01*
X28239897Y74850500D01*
X27980103Y74850500D01*
X27980098Y74850500D01*
X27723506Y74809860D01*
X27476423Y74729578D01*
X27244946Y74611633D01*
X27183219Y74566786D01*
X27117413Y74543307D01*
X27049359Y74559133D01*
X27022654Y74579424D01*
X26922262Y74679816D01*
X26769523Y74775789D01*
X26599254Y74835369D01*
X26599249Y74835370D01*
X26464960Y74850500D01*
X26464954Y74850500D01*
X24675046Y74850500D01*
X24675039Y74850500D01*
X24540750Y74835370D01*
X24540745Y74835369D01*
X24370476Y74775789D01*
X24217737Y74679816D01*
X24090184Y74552263D01*
X23994211Y74399524D01*
X23934631Y74229255D01*
X23934630Y74229250D01*
X23919500Y74094961D01*
X13510Y74094961D01*
X13508Y74098371D01*
X12248Y76616761D01*
X11443Y78225962D01*
X92199500Y78225962D01*
X92199500Y77974039D01*
X92238910Y77725215D01*
X92316760Y77485617D01*
X92431132Y77261152D01*
X92579201Y77057351D01*
X92579205Y77057346D01*
X92757345Y76879206D01*
X92757350Y76879202D01*
X92935117Y76750048D01*
X92961155Y76731130D01*
X93104184Y76658253D01*
X93185616Y76616761D01*
X93185618Y76616761D01*
X93185621Y76616759D01*
X93425215Y76538910D01*
X93674038Y76499500D01*
X93674039Y76499500D01*
X93925961Y76499500D01*
X93925962Y76499500D01*
X94174785Y76538910D01*
X94414379Y76616759D01*
X94638845Y76731130D01*
X94842656Y76879207D01*
X95020793Y77057344D01*
X95168870Y77261155D01*
X95283241Y77485621D01*
X95361090Y77725215D01*
X95400500Y77974038D01*
X95400500Y78225962D01*
X95361090Y78474785D01*
X95283241Y78714379D01*
X95283239Y78714382D01*
X95283239Y78714384D01*
X95241747Y78795816D01*
X95168870Y78938845D01*
X95149952Y78964883D01*
X95020798Y79142650D01*
X95020794Y79142655D01*
X94842654Y79320795D01*
X94842649Y79320799D01*
X94638848Y79468868D01*
X94638847Y79468869D01*
X94638845Y79468870D01*
X94568747Y79504587D01*
X94414383Y79583240D01*
X94174785Y79661090D01*
X93925962Y79700500D01*
X93674038Y79700500D01*
X93549626Y79680795D01*
X93425214Y79661090D01*
X93185616Y79583240D01*
X92961151Y79468868D01*
X92757350Y79320799D01*
X92757345Y79320795D01*
X92579205Y79142655D01*
X92579201Y79142650D01*
X92431132Y78938849D01*
X92316760Y78714384D01*
X92238910Y78474786D01*
X92199500Y78225962D01*
X11443Y78225962D01*
X9317Y82475962D01*
X92199500Y82475962D01*
X92199500Y82224039D01*
X92238910Y81975215D01*
X92316760Y81735617D01*
X92431132Y81511152D01*
X92579201Y81307351D01*
X92579205Y81307346D01*
X92757345Y81129206D01*
X92757350Y81129202D01*
X92935117Y81000048D01*
X92961155Y80981130D01*
X93104184Y80908253D01*
X93185616Y80866761D01*
X93185618Y80866761D01*
X93185621Y80866759D01*
X93425215Y80788910D01*
X93674038Y80749500D01*
X93674039Y80749500D01*
X93925961Y80749500D01*
X93925962Y80749500D01*
X94174785Y80788910D01*
X94414379Y80866759D01*
X94638845Y80981130D01*
X94842656Y81129207D01*
X95020793Y81307344D01*
X95168870Y81511155D01*
X95283241Y81735621D01*
X95361090Y81975215D01*
X95400500Y82224038D01*
X95400500Y82475962D01*
X95361090Y82724785D01*
X95283241Y82964379D01*
X95283239Y82964382D01*
X95283239Y82964384D01*
X95241747Y83045816D01*
X95168870Y83188845D01*
X95149952Y83214883D01*
X95020798Y83392650D01*
X95020794Y83392655D01*
X94842654Y83570795D01*
X94842649Y83570799D01*
X94638848Y83718868D01*
X94638847Y83718869D01*
X94638845Y83718870D01*
X94568747Y83754587D01*
X94414383Y83833240D01*
X94174785Y83911090D01*
X93925962Y83950500D01*
X93674038Y83950500D01*
X93549626Y83930795D01*
X93425214Y83911090D01*
X93185616Y83833240D01*
X92961151Y83718868D01*
X92757350Y83570799D01*
X92757345Y83570795D01*
X92579205Y83392655D01*
X92579201Y83392650D01*
X92431132Y83188849D01*
X92316760Y82964384D01*
X92238910Y82724786D01*
X92199500Y82475962D01*
X9317Y82475962D01*
X7191Y86725962D01*
X88279500Y86725962D01*
X88279500Y86474039D01*
X88318910Y86225215D01*
X88396760Y85985617D01*
X88511132Y85761152D01*
X88659201Y85557351D01*
X88659205Y85557346D01*
X88837345Y85379206D01*
X88837350Y85379202D01*
X89015117Y85250048D01*
X89041155Y85231130D01*
X89184184Y85158253D01*
X89265616Y85116761D01*
X89265618Y85116761D01*
X89265621Y85116759D01*
X89505215Y85038910D01*
X89754038Y84999500D01*
X89754039Y84999500D01*
X90005961Y84999500D01*
X90005962Y84999500D01*
X90254785Y85038910D01*
X90494379Y85116759D01*
X90718845Y85231130D01*
X90922656Y85379207D01*
X91100793Y85557344D01*
X91248870Y85761155D01*
X91363241Y85985621D01*
X91441090Y86225215D01*
X91480500Y86474038D01*
X91480500Y86725962D01*
X91441090Y86974785D01*
X91363241Y87214379D01*
X91363239Y87214382D01*
X91363239Y87214384D01*
X91321747Y87295816D01*
X91248870Y87438845D01*
X91229952Y87464883D01*
X91100798Y87642650D01*
X91100794Y87642655D01*
X90922654Y87820795D01*
X90922649Y87820799D01*
X90718848Y87968868D01*
X90718847Y87968869D01*
X90718845Y87968870D01*
X90648747Y88004587D01*
X90494383Y88083240D01*
X90254785Y88161090D01*
X90005962Y88200500D01*
X89754038Y88200500D01*
X89629626Y88180795D01*
X89505214Y88161090D01*
X89265616Y88083240D01*
X89041151Y87968868D01*
X88837350Y87820799D01*
X88837345Y87820795D01*
X88659205Y87642655D01*
X88659201Y87642650D01*
X88511132Y87438849D01*
X88396760Y87214384D01*
X88318910Y86974786D01*
X88279500Y86725962D01*
X7191Y86725962D01*
X5565Y89975962D01*
X92199500Y89975962D01*
X92199500Y89724039D01*
X92238910Y89475215D01*
X92316760Y89235617D01*
X92431132Y89011152D01*
X92579201Y88807351D01*
X92579205Y88807346D01*
X92757345Y88629206D01*
X92757350Y88629202D01*
X92935117Y88500048D01*
X92961155Y88481130D01*
X93104184Y88408253D01*
X93185616Y88366761D01*
X93185618Y88366761D01*
X93185621Y88366759D01*
X93425215Y88288910D01*
X93674038Y88249500D01*
X93674039Y88249500D01*
X93925961Y88249500D01*
X93925962Y88249500D01*
X94174785Y88288910D01*
X94414379Y88366759D01*
X94638845Y88481130D01*
X94842656Y88629207D01*
X95020793Y88807344D01*
X95168870Y89011155D01*
X95283241Y89235621D01*
X95361090Y89475215D01*
X95400500Y89724038D01*
X95400500Y89975962D01*
X95361090Y90224785D01*
X95283241Y90464379D01*
X95283239Y90464382D01*
X95283239Y90464384D01*
X95235869Y90557351D01*
X95168870Y90688845D01*
X95116334Y90761155D01*
X95020798Y90892650D01*
X95020794Y90892655D01*
X94842654Y91070795D01*
X94842649Y91070799D01*
X94638848Y91218868D01*
X94638847Y91218869D01*
X94638845Y91218870D01*
X94568747Y91254587D01*
X94414383Y91333240D01*
X94174785Y91411090D01*
X93925962Y91450500D01*
X93674038Y91450500D01*
X93549626Y91430795D01*
X93425214Y91411090D01*
X93185616Y91333240D01*
X92961151Y91218868D01*
X92757350Y91070799D01*
X92757345Y91070795D01*
X92579205Y90892655D01*
X92579201Y90892650D01*
X92431132Y90688849D01*
X92316760Y90464384D01*
X92238910Y90224786D01*
X92199500Y89975962D01*
X5565Y89975962D01*
X4690Y91725962D01*
X85199500Y91725962D01*
X85199500Y91474039D01*
X85238910Y91225215D01*
X85316760Y90985617D01*
X85431132Y90761152D01*
X85579201Y90557351D01*
X85579205Y90557346D01*
X85757345Y90379206D01*
X85757350Y90379202D01*
X85935117Y90250048D01*
X85961155Y90231130D01*
X86104184Y90158253D01*
X86185616Y90116761D01*
X86185618Y90116761D01*
X86185621Y90116759D01*
X86425215Y90038910D01*
X86674038Y89999500D01*
X86674039Y89999500D01*
X86925961Y89999500D01*
X86925962Y89999500D01*
X87174785Y90038910D01*
X87414379Y90116759D01*
X87638845Y90231130D01*
X87842656Y90379207D01*
X88020793Y90557344D01*
X88168870Y90761155D01*
X88283241Y90985621D01*
X88361090Y91225215D01*
X88400500Y91474038D01*
X88400500Y91725962D01*
X88361090Y91974785D01*
X88283241Y92214379D01*
X88283239Y92214382D01*
X88283239Y92214384D01*
X88241747Y92295816D01*
X88168870Y92438845D01*
X88149952Y92464883D01*
X88020798Y92642650D01*
X88020794Y92642655D01*
X87842654Y92820795D01*
X87842649Y92820799D01*
X87638848Y92968868D01*
X87638847Y92968869D01*
X87638845Y92968870D01*
X87568747Y93004587D01*
X87414383Y93083240D01*
X87174785Y93161090D01*
X86925962Y93200500D01*
X86674038Y93200500D01*
X86549626Y93180795D01*
X86425214Y93161090D01*
X86185616Y93083240D01*
X85961151Y92968868D01*
X85757350Y92820799D01*
X85757345Y92820795D01*
X85579205Y92642655D01*
X85579201Y92642650D01*
X85431132Y92438849D01*
X85316760Y92214384D01*
X85238910Y91974786D01*
X85199500Y91725962D01*
X4690Y91725962D01*
X2639Y95825962D01*
X2449500Y95825962D01*
X2449500Y95574039D01*
X2488910Y95325215D01*
X2566760Y95085617D01*
X2681132Y94861152D01*
X2829201Y94657351D01*
X2829205Y94657346D01*
X3007345Y94479206D01*
X3007350Y94479202D01*
X3185117Y94350048D01*
X3211155Y94331130D01*
X3354184Y94258253D01*
X3435616Y94216761D01*
X3435618Y94216761D01*
X3435621Y94216759D01*
X3675215Y94138910D01*
X3924038Y94099500D01*
X3924039Y94099500D01*
X4175961Y94099500D01*
X4175962Y94099500D01*
X4424785Y94138910D01*
X4664379Y94216759D01*
X4888845Y94331130D01*
X5092656Y94479207D01*
X5270793Y94657344D01*
X5418870Y94861155D01*
X5533241Y95085621D01*
X5611090Y95325215D01*
X5650500Y95574038D01*
X5650500Y95825962D01*
X94449500Y95825962D01*
X94449500Y95574039D01*
X94488910Y95325215D01*
X94566760Y95085617D01*
X94681132Y94861152D01*
X94829201Y94657351D01*
X94829205Y94657346D01*
X95007345Y94479206D01*
X95007350Y94479202D01*
X95185117Y94350048D01*
X95211155Y94331130D01*
X95354184Y94258253D01*
X95435616Y94216761D01*
X95435618Y94216761D01*
X95435621Y94216759D01*
X95675215Y94138910D01*
X95924038Y94099500D01*
X95924039Y94099500D01*
X96175961Y94099500D01*
X96175962Y94099500D01*
X96424785Y94138910D01*
X96664379Y94216759D01*
X96888845Y94331130D01*
X97092656Y94479207D01*
X97270793Y94657344D01*
X97418870Y94861155D01*
X97533241Y95085621D01*
X97611090Y95325215D01*
X97650500Y95574038D01*
X97650500Y95825962D01*
X97611090Y96074785D01*
X97533241Y96314379D01*
X97533239Y96314382D01*
X97533239Y96314384D01*
X97491747Y96395816D01*
X97418870Y96538845D01*
X97399952Y96564883D01*
X97270798Y96742650D01*
X97270794Y96742655D01*
X97092654Y96920795D01*
X97092649Y96920799D01*
X96888848Y97068868D01*
X96888847Y97068869D01*
X96888845Y97068870D01*
X96818747Y97104587D01*
X96664383Y97183240D01*
X96424785Y97261090D01*
X96175962Y97300500D01*
X95924038Y97300500D01*
X95799626Y97280795D01*
X95675214Y97261090D01*
X95435616Y97183240D01*
X95211151Y97068868D01*
X95007350Y96920799D01*
X95007345Y96920795D01*
X94829205Y96742655D01*
X94829201Y96742650D01*
X94681132Y96538849D01*
X94566760Y96314384D01*
X94488910Y96074786D01*
X94449500Y95825962D01*
X5650500Y95825962D01*
X5611090Y96074785D01*
X5533241Y96314379D01*
X5533239Y96314382D01*
X5533239Y96314384D01*
X5491747Y96395816D01*
X5418870Y96538845D01*
X5399952Y96564883D01*
X5270798Y96742650D01*
X5270794Y96742655D01*
X5092654Y96920795D01*
X5092649Y96920799D01*
X4888848Y97068868D01*
X4888847Y97068869D01*
X4888845Y97068870D01*
X4818747Y97104587D01*
X4664383Y97183240D01*
X4424785Y97261090D01*
X4175962Y97300500D01*
X3924038Y97300500D01*
X3799626Y97280795D01*
X3675214Y97261090D01*
X3435616Y97183240D01*
X3211151Y97068868D01*
X3007350Y96920799D01*
X3007345Y96920795D01*
X2829205Y96742655D01*
X2829201Y96742650D01*
X2681132Y96538849D01*
X2566760Y96314384D01*
X2488910Y96074786D01*
X2449500Y95825962D01*
X2639Y95825962D01*
X838Y99425938D01*
X20489Y99492987D01*
X73270Y99538769D01*
X124838Y99550000D01*
X99475500Y99550000D01*
X99542539Y99530315D01*
G37*
G04 #@! TD.AperFunction*
M02*
