G04 #@! TF.GenerationSoftware,KiCad,Pcbnew,9.0.2*
G04 #@! TF.CreationDate,2025-10-12T16:52:18+02:00*
G04 #@! TF.ProjectId,PiZero_VT100,50695a65-726f-45f5-9654-3130302e6b69,rev?*
G04 #@! TF.SameCoordinates,PX5e9ac00PYa0ca1c0*
G04 #@! TF.FileFunction,Copper,L2,Bot*
G04 #@! TF.FilePolarity,Positive*
%FSLAX46Y46*%
G04 Gerber Fmt 4.6, Leading zero omitted, Abs format (unit mm)*
G04 Created by KiCad (PCBNEW 9.0.2) date 2025-10-12 16:52:18*
%MOMM*%
%LPD*%
G01*
G04 APERTURE LIST*
G04 Aperture macros list*
%AMRoundRect*
0 Rectangle with rounded corners*
0 $1 Rounding radius*
0 $2 $3 $4 $5 $6 $7 $8 $9 X,Y pos of 4 corners*
0 Add a 4 corners polygon primitive as box body*
4,1,4,$2,$3,$4,$5,$6,$7,$8,$9,$2,$3,0*
0 Add four circle primitives for the rounded corners*
1,1,$1+$1,$2,$3*
1,1,$1+$1,$4,$5*
1,1,$1+$1,$6,$7*
1,1,$1+$1,$8,$9*
0 Add four rect primitives between the rounded corners*
20,1,$1+$1,$2,$3,$4,$5,0*
20,1,$1+$1,$4,$5,$6,$7,0*
20,1,$1+$1,$6,$7,$8,$9,0*
20,1,$1+$1,$8,$9,$2,$3,0*%
G04 Aperture macros list end*
G04 #@! TA.AperFunction,ComponentPad*
%ADD10R,4.600000X2.000000*%
G04 #@! TD*
G04 #@! TA.AperFunction,ComponentPad*
%ADD11O,4.200000X2.000000*%
G04 #@! TD*
G04 #@! TA.AperFunction,ComponentPad*
%ADD12O,2.000000X4.200000*%
G04 #@! TD*
G04 #@! TA.AperFunction,ComponentPad*
%ADD13R,1.700000X1.700000*%
G04 #@! TD*
G04 #@! TA.AperFunction,ComponentPad*
%ADD14O,1.700000X1.700000*%
G04 #@! TD*
G04 #@! TA.AperFunction,ComponentPad*
%ADD15C,1.600000*%
G04 #@! TD*
G04 #@! TA.AperFunction,ComponentPad*
%ADD16C,1.700000*%
G04 #@! TD*
G04 #@! TA.AperFunction,ComponentPad*
%ADD17R,1.500000X1.500000*%
G04 #@! TD*
G04 #@! TA.AperFunction,ComponentPad*
%ADD18C,1.500000*%
G04 #@! TD*
G04 #@! TA.AperFunction,ComponentPad*
%ADD19R,2.600000X1.400000*%
G04 #@! TD*
G04 #@! TA.AperFunction,ComponentPad*
%ADD20O,2.600000X1.400000*%
G04 #@! TD*
G04 #@! TA.AperFunction,ComponentPad*
%ADD21RoundRect,0.250000X0.750000X0.750000X-0.750000X0.750000X-0.750000X-0.750000X0.750000X-0.750000X0*%
G04 #@! TD*
G04 #@! TA.AperFunction,ComponentPad*
%ADD22C,2.000000*%
G04 #@! TD*
G04 #@! TA.AperFunction,ComponentPad*
%ADD23O,1.200000X2.200000*%
G04 #@! TD*
G04 #@! TA.AperFunction,ComponentPad*
%ADD24O,2.000000X1.200000*%
G04 #@! TD*
G04 #@! TA.AperFunction,ComponentPad*
%ADD25C,3.400000*%
G04 #@! TD*
G04 #@! TA.AperFunction,ComponentPad*
%ADD26R,2.200000X1.300000*%
G04 #@! TD*
G04 #@! TA.AperFunction,ComponentPad*
%ADD27O,2.200000X1.300000*%
G04 #@! TD*
G04 #@! TA.AperFunction,ComponentPad*
%ADD28RoundRect,0.250000X-0.650000X-0.650000X0.650000X-0.650000X0.650000X0.650000X-0.650000X0.650000X0*%
G04 #@! TD*
G04 #@! TA.AperFunction,ComponentPad*
%ADD29C,1.800000*%
G04 #@! TD*
G04 #@! TA.AperFunction,ComponentPad*
%ADD30R,1.400000X1.400000*%
G04 #@! TD*
G04 #@! TA.AperFunction,ComponentPad*
%ADD31C,1.400000*%
G04 #@! TD*
G04 #@! TA.AperFunction,ComponentPad*
%ADD32R,2.000000X2.000000*%
G04 #@! TD*
G04 #@! TA.AperFunction,ComponentPad*
%ADD33O,2.000000X2.000000*%
G04 #@! TD*
G04 #@! TA.AperFunction,ComponentPad*
%ADD34RoundRect,0.250000X0.650000X-0.650000X0.650000X0.650000X-0.650000X0.650000X-0.650000X-0.650000X0*%
G04 #@! TD*
G04 #@! TA.AperFunction,ComponentPad*
%ADD35RoundRect,0.250001X0.949999X0.949999X-0.949999X0.949999X-0.949999X-0.949999X0.949999X-0.949999X0*%
G04 #@! TD*
G04 #@! TA.AperFunction,ComponentPad*
%ADD36C,2.400000*%
G04 #@! TD*
G04 #@! TA.AperFunction,ComponentPad*
%ADD37R,1.300000X2.500000*%
G04 #@! TD*
G04 #@! TA.AperFunction,ComponentPad*
%ADD38O,1.200000X2.500000*%
G04 #@! TD*
G04 #@! TA.AperFunction,ComponentPad*
%ADD39O,1.500000X2.500000*%
G04 #@! TD*
G04 #@! TA.AperFunction,ComponentPad*
%ADD40C,3.000000*%
G04 #@! TD*
G04 #@! TA.AperFunction,ComponentPad*
%ADD41C,6.000000*%
G04 #@! TD*
G04 #@! TA.AperFunction,ViaPad*
%ADD42C,2.000000*%
G04 #@! TD*
G04 #@! TA.AperFunction,Conductor*
%ADD43C,0.800000*%
G04 #@! TD*
G04 APERTURE END LIST*
D10*
X12550000Y14300000D03*
D11*
X12550000Y8000000D03*
D12*
X17350000Y11400000D03*
D13*
X25570000Y73200000D03*
D14*
X25570000Y70660000D03*
X28110000Y73200000D03*
X28110000Y70660000D03*
X30650000Y73200000D03*
X30650000Y70660000D03*
X33190000Y73200000D03*
X33190000Y70660000D03*
X35730000Y73200000D03*
X35730000Y70660000D03*
X38270000Y73200000D03*
X38270000Y70660000D03*
X40810000Y73200000D03*
X40810000Y70660000D03*
X43350000Y73200000D03*
X43350000Y70660000D03*
X45890000Y73200000D03*
X45890000Y70660000D03*
X48430000Y73200000D03*
X48430000Y70660000D03*
X50970000Y73200000D03*
X50970000Y70660000D03*
X53510000Y73200000D03*
X53510000Y70660000D03*
X56050000Y73200000D03*
X56050000Y70660000D03*
X58590000Y73200000D03*
X58590000Y70660000D03*
X61130000Y73200000D03*
X61130000Y70660000D03*
X63670000Y73200000D03*
X63670000Y70660000D03*
X66210000Y73200000D03*
X66210000Y70660000D03*
X68750000Y73200000D03*
X68750000Y70660000D03*
X71290000Y73200000D03*
X71290000Y70660000D03*
X73830000Y73200000D03*
X73830000Y70660000D03*
D15*
X12300000Y61180000D03*
X12300000Y51020000D03*
D13*
X31760000Y27150000D03*
D16*
X34300000Y27150000D03*
X36840000Y27150000D03*
X39380000Y27150000D03*
D17*
X84800000Y59680000D03*
D18*
X87340000Y57140000D03*
X84800000Y54600000D03*
D15*
X93800000Y89850000D03*
X93800000Y82350000D03*
D19*
X22200000Y51180000D03*
D20*
X22200000Y48640000D03*
X22200000Y46100000D03*
D15*
X86800000Y91600000D03*
X81800000Y91600000D03*
D21*
X8167677Y63600000D03*
D22*
X3167677Y63600000D03*
X3350000Y24650000D03*
X3350000Y36050000D03*
D23*
X64150000Y8600000D03*
X61550000Y8600000D03*
X66250000Y8600000D03*
X59450000Y8600000D03*
D24*
X66250000Y11100000D03*
X59450000Y11100000D03*
D25*
X69600000Y5600000D03*
X56100000Y5600000D03*
X62850000Y4800000D03*
D26*
X93800000Y9830000D03*
D27*
X93800000Y12370000D03*
D17*
X96300000Y62600000D03*
D18*
X93760000Y60060000D03*
X91220000Y62600000D03*
D15*
X79720000Y86600000D03*
X89880000Y86600000D03*
X56880000Y65600000D03*
X46720000Y65600000D03*
D28*
X80200000Y48600000D03*
D29*
X92900000Y48600000D03*
D13*
X37500000Y50525000D03*
D16*
X37500000Y47985000D03*
D30*
X71420000Y55100000D03*
D31*
X63800000Y55100000D03*
X58720000Y55100000D03*
X53640000Y55100000D03*
X53640000Y47480000D03*
X58720000Y47480000D03*
X63800000Y47480000D03*
X71420000Y47480000D03*
D15*
X77720000Y68600000D03*
X87880000Y68600000D03*
D13*
X81025000Y39550000D03*
D16*
X83565000Y39550000D03*
D32*
X90929216Y37100000D03*
D22*
X95929216Y37100000D03*
D15*
X8300000Y42600000D03*
X13300000Y42600000D03*
D32*
X10300000Y21600000D03*
D33*
X15380000Y21600000D03*
X15380000Y26680000D03*
X10300000Y26680000D03*
D34*
X76340000Y47330000D03*
D29*
X76340000Y60030000D03*
D35*
X60400000Y20550000D03*
D36*
X47700000Y20550000D03*
D15*
X76220000Y30100000D03*
X86380000Y30100000D03*
X96300000Y56600000D03*
X96300000Y46440000D03*
D13*
X43600000Y38850000D03*
D16*
X43600000Y41390000D03*
X43600000Y43930000D03*
X43600000Y46470000D03*
D15*
X93800000Y78100000D03*
X93800000Y67940000D03*
D21*
X7800000Y49600000D03*
D22*
X2800000Y49600000D03*
D37*
X77750000Y12940000D03*
D38*
X80250000Y12940000D03*
X82250000Y12940000D03*
D39*
X84750000Y12940000D03*
D40*
X74680000Y10230000D03*
X87820000Y10230000D03*
D15*
X12800000Y68600000D03*
X12800000Y73600000D03*
X16300000Y51020000D03*
X16300000Y61180000D03*
X46720000Y62100000D03*
X56880000Y62100000D03*
X78220000Y74100000D03*
X88380000Y74100000D03*
D13*
X4300000Y14875000D03*
D16*
X4300000Y12335000D03*
D41*
X26600000Y61200000D03*
X26600000Y35800000D03*
D42*
X17700000Y48600000D03*
X17650000Y40650000D03*
X60400000Y31900000D03*
X60450000Y24850000D03*
X48050000Y46600000D03*
X48000000Y32150000D03*
X70400000Y15150000D03*
X70400000Y28100000D03*
D43*
X15380000Y21600000D02*
X16300000Y21600000D01*
X20350000Y17550000D02*
X20350000Y7900000D01*
X20350000Y7900000D02*
X12650000Y7900000D01*
X16300000Y21600000D02*
X20350000Y17550000D01*
X12650000Y7900000D02*
X12550000Y8000000D01*
X62035844Y59600000D02*
X42835844Y59600000D01*
X33190000Y69245844D02*
X33190000Y70660000D01*
X63800000Y55100000D02*
X63800000Y57835844D01*
X42835844Y59600000D02*
X33190000Y69245844D01*
X63800000Y57835844D02*
X62035844Y59600000D01*
X46720000Y65600000D02*
X46720000Y62100000D01*
X35750000Y70640000D02*
X35750000Y68950000D01*
X35730000Y70660000D02*
X35750000Y70640000D01*
X35750000Y68950000D02*
X39100000Y65600000D01*
X39100000Y65600000D02*
X46720000Y65600000D01*
X93130000Y89850000D02*
X89880000Y86600000D01*
X88380000Y85100000D02*
X88380000Y74100000D01*
X92050000Y91600000D02*
X93800000Y89850000D01*
X89880000Y86600000D02*
X88380000Y85100000D01*
X93800000Y89850000D02*
X93130000Y89850000D01*
X86800000Y91600000D02*
X92050000Y91600000D01*
X68750000Y70660000D02*
X68750000Y69050000D01*
X69200000Y68600000D02*
X77720000Y68600000D01*
X68750000Y69050000D02*
X69200000Y68600000D01*
X23700000Y27250000D02*
X31660000Y27250000D01*
X37500000Y50525000D02*
X27925000Y50525000D01*
X36710000Y20550000D02*
X31760000Y25500000D01*
X8167677Y63600000D02*
X8167677Y68217677D01*
X17700000Y48600000D02*
X18300000Y48600000D01*
X92800000Y71600000D02*
X84300000Y71600000D01*
X69519000Y57001000D02*
X69519000Y49381000D01*
X93800000Y67940000D02*
X93800000Y70600000D01*
X75118000Y62600000D02*
X69519000Y57001000D01*
X17600000Y40600000D02*
X17600000Y33350000D01*
X18600000Y61100000D02*
X18600000Y70460000D01*
X22300000Y77600000D02*
X80800000Y77600000D01*
X47700000Y20550000D02*
X36710000Y20550000D01*
X80200000Y48600000D02*
X85535000Y48600000D01*
X18800000Y70660000D02*
X22300000Y70660000D01*
X71420000Y47480000D02*
X76190000Y47480000D01*
X80800000Y77600000D02*
X84300000Y74100000D01*
X76340000Y47330000D02*
X77610000Y48600000D01*
X22300000Y70660000D02*
X25570000Y70660000D01*
X22200000Y48640000D02*
X17740000Y48640000D01*
X27800000Y50650000D02*
X27800000Y55400000D01*
X16110000Y70660000D02*
X18800000Y70660000D01*
X18600000Y70460000D02*
X18800000Y70660000D01*
X84300000Y62600000D02*
X75118000Y62600000D01*
X84300000Y74100000D02*
X84300000Y71600000D01*
X27800000Y55400000D02*
X18600000Y55400000D01*
X25570000Y70660000D02*
X28110000Y70660000D01*
X8550000Y68600000D02*
X14050000Y68600000D01*
X93800000Y70600000D02*
X92800000Y71600000D01*
X69519000Y49381000D02*
X71420000Y47480000D01*
X31660000Y27250000D02*
X31760000Y27150000D01*
X18600000Y55400000D02*
X18600000Y61100000D01*
X31760000Y25500000D02*
X31760000Y27150000D01*
X17650000Y40650000D02*
X17600000Y40600000D01*
X18520000Y61180000D02*
X18600000Y61100000D01*
X27760000Y48640000D02*
X27800000Y48600000D01*
X84300000Y71600000D02*
X84300000Y62600000D01*
X16300000Y61180000D02*
X18520000Y61180000D01*
X27800000Y48600000D02*
X27800000Y50650000D01*
X22200000Y48640000D02*
X27760000Y48640000D01*
X17600000Y33350000D02*
X23700000Y27250000D01*
X8167677Y68217677D02*
X8300000Y68350000D01*
X77610000Y48600000D02*
X80200000Y48600000D01*
X76190000Y47480000D02*
X76340000Y47330000D01*
X85535000Y48600000D02*
X85535000Y46365000D01*
X14050000Y68600000D02*
X16110000Y70660000D01*
X90929216Y40970784D02*
X90929216Y37100000D01*
X76220000Y47210000D02*
X76340000Y47330000D01*
X8300000Y68350000D02*
X8550000Y68600000D01*
X85535000Y46365000D02*
X90929216Y40970784D01*
X17740000Y48640000D02*
X17700000Y48600000D01*
X27925000Y50525000D02*
X27800000Y50650000D01*
X22300000Y70660000D02*
X22300000Y77600000D01*
X76220000Y30100000D02*
X76220000Y47210000D01*
X13300000Y25100000D02*
X10300000Y22100000D01*
X6300000Y49600000D02*
X5300000Y48600000D01*
X10300000Y22100000D02*
X10300000Y21600000D01*
X8300000Y42600000D02*
X5800000Y42600000D01*
X5300000Y48600000D02*
X5300000Y39900000D01*
X11800000Y46100000D02*
X22200000Y46100000D01*
X7800000Y49600000D02*
X6300000Y49600000D01*
X8300000Y42600000D02*
X11800000Y46100000D01*
X5300000Y39900000D02*
X13200000Y32000000D01*
X13179000Y31979000D02*
X13179000Y25221000D01*
X13179000Y25221000D02*
X13300000Y25100000D01*
X14900000Y21120000D02*
X15380000Y21600000D01*
X10300000Y31050000D02*
X10300000Y26680000D01*
X5300000Y36050000D02*
X10300000Y31050000D01*
X3350000Y36050000D02*
X5300000Y36050000D01*
X12550000Y14300000D02*
X12550000Y13200000D01*
X12550000Y13200000D02*
X11685000Y12335000D01*
X4300000Y12335000D02*
X11685000Y12335000D01*
X81025000Y39550000D02*
X81025000Y16825000D01*
X80250000Y12940000D02*
X80250000Y16050000D01*
X80250000Y16050000D02*
X81025000Y16825000D01*
X83565000Y16865000D02*
X82250000Y15550000D01*
X82250000Y15550000D02*
X82250000Y12940000D01*
X83565000Y39550000D02*
X83565000Y16865000D01*
X60450000Y24000000D02*
X60400000Y23950000D01*
X77750000Y12940000D02*
X77750000Y16850000D01*
X43600000Y41390000D02*
X50910000Y41390000D01*
X60400000Y20550000D02*
X60400000Y18200000D01*
X59500000Y11100000D02*
X59450000Y11100000D01*
X60400000Y18200000D02*
X59500000Y17300000D01*
X60400000Y20550000D02*
X74050000Y20550000D01*
X59500000Y17300000D02*
X59500000Y11100000D01*
X60450000Y24850000D02*
X60450000Y24000000D01*
X74050000Y20550000D02*
X77750000Y16850000D01*
X50910000Y41390000D02*
X60400000Y31900000D01*
X60400000Y23950000D02*
X60400000Y20550000D01*
X4300000Y23700000D02*
X3350000Y24650000D01*
X4300000Y14875000D02*
X4300000Y23700000D01*
X38800000Y24150000D02*
X47100000Y24150000D01*
X36840000Y27150000D02*
X36840000Y26110000D01*
X54600000Y11800000D02*
X57800000Y8600000D01*
X57800000Y8600000D02*
X59450000Y8600000D01*
X43600000Y46470000D02*
X43600000Y52200000D01*
X53640000Y56890000D02*
X54100000Y57350000D01*
X54100000Y57350000D02*
X61200000Y57350000D01*
X48050000Y46600000D02*
X47160000Y46600000D01*
X47160000Y46600000D02*
X47030000Y46470000D01*
X47850000Y24150000D02*
X47100000Y24150000D01*
X54600000Y24150000D02*
X54600000Y11800000D01*
X61200000Y57350000D02*
X61200000Y49960000D01*
X47100000Y24150000D02*
X54600000Y24150000D01*
X47030000Y46470000D02*
X43600000Y46470000D01*
X61200000Y49960000D02*
X58720000Y47480000D01*
X43600000Y52200000D02*
X46500000Y55100000D01*
X48000000Y32150000D02*
X47850000Y32000000D01*
X53640000Y55100000D02*
X53640000Y56890000D01*
X46500000Y55100000D02*
X53640000Y55100000D01*
X47850000Y32000000D02*
X47850000Y24150000D01*
X36840000Y26110000D02*
X38800000Y24150000D01*
X41380000Y43930000D02*
X34300000Y36850000D01*
X43600000Y43930000D02*
X41380000Y43930000D01*
X53640000Y48640000D02*
X53640000Y47480000D01*
X70400000Y11400000D02*
X70400000Y15150000D01*
X53640000Y47480000D02*
X53640000Y46500000D01*
X50090000Y43930000D02*
X43600000Y43930000D01*
X70400000Y15150000D02*
X70350000Y15200000D01*
X53640000Y46500000D02*
X51070000Y43930000D01*
X58720000Y55100000D02*
X58720000Y53720000D01*
X55370000Y43930000D02*
X51070000Y43930000D01*
X66250000Y8600000D02*
X67600000Y8600000D01*
X58720000Y53720000D02*
X53640000Y48640000D01*
X70400000Y28100000D02*
X70400000Y28900000D01*
X70400000Y28900000D02*
X55370000Y43930000D01*
X51070000Y43930000D02*
X50090000Y43930000D01*
X67600000Y8600000D02*
X70400000Y11400000D01*
X34300000Y36850000D02*
X34300000Y27150000D01*
X84344000Y60030000D02*
X84344000Y59680000D01*
X76340000Y60030000D02*
X84450000Y60030000D01*
X71420000Y55110000D02*
X76340000Y60030000D01*
X84450000Y60030000D02*
X84800000Y59680000D01*
X71420000Y55100000D02*
X71420000Y55110000D01*
X87880000Y57680000D02*
X87340000Y57140000D01*
X87880000Y68600000D02*
X87880000Y57680000D01*
X93800000Y26100000D02*
X93800000Y12370000D01*
X86380000Y30100000D02*
X89800000Y30100000D01*
X89800000Y30100000D02*
X93800000Y26100000D01*
X12300000Y51020000D02*
X16300000Y51020000D01*
X22040000Y51020000D02*
X22200000Y51180000D01*
X16300000Y51020000D02*
X22040000Y51020000D01*
X96300000Y75600000D02*
X96300000Y67100000D01*
X93760000Y64560000D02*
X93760000Y60060000D01*
X93800000Y78100000D02*
X96300000Y75600000D01*
X96300000Y67100000D02*
X93760000Y64560000D01*
X93800000Y82350000D02*
X93800000Y78100000D01*
X80300000Y72020000D02*
X80300000Y66600000D01*
X78220000Y74100000D02*
X80300000Y72020000D01*
X63670000Y68230000D02*
X63670000Y70660000D01*
X80300000Y66600000D02*
X65300000Y66600000D01*
X65300000Y66600000D02*
X63670000Y68230000D01*
X96300000Y62600000D02*
X96300000Y56600000D01*
X65800000Y47800000D02*
X65800000Y58100000D01*
X61800000Y62100000D02*
X56880000Y62100000D01*
X65550000Y47550000D02*
X65800000Y47800000D01*
X63800000Y47480000D02*
X63870000Y47550000D01*
X65800000Y58100000D02*
X61800000Y62100000D01*
X63870000Y47550000D02*
X65550000Y47550000D01*
X96300000Y46440000D02*
X96300000Y41100000D01*
X92900000Y48600000D02*
X94140000Y48600000D01*
X95929216Y40729216D02*
X95929216Y37100000D01*
X94140000Y48600000D02*
X96300000Y46440000D01*
X96300000Y41100000D02*
X95929216Y40729216D01*
G04 #@! TA.AperFunction,Conductor*
G36*
X99542539Y99530315D02*
G01*
X99588294Y99477511D01*
X99599500Y99426000D01*
X99599500Y226834D01*
X99579815Y159795D01*
X99527011Y114040D01*
X99474449Y102838D01*
X88473264Y196068D01*
X88406394Y216320D01*
X88361088Y269510D01*
X88350317Y320844D01*
X88361752Y2138911D01*
X88372363Y3825962D01*
X94449500Y3825962D01*
X94449500Y3574038D01*
X94484865Y3350754D01*
X94488910Y3325215D01*
X94566760Y3085617D01*
X94681132Y2861152D01*
X94829201Y2657351D01*
X94829205Y2657346D01*
X95007345Y2479206D01*
X95007350Y2479202D01*
X95125387Y2393444D01*
X95211155Y2331130D01*
X95354184Y2258253D01*
X95435616Y2216761D01*
X95435618Y2216761D01*
X95435621Y2216759D01*
X95675215Y2138910D01*
X95924038Y2099500D01*
X95924039Y2099500D01*
X96175961Y2099500D01*
X96175962Y2099500D01*
X96424785Y2138910D01*
X96664379Y2216759D01*
X96888845Y2331130D01*
X97092656Y2479207D01*
X97270793Y2657344D01*
X97418870Y2861155D01*
X97533241Y3085621D01*
X97611090Y3325215D01*
X97650500Y3574038D01*
X97650500Y3825962D01*
X97611090Y4074785D01*
X97533241Y4314379D01*
X97533239Y4314382D01*
X97533239Y4314384D01*
X97491747Y4395816D01*
X97418870Y4538845D01*
X97399952Y4564883D01*
X97270798Y4742650D01*
X97270794Y4742655D01*
X97092654Y4920795D01*
X97092649Y4920799D01*
X96888848Y5068868D01*
X96888847Y5068869D01*
X96888845Y5068870D01*
X96818747Y5104587D01*
X96664383Y5183240D01*
X96424785Y5261090D01*
X96175962Y5300500D01*
X95924038Y5300500D01*
X95799626Y5280795D01*
X95675214Y5261090D01*
X95435616Y5183240D01*
X95211151Y5068868D01*
X95007350Y4920799D01*
X95007345Y4920795D01*
X94829205Y4742655D01*
X94829201Y4742650D01*
X94681132Y4538849D01*
X94566760Y4314384D01*
X94513593Y4150752D01*
X94488910Y4074785D01*
X94449500Y3825962D01*
X88372363Y3825962D01*
X88399112Y8078952D01*
X88399243Y8079082D01*
X88399243Y8099772D01*
X88399374Y8120600D01*
X88399372Y8120602D01*
X88399373Y8120606D01*
X88399247Y8120914D01*
X88384557Y8135604D01*
X88369978Y8150367D01*
X88369792Y8150369D01*
X88369661Y8150500D01*
X88348822Y8150500D01*
X88328143Y8150630D01*
X88328011Y8150500D01*
X74345578Y8150500D01*
X74345557Y8150504D01*
X74320912Y8150502D01*
X74300005Y8150501D01*
X74299993Y8150500D01*
X74279077Y8150500D01*
X74279076Y8150499D01*
X74267965Y8139385D01*
X74267959Y8139379D01*
X74264287Y8135705D01*
X74249500Y8120918D01*
X74249500Y8120915D01*
X74249498Y8120912D01*
X74249498Y8117538D01*
X74249498Y8117537D01*
X74249500Y8103614D01*
X74249500Y8054443D01*
X74249504Y8054420D01*
X74250400Y324514D01*
X74230723Y257473D01*
X74177925Y211712D01*
X74126400Y200500D01*
X174412Y200500D01*
X107373Y220185D01*
X61618Y272989D01*
X50412Y324438D01*
X48660Y3825962D01*
X2449500Y3825962D01*
X2449500Y3574038D01*
X2484865Y3350754D01*
X2488910Y3325215D01*
X2566760Y3085617D01*
X2681132Y2861152D01*
X2829201Y2657351D01*
X2829205Y2657346D01*
X3007345Y2479206D01*
X3007350Y2479202D01*
X3125387Y2393444D01*
X3211155Y2331130D01*
X3354184Y2258253D01*
X3435616Y2216761D01*
X3435618Y2216761D01*
X3435621Y2216759D01*
X3675215Y2138910D01*
X3924038Y2099500D01*
X3924039Y2099500D01*
X4175961Y2099500D01*
X4175962Y2099500D01*
X4424785Y2138910D01*
X4664379Y2216759D01*
X4888845Y2331130D01*
X5092656Y2479207D01*
X5270793Y2657344D01*
X5418870Y2861155D01*
X5533241Y3085621D01*
X5611090Y3325215D01*
X5650500Y3574038D01*
X5650500Y3825962D01*
X5611090Y4074785D01*
X5533241Y4314379D01*
X5533239Y4314382D01*
X5533239Y4314384D01*
X5491747Y4395816D01*
X5418870Y4538845D01*
X5399952Y4564883D01*
X5270798Y4742650D01*
X5270794Y4742655D01*
X5092654Y4920795D01*
X5092649Y4920799D01*
X4888848Y5068868D01*
X4888847Y5068869D01*
X4888845Y5068870D01*
X4818747Y5104587D01*
X4664383Y5183240D01*
X4424785Y5261090D01*
X4175962Y5300500D01*
X3924038Y5300500D01*
X3799626Y5280795D01*
X3675214Y5261090D01*
X3435616Y5183240D01*
X3211151Y5068868D01*
X3007350Y4920799D01*
X3007345Y4920795D01*
X2829205Y4742655D01*
X2829201Y4742650D01*
X2681132Y4538849D01*
X2566760Y4314384D01*
X2513593Y4150752D01*
X2488910Y4074785D01*
X2449500Y3825962D01*
X48660Y3825962D01*
X48658Y3830772D01*
X38185Y24768005D01*
X1549500Y24768005D01*
X1549500Y24531996D01*
X1549501Y24531980D01*
X1577681Y24317926D01*
X1580307Y24297986D01*
X1612662Y24177237D01*
X1641394Y24070007D01*
X1731714Y23851955D01*
X1731719Y23851944D01*
X1764896Y23794481D01*
X1849727Y23647550D01*
X1849729Y23647547D01*
X1849730Y23647546D01*
X1993406Y23460303D01*
X1993412Y23460296D01*
X2160295Y23293413D01*
X2160301Y23293408D01*
X2347550Y23149727D01*
X2478918Y23073882D01*
X2551943Y23031720D01*
X2551948Y23031718D01*
X2551951Y23031716D01*
X2770007Y22941394D01*
X2997986Y22880307D01*
X2997990Y22880307D01*
X2997992Y22880306D01*
X2999691Y22879968D01*
X3000150Y22879728D01*
X3001907Y22879257D01*
X3001801Y22878864D01*
X3061602Y22847584D01*
X3096176Y22786868D01*
X3099500Y22758351D01*
X3099500Y16518708D01*
X3079815Y16451669D01*
X3041473Y16413715D01*
X2947741Y16354819D01*
X2947739Y16354818D01*
X2820184Y16227263D01*
X2724211Y16074524D01*
X2664631Y15904255D01*
X2664630Y15904250D01*
X2649500Y15769961D01*
X2649500Y13980040D01*
X2664630Y13845751D01*
X2664631Y13845746D01*
X2724211Y13675477D01*
X2820184Y13522738D01*
X2920576Y13422346D01*
X2954061Y13361023D01*
X2949077Y13291331D01*
X2933214Y13261781D01*
X2888367Y13200054D01*
X2770422Y12968577D01*
X2690140Y12721494D01*
X2649500Y12464903D01*
X2649500Y12205098D01*
X2690140Y11948507D01*
X2770422Y11701424D01*
X2817122Y11609772D01*
X2867579Y11510745D01*
X2888368Y11469946D01*
X3005854Y11308240D01*
X3041069Y11259771D01*
X3224771Y11076069D01*
X3434949Y10923366D01*
X3582445Y10848213D01*
X3666423Y10805423D01*
X3666425Y10805423D01*
X3666428Y10805421D01*
X3913507Y10725140D01*
X4045706Y10704203D01*
X4170098Y10684500D01*
X4170103Y10684500D01*
X4429902Y10684500D01*
X4543298Y10702461D01*
X4686493Y10725140D01*
X4933572Y10805421D01*
X5165051Y10923366D01*
X5375229Y11076069D01*
X5397341Y11098181D01*
X5458664Y11131666D01*
X5485022Y11134500D01*
X11779486Y11134500D01*
X11966118Y11164060D01*
X12145832Y11222453D01*
X12149114Y11224125D01*
X12200314Y11250213D01*
X12314199Y11308240D01*
X12467074Y11419310D01*
X13465690Y12417927D01*
X13487821Y12448387D01*
X13543152Y12491052D01*
X13588138Y12499500D01*
X14894957Y12499500D01*
X14894958Y12499501D01*
X14962104Y12507066D01*
X15029249Y12514631D01*
X15029252Y12514632D01*
X15029255Y12514632D01*
X15199522Y12574211D01*
X15352262Y12670184D01*
X15352262Y12670185D01*
X15358158Y12673889D01*
X15359602Y12671591D01*
X15412849Y12693341D01*
X15481547Y12680599D01*
X15532450Y12632739D01*
X15549500Y12569988D01*
X15549500Y10181996D01*
X15549501Y10181980D01*
X15580306Y9947990D01*
X15641394Y9720007D01*
X15731714Y9501955D01*
X15731719Y9501944D01*
X15849733Y9297540D01*
X15851988Y9294165D01*
X15850486Y9293162D01*
X15873049Y9234858D01*
X15859033Y9166409D01*
X15810236Y9116403D01*
X15749482Y9100500D01*
X15136187Y9100500D01*
X15069148Y9120185D01*
X15037811Y9149014D01*
X15006593Y9189698D01*
X15006587Y9189705D01*
X14839704Y9356588D01*
X14839697Y9356594D01*
X14652454Y9500270D01*
X14652453Y9500271D01*
X14652450Y9500273D01*
X14570957Y9547323D01*
X14448056Y9618281D01*
X14448045Y9618286D01*
X14229993Y9708606D01*
X14002010Y9769694D01*
X13768020Y9800499D01*
X13768017Y9800500D01*
X13768011Y9800500D01*
X11331989Y9800500D01*
X11331983Y9800500D01*
X11331979Y9800499D01*
X11097989Y9769694D01*
X10870006Y9708606D01*
X10651954Y9618286D01*
X10651943Y9618281D01*
X10460909Y9507986D01*
X10450457Y9501951D01*
X10447545Y9500270D01*
X10260302Y9356594D01*
X10260295Y9356588D01*
X10093412Y9189705D01*
X10093406Y9189698D01*
X9949730Y9002455D01*
X9831719Y8798057D01*
X9831714Y8798046D01*
X9741394Y8579994D01*
X9680306Y8352011D01*
X9649501Y8118021D01*
X9649500Y8118005D01*
X9649500Y7881996D01*
X9649501Y7881980D01*
X9680306Y7647990D01*
X9741394Y7420007D01*
X9831714Y7201955D01*
X9831719Y7201944D01*
X9880227Y7117927D01*
X9949727Y6997550D01*
X9949729Y6997547D01*
X9949730Y6997546D01*
X10093406Y6810303D01*
X10093412Y6810296D01*
X10260295Y6643413D01*
X10260301Y6643408D01*
X10447550Y6499727D01*
X10578918Y6423882D01*
X10651943Y6381720D01*
X10651948Y6381718D01*
X10651951Y6381716D01*
X10870007Y6291394D01*
X11097986Y6230307D01*
X11331989Y6199500D01*
X11331996Y6199500D01*
X13768004Y6199500D01*
X13768011Y6199500D01*
X14002014Y6230307D01*
X14229993Y6291394D01*
X14448049Y6381716D01*
X14652450Y6499727D01*
X14839699Y6643408D01*
X14839704Y6643413D01*
X14859473Y6663181D01*
X14920796Y6696666D01*
X14947154Y6699500D01*
X20444486Y6699500D01*
X20631118Y6729060D01*
X20646275Y6733985D01*
X20810832Y6787453D01*
X20979199Y6873240D01*
X21132073Y6984310D01*
X21265690Y7117927D01*
X21376760Y7270801D01*
X21462547Y7439168D01*
X21520940Y7618882D01*
X21524684Y7642523D01*
X21550500Y7805514D01*
X21550500Y17644487D01*
X21520940Y17831119D01*
X21462545Y18010837D01*
X21376759Y18179200D01*
X21265690Y18332073D01*
X21132073Y18465690D01*
X17082074Y22515690D01*
X17005636Y22571225D01*
X16929197Y22626762D01*
X16843235Y22670562D01*
X16801155Y22705559D01*
X16760646Y22758351D01*
X16736592Y22789699D01*
X16736590Y22789701D01*
X16736587Y22789705D01*
X16569704Y22956588D01*
X16569697Y22956594D01*
X16382454Y23100270D01*
X16382453Y23100271D01*
X16382450Y23100273D01*
X16296786Y23149731D01*
X16178056Y23218281D01*
X16178045Y23218286D01*
X15959993Y23308606D01*
X15732010Y23369694D01*
X15498020Y23400499D01*
X15498017Y23400500D01*
X15498011Y23400500D01*
X15261989Y23400500D01*
X15261983Y23400500D01*
X15261979Y23400499D01*
X15027989Y23369694D01*
X14800006Y23308606D01*
X14581954Y23218286D01*
X14581943Y23218281D01*
X14377545Y23100270D01*
X14190302Y22956594D01*
X14190295Y22956588D01*
X14023412Y22789705D01*
X14023406Y22789698D01*
X13879730Y22602455D01*
X13761719Y22398057D01*
X13761714Y22398046D01*
X13671394Y22179994D01*
X13610306Y21952011D01*
X13579501Y21718021D01*
X13579500Y21718005D01*
X13579500Y21481996D01*
X13579501Y21481980D01*
X13610306Y21247990D01*
X13671395Y21020003D01*
X13712697Y20920292D01*
X13720609Y20892237D01*
X13729060Y20838882D01*
X13787453Y20659168D01*
X13873240Y20490801D01*
X13984310Y20337926D01*
X14117926Y20204310D01*
X14270801Y20093240D01*
X14350347Y20052710D01*
X14439163Y20007455D01*
X14439165Y20007455D01*
X14439168Y20007453D01*
X14618882Y19949060D01*
X14629126Y19947438D01*
X14672238Y19940609D01*
X14700293Y19932697D01*
X14727467Y19921441D01*
X14800007Y19891394D01*
X15027986Y19830307D01*
X15261989Y19799500D01*
X15261996Y19799500D01*
X15498004Y19799500D01*
X15498011Y19799500D01*
X15732014Y19830307D01*
X15959993Y19891394D01*
X16131534Y19962450D01*
X16201002Y19969918D01*
X16263482Y19938643D01*
X16266667Y19935569D01*
X19113181Y17089056D01*
X19146666Y17027733D01*
X19149500Y17001375D01*
X19149500Y13446948D01*
X19129815Y13379909D01*
X19077011Y13334154D01*
X19007853Y13324210D01*
X18944297Y13353235D01*
X18918113Y13384947D01*
X18912203Y13395184D01*
X18850273Y13502450D01*
X18835676Y13521473D01*
X18706593Y13689698D01*
X18706587Y13689705D01*
X18539704Y13856588D01*
X18539697Y13856594D01*
X18352454Y14000270D01*
X18352453Y14000271D01*
X18352450Y14000273D01*
X18270957Y14047323D01*
X18148056Y14118281D01*
X18148045Y14118286D01*
X17929993Y14208606D01*
X17702010Y14269694D01*
X17468020Y14300499D01*
X17468017Y14300500D01*
X17468011Y14300500D01*
X17231989Y14300500D01*
X17231983Y14300500D01*
X17231979Y14300499D01*
X16997989Y14269694D01*
X16770006Y14208606D01*
X16551954Y14118286D01*
X16551943Y14118281D01*
X16347545Y14000270D01*
X16160302Y13856594D01*
X16160295Y13856588D01*
X15993412Y13689705D01*
X15993406Y13689698D01*
X15872876Y13532619D01*
X15816448Y13491416D01*
X15746702Y13487261D01*
X15685782Y13521473D01*
X15653029Y13583190D01*
X15650500Y13608105D01*
X15650500Y15344957D01*
X15650499Y15344961D01*
X15635369Y15479250D01*
X15635368Y15479255D01*
X15575788Y15649524D01*
X15500116Y15769954D01*
X15479816Y15802262D01*
X15352262Y15929816D01*
X15323249Y15948046D01*
X15199523Y16025789D01*
X15029254Y16085369D01*
X15029249Y16085370D01*
X14894960Y16100500D01*
X14894954Y16100500D01*
X10205046Y16100500D01*
X10205039Y16100500D01*
X10070750Y16085370D01*
X10070745Y16085369D01*
X9900476Y16025789D01*
X9747737Y15929816D01*
X9620184Y15802263D01*
X9524211Y15649524D01*
X9464631Y15479255D01*
X9464630Y15479250D01*
X9449500Y15344961D01*
X9449500Y13659500D01*
X9429815Y13592461D01*
X9377011Y13546706D01*
X9325500Y13535500D01*
X6001571Y13535500D01*
X5934532Y13555185D01*
X5888777Y13607989D01*
X5878833Y13677147D01*
X5884529Y13700454D01*
X5920834Y13804209D01*
X5935368Y13845745D01*
X5936591Y13856594D01*
X5948275Y13960301D01*
X5950500Y13980046D01*
X5950500Y15769954D01*
X5935368Y15904255D01*
X5875789Y16074522D01*
X5870508Y16082926D01*
X5831831Y16144481D01*
X5779816Y16227262D01*
X5652262Y16354816D01*
X5652260Y16354818D01*
X5652258Y16354819D01*
X5558527Y16413715D01*
X5512237Y16466049D01*
X5500500Y16518708D01*
X5500500Y23794487D01*
X5470940Y23981119D01*
X5412545Y24160837D01*
X5356920Y24270007D01*
X5326760Y24329199D01*
X5215690Y24482073D01*
X5186819Y24510944D01*
X5153334Y24572267D01*
X5150500Y24598625D01*
X5150500Y24768005D01*
X5150500Y24768011D01*
X5119693Y25002014D01*
X5058606Y25229993D01*
X4968284Y25448049D01*
X4968282Y25448052D01*
X4968280Y25448057D01*
X4915115Y25540140D01*
X4850273Y25652450D01*
X4706592Y25839699D01*
X4706587Y25839705D01*
X4539704Y26006588D01*
X4539697Y26006594D01*
X4352454Y26150270D01*
X4352453Y26150271D01*
X4352450Y26150273D01*
X4254899Y26206594D01*
X4148056Y26268281D01*
X4148045Y26268286D01*
X3929993Y26358606D01*
X3702010Y26419694D01*
X3468020Y26450499D01*
X3468017Y26450500D01*
X3468011Y26450500D01*
X3231989Y26450500D01*
X3231983Y26450500D01*
X3231979Y26450499D01*
X2997989Y26419694D01*
X2770006Y26358606D01*
X2551954Y26268286D01*
X2551943Y26268281D01*
X2347545Y26150270D01*
X2160302Y26006594D01*
X2160295Y26006588D01*
X1993412Y25839705D01*
X1993406Y25839698D01*
X1849730Y25652455D01*
X1731719Y25448057D01*
X1731714Y25448046D01*
X1641394Y25229994D01*
X1580306Y25002011D01*
X1549501Y24768021D01*
X1549500Y24768005D01*
X38185Y24768005D01*
X38183Y24772008D01*
X32482Y36168005D01*
X1549500Y36168005D01*
X1549500Y35931996D01*
X1549501Y35931980D01*
X1550979Y35920751D01*
X1580307Y35697986D01*
X1638256Y35481720D01*
X1641394Y35470007D01*
X1731714Y35251955D01*
X1731719Y35251944D01*
X1802677Y35129043D01*
X1849727Y35047550D01*
X1849729Y35047547D01*
X1849730Y35047546D01*
X1993406Y34860303D01*
X1993412Y34860296D01*
X2160295Y34693413D01*
X2160302Y34693407D01*
X2270306Y34608999D01*
X2347550Y34549727D01*
X2478918Y34473882D01*
X2551943Y34431720D01*
X2551948Y34431718D01*
X2551951Y34431716D01*
X2770007Y34341394D01*
X2997986Y34280307D01*
X3231989Y34249500D01*
X3231996Y34249500D01*
X3468004Y34249500D01*
X3468011Y34249500D01*
X3702014Y34280307D01*
X3929993Y34341394D01*
X4148049Y34431716D01*
X4352450Y34549727D01*
X4539699Y34693408D01*
X4659473Y34813183D01*
X4686404Y34827889D01*
X4712218Y34844477D01*
X4718417Y34845369D01*
X4720794Y34846666D01*
X4747153Y34849500D01*
X4751374Y34849500D01*
X4818413Y34829815D01*
X4839055Y34813181D01*
X9063181Y30589056D01*
X9096666Y30527733D01*
X9099500Y30501375D01*
X9099500Y28077154D01*
X9079815Y28010115D01*
X9063181Y27989473D01*
X8943412Y27869705D01*
X8943406Y27869698D01*
X8799730Y27682455D01*
X8681719Y27478057D01*
X8681714Y27478046D01*
X8591394Y27259994D01*
X8530306Y27032011D01*
X8499501Y26798021D01*
X8499500Y26798005D01*
X8499500Y26561996D01*
X8499501Y26561980D01*
X8530306Y26327990D01*
X8591394Y26100007D01*
X8681714Y25881955D01*
X8681719Y25881944D01*
X8712355Y25828882D01*
X8799727Y25677550D01*
X8799729Y25677547D01*
X8799730Y25677546D01*
X8943406Y25490303D01*
X8943412Y25490296D01*
X9110295Y25323413D01*
X9110302Y25323407D01*
X9189617Y25262547D01*
X9297550Y25179727D01*
X9421587Y25108114D01*
X9501943Y25061720D01*
X9501948Y25061718D01*
X9501951Y25061716D01*
X9720007Y24971394D01*
X9947986Y24910307D01*
X10181989Y24879500D01*
X10181996Y24879500D01*
X10418004Y24879500D01*
X10418011Y24879500D01*
X10652014Y24910307D01*
X10879993Y24971394D01*
X11098049Y25061716D01*
X11302450Y25179727D01*
X11432626Y25279616D01*
X11497794Y25304808D01*
X11566238Y25290770D01*
X11616228Y25241956D01*
X11631892Y25173865D01*
X11608256Y25108114D01*
X11595792Y25093557D01*
X9939055Y23436819D01*
X9877732Y23403334D01*
X9851374Y23400500D01*
X9255039Y23400500D01*
X9120750Y23385370D01*
X9120745Y23385369D01*
X8950476Y23325789D01*
X8797737Y23229816D01*
X8670184Y23102263D01*
X8574211Y22949524D01*
X8514631Y22779255D01*
X8514630Y22779250D01*
X8499500Y22644961D01*
X8499500Y20555040D01*
X8514630Y20420751D01*
X8514631Y20420746D01*
X8574211Y20250477D01*
X8603218Y20204313D01*
X8670184Y20097738D01*
X8797738Y19970184D01*
X8950478Y19874211D01*
X9120745Y19814632D01*
X9120750Y19814631D01*
X9211246Y19804435D01*
X9255040Y19799501D01*
X9255043Y19799500D01*
X9255046Y19799500D01*
X11344957Y19799500D01*
X11344958Y19799501D01*
X11412104Y19807066D01*
X11479249Y19814631D01*
X11479252Y19814632D01*
X11479255Y19814632D01*
X11649522Y19874211D01*
X11802262Y19970184D01*
X11929816Y20097738D01*
X12025789Y20250478D01*
X12085368Y20420745D01*
X12100500Y20555046D01*
X12100500Y22151376D01*
X12120185Y22218415D01*
X12136814Y22239052D01*
X14075005Y24177244D01*
X14075012Y24177249D01*
X14082072Y24184309D01*
X14082074Y24184310D01*
X14215690Y24317926D01*
X14326760Y24470801D01*
X14412547Y24639168D01*
X14470940Y24818882D01*
X14494560Y24968011D01*
X14500500Y25005513D01*
X14500500Y25194487D01*
X14470940Y25381119D01*
X14432475Y25499500D01*
X14412547Y25560832D01*
X14412545Y25560835D01*
X14412545Y25560837D01*
X14393015Y25599166D01*
X14379500Y25655461D01*
X14379500Y31763172D01*
X14381027Y31782570D01*
X14400500Y31905514D01*
X14400500Y32094488D01*
X14375550Y32252011D01*
X14370940Y32281118D01*
X14312547Y32460832D01*
X14226760Y32629199D01*
X14115690Y32782074D01*
X6536819Y40360945D01*
X6503334Y40422268D01*
X6500500Y40448626D01*
X6500500Y41275500D01*
X6520185Y41342539D01*
X6572989Y41388294D01*
X6624500Y41399500D01*
X7189122Y41399500D01*
X7256161Y41379815D01*
X7262007Y41375818D01*
X7421277Y41260103D01*
X7461155Y41231130D01*
X7601030Y41159860D01*
X7685616Y41116761D01*
X7685618Y41116761D01*
X7685621Y41116759D01*
X7925215Y41038910D01*
X8174038Y40999500D01*
X8174039Y40999500D01*
X8425961Y40999500D01*
X8425962Y40999500D01*
X8674785Y41038910D01*
X8914379Y41116759D01*
X9138845Y41231130D01*
X9342656Y41379207D01*
X9520793Y41557344D01*
X9668870Y41761155D01*
X9783241Y41985621D01*
X9861090Y42225215D01*
X9899598Y42468345D01*
X9929526Y42531477D01*
X9934371Y42536608D01*
X12260945Y44863181D01*
X12322268Y44896666D01*
X12348626Y44899500D01*
X20659253Y44899500D01*
X20726292Y44879815D01*
X20732138Y44875818D01*
X20773609Y44845688D01*
X20813567Y44816657D01*
X20947659Y44748334D01*
X21024003Y44709434D01*
X21024005Y44709434D01*
X21024008Y44709432D01*
X21144412Y44670311D01*
X21248631Y44636447D01*
X21481903Y44599500D01*
X21481908Y44599500D01*
X22918097Y44599500D01*
X23151368Y44636447D01*
X23375992Y44709432D01*
X23586433Y44816657D01*
X23777510Y44955483D01*
X23944517Y45122490D01*
X24083343Y45313567D01*
X24190568Y45524008D01*
X24263553Y45748632D01*
X24271998Y45801951D01*
X24300500Y45981903D01*
X24300500Y46218098D01*
X24263553Y46451369D01*
X24215291Y46599903D01*
X24190568Y46675992D01*
X24190566Y46675995D01*
X24190566Y46675997D01*
X24098598Y46856493D01*
X24083343Y46886433D01*
X23944517Y47077510D01*
X23794208Y47227819D01*
X23760723Y47289142D01*
X23765707Y47358834D01*
X23807579Y47414767D01*
X23873043Y47439184D01*
X23881889Y47439500D01*
X27467110Y47439500D01*
X27505429Y47433431D01*
X27518881Y47429060D01*
X27705514Y47399500D01*
X27705519Y47399500D01*
X27894487Y47399500D01*
X27998168Y47415923D01*
X28081118Y47429060D01*
X28260832Y47487453D01*
X28429199Y47573240D01*
X28582074Y47684310D01*
X28715690Y47817926D01*
X28826760Y47970801D01*
X28912547Y48139168D01*
X28970940Y48318882D01*
X28987074Y48420747D01*
X29000500Y48505513D01*
X29000500Y49200500D01*
X29020185Y49267539D01*
X29072989Y49313294D01*
X29124500Y49324500D01*
X35856293Y49324500D01*
X35923332Y49304815D01*
X35961287Y49266472D01*
X36020184Y49172738D01*
X36147738Y49045184D01*
X36195298Y49015300D01*
X36296021Y48952011D01*
X36300478Y48949211D01*
X36383490Y48920164D01*
X36470745Y48889632D01*
X36470750Y48889631D01*
X36546300Y48881119D01*
X36605040Y48874501D01*
X36605043Y48874500D01*
X36605046Y48874500D01*
X38394957Y48874500D01*
X38394958Y48874501D01*
X38462104Y48882066D01*
X38529249Y48889631D01*
X38529252Y48889632D01*
X38529255Y48889632D01*
X38699522Y48949211D01*
X38852262Y49045184D01*
X38979816Y49172738D01*
X39075789Y49325478D01*
X39135368Y49495745D01*
X39135754Y49499164D01*
X39142934Y49562896D01*
X39150500Y49630046D01*
X39150500Y51419954D01*
X39135368Y51554255D01*
X39075789Y51724522D01*
X39075174Y51725500D01*
X38991388Y51858845D01*
X38979816Y51877262D01*
X38852262Y52004816D01*
X38760212Y52062655D01*
X38699523Y52100789D01*
X38529254Y52160369D01*
X38529249Y52160370D01*
X38394960Y52175500D01*
X38394954Y52175500D01*
X36605046Y52175500D01*
X36605039Y52175500D01*
X36470750Y52160370D01*
X36470745Y52160369D01*
X36300476Y52100789D01*
X36147737Y52004816D01*
X36020184Y51877263D01*
X35961287Y51783528D01*
X35908952Y51737237D01*
X35856293Y51725500D01*
X29124500Y51725500D01*
X29057461Y51745185D01*
X29011706Y51797989D01*
X29000500Y51849500D01*
X29000500Y55494487D01*
X28970940Y55681119D01*
X28912545Y55860837D01*
X28848964Y55985621D01*
X28826760Y56029199D01*
X28715690Y56182073D01*
X28582073Y56315690D01*
X28429199Y56426760D01*
X28260836Y56512546D01*
X28081118Y56570941D01*
X27894486Y56600500D01*
X27894481Y56600500D01*
X19924500Y56600500D01*
X19857461Y56620185D01*
X19811706Y56672989D01*
X19800500Y56724500D01*
X19800500Y61386707D01*
X22799500Y61386707D01*
X22799500Y61013293D01*
X22806507Y60942147D01*
X22836099Y60641689D01*
X22836101Y60641676D01*
X22891641Y60362463D01*
X22908951Y60275440D01*
X22919532Y60240558D01*
X23017347Y59918105D01*
X23160243Y59573124D01*
X23160250Y59573110D01*
X23336264Y59243808D01*
X23336275Y59243790D01*
X23543732Y58933310D01*
X23780623Y58644657D01*
X24044656Y58380624D01*
X24333309Y58143733D01*
X24333315Y58143729D01*
X24643796Y57936271D01*
X24973117Y57760246D01*
X25318106Y57617347D01*
X25675440Y57508951D01*
X26041678Y57436101D01*
X26413293Y57399500D01*
X26413296Y57399500D01*
X26786704Y57399500D01*
X26786707Y57399500D01*
X27158322Y57436101D01*
X27524560Y57508951D01*
X27881894Y57617347D01*
X28226883Y57760246D01*
X28556204Y57936271D01*
X28866685Y58143729D01*
X28874428Y58150083D01*
X29005746Y58257853D01*
X29155338Y58380619D01*
X29419381Y58644662D01*
X29656271Y58933315D01*
X29863729Y59243796D01*
X30039754Y59573117D01*
X30182653Y59918106D01*
X30291049Y60275440D01*
X30363899Y60641678D01*
X30400500Y61013293D01*
X30400500Y61386707D01*
X30363899Y61758322D01*
X30291049Y62124560D01*
X30182653Y62481894D01*
X30039754Y62826883D01*
X29863729Y63156204D01*
X29656271Y63466685D01*
X29656267Y63466691D01*
X29419376Y63755344D01*
X29155343Y64019377D01*
X28866690Y64256268D01*
X28556210Y64463725D01*
X28556209Y64463726D01*
X28556204Y64463729D01*
X28556199Y64463732D01*
X28556192Y64463736D01*
X28226890Y64639750D01*
X28226883Y64639754D01*
X28191329Y64654481D01*
X27881895Y64782653D01*
X27672119Y64846288D01*
X27524560Y64891049D01*
X27524557Y64891050D01*
X27524556Y64891050D01*
X27158324Y64963899D01*
X27158311Y64963901D01*
X26877293Y64991578D01*
X26786707Y65000500D01*
X26413293Y65000500D01*
X26329514Y64992249D01*
X26041688Y64963901D01*
X26041675Y64963899D01*
X25675443Y64891050D01*
X25318104Y64782653D01*
X24973123Y64639757D01*
X24973109Y64639750D01*
X24643807Y64463736D01*
X24643789Y64463725D01*
X24333309Y64256268D01*
X24044656Y64019377D01*
X23780623Y63755344D01*
X23543732Y63466691D01*
X23336275Y63156211D01*
X23336264Y63156193D01*
X23160250Y62826891D01*
X23160243Y62826877D01*
X23017347Y62481896D01*
X22908950Y62124557D01*
X22836101Y61758325D01*
X22836099Y61758312D01*
X22810705Y61500477D01*
X22799500Y61386707D01*
X19800500Y61386707D01*
X19800500Y69335500D01*
X19820185Y69402539D01*
X19872989Y69448294D01*
X19924500Y69459500D01*
X22205519Y69459500D01*
X22394481Y69459500D01*
X24384978Y69459500D01*
X24452017Y69439815D01*
X24472659Y69423181D01*
X24494771Y69401069D01*
X24704949Y69248366D01*
X24852445Y69173213D01*
X24936423Y69130423D01*
X24936425Y69130423D01*
X24936428Y69130421D01*
X25183507Y69050140D01*
X25315706Y69029203D01*
X25440098Y69009500D01*
X25440103Y69009500D01*
X25699902Y69009500D01*
X25813298Y69027461D01*
X25956493Y69050140D01*
X26203572Y69130421D01*
X26435051Y69248366D01*
X26645229Y69401069D01*
X26667341Y69423181D01*
X26694268Y69437885D01*
X26720087Y69454477D01*
X26726287Y69455369D01*
X26728664Y69456666D01*
X26755022Y69459500D01*
X26924978Y69459500D01*
X26992017Y69439815D01*
X27012659Y69423181D01*
X27034771Y69401069D01*
X27244949Y69248366D01*
X27392445Y69173213D01*
X27476423Y69130423D01*
X27476425Y69130423D01*
X27476428Y69130421D01*
X27723507Y69050140D01*
X27855706Y69029203D01*
X27980098Y69009500D01*
X27980103Y69009500D01*
X28239902Y69009500D01*
X28353298Y69027461D01*
X28496493Y69050140D01*
X28743572Y69130421D01*
X28975051Y69248366D01*
X29185229Y69401069D01*
X29368931Y69584771D01*
X29521634Y69794949D01*
X29639579Y70026428D01*
X29719860Y70273507D01*
X29742539Y70416702D01*
X29760500Y70530098D01*
X29760500Y70789903D01*
X29738947Y70925979D01*
X29719860Y71046493D01*
X29639579Y71293572D01*
X29639577Y71293575D01*
X29639577Y71293577D01*
X29594484Y71382076D01*
X29521634Y71525051D01*
X29368931Y71735229D01*
X29261841Y71842319D01*
X29257502Y71850265D01*
X29250255Y71855690D01*
X29241020Y71880450D01*
X29228356Y71903642D01*
X29229001Y71912672D01*
X29225838Y71921154D01*
X29231454Y71946975D01*
X29233340Y71973334D01*
X29239158Y71982388D01*
X29240690Y71989427D01*
X29261841Y72017681D01*
X29292319Y72048159D01*
X29353642Y72081644D01*
X29423334Y72076660D01*
X29467681Y72048159D01*
X29574771Y71941069D01*
X29784949Y71788366D01*
X29889230Y71735232D01*
X30016423Y71670423D01*
X30016425Y71670423D01*
X30016428Y71670421D01*
X30263507Y71590140D01*
X30395706Y71569203D01*
X30520098Y71549500D01*
X30520103Y71549500D01*
X30779902Y71549500D01*
X30893298Y71567461D01*
X31036493Y71590140D01*
X31283572Y71670421D01*
X31515051Y71788366D01*
X31725229Y71941069D01*
X31832319Y72048159D01*
X31840264Y72052498D01*
X31845691Y72059746D01*
X31870450Y72068981D01*
X31893642Y72081644D01*
X31902672Y72080999D01*
X31911156Y72084162D01*
X31936974Y72078546D01*
X31963334Y72076660D01*
X31972389Y72070841D01*
X31979429Y72069309D01*
X32007679Y72048161D01*
X32030386Y72025454D01*
X32038160Y72017680D01*
X32071644Y71956356D01*
X32066658Y71886665D01*
X32038159Y71842319D01*
X31931066Y71735226D01*
X31778368Y71525055D01*
X31660422Y71293577D01*
X31580140Y71046494D01*
X31539500Y70789903D01*
X31539500Y70530098D01*
X31580140Y70273507D01*
X31660422Y70026424D01*
X31778368Y69794946D01*
X31931066Y69584775D01*
X31931071Y69584769D01*
X31953181Y69562659D01*
X31986666Y69501336D01*
X31989500Y69474978D01*
X31989500Y69151358D01*
X32019059Y68964726D01*
X32077454Y68785008D01*
X32163240Y68616645D01*
X32274310Y68463770D01*
X42053770Y58684310D01*
X42053773Y58684308D01*
X42175745Y58595690D01*
X42175746Y58595689D01*
X42206640Y58573243D01*
X42206642Y58573242D01*
X42206645Y58573240D01*
X42264768Y58543625D01*
X42375007Y58487455D01*
X42375009Y58487455D01*
X42375012Y58487453D01*
X42440705Y58466108D01*
X42554725Y58429060D01*
X42741358Y58399500D01*
X42741363Y58399500D01*
X53152374Y58399500D01*
X53219413Y58379815D01*
X53265168Y58327011D01*
X53275112Y58257853D01*
X53246087Y58194297D01*
X53240055Y58187819D01*
X52724304Y57672068D01*
X52639052Y57554727D01*
X52639052Y57554726D01*
X52613240Y57519200D01*
X52527454Y57350837D01*
X52469059Y57171119D01*
X52439500Y56984487D01*
X52439500Y56424500D01*
X52419815Y56357461D01*
X52367011Y56311706D01*
X52315500Y56300500D01*
X46405514Y56300500D01*
X46218881Y56270941D01*
X46039163Y56212546D01*
X45870800Y56126760D01*
X45717923Y56015688D01*
X42684312Y52982077D01*
X42573240Y52829200D01*
X42487454Y52660837D01*
X42429059Y52481119D01*
X42399500Y52294487D01*
X42399500Y47655022D01*
X42379815Y47587983D01*
X42363181Y47567341D01*
X42341071Y47545232D01*
X42341066Y47545226D01*
X42188368Y47335055D01*
X42070422Y47103577D01*
X41990140Y46856494D01*
X41949500Y46599903D01*
X41949500Y46340098D01*
X41990140Y46083507D01*
X42070422Y45836424D01*
X42133986Y45711675D01*
X42168144Y45644636D01*
X42188368Y45604946D01*
X42341066Y45394775D01*
X42341071Y45394769D01*
X42393659Y45342181D01*
X42427144Y45280858D01*
X42422160Y45211166D01*
X42380288Y45155233D01*
X42314824Y45130816D01*
X42305978Y45130500D01*
X41285513Y45130500D01*
X41098885Y45100941D01*
X40919165Y45042546D01*
X40750800Y44956760D01*
X40597923Y44845688D01*
X33384310Y37632075D01*
X33330475Y37557977D01*
X33289949Y37502197D01*
X33289948Y37502196D01*
X33273242Y37479204D01*
X33273241Y37479202D01*
X33187454Y37310837D01*
X33129059Y37131119D01*
X33099500Y36944487D01*
X33099500Y28851571D01*
X33079815Y28784532D01*
X33027011Y28738777D01*
X32957853Y28728833D01*
X32934546Y28734529D01*
X32789257Y28785368D01*
X32789249Y28785370D01*
X32654960Y28800500D01*
X32654954Y28800500D01*
X30865046Y28800500D01*
X30865039Y28800500D01*
X30730750Y28785370D01*
X30730745Y28785369D01*
X30560476Y28725789D01*
X30407737Y28629816D01*
X30280183Y28502262D01*
X30276135Y28497185D01*
X30218946Y28457046D01*
X30179190Y28450500D01*
X24248625Y28450500D01*
X24181586Y28470185D01*
X24160944Y28486819D01*
X18836819Y33810945D01*
X18803334Y33872268D01*
X18800500Y33898626D01*
X18800500Y35986704D01*
X22799500Y35986704D01*
X22799500Y35613297D01*
X22836099Y35241689D01*
X22836101Y35241676D01*
X22908950Y34875444D01*
X22908951Y34875440D01*
X22927837Y34813181D01*
X23017347Y34518105D01*
X23160243Y34173124D01*
X23160250Y34173110D01*
X23336264Y33843808D01*
X23336275Y33843790D01*
X23543732Y33533310D01*
X23780623Y33244657D01*
X24044656Y32980624D01*
X24333309Y32743733D01*
X24333315Y32743729D01*
X24643796Y32536271D01*
X24973117Y32360246D01*
X25318106Y32217347D01*
X25675440Y32108951D01*
X26041678Y32036101D01*
X26413293Y31999500D01*
X26413296Y31999500D01*
X26786704Y31999500D01*
X26786707Y31999500D01*
X27158322Y32036101D01*
X27524560Y32108951D01*
X27881894Y32217347D01*
X28226883Y32360246D01*
X28556204Y32536271D01*
X28866685Y32743729D01*
X29155338Y32980619D01*
X29419381Y33244662D01*
X29643933Y33518281D01*
X29656267Y33533310D01*
X29656267Y33533311D01*
X29656271Y33533315D01*
X29863729Y33843796D01*
X30039754Y34173117D01*
X30182653Y34518106D01*
X30291049Y34875440D01*
X30363899Y35241678D01*
X30400500Y35613293D01*
X30400500Y35986707D01*
X30363899Y36358322D01*
X30291049Y36724560D01*
X30182653Y37081894D01*
X30039754Y37426883D01*
X29863729Y37756204D01*
X29656271Y38066685D01*
X29656267Y38066691D01*
X29419376Y38355344D01*
X29155343Y38619377D01*
X28866690Y38856268D01*
X28556210Y39063725D01*
X28556209Y39063726D01*
X28556204Y39063729D01*
X28556199Y39063732D01*
X28556192Y39063736D01*
X28327684Y39185875D01*
X28226883Y39239754D01*
X28226876Y39239757D01*
X27881895Y39382653D01*
X27625939Y39460296D01*
X27524560Y39491049D01*
X27524557Y39491050D01*
X27524556Y39491050D01*
X27158324Y39563899D01*
X27158311Y39563901D01*
X26877293Y39591578D01*
X26786707Y39600500D01*
X26413293Y39600500D01*
X26329514Y39592249D01*
X26041688Y39563901D01*
X26041675Y39563899D01*
X25675443Y39491050D01*
X25318104Y39382653D01*
X24973123Y39239757D01*
X24973109Y39239750D01*
X24643807Y39063736D01*
X24643789Y39063725D01*
X24333309Y38856268D01*
X24044656Y38619377D01*
X23780623Y38355344D01*
X23543732Y38066691D01*
X23336275Y37756211D01*
X23336264Y37756193D01*
X23160250Y37426891D01*
X23160243Y37426877D01*
X23017347Y37081896D01*
X22908950Y36724557D01*
X22836101Y36358325D01*
X22836099Y36358312D01*
X22799500Y35986704D01*
X18800500Y35986704D01*
X18800500Y39202848D01*
X18820185Y39269887D01*
X18837865Y39289501D01*
X18836829Y39290537D01*
X19006587Y39460296D01*
X19006592Y39460301D01*
X19150273Y39647550D01*
X19268284Y39851951D01*
X19358606Y40070007D01*
X19419693Y40297986D01*
X19450500Y40531989D01*
X19450500Y40768011D01*
X19419693Y41002014D01*
X19358606Y41229993D01*
X19268284Y41448049D01*
X19268282Y41448052D01*
X19268280Y41448057D01*
X19198340Y41569195D01*
X19150273Y41652450D01*
X19006592Y41839699D01*
X19006587Y41839705D01*
X18839704Y42006588D01*
X18839697Y42006594D01*
X18652454Y42150270D01*
X18652453Y42150271D01*
X18652450Y42150273D01*
X18522647Y42225215D01*
X18448056Y42268281D01*
X18448045Y42268286D01*
X18229993Y42358606D01*
X18002010Y42419694D01*
X17768020Y42450499D01*
X17768017Y42450500D01*
X17768011Y42450500D01*
X17531989Y42450500D01*
X17531983Y42450500D01*
X17531979Y42450499D01*
X17297989Y42419694D01*
X17070006Y42358606D01*
X16851954Y42268286D01*
X16851943Y42268281D01*
X16647545Y42150270D01*
X16460302Y42006594D01*
X16460295Y42006588D01*
X16293412Y41839705D01*
X16293406Y41839698D01*
X16149730Y41652455D01*
X16031719Y41448057D01*
X16031714Y41448046D01*
X15941394Y41229994D01*
X15880306Y41002011D01*
X15849501Y40768021D01*
X15849500Y40768005D01*
X15849500Y40531996D01*
X15849501Y40531980D01*
X15880306Y40297990D01*
X15941394Y40070007D01*
X16031714Y39851955D01*
X16031719Y39851944D01*
X16073176Y39780140D01*
X16149727Y39647550D01*
X16149729Y39647547D01*
X16149730Y39647546D01*
X16293405Y39460304D01*
X16293406Y39460303D01*
X16293408Y39460301D01*
X16363182Y39390527D01*
X16396666Y39329206D01*
X16399500Y39302847D01*
X16399500Y33255514D01*
X16429059Y33068882D01*
X16487454Y32889164D01*
X16568556Y32729994D01*
X16573240Y32720801D01*
X16684310Y32567926D01*
X22917927Y26334310D01*
X23070801Y26223240D01*
X23127244Y26194481D01*
X23239163Y26137455D01*
X23239165Y26137455D01*
X23239168Y26137453D01*
X23335497Y26106154D01*
X23418881Y26079060D01*
X23605514Y26049500D01*
X23605519Y26049500D01*
X23794482Y26049500D01*
X30061579Y26049500D01*
X30128618Y26029815D01*
X30174373Y25977011D01*
X30178621Y25966454D01*
X30184211Y25950477D01*
X30280184Y25797738D01*
X30407740Y25670182D01*
X30501471Y25611288D01*
X30547763Y25558954D01*
X30559500Y25506294D01*
X30559500Y25405514D01*
X30589059Y25218882D01*
X30647454Y25039164D01*
X30683709Y24968011D01*
X30733240Y24870801D01*
X30844310Y24717926D01*
X35927926Y19634310D01*
X36080801Y19523240D01*
X36249168Y19437453D01*
X36428882Y19379060D01*
X36498870Y19367975D01*
X36615513Y19349500D01*
X36615518Y19349500D01*
X36615519Y19349500D01*
X46038452Y19349500D01*
X46105491Y19329815D01*
X46136827Y19300987D01*
X46192718Y19228149D01*
X46192726Y19228140D01*
X46378140Y19042726D01*
X46378148Y19042719D01*
X46586196Y18883076D01*
X46813299Y18751959D01*
X46813309Y18751954D01*
X46998166Y18675384D01*
X47055581Y18651602D01*
X47308884Y18583730D01*
X47568880Y18549500D01*
X47568887Y18549500D01*
X47831113Y18549500D01*
X47831120Y18549500D01*
X48091116Y18583730D01*
X48344419Y18651602D01*
X48586697Y18751957D01*
X48813803Y18883076D01*
X49021851Y19042718D01*
X49021855Y19042723D01*
X49021860Y19042726D01*
X49207274Y19228140D01*
X49207277Y19228145D01*
X49207282Y19228149D01*
X49366924Y19436197D01*
X49498043Y19663303D01*
X49598398Y19905581D01*
X49666270Y20158884D01*
X49700500Y20418880D01*
X49700500Y20681120D01*
X49666270Y20941116D01*
X49598398Y21194419D01*
X49576208Y21247990D01*
X49498046Y21436691D01*
X49498041Y21436701D01*
X49366924Y21663804D01*
X49207281Y21871852D01*
X49207274Y21871860D01*
X49021860Y22057274D01*
X49021851Y22057282D01*
X48813803Y22216925D01*
X48586700Y22348042D01*
X48586690Y22348047D01*
X48344428Y22448395D01*
X48344421Y22448397D01*
X48344419Y22448398D01*
X48091116Y22516270D01*
X48033339Y22523877D01*
X47831127Y22550500D01*
X47831120Y22550500D01*
X47568880Y22550500D01*
X47568872Y22550500D01*
X47350743Y22521781D01*
X47308884Y22516270D01*
X47155724Y22475231D01*
X47055581Y22448398D01*
X47055571Y22448395D01*
X46813309Y22348047D01*
X46813299Y22348042D01*
X46586196Y22216925D01*
X46378148Y22057282D01*
X46192718Y21871852D01*
X46136827Y21799013D01*
X46080399Y21757811D01*
X46038452Y21750500D01*
X37258626Y21750500D01*
X37191587Y21770185D01*
X37170945Y21786819D01*
X33544170Y25413594D01*
X33510685Y25474917D01*
X33515669Y25544609D01*
X33557541Y25600542D01*
X33623005Y25624959D01*
X33670165Y25619207D01*
X33913507Y25540140D01*
X34045706Y25519203D01*
X34170098Y25499500D01*
X34170103Y25499500D01*
X34429902Y25499500D01*
X34543298Y25517461D01*
X34686493Y25540140D01*
X34933572Y25620421D01*
X35165051Y25738366D01*
X35375229Y25891069D01*
X35448298Y25964138D01*
X35509621Y25997623D01*
X35579313Y25992639D01*
X35635246Y25950767D01*
X35658452Y25895855D01*
X35669059Y25828882D01*
X35727454Y25649164D01*
X35808402Y25490296D01*
X35813240Y25480801D01*
X35924310Y25327926D01*
X38017927Y23234310D01*
X38170801Y23123240D01*
X38250347Y23082710D01*
X38339163Y23037455D01*
X38339165Y23037455D01*
X38339168Y23037453D01*
X38435497Y23006154D01*
X38518881Y22979060D01*
X38705514Y22949500D01*
X38705519Y22949500D01*
X38894482Y22949500D01*
X47005519Y22949500D01*
X47755519Y22949500D01*
X47944481Y22949500D01*
X53275500Y22949500D01*
X53342539Y22929815D01*
X53388294Y22877011D01*
X53399500Y22825500D01*
X53399500Y11705514D01*
X53429059Y11518882D01*
X53487454Y11339164D01*
X53553154Y11210222D01*
X53573240Y11170801D01*
X53684310Y11017926D01*
X53684312Y11017924D01*
X56397036Y8305200D01*
X56430521Y8243877D01*
X56425537Y8174185D01*
X56383665Y8118252D01*
X56318201Y8093835D01*
X56295473Y8094298D01*
X56266423Y8097571D01*
X56240425Y8100500D01*
X55959575Y8100500D01*
X55959568Y8100500D01*
X55680505Y8069058D01*
X55680487Y8069055D01*
X55406682Y8006561D01*
X55406670Y8006557D01*
X55141588Y7913800D01*
X54888557Y7791947D01*
X54650753Y7642524D01*
X54431175Y7467417D01*
X54232583Y7268825D01*
X54057476Y7049247D01*
X53908053Y6811443D01*
X53786200Y6558412D01*
X53693443Y6293330D01*
X53693439Y6293318D01*
X53630945Y6019513D01*
X53630942Y6019495D01*
X53599500Y5740432D01*
X53599500Y5459569D01*
X53630942Y5180506D01*
X53630945Y5180488D01*
X53693439Y4906683D01*
X53693443Y4906671D01*
X53786200Y4641589D01*
X53908053Y4388558D01*
X53913122Y4380491D01*
X54057477Y4150752D01*
X54232584Y3931175D01*
X54431175Y3732584D01*
X54650752Y3557477D01*
X54888555Y3408055D01*
X55141592Y3286199D01*
X55340680Y3216535D01*
X55406670Y3193444D01*
X55406682Y3193440D01*
X55680491Y3130945D01*
X55680497Y3130945D01*
X55680505Y3130943D01*
X55866547Y3109982D01*
X55959569Y3099501D01*
X55959572Y3099500D01*
X55959575Y3099500D01*
X56240428Y3099500D01*
X56240429Y3099501D01*
X56383055Y3115571D01*
X56519494Y3130943D01*
X56519499Y3130944D01*
X56519509Y3130945D01*
X56793318Y3193440D01*
X57058408Y3286199D01*
X57311445Y3408055D01*
X57549248Y3557477D01*
X57768825Y3732584D01*
X57967416Y3931175D01*
X58142523Y4150752D01*
X58291945Y4388555D01*
X58413801Y4641592D01*
X58506560Y4906682D01*
X58514263Y4940432D01*
X60349500Y4940432D01*
X60349500Y4659569D01*
X60380942Y4380506D01*
X60380945Y4380488D01*
X60443439Y4106683D01*
X60443443Y4106671D01*
X60536200Y3841589D01*
X60658053Y3588558D01*
X60658055Y3588555D01*
X60807477Y3350752D01*
X60982584Y3131175D01*
X61181175Y2932584D01*
X61400752Y2757477D01*
X61638555Y2608055D01*
X61891592Y2486199D01*
X62090680Y2416535D01*
X62156670Y2393444D01*
X62156682Y2393440D01*
X62430491Y2330945D01*
X62430497Y2330945D01*
X62430505Y2330943D01*
X62616547Y2309982D01*
X62709569Y2299501D01*
X62709572Y2299500D01*
X62709575Y2299500D01*
X62990428Y2299500D01*
X62990429Y2299501D01*
X63133055Y2315571D01*
X63269494Y2330943D01*
X63269499Y2330944D01*
X63269509Y2330945D01*
X63543318Y2393440D01*
X63808408Y2486199D01*
X64061445Y2608055D01*
X64299248Y2757477D01*
X64518825Y2932584D01*
X64717416Y3131175D01*
X64892523Y3350752D01*
X65041945Y3588555D01*
X65163801Y3841592D01*
X65256560Y4106682D01*
X65319055Y4380491D01*
X65350500Y4659575D01*
X65350500Y4940425D01*
X65323452Y5180488D01*
X65319057Y5219495D01*
X65319054Y5219513D01*
X65256560Y5493318D01*
X65256556Y5493330D01*
X65233465Y5559320D01*
X65163801Y5758408D01*
X65041945Y6011445D01*
X64892523Y6249248D01*
X64717416Y6468825D01*
X64518825Y6667416D01*
X64299248Y6842523D01*
X64061445Y6991945D01*
X64061442Y6991947D01*
X63808411Y7113800D01*
X63543329Y7206557D01*
X63543317Y7206561D01*
X63269512Y7269055D01*
X63269494Y7269058D01*
X62990431Y7300500D01*
X62990425Y7300500D01*
X62709575Y7300500D01*
X62709568Y7300500D01*
X62430505Y7269058D01*
X62430487Y7269055D01*
X62156682Y7206561D01*
X62156670Y7206557D01*
X61891588Y7113800D01*
X61638557Y6991947D01*
X61400753Y6842524D01*
X61181175Y6667417D01*
X60982583Y6468825D01*
X60807476Y6249247D01*
X60658053Y6011443D01*
X60536200Y5758412D01*
X60443443Y5493330D01*
X60443439Y5493318D01*
X60380945Y5219513D01*
X60380942Y5219495D01*
X60349500Y4940432D01*
X58514263Y4940432D01*
X58569055Y5180491D01*
X58600500Y5459575D01*
X58600500Y5740425D01*
X58569055Y6019509D01*
X58506560Y6293318D01*
X58413801Y6558408D01*
X58291945Y6811445D01*
X58142523Y7049248D01*
X58023748Y7198187D01*
X58017947Y7212395D01*
X58007901Y7223989D01*
X58005012Y7244079D01*
X57997339Y7262874D01*
X58000140Y7277961D01*
X57997957Y7293147D01*
X58006390Y7311613D01*
X58010096Y7331569D01*
X58020607Y7342745D01*
X58026982Y7356703D01*
X58044059Y7367678D01*
X58057966Y7382463D01*
X58073726Y7386744D01*
X58085760Y7394477D01*
X58120695Y7399500D01*
X58164649Y7399500D01*
X58231688Y7379815D01*
X58264964Y7348389D01*
X58371354Y7201955D01*
X58381758Y7187635D01*
X58537636Y7031757D01*
X58537641Y7031753D01*
X58693192Y6918740D01*
X58715978Y6902185D01*
X58833068Y6842524D01*
X58912393Y6802105D01*
X58912396Y6802104D01*
X59017221Y6768045D01*
X59122049Y6733985D01*
X59339778Y6699500D01*
X59339779Y6699500D01*
X59560221Y6699500D01*
X59560222Y6699500D01*
X59777951Y6733985D01*
X59987606Y6802105D01*
X60184022Y6902185D01*
X60362365Y7031758D01*
X60518242Y7187635D01*
X60647815Y7365978D01*
X60747895Y7562394D01*
X60816015Y7772049D01*
X60850500Y7989778D01*
X60850500Y9210222D01*
X64849500Y9210222D01*
X64849500Y7989779D01*
X64883985Y7772048D01*
X64952103Y7562397D01*
X64952104Y7562394D01*
X65000499Y7467416D01*
X65043785Y7382463D01*
X65052187Y7365975D01*
X65181752Y7187642D01*
X65181756Y7187637D01*
X65337636Y7031757D01*
X65337641Y7031753D01*
X65493192Y6918740D01*
X65515978Y6902185D01*
X65633068Y6842524D01*
X65712393Y6802105D01*
X65712396Y6802104D01*
X65817221Y6768045D01*
X65922049Y6733985D01*
X66139778Y6699500D01*
X66139779Y6699500D01*
X66360221Y6699500D01*
X66360222Y6699500D01*
X66577951Y6733985D01*
X66787606Y6802105D01*
X66984022Y6902185D01*
X67162365Y7031758D01*
X67318242Y7187635D01*
X67435034Y7348387D01*
X67439365Y7351727D01*
X67441638Y7356703D01*
X67466734Y7372832D01*
X67490362Y7391051D01*
X67497035Y7392305D01*
X67500416Y7394477D01*
X67535351Y7399500D01*
X67579305Y7399500D01*
X67646344Y7379815D01*
X67692099Y7327011D01*
X67702043Y7257853D01*
X67676252Y7198187D01*
X67557476Y7049247D01*
X67408053Y6811443D01*
X67286200Y6558412D01*
X67193443Y6293330D01*
X67193439Y6293318D01*
X67130945Y6019513D01*
X67130942Y6019495D01*
X67099500Y5740432D01*
X67099500Y5459569D01*
X67130942Y5180506D01*
X67130945Y5180488D01*
X67193439Y4906683D01*
X67193443Y4906671D01*
X67286200Y4641589D01*
X67408053Y4388558D01*
X67413122Y4380491D01*
X67557477Y4150752D01*
X67732584Y3931175D01*
X67931175Y3732584D01*
X68150752Y3557477D01*
X68388555Y3408055D01*
X68641592Y3286199D01*
X68840680Y3216535D01*
X68906670Y3193444D01*
X68906682Y3193440D01*
X69180491Y3130945D01*
X69180497Y3130945D01*
X69180505Y3130943D01*
X69366547Y3109982D01*
X69459569Y3099501D01*
X69459572Y3099500D01*
X69459575Y3099500D01*
X69740428Y3099500D01*
X69740429Y3099501D01*
X69883055Y3115571D01*
X70019494Y3130943D01*
X70019499Y3130944D01*
X70019509Y3130945D01*
X70293318Y3193440D01*
X70558408Y3286199D01*
X70811445Y3408055D01*
X71049248Y3557477D01*
X71268825Y3732584D01*
X71467416Y3931175D01*
X71642523Y4150752D01*
X71791945Y4388555D01*
X71913801Y4641592D01*
X72006560Y4906682D01*
X72069055Y5180491D01*
X72100500Y5459575D01*
X72100500Y5740425D01*
X72069055Y6019509D01*
X72006560Y6293318D01*
X71913801Y6558408D01*
X71791945Y6811445D01*
X71642523Y7049248D01*
X71467416Y7268825D01*
X71268825Y7467416D01*
X71049248Y7642523D01*
X70811445Y7791945D01*
X70811442Y7791947D01*
X70558411Y7913800D01*
X70293329Y8006557D01*
X70293317Y8006561D01*
X70019512Y8069055D01*
X70019494Y8069058D01*
X69740431Y8100500D01*
X69740425Y8100500D01*
X69459575Y8100500D01*
X69459568Y8100500D01*
X69180505Y8069058D01*
X69180482Y8069054D01*
X69064096Y8042490D01*
X68994358Y8046764D01*
X68938000Y8088063D01*
X68912918Y8153275D01*
X68927073Y8221696D01*
X68948820Y8251058D01*
X71315690Y10617926D01*
X71426760Y10770801D01*
X71512547Y10939168D01*
X71570940Y11118882D01*
X71573414Y11134500D01*
X71600500Y11305514D01*
X71600500Y13752847D01*
X71620185Y13819886D01*
X71636814Y13840524D01*
X71756592Y13960301D01*
X71900273Y14147550D01*
X72018284Y14351951D01*
X72108606Y14570007D01*
X72169693Y14797986D01*
X72200500Y15031989D01*
X72200500Y15268011D01*
X72169693Y15502014D01*
X72108606Y15729993D01*
X72018284Y15948049D01*
X72018282Y15948052D01*
X72018280Y15948057D01*
X71973401Y16025789D01*
X71900273Y16152450D01*
X71765775Y16327732D01*
X71756593Y16339698D01*
X71756587Y16339705D01*
X71589704Y16506588D01*
X71589697Y16506594D01*
X71402454Y16650270D01*
X71402453Y16650271D01*
X71402450Y16650273D01*
X71320957Y16697323D01*
X71198056Y16768281D01*
X71198045Y16768286D01*
X70979993Y16858606D01*
X70752010Y16919694D01*
X70518020Y16950499D01*
X70518017Y16950500D01*
X70518011Y16950500D01*
X70281989Y16950500D01*
X70281983Y16950500D01*
X70281979Y16950499D01*
X70047989Y16919694D01*
X69820006Y16858606D01*
X69601954Y16768286D01*
X69601943Y16768281D01*
X69397545Y16650270D01*
X69210302Y16506594D01*
X69210295Y16506588D01*
X69043412Y16339705D01*
X69043406Y16339698D01*
X68899730Y16152455D01*
X68781719Y15948057D01*
X68781714Y15948046D01*
X68691394Y15729994D01*
X68630306Y15502011D01*
X68599501Y15268021D01*
X68599500Y15268005D01*
X68599500Y15031996D01*
X68599501Y15031980D01*
X68627021Y14822940D01*
X68630307Y14797986D01*
X68658636Y14692262D01*
X68691394Y14570007D01*
X68781714Y14351955D01*
X68781719Y14351944D01*
X68849260Y14234961D01*
X68899727Y14147550D01*
X68899729Y14147547D01*
X68899730Y14147546D01*
X69043405Y13960304D01*
X69043407Y13960302D01*
X69043408Y13960301D01*
X69163182Y13840527D01*
X69196666Y13779206D01*
X69199500Y13752847D01*
X69199500Y11948627D01*
X69179815Y11881588D01*
X69163181Y11860946D01*
X67404102Y10101867D01*
X67342779Y10068382D01*
X67273087Y10073366D01*
X67228740Y10101867D01*
X67162363Y10168244D01*
X67162358Y10168248D01*
X66984025Y10297813D01*
X66984024Y10297814D01*
X66984022Y10297815D01*
X66921096Y10329878D01*
X66787606Y10397896D01*
X66787603Y10397897D01*
X66577952Y10466015D01*
X66469086Y10483258D01*
X66360222Y10500500D01*
X66139778Y10500500D01*
X66067201Y10489005D01*
X65922047Y10466015D01*
X65712396Y10397897D01*
X65712393Y10397896D01*
X65515974Y10297813D01*
X65337641Y10168248D01*
X65337636Y10168244D01*
X65181756Y10012364D01*
X65181752Y10012359D01*
X65052187Y9834026D01*
X64952104Y9637607D01*
X64952103Y9637604D01*
X64883985Y9427953D01*
X64849500Y9210222D01*
X60850500Y9210222D01*
X60816015Y9427951D01*
X60754173Y9618284D01*
X60747896Y9637604D01*
X60747893Y9637611D01*
X60653313Y9823231D01*
X60640416Y9891900D01*
X60666692Y9956641D01*
X60690907Y9979842D01*
X60762365Y10031758D01*
X60918242Y10187635D01*
X61047815Y10365978D01*
X61147895Y10562394D01*
X61216015Y10772049D01*
X61250500Y10989778D01*
X61250500Y11210222D01*
X61216015Y11427951D01*
X61147895Y11637606D01*
X61147895Y11637607D01*
X61089405Y11752397D01*
X61047815Y11834022D01*
X61028254Y11860946D01*
X60918247Y12012359D01*
X60918243Y12012364D01*
X60762367Y12168240D01*
X60762361Y12168245D01*
X60751612Y12176055D01*
X60708948Y12231386D01*
X60700500Y12276371D01*
X60700500Y16751374D01*
X60720185Y16818413D01*
X60736819Y16839055D01*
X60986820Y17089056D01*
X61315690Y17417926D01*
X61426760Y17570801D01*
X61512547Y17739168D01*
X61570940Y17918882D01*
X61589480Y18035941D01*
X61600500Y18105513D01*
X61600500Y18486256D01*
X61620185Y18553295D01*
X61672989Y18599050D01*
X61688491Y18604912D01*
X61753954Y18624769D01*
X61936450Y18722315D01*
X62096410Y18853590D01*
X62227685Y19013550D01*
X62325231Y19196046D01*
X62334969Y19228149D01*
X62345086Y19261496D01*
X62383384Y19319935D01*
X62447196Y19348391D01*
X62463746Y19349500D01*
X73501374Y19349500D01*
X73568413Y19329815D01*
X73589055Y19313181D01*
X76513181Y16389055D01*
X76546666Y16327732D01*
X76549500Y16301374D01*
X76549500Y14822940D01*
X76529815Y14755901D01*
X76513181Y14735259D01*
X76470184Y14692263D01*
X76374211Y14539524D01*
X76314631Y14369255D01*
X76314630Y14369250D01*
X76299500Y14234961D01*
X76299500Y11645040D01*
X76314630Y11510751D01*
X76314631Y11510746D01*
X76374211Y11340477D01*
X76448370Y11222455D01*
X76470184Y11187738D01*
X76597738Y11060184D01*
X76652506Y11025771D01*
X76706086Y10992104D01*
X76750478Y10964211D01*
X76878255Y10919500D01*
X76920745Y10904632D01*
X76920750Y10904631D01*
X77011246Y10894435D01*
X77055040Y10889501D01*
X77055043Y10889500D01*
X77055046Y10889500D01*
X78444957Y10889500D01*
X78444958Y10889501D01*
X78512104Y10897066D01*
X78579249Y10904631D01*
X78579252Y10904632D01*
X78579255Y10904632D01*
X78749522Y10964211D01*
X78902262Y11060184D01*
X79029816Y11187738D01*
X79079001Y11266016D01*
X79131330Y11312302D01*
X79200384Y11322952D01*
X79264232Y11294577D01*
X79271672Y11287721D01*
X79337636Y11221757D01*
X79337641Y11221753D01*
X79493192Y11108740D01*
X79515978Y11092185D01*
X79644375Y11026763D01*
X79712393Y10992105D01*
X79712396Y10992104D01*
X79798241Y10964212D01*
X79922049Y10923985D01*
X80139778Y10889500D01*
X80139779Y10889500D01*
X80360221Y10889500D01*
X80360222Y10889500D01*
X80577951Y10923985D01*
X80787606Y10992105D01*
X80984022Y11092185D01*
X81162365Y11221758D01*
X81162371Y11221765D01*
X81166061Y11224915D01*
X81166736Y11224125D01*
X81223642Y11255197D01*
X81293334Y11250213D01*
X81333498Y11224400D01*
X81333939Y11224915D01*
X81337641Y11221753D01*
X81493192Y11108740D01*
X81515978Y11092185D01*
X81644375Y11026763D01*
X81712393Y10992105D01*
X81712396Y10992104D01*
X81798241Y10964212D01*
X81922049Y10923985D01*
X82139778Y10889500D01*
X82139779Y10889500D01*
X82360221Y10889500D01*
X82360222Y10889500D01*
X82577951Y10923985D01*
X82787606Y10992105D01*
X82984022Y11092185D01*
X83162365Y11221758D01*
X83318242Y11377635D01*
X83447815Y11555978D01*
X83547895Y11752394D01*
X83616015Y11962049D01*
X83650500Y12179778D01*
X83650500Y13700222D01*
X83616015Y13917951D01*
X83550924Y14118284D01*
X83547896Y14127604D01*
X83547895Y14127607D01*
X83464015Y14292229D01*
X83450500Y14348524D01*
X83450500Y15001375D01*
X83470185Y15068414D01*
X83486819Y15089056D01*
X83899777Y15502014D01*
X84480690Y16082927D01*
X84591760Y16235801D01*
X84677547Y16404168D01*
X84735940Y16583882D01*
X84740676Y16613782D01*
X84765500Y16770516D01*
X84765500Y29226734D01*
X84785185Y29293773D01*
X84837989Y29339528D01*
X84907147Y29349472D01*
X84970703Y29320447D01*
X84999985Y29283028D01*
X85011130Y29261154D01*
X85159201Y29057351D01*
X85159205Y29057346D01*
X85337345Y28879206D01*
X85337350Y28879202D01*
X85467653Y28784532D01*
X85541155Y28731130D01*
X85642330Y28679579D01*
X85765616Y28616761D01*
X85765618Y28616761D01*
X85765621Y28616759D01*
X86005215Y28538910D01*
X86254038Y28499500D01*
X86254039Y28499500D01*
X86505961Y28499500D01*
X86505962Y28499500D01*
X86754785Y28538910D01*
X86994379Y28616759D01*
X87218845Y28731130D01*
X87314325Y28800500D01*
X87417993Y28875818D01*
X87483799Y28899298D01*
X87490878Y28899500D01*
X89251374Y28899500D01*
X89318413Y28879815D01*
X89339055Y28863181D01*
X92563181Y25639055D01*
X92596666Y25577732D01*
X92599500Y25551374D01*
X92599500Y13680828D01*
X92579815Y13613789D01*
X92548386Y13580510D01*
X92405061Y13476378D01*
X92243622Y13314939D01*
X92109421Y13130229D01*
X92005770Y12926804D01*
X91935215Y12709661D01*
X91899500Y12484163D01*
X91899500Y12255838D01*
X91935215Y12030340D01*
X92005770Y11813197D01*
X92060638Y11705514D01*
X92109421Y11609772D01*
X92243621Y11425063D01*
X92405063Y11263621D01*
X92589772Y11129421D01*
X92651084Y11098181D01*
X92793196Y11025771D01*
X92793198Y11025771D01*
X92793201Y11025769D01*
X92909592Y10987951D01*
X93010339Y10955216D01*
X93235838Y10919500D01*
X93235843Y10919500D01*
X94364162Y10919500D01*
X94589660Y10955216D01*
X94806799Y11025769D01*
X95010228Y11129421D01*
X95194937Y11263621D01*
X95356379Y11425063D01*
X95490579Y11609772D01*
X95594231Y11813201D01*
X95664784Y12030340D01*
X95700500Y12255838D01*
X95700500Y12484163D01*
X95664784Y12709661D01*
X95594229Y12926804D01*
X95516175Y13079993D01*
X95490579Y13130228D01*
X95356379Y13314937D01*
X95194937Y13476379D01*
X95051613Y13580511D01*
X95008949Y13635841D01*
X95000500Y13680828D01*
X95000500Y26194481D01*
X94986171Y26284949D01*
X94986171Y26284950D01*
X94978353Y26334313D01*
X94970940Y26381118D01*
X94912547Y26560832D01*
X94912545Y26560835D01*
X94912545Y26560837D01*
X94826759Y26729200D01*
X94816437Y26743407D01*
X94715690Y26882074D01*
X90582074Y31015690D01*
X90429199Y31126760D01*
X90398013Y31142650D01*
X90260836Y31212546D01*
X90081118Y31270941D01*
X89894486Y31300500D01*
X89894481Y31300500D01*
X87490878Y31300500D01*
X87423839Y31320185D01*
X87417993Y31324182D01*
X87218848Y31468868D01*
X87218847Y31468869D01*
X87218845Y31468870D01*
X87136480Y31510837D01*
X86994383Y31583240D01*
X86754785Y31661090D01*
X86640450Y31679199D01*
X86505962Y31700500D01*
X86254038Y31700500D01*
X86129626Y31680795D01*
X86005214Y31661090D01*
X85765616Y31583240D01*
X85541151Y31468868D01*
X85337350Y31320799D01*
X85337345Y31320795D01*
X85159205Y31142655D01*
X85159201Y31142650D01*
X85011130Y30938847D01*
X84999984Y30916971D01*
X84952009Y30866176D01*
X84884188Y30849381D01*
X84818054Y30871919D01*
X84774603Y30926634D01*
X84765500Y30973267D01*
X84765500Y38364978D01*
X84785185Y38432017D01*
X84801819Y38452659D01*
X84823931Y38474771D01*
X84976634Y38684949D01*
X85094579Y38916428D01*
X85174860Y39163507D01*
X85209569Y39382653D01*
X85215500Y39420098D01*
X85215500Y39679903D01*
X85186908Y39860423D01*
X85174860Y39936493D01*
X85094579Y40183572D01*
X85094577Y40183575D01*
X85094577Y40183577D01*
X85026121Y40317927D01*
X84976634Y40415051D01*
X84823931Y40625229D01*
X84640229Y40808931D01*
X84626533Y40818882D01*
X84430054Y40961632D01*
X84430053Y40961633D01*
X84430051Y40961634D01*
X84343922Y41005519D01*
X84198576Y41079578D01*
X83951493Y41159860D01*
X83694902Y41200500D01*
X83694897Y41200500D01*
X83435103Y41200500D01*
X83435098Y41200500D01*
X83178506Y41159860D01*
X82931423Y41079578D01*
X82699946Y40961633D01*
X82638219Y40916786D01*
X82572413Y40893307D01*
X82504359Y40909133D01*
X82477654Y40929424D01*
X82377262Y41029816D01*
X82224523Y41125789D01*
X82054254Y41185369D01*
X82054249Y41185370D01*
X81919960Y41200500D01*
X81919954Y41200500D01*
X80130046Y41200500D01*
X80130039Y41200500D01*
X79995750Y41185370D01*
X79995745Y41185369D01*
X79825476Y41125789D01*
X79672737Y41029816D01*
X79545184Y40902263D01*
X79449211Y40749524D01*
X79389631Y40579255D01*
X79389630Y40579250D01*
X79374500Y40444961D01*
X79374500Y38655040D01*
X79389630Y38520751D01*
X79389631Y38520746D01*
X79449211Y38350477D01*
X79545184Y38197738D01*
X79672740Y38070182D01*
X79766471Y38011288D01*
X79812763Y37958954D01*
X79824500Y37906294D01*
X79824500Y17373626D01*
X79804815Y17306587D01*
X79788181Y17285945D01*
X79334308Y16832073D01*
X79334306Y16832071D01*
X79293488Y16775887D01*
X79289588Y16770519D01*
X79223240Y16679199D01*
X79182482Y16599209D01*
X79179548Y16594529D01*
X79157361Y16574873D01*
X79137010Y16553324D01*
X79131499Y16551960D01*
X79127251Y16548195D01*
X79097957Y16543654D01*
X79069189Y16536529D01*
X79063816Y16538360D01*
X79058207Y16537490D01*
X79031108Y16549507D01*
X79003054Y16559067D01*
X78999524Y16563512D01*
X78994335Y16565813D01*
X78978035Y16590572D01*
X78959603Y16613782D01*
X78958274Y16620587D01*
X78955915Y16624171D01*
X78955815Y16633184D01*
X78950500Y16660415D01*
X78950500Y16944487D01*
X78920940Y17131119D01*
X78862545Y17310837D01*
X78776759Y17479200D01*
X78710207Y17570801D01*
X78710207Y17570802D01*
X78710205Y17570803D01*
X78665690Y17632074D01*
X74832074Y21465690D01*
X74679199Y21576760D01*
X74510836Y21662546D01*
X74331118Y21720941D01*
X74144486Y21750500D01*
X74144481Y21750500D01*
X62463746Y21750500D01*
X62396707Y21770185D01*
X62350952Y21822989D01*
X62345086Y21838504D01*
X62325230Y21903956D01*
X62227686Y22086449D01*
X62227684Y22086451D01*
X62096410Y22246411D01*
X61936450Y22377685D01*
X61936448Y22377687D01*
X61753955Y22475231D01*
X61688504Y22495086D01*
X61630065Y22533384D01*
X61601609Y22597196D01*
X61600500Y22613746D01*
X61600500Y23402848D01*
X61620185Y23469887D01*
X61637865Y23489501D01*
X61636829Y23490537D01*
X61806587Y23660296D01*
X61806592Y23660301D01*
X61950273Y23847550D01*
X62068284Y24051951D01*
X62158606Y24270007D01*
X62219693Y24497986D01*
X62250500Y24731989D01*
X62250500Y24968011D01*
X62219693Y25202014D01*
X62158606Y25429993D01*
X62068284Y25648049D01*
X62068282Y25648052D01*
X62068280Y25648057D01*
X62004894Y25757843D01*
X61950273Y25852450D01*
X61806592Y26039699D01*
X61806587Y26039705D01*
X61639704Y26206588D01*
X61639697Y26206594D01*
X61452454Y26350270D01*
X61452453Y26350271D01*
X61452450Y26350273D01*
X61370957Y26397323D01*
X61248056Y26468281D01*
X61248045Y26468286D01*
X61029993Y26558606D01*
X60802010Y26619694D01*
X60568020Y26650499D01*
X60568017Y26650500D01*
X60568011Y26650500D01*
X60331989Y26650500D01*
X60331983Y26650500D01*
X60331979Y26650499D01*
X60097989Y26619694D01*
X59870006Y26558606D01*
X59651954Y26468286D01*
X59651943Y26468281D01*
X59447545Y26350270D01*
X59260302Y26206594D01*
X59260295Y26206588D01*
X59093412Y26039705D01*
X59093406Y26039698D01*
X58949730Y25852455D01*
X58831719Y25648057D01*
X58831714Y25648046D01*
X58741394Y25429994D01*
X58680306Y25202011D01*
X58649501Y24968021D01*
X58649500Y24968005D01*
X58649500Y24731996D01*
X58649501Y24731980D01*
X58675831Y24531980D01*
X58680307Y24497986D01*
X58728554Y24317926D01*
X58741394Y24270007D01*
X58831714Y24051955D01*
X58831719Y24051944D01*
X58872611Y23981118D01*
X58949727Y23847550D01*
X58949729Y23847547D01*
X58949730Y23847546D01*
X59093405Y23660304D01*
X59093406Y23660303D01*
X59093408Y23660301D01*
X59163182Y23590527D01*
X59196666Y23529206D01*
X59199500Y23502847D01*
X59199500Y22613746D01*
X59179815Y22546707D01*
X59127011Y22500952D01*
X59111496Y22495086D01*
X59046044Y22475231D01*
X58863551Y22377687D01*
X58863549Y22377685D01*
X58703589Y22246411D01*
X58572315Y22086451D01*
X58572313Y22086449D01*
X58474770Y21903959D01*
X58414699Y21705932D01*
X58399500Y21551604D01*
X58399500Y19548398D01*
X58414699Y19394069D01*
X58474770Y19196042D01*
X58572313Y19013552D01*
X58572315Y19013550D01*
X58703589Y18853590D01*
X58863549Y18722316D01*
X58863551Y18722314D01*
X58951351Y18675384D01*
X59001195Y18626422D01*
X59016656Y18558284D01*
X58992824Y18492604D01*
X58980579Y18478345D01*
X58584308Y18082073D01*
X58584307Y18082071D01*
X58559171Y18047474D01*
X58550792Y18035940D01*
X58532554Y18010837D01*
X58473240Y17929200D01*
X58387454Y17760837D01*
X58329059Y17581119D01*
X58299500Y17394487D01*
X58299500Y12349025D01*
X58279815Y12281986D01*
X58248387Y12248709D01*
X58199501Y12213190D01*
X58137632Y12168240D01*
X57981756Y12012364D01*
X57981752Y12012359D01*
X57852187Y11834026D01*
X57752104Y11637607D01*
X57752103Y11637604D01*
X57683985Y11427953D01*
X57661775Y11287721D01*
X57649500Y11210222D01*
X57649500Y10989778D01*
X57658121Y10935346D01*
X57683985Y10772046D01*
X57696815Y10732559D01*
X57698810Y10662718D01*
X57662729Y10602885D01*
X57600028Y10572058D01*
X57530613Y10580023D01*
X57491203Y10606561D01*
X55836819Y12260945D01*
X55803334Y12322268D01*
X55800500Y12348626D01*
X55800500Y24244487D01*
X55770940Y24431119D01*
X55738165Y24531989D01*
X55712547Y24610832D01*
X55712545Y24610835D01*
X55712545Y24610837D01*
X55650819Y24731980D01*
X55626760Y24779199D01*
X55515690Y24932073D01*
X55382073Y25065690D01*
X55229199Y25176760D01*
X55223368Y25179731D01*
X55060836Y25262546D01*
X54881118Y25320941D01*
X54694486Y25350500D01*
X54694481Y25350500D01*
X49174500Y25350500D01*
X49107461Y25370185D01*
X49061706Y25422989D01*
X49050500Y25474500D01*
X49050500Y30625448D01*
X49070185Y30692487D01*
X49099013Y30723824D01*
X49189699Y30793408D01*
X49356592Y30960301D01*
X49500273Y31147550D01*
X49618284Y31351951D01*
X49708606Y31570007D01*
X49769693Y31797986D01*
X49800500Y32031989D01*
X49800500Y32268011D01*
X49769693Y32502014D01*
X49708606Y32729993D01*
X49618284Y32948049D01*
X49618282Y32948052D01*
X49618280Y32948057D01*
X49548521Y33068882D01*
X49500273Y33152450D01*
X49421189Y33255514D01*
X49356593Y33339698D01*
X49356587Y33339705D01*
X49189704Y33506588D01*
X49189697Y33506594D01*
X49002454Y33650270D01*
X49002453Y33650271D01*
X49002450Y33650273D01*
X48881359Y33720185D01*
X48798056Y33768281D01*
X48798045Y33768286D01*
X48579993Y33858606D01*
X48352010Y33919694D01*
X48118020Y33950499D01*
X48118017Y33950500D01*
X48118011Y33950500D01*
X47881989Y33950500D01*
X47881983Y33950500D01*
X47881979Y33950499D01*
X47647989Y33919694D01*
X47420006Y33858606D01*
X47201954Y33768286D01*
X47201943Y33768281D01*
X46997545Y33650270D01*
X46810302Y33506594D01*
X46810295Y33506588D01*
X46643412Y33339705D01*
X46643406Y33339698D01*
X46499730Y33152455D01*
X46381719Y32948057D01*
X46381714Y32948046D01*
X46291394Y32729994D01*
X46230306Y32502011D01*
X46199501Y32268021D01*
X46199500Y32268005D01*
X46199500Y32031996D01*
X46199501Y32031980D01*
X46230306Y31797990D01*
X46291394Y31570007D01*
X46381714Y31351955D01*
X46381719Y31351944D01*
X46452677Y31229043D01*
X46499727Y31147550D01*
X46499729Y31147547D01*
X46499730Y31147546D01*
X46623876Y30985755D01*
X46649070Y30920586D01*
X46649500Y30910269D01*
X46649500Y25474500D01*
X46629815Y25407461D01*
X46577011Y25361706D01*
X46525500Y25350500D01*
X39348625Y25350500D01*
X39281586Y25370185D01*
X39260944Y25386819D01*
X38352866Y26294898D01*
X38319381Y26356221D01*
X38324365Y26425913D01*
X38330063Y26438875D01*
X38335987Y26450500D01*
X38369579Y26516428D01*
X38449860Y26763507D01*
X38473110Y26910303D01*
X38490500Y27020098D01*
X38490500Y27279903D01*
X38468947Y27415979D01*
X38449860Y27536493D01*
X38369579Y27783572D01*
X38369577Y27783575D01*
X38369577Y27783577D01*
X38325692Y27869705D01*
X38251634Y28015051D01*
X38098931Y28225229D01*
X37915229Y28408931D01*
X37858014Y28450500D01*
X37705054Y28561632D01*
X37705053Y28561633D01*
X37705051Y28561634D01*
X37596859Y28616761D01*
X37473576Y28679578D01*
X37226493Y28759860D01*
X36969902Y28800500D01*
X36969897Y28800500D01*
X36710103Y28800500D01*
X36710098Y28800500D01*
X36453506Y28759860D01*
X36206423Y28679578D01*
X35974945Y28561632D01*
X35764774Y28408934D01*
X35764768Y28408929D01*
X35712181Y28356341D01*
X35650858Y28322856D01*
X35581166Y28327840D01*
X35525233Y28369712D01*
X35500816Y28435176D01*
X35500500Y28444022D01*
X35500500Y36301374D01*
X35520185Y36368413D01*
X35536819Y36389055D01*
X41840945Y42693181D01*
X41902268Y42726666D01*
X41928626Y42729500D01*
X42305978Y42729500D01*
X42373017Y42709815D01*
X42418772Y42657011D01*
X42428716Y42587853D01*
X42399691Y42524297D01*
X42393659Y42517819D01*
X42341071Y42465232D01*
X42341066Y42465226D01*
X42188368Y42255055D01*
X42070422Y42023577D01*
X41990140Y41776494D01*
X41949500Y41519903D01*
X41949500Y41260098D01*
X41990140Y41003507D01*
X42070422Y40756424D01*
X42137272Y40625226D01*
X42184775Y40531996D01*
X42188368Y40524946D01*
X42268211Y40415051D01*
X42341069Y40314771D01*
X42524771Y40131069D01*
X42734949Y39978366D01*
X42882445Y39903213D01*
X42966423Y39860423D01*
X42966425Y39860423D01*
X42966428Y39860421D01*
X43213507Y39780140D01*
X43345706Y39759203D01*
X43470098Y39739500D01*
X43470103Y39739500D01*
X43729902Y39739500D01*
X43843298Y39757461D01*
X43986493Y39780140D01*
X44233572Y39860421D01*
X44465051Y39978366D01*
X44675229Y40131069D01*
X44697341Y40153181D01*
X44758664Y40186666D01*
X44785022Y40189500D01*
X50361374Y40189500D01*
X50428413Y40169815D01*
X50449055Y40153181D01*
X58563181Y32039056D01*
X58596666Y31977733D01*
X58599500Y31951375D01*
X58599500Y31781996D01*
X58599501Y31781980D01*
X58630306Y31547990D01*
X58691394Y31320007D01*
X58781714Y31101955D01*
X58781719Y31101944D01*
X58831519Y31015690D01*
X58899727Y30897550D01*
X58899729Y30897547D01*
X58899730Y30897546D01*
X59043406Y30710303D01*
X59043412Y30710296D01*
X59210295Y30543413D01*
X59210302Y30543407D01*
X59299731Y30474786D01*
X59397550Y30399727D01*
X59528918Y30323882D01*
X59601943Y30281720D01*
X59601948Y30281718D01*
X59601951Y30281716D01*
X59820007Y30191394D01*
X60047986Y30130307D01*
X60281989Y30099500D01*
X60281996Y30099500D01*
X60518004Y30099500D01*
X60518011Y30099500D01*
X60752014Y30130307D01*
X60979993Y30191394D01*
X61198049Y30281716D01*
X61402450Y30399727D01*
X61589699Y30543408D01*
X61756592Y30710301D01*
X61900273Y30897550D01*
X62018284Y31101951D01*
X62108606Y31320007D01*
X62169693Y31547986D01*
X62200500Y31781989D01*
X62200500Y32018011D01*
X62169693Y32252014D01*
X62108606Y32479993D01*
X62018284Y32698049D01*
X62018282Y32698052D01*
X62018280Y32698057D01*
X61969770Y32782077D01*
X61900273Y32902450D01*
X61840288Y32980624D01*
X61756593Y33089698D01*
X61756587Y33089705D01*
X61589704Y33256588D01*
X61589697Y33256594D01*
X61402454Y33400270D01*
X61402453Y33400271D01*
X61402450Y33400273D01*
X61320957Y33447323D01*
X61198056Y33518281D01*
X61198045Y33518286D01*
X60979993Y33608606D01*
X60752010Y33669694D01*
X60518020Y33700499D01*
X60518017Y33700500D01*
X60518011Y33700500D01*
X60518004Y33700500D01*
X60348625Y33700500D01*
X60281586Y33720185D01*
X60260944Y33736819D01*
X55986475Y38011288D01*
X51692074Y42305690D01*
X51539199Y42416760D01*
X51533441Y42419694D01*
X51385615Y42495015D01*
X51334819Y42542990D01*
X51318024Y42610811D01*
X51340561Y42676946D01*
X51395277Y42720397D01*
X51441910Y42729500D01*
X54821374Y42729500D01*
X54888413Y42709815D01*
X54909055Y42693181D01*
X68700421Y28901816D01*
X68733906Y28840493D01*
X68728922Y28770801D01*
X68727301Y28766683D01*
X68691396Y28680001D01*
X68630306Y28452011D01*
X68599501Y28218021D01*
X68599500Y28218005D01*
X68599500Y27981996D01*
X68599501Y27981980D01*
X68630306Y27747990D01*
X68691394Y27520007D01*
X68781714Y27301955D01*
X68781719Y27301944D01*
X68805940Y27259993D01*
X68899727Y27097550D01*
X68899729Y27097547D01*
X68899730Y27097546D01*
X69043406Y26910303D01*
X69043412Y26910296D01*
X69210295Y26743413D01*
X69210302Y26743407D01*
X69320306Y26658999D01*
X69397550Y26599727D01*
X69528918Y26523882D01*
X69601943Y26481720D01*
X69601948Y26481718D01*
X69601951Y26481716D01*
X69820007Y26391394D01*
X70047986Y26330307D01*
X70281989Y26299500D01*
X70281996Y26299500D01*
X70518004Y26299500D01*
X70518011Y26299500D01*
X70752014Y26330307D01*
X70979993Y26391394D01*
X71198049Y26481716D01*
X71402450Y26599727D01*
X71589699Y26743408D01*
X71756592Y26910301D01*
X71900273Y27097550D01*
X72018284Y27301951D01*
X72108606Y27520007D01*
X72169693Y27747986D01*
X72200500Y27981989D01*
X72200500Y28218011D01*
X72169693Y28452014D01*
X72108606Y28679993D01*
X72018284Y28898049D01*
X72018282Y28898052D01*
X72018280Y28898057D01*
X71976118Y28971082D01*
X71900273Y29102450D01*
X71756592Y29289699D01*
X71756587Y29289705D01*
X71589704Y29456588D01*
X71589697Y29456594D01*
X71402451Y29600273D01*
X71392547Y29605991D01*
X71378199Y29614275D01*
X71377665Y29614698D01*
X71377324Y29614783D01*
X71375712Y29616247D01*
X71349760Y29636827D01*
X71344449Y29642489D01*
X71315690Y29682073D01*
X71182073Y29815690D01*
X56152074Y44845690D01*
X55999199Y44956760D01*
X55830836Y45042546D01*
X55651118Y45100941D01*
X55464486Y45130500D01*
X55464481Y45130500D01*
X54267625Y45130500D01*
X54200586Y45150185D01*
X54154831Y45202989D01*
X54144887Y45272147D01*
X54173912Y45335703D01*
X54179944Y45342181D01*
X54361771Y45524008D01*
X54555690Y45717927D01*
X54666760Y45870801D01*
X54752547Y46039168D01*
X54810940Y46218882D01*
X54819118Y46270514D01*
X54840500Y46405514D01*
X54840500Y46539254D01*
X54860185Y46606293D01*
X54864173Y46612129D01*
X54923343Y46693567D01*
X55030568Y46904008D01*
X55103553Y47128632D01*
X55112172Y47183052D01*
X55140500Y47361903D01*
X55140500Y47598098D01*
X55103553Y47831369D01*
X55073702Y47923240D01*
X55030568Y48055992D01*
X55030565Y48055996D01*
X55030565Y48055999D01*
X54978033Y48159097D01*
X54965136Y48227766D01*
X54991412Y48292507D01*
X55000827Y48303065D01*
X59635690Y52937927D01*
X59746760Y53090801D01*
X59765015Y53126630D01*
X59812989Y53177425D01*
X59880810Y53194220D01*
X59946945Y53171683D01*
X59990397Y53116968D01*
X59999500Y53070334D01*
X59999500Y50508626D01*
X59979815Y50441587D01*
X59963181Y50420945D01*
X58536326Y48994091D01*
X58475003Y48960606D01*
X58468044Y48959299D01*
X58368630Y48943553D01*
X58144003Y48870567D01*
X57933566Y48763343D01*
X57862166Y48711467D01*
X57742490Y48624517D01*
X57742488Y48624515D01*
X57742487Y48624515D01*
X57575485Y48457513D01*
X57575485Y48457512D01*
X57575483Y48457510D01*
X57548773Y48420747D01*
X57436657Y48266434D01*
X57329433Y48055997D01*
X57256446Y47831369D01*
X57219500Y47598098D01*
X57219500Y47361903D01*
X57256446Y47128632D01*
X57329433Y46904004D01*
X57374893Y46814785D01*
X57436657Y46693567D01*
X57575483Y46502490D01*
X57742490Y46335483D01*
X57933567Y46196657D01*
X58032991Y46145998D01*
X58144003Y46089434D01*
X58144005Y46089434D01*
X58144008Y46089432D01*
X58218540Y46065215D01*
X58368631Y46016447D01*
X58601903Y45979500D01*
X58601908Y45979500D01*
X58838097Y45979500D01*
X59071368Y46016447D01*
X59295992Y46089432D01*
X59506433Y46196657D01*
X59697510Y46335483D01*
X59864517Y46502490D01*
X60003343Y46693567D01*
X60110568Y46904008D01*
X60183553Y47128632D01*
X60199298Y47228048D01*
X60229225Y47291178D01*
X60234071Y47296310D01*
X62115690Y49177927D01*
X62226760Y49330801D01*
X62312547Y49499168D01*
X62370940Y49678882D01*
X62378026Y49723623D01*
X62400500Y49865514D01*
X62400500Y54091812D01*
X62420185Y54158851D01*
X62472989Y54204606D01*
X62542147Y54214550D01*
X62605703Y54185525D01*
X62624816Y54164699D01*
X62655483Y54122490D01*
X62822490Y53955483D01*
X63013567Y53816657D01*
X63112991Y53765998D01*
X63224003Y53709434D01*
X63224005Y53709434D01*
X63224008Y53709432D01*
X63332404Y53674212D01*
X63448631Y53636447D01*
X63681903Y53599500D01*
X63681908Y53599500D01*
X63918097Y53599500D01*
X64151368Y53636447D01*
X64375992Y53709432D01*
X64419205Y53731451D01*
X64487872Y53744347D01*
X64552613Y53718072D01*
X64592871Y53660966D01*
X64599500Y53620966D01*
X64599500Y48959036D01*
X64579815Y48891997D01*
X64527011Y48846242D01*
X64457853Y48836298D01*
X64419207Y48848550D01*
X64375996Y48870566D01*
X64375995Y48870567D01*
X64375992Y48870568D01*
X64283477Y48900628D01*
X64151368Y48943554D01*
X63918097Y48980500D01*
X63918092Y48980500D01*
X63681908Y48980500D01*
X63681903Y48980500D01*
X63448631Y48943554D01*
X63224003Y48870567D01*
X63013566Y48763343D01*
X62942166Y48711467D01*
X62822490Y48624517D01*
X62822488Y48624515D01*
X62822487Y48624515D01*
X62655485Y48457513D01*
X62655485Y48457512D01*
X62655483Y48457510D01*
X62628773Y48420747D01*
X62516657Y48266434D01*
X62409433Y48055997D01*
X62336446Y47831369D01*
X62299500Y47598098D01*
X62299500Y47361903D01*
X62336446Y47128632D01*
X62409433Y46904004D01*
X62454893Y46814785D01*
X62516657Y46693567D01*
X62655483Y46502490D01*
X62822490Y46335483D01*
X63013567Y46196657D01*
X63112991Y46145998D01*
X63224003Y46089434D01*
X63224005Y46089434D01*
X63224008Y46089432D01*
X63298540Y46065215D01*
X63448631Y46016447D01*
X63681903Y45979500D01*
X63681908Y45979500D01*
X63918097Y45979500D01*
X64151368Y46016447D01*
X64375992Y46089432D01*
X64586433Y46196657D01*
X64764208Y46325819D01*
X64830012Y46349298D01*
X64837092Y46349500D01*
X65644486Y46349500D01*
X65831118Y46379060D01*
X66010832Y46437453D01*
X66179199Y46523240D01*
X66332074Y46634310D01*
X66715690Y47017926D01*
X66826760Y47170801D01*
X66912547Y47339168D01*
X66970940Y47518882D01*
X66978323Y47565500D01*
X67000500Y47705519D01*
X67000500Y58194481D01*
X67000500Y58194487D01*
X66970940Y58381119D01*
X66918138Y58543625D01*
X66912547Y58560832D01*
X66912545Y58560835D01*
X66912545Y58560837D01*
X66826759Y58729200D01*
X66823349Y58733894D01*
X66753887Y58829500D01*
X66744337Y58842644D01*
X66715693Y58882071D01*
X62582076Y63015688D01*
X62582074Y63015690D01*
X62429199Y63126760D01*
X62398013Y63142650D01*
X62260836Y63212546D01*
X62081118Y63270941D01*
X61894486Y63300500D01*
X61894481Y63300500D01*
X57990878Y63300500D01*
X57923839Y63320185D01*
X57917993Y63324182D01*
X57718848Y63468868D01*
X57718847Y63468869D01*
X57718845Y63468870D01*
X57648747Y63504587D01*
X57494383Y63583240D01*
X57254785Y63661090D01*
X57005962Y63700500D01*
X56754038Y63700500D01*
X56629626Y63680795D01*
X56505214Y63661090D01*
X56265616Y63583240D01*
X56041151Y63468868D01*
X55837350Y63320799D01*
X55837345Y63320795D01*
X55659205Y63142655D01*
X55659201Y63142650D01*
X55511132Y62938849D01*
X55396760Y62714384D01*
X55321220Y62481894D01*
X55318910Y62474785D01*
X55279500Y62225962D01*
X55279500Y61974038D01*
X55279773Y61972315D01*
X55318910Y61725215D01*
X55396760Y61485617D01*
X55511132Y61261152D01*
X55659201Y61057351D01*
X55659205Y61057346D01*
X55704370Y61012181D01*
X55737855Y60950858D01*
X55732871Y60881166D01*
X55690999Y60825233D01*
X55625535Y60800816D01*
X55616689Y60800500D01*
X47983311Y60800500D01*
X47916272Y60820185D01*
X47870517Y60872989D01*
X47860573Y60942147D01*
X47889598Y61005703D01*
X47895630Y61012181D01*
X47902222Y61018773D01*
X47940793Y61057344D01*
X48088870Y61261155D01*
X48203241Y61485621D01*
X48281090Y61725215D01*
X48320500Y61974038D01*
X48320500Y62225962D01*
X48281090Y62474785D01*
X48203241Y62714379D01*
X48203239Y62714382D01*
X48203239Y62714384D01*
X48145913Y62826891D01*
X48088870Y62938845D01*
X48077866Y62953990D01*
X47944182Y63137993D01*
X47920702Y63203799D01*
X47920500Y63210878D01*
X47920500Y64489123D01*
X47940185Y64556162D01*
X47944182Y64562008D01*
X48011371Y64654487D01*
X48088870Y64761155D01*
X48203241Y64985621D01*
X48281090Y65225215D01*
X48320500Y65474038D01*
X48320500Y65725962D01*
X48281090Y65974785D01*
X48203241Y66214379D01*
X48203239Y66214382D01*
X48203239Y66214384D01*
X48147023Y66324713D01*
X48088870Y66438845D01*
X47992760Y66571130D01*
X47940798Y66642650D01*
X47940794Y66642655D01*
X47762654Y66820795D01*
X47762649Y66820799D01*
X47558848Y66968868D01*
X47558847Y66968869D01*
X47558845Y66968870D01*
X47421384Y67038910D01*
X47334383Y67083240D01*
X47094785Y67161090D01*
X46845962Y67200500D01*
X46594038Y67200500D01*
X46469626Y67180795D01*
X46345214Y67161090D01*
X46105616Y67083240D01*
X45881151Y66968868D01*
X45682007Y66824182D01*
X45616201Y66800702D01*
X45609122Y66800500D01*
X39648626Y66800500D01*
X39581587Y66820185D01*
X39560945Y66836819D01*
X37437519Y68960245D01*
X37404034Y69021568D01*
X37409018Y69091260D01*
X37450890Y69147193D01*
X37516354Y69171610D01*
X37581495Y69158411D01*
X37636423Y69130423D01*
X37636425Y69130423D01*
X37636428Y69130421D01*
X37883507Y69050140D01*
X38015706Y69029203D01*
X38140098Y69009500D01*
X38140103Y69009500D01*
X38399902Y69009500D01*
X38513298Y69027461D01*
X38656493Y69050140D01*
X38903572Y69130421D01*
X39135051Y69248366D01*
X39345229Y69401069D01*
X39452319Y69508159D01*
X39513642Y69541644D01*
X39583334Y69536660D01*
X39627681Y69508159D01*
X39734771Y69401069D01*
X39944949Y69248366D01*
X40092445Y69173213D01*
X40176423Y69130423D01*
X40176425Y69130423D01*
X40176428Y69130421D01*
X40423507Y69050140D01*
X40555706Y69029203D01*
X40680098Y69009500D01*
X40680103Y69009500D01*
X40939902Y69009500D01*
X41053298Y69027461D01*
X41196493Y69050140D01*
X41443572Y69130421D01*
X41675051Y69248366D01*
X41885229Y69401069D01*
X41992319Y69508159D01*
X42053642Y69541644D01*
X42123334Y69536660D01*
X42167681Y69508159D01*
X42274771Y69401069D01*
X42484949Y69248366D01*
X42632445Y69173213D01*
X42716423Y69130423D01*
X42716425Y69130423D01*
X42716428Y69130421D01*
X42963507Y69050140D01*
X43095706Y69029203D01*
X43220098Y69009500D01*
X43220103Y69009500D01*
X43479902Y69009500D01*
X43593298Y69027461D01*
X43736493Y69050140D01*
X43983572Y69130421D01*
X44215051Y69248366D01*
X44425229Y69401069D01*
X44532319Y69508159D01*
X44593642Y69541644D01*
X44663334Y69536660D01*
X44707681Y69508159D01*
X44814771Y69401069D01*
X45024949Y69248366D01*
X45172445Y69173213D01*
X45256423Y69130423D01*
X45256425Y69130423D01*
X45256428Y69130421D01*
X45503507Y69050140D01*
X45635706Y69029203D01*
X45760098Y69009500D01*
X45760103Y69009500D01*
X46019902Y69009500D01*
X46133298Y69027461D01*
X46276493Y69050140D01*
X46523572Y69130421D01*
X46755051Y69248366D01*
X46965229Y69401069D01*
X47072319Y69508159D01*
X47133642Y69541644D01*
X47203334Y69536660D01*
X47247681Y69508159D01*
X47354771Y69401069D01*
X47564949Y69248366D01*
X47712445Y69173213D01*
X47796423Y69130423D01*
X47796425Y69130423D01*
X47796428Y69130421D01*
X48043507Y69050140D01*
X48175706Y69029203D01*
X48300098Y69009500D01*
X48300103Y69009500D01*
X48559902Y69009500D01*
X48673298Y69027461D01*
X48816493Y69050140D01*
X49063572Y69130421D01*
X49295051Y69248366D01*
X49505229Y69401069D01*
X49612319Y69508159D01*
X49673642Y69541644D01*
X49743334Y69536660D01*
X49787681Y69508159D01*
X49894771Y69401069D01*
X50104949Y69248366D01*
X50252445Y69173213D01*
X50336423Y69130423D01*
X50336425Y69130423D01*
X50336428Y69130421D01*
X50583507Y69050140D01*
X50715706Y69029203D01*
X50840098Y69009500D01*
X50840103Y69009500D01*
X51099902Y69009500D01*
X51213298Y69027461D01*
X51356493Y69050140D01*
X51603572Y69130421D01*
X51835051Y69248366D01*
X52045229Y69401069D01*
X52152319Y69508159D01*
X52213642Y69541644D01*
X52283334Y69536660D01*
X52327681Y69508159D01*
X52434771Y69401069D01*
X52644949Y69248366D01*
X52792445Y69173213D01*
X52876423Y69130423D01*
X52876425Y69130423D01*
X52876428Y69130421D01*
X53123507Y69050140D01*
X53255706Y69029203D01*
X53380098Y69009500D01*
X53380103Y69009500D01*
X53639902Y69009500D01*
X53753298Y69027461D01*
X53896493Y69050140D01*
X54143572Y69130421D01*
X54375051Y69248366D01*
X54585229Y69401069D01*
X54692319Y69508159D01*
X54753642Y69541644D01*
X54823334Y69536660D01*
X54867681Y69508159D01*
X54974771Y69401069D01*
X55184949Y69248366D01*
X55332445Y69173213D01*
X55416423Y69130423D01*
X55416425Y69130423D01*
X55416428Y69130421D01*
X55663507Y69050140D01*
X55795706Y69029203D01*
X55920098Y69009500D01*
X55920103Y69009500D01*
X56179902Y69009500D01*
X56293298Y69027461D01*
X56436493Y69050140D01*
X56683572Y69130421D01*
X56915051Y69248366D01*
X57125229Y69401069D01*
X57232319Y69508159D01*
X57293642Y69541644D01*
X57363334Y69536660D01*
X57407681Y69508159D01*
X57514771Y69401069D01*
X57724949Y69248366D01*
X57872445Y69173213D01*
X57956423Y69130423D01*
X57956425Y69130423D01*
X57956428Y69130421D01*
X58203507Y69050140D01*
X58335706Y69029203D01*
X58460098Y69009500D01*
X58460103Y69009500D01*
X58719902Y69009500D01*
X58833298Y69027461D01*
X58976493Y69050140D01*
X59223572Y69130421D01*
X59455051Y69248366D01*
X59665229Y69401069D01*
X59772319Y69508159D01*
X59833642Y69541644D01*
X59903334Y69536660D01*
X59947681Y69508159D01*
X60054771Y69401069D01*
X60264949Y69248366D01*
X60412445Y69173213D01*
X60496423Y69130423D01*
X60496425Y69130423D01*
X60496428Y69130421D01*
X60743507Y69050140D01*
X60875706Y69029203D01*
X61000098Y69009500D01*
X61000103Y69009500D01*
X61259902Y69009500D01*
X61373298Y69027461D01*
X61516493Y69050140D01*
X61763572Y69130421D01*
X61995051Y69248366D01*
X62205229Y69401069D01*
X62257819Y69453659D01*
X62319142Y69487144D01*
X62388834Y69482160D01*
X62444767Y69440288D01*
X62469184Y69374824D01*
X62469500Y69365978D01*
X62469500Y68135514D01*
X62499059Y67948882D01*
X62557454Y67769164D01*
X62600690Y67684310D01*
X62643240Y67600801D01*
X62754310Y67447926D01*
X64517926Y65684310D01*
X64670801Y65573240D01*
X64839168Y65487453D01*
X65018882Y65429060D01*
X65088870Y65417975D01*
X65205513Y65399500D01*
X65205518Y65399500D01*
X80394486Y65399500D01*
X80581118Y65429060D01*
X80760832Y65487453D01*
X80929199Y65573240D01*
X81082073Y65684310D01*
X81215690Y65817927D01*
X81326760Y65970801D01*
X81412547Y66139168D01*
X81470940Y66318882D01*
X81476604Y66354642D01*
X81500500Y66505514D01*
X81500500Y72114487D01*
X81470940Y72301119D01*
X81443846Y72384503D01*
X81412547Y72480832D01*
X81412545Y72480835D01*
X81412545Y72480837D01*
X81326759Y72649200D01*
X81215690Y72802074D01*
X79854389Y74163375D01*
X79820904Y74224698D01*
X79819602Y74231630D01*
X79781090Y74474785D01*
X79703241Y74714379D01*
X79703239Y74714382D01*
X79703239Y74714384D01*
X79641594Y74835368D01*
X79588870Y74938845D01*
X79569952Y74964883D01*
X79440798Y75142650D01*
X79440794Y75142655D01*
X79262654Y75320795D01*
X79262649Y75320799D01*
X79058848Y75468868D01*
X79058847Y75468869D01*
X79058845Y75468870D01*
X78988747Y75504587D01*
X78834383Y75583240D01*
X78594785Y75661090D01*
X78345962Y75700500D01*
X78094038Y75700500D01*
X77969626Y75680795D01*
X77845214Y75661090D01*
X77605616Y75583240D01*
X77381151Y75468868D01*
X77177350Y75320799D01*
X77177345Y75320795D01*
X76999205Y75142655D01*
X76999201Y75142650D01*
X76851132Y74938849D01*
X76736760Y74714384D01*
X76658910Y74474786D01*
X76619500Y74225962D01*
X76619500Y73974039D01*
X76658910Y73725215D01*
X76736760Y73485617D01*
X76851132Y73261152D01*
X76999201Y73057351D01*
X76999205Y73057346D01*
X77177345Y72879206D01*
X77177350Y72879202D01*
X77285240Y72800816D01*
X77381155Y72731130D01*
X77524184Y72658253D01*
X77605616Y72616761D01*
X77605618Y72616761D01*
X77605621Y72616759D01*
X77845215Y72538910D01*
X78088344Y72500402D01*
X78151476Y72470474D01*
X78156625Y72465611D01*
X79063181Y71559055D01*
X79096666Y71497732D01*
X79099500Y71471374D01*
X79099500Y69783311D01*
X79079815Y69716272D01*
X79027011Y69670517D01*
X78957853Y69660573D01*
X78894297Y69689598D01*
X78887819Y69695630D01*
X78762654Y69820795D01*
X78762649Y69820799D01*
X78558848Y69968868D01*
X78558847Y69968869D01*
X78558845Y69968870D01*
X78445881Y70026428D01*
X78334383Y70083240D01*
X78094785Y70161090D01*
X77845962Y70200500D01*
X77594038Y70200500D01*
X77469626Y70180795D01*
X77345214Y70161090D01*
X77105616Y70083240D01*
X76881151Y69968868D01*
X76682007Y69824182D01*
X76616201Y69800702D01*
X76609122Y69800500D01*
X75446813Y69800500D01*
X75379774Y69820185D01*
X75334019Y69872989D01*
X75324075Y69942147D01*
X75336328Y69980795D01*
X75359577Y70026424D01*
X75359577Y70026425D01*
X75359579Y70026428D01*
X75439860Y70273507D01*
X75462539Y70416702D01*
X75480500Y70530098D01*
X75480500Y70789903D01*
X75458947Y70925979D01*
X75439860Y71046493D01*
X75359579Y71293572D01*
X75359577Y71293575D01*
X75359577Y71293577D01*
X75314484Y71382076D01*
X75241634Y71525051D01*
X75088931Y71735229D01*
X74981841Y71842319D01*
X74948356Y71903642D01*
X74953340Y71973334D01*
X74981841Y72017681D01*
X75035001Y72070841D01*
X75088931Y72124771D01*
X75241634Y72334949D01*
X75359579Y72566428D01*
X75439860Y72813507D01*
X75462539Y72956702D01*
X75480500Y73070098D01*
X75480500Y73329903D01*
X75445422Y73551374D01*
X75439860Y73586493D01*
X75359579Y73833572D01*
X75359577Y73833575D01*
X75359577Y73833577D01*
X75316787Y73917555D01*
X75241634Y74065051D01*
X75088931Y74275229D01*
X74905229Y74458931D01*
X74883408Y74474785D01*
X74695054Y74611632D01*
X74695053Y74611633D01*
X74695051Y74611634D01*
X74622764Y74648466D01*
X74463576Y74729578D01*
X74216493Y74809860D01*
X73959902Y74850500D01*
X73959897Y74850500D01*
X73700103Y74850500D01*
X73700098Y74850500D01*
X73443506Y74809860D01*
X73196423Y74729578D01*
X72964945Y74611632D01*
X72754774Y74458934D01*
X72754768Y74458929D01*
X72647681Y74351841D01*
X72586358Y74318356D01*
X72516666Y74323340D01*
X72472319Y74351841D01*
X72365231Y74458929D01*
X72365225Y74458934D01*
X72155054Y74611632D01*
X72155053Y74611633D01*
X72155051Y74611634D01*
X72082764Y74648466D01*
X71923576Y74729578D01*
X71676493Y74809860D01*
X71419902Y74850500D01*
X71419897Y74850500D01*
X71160103Y74850500D01*
X71160098Y74850500D01*
X70903506Y74809860D01*
X70656423Y74729578D01*
X70424945Y74611632D01*
X70214774Y74458934D01*
X70214768Y74458929D01*
X70107681Y74351841D01*
X70046358Y74318356D01*
X69976666Y74323340D01*
X69932319Y74351841D01*
X69825231Y74458929D01*
X69825225Y74458934D01*
X69615054Y74611632D01*
X69615053Y74611633D01*
X69615051Y74611634D01*
X69542764Y74648466D01*
X69383576Y74729578D01*
X69136493Y74809860D01*
X68879902Y74850500D01*
X68879897Y74850500D01*
X68620103Y74850500D01*
X68620098Y74850500D01*
X68363506Y74809860D01*
X68116423Y74729578D01*
X67884945Y74611632D01*
X67674774Y74458934D01*
X67674768Y74458929D01*
X67567681Y74351841D01*
X67506358Y74318356D01*
X67436666Y74323340D01*
X67392319Y74351841D01*
X67285231Y74458929D01*
X67285225Y74458934D01*
X67075054Y74611632D01*
X67075053Y74611633D01*
X67075051Y74611634D01*
X67002764Y74648466D01*
X66843576Y74729578D01*
X66596493Y74809860D01*
X66339902Y74850500D01*
X66339897Y74850500D01*
X66080103Y74850500D01*
X66080098Y74850500D01*
X65823506Y74809860D01*
X65576423Y74729578D01*
X65344945Y74611632D01*
X65134774Y74458934D01*
X65134768Y74458929D01*
X65027681Y74351841D01*
X64966358Y74318356D01*
X64896666Y74323340D01*
X64852319Y74351841D01*
X64745231Y74458929D01*
X64745225Y74458934D01*
X64535054Y74611632D01*
X64535053Y74611633D01*
X64535051Y74611634D01*
X64462764Y74648466D01*
X64303576Y74729578D01*
X64056493Y74809860D01*
X63799902Y74850500D01*
X63799897Y74850500D01*
X63540103Y74850500D01*
X63540098Y74850500D01*
X63283506Y74809860D01*
X63036423Y74729578D01*
X62804945Y74611632D01*
X62594774Y74458934D01*
X62594768Y74458929D01*
X62487681Y74351841D01*
X62426358Y74318356D01*
X62356666Y74323340D01*
X62312319Y74351841D01*
X62205231Y74458929D01*
X62205225Y74458934D01*
X61995054Y74611632D01*
X61995053Y74611633D01*
X61995051Y74611634D01*
X61922764Y74648466D01*
X61763576Y74729578D01*
X61516493Y74809860D01*
X61259902Y74850500D01*
X61259897Y74850500D01*
X61000103Y74850500D01*
X61000098Y74850500D01*
X60743506Y74809860D01*
X60496423Y74729578D01*
X60264945Y74611632D01*
X60054774Y74458934D01*
X60054768Y74458929D01*
X59947681Y74351841D01*
X59886358Y74318356D01*
X59816666Y74323340D01*
X59772319Y74351841D01*
X59665231Y74458929D01*
X59665225Y74458934D01*
X59455054Y74611632D01*
X59455053Y74611633D01*
X59455051Y74611634D01*
X59382764Y74648466D01*
X59223576Y74729578D01*
X58976493Y74809860D01*
X58719902Y74850500D01*
X58719897Y74850500D01*
X58460103Y74850500D01*
X58460098Y74850500D01*
X58203506Y74809860D01*
X57956423Y74729578D01*
X57724945Y74611632D01*
X57514774Y74458934D01*
X57514768Y74458929D01*
X57407681Y74351841D01*
X57346358Y74318356D01*
X57276666Y74323340D01*
X57232319Y74351841D01*
X57125231Y74458929D01*
X57125225Y74458934D01*
X56915054Y74611632D01*
X56915053Y74611633D01*
X56915051Y74611634D01*
X56842764Y74648466D01*
X56683576Y74729578D01*
X56436493Y74809860D01*
X56179902Y74850500D01*
X56179897Y74850500D01*
X55920103Y74850500D01*
X55920098Y74850500D01*
X55663506Y74809860D01*
X55416423Y74729578D01*
X55184945Y74611632D01*
X54974774Y74458934D01*
X54974768Y74458929D01*
X54867681Y74351841D01*
X54806358Y74318356D01*
X54736666Y74323340D01*
X54692319Y74351841D01*
X54585231Y74458929D01*
X54585225Y74458934D01*
X54375054Y74611632D01*
X54375053Y74611633D01*
X54375051Y74611634D01*
X54302764Y74648466D01*
X54143576Y74729578D01*
X53896493Y74809860D01*
X53639902Y74850500D01*
X53639897Y74850500D01*
X53380103Y74850500D01*
X53380098Y74850500D01*
X53123506Y74809860D01*
X52876423Y74729578D01*
X52644945Y74611632D01*
X52434774Y74458934D01*
X52434768Y74458929D01*
X52327681Y74351841D01*
X52266358Y74318356D01*
X52196666Y74323340D01*
X52152319Y74351841D01*
X52045231Y74458929D01*
X52045225Y74458934D01*
X51835054Y74611632D01*
X51835053Y74611633D01*
X51835051Y74611634D01*
X51762764Y74648466D01*
X51603576Y74729578D01*
X51356493Y74809860D01*
X51099902Y74850500D01*
X51099897Y74850500D01*
X50840103Y74850500D01*
X50840098Y74850500D01*
X50583506Y74809860D01*
X50336423Y74729578D01*
X50104945Y74611632D01*
X49894774Y74458934D01*
X49894768Y74458929D01*
X49787681Y74351841D01*
X49726358Y74318356D01*
X49656666Y74323340D01*
X49612319Y74351841D01*
X49505231Y74458929D01*
X49505225Y74458934D01*
X49295054Y74611632D01*
X49295053Y74611633D01*
X49295051Y74611634D01*
X49222764Y74648466D01*
X49063576Y74729578D01*
X48816493Y74809860D01*
X48559902Y74850500D01*
X48559897Y74850500D01*
X48300103Y74850500D01*
X48300098Y74850500D01*
X48043506Y74809860D01*
X47796423Y74729578D01*
X47564945Y74611632D01*
X47354774Y74458934D01*
X47354768Y74458929D01*
X47247681Y74351841D01*
X47186358Y74318356D01*
X47116666Y74323340D01*
X47072319Y74351841D01*
X46965231Y74458929D01*
X46965225Y74458934D01*
X46755054Y74611632D01*
X46755053Y74611633D01*
X46755051Y74611634D01*
X46682764Y74648466D01*
X46523576Y74729578D01*
X46276493Y74809860D01*
X46019902Y74850500D01*
X46019897Y74850500D01*
X45760103Y74850500D01*
X45760098Y74850500D01*
X45503506Y74809860D01*
X45256423Y74729578D01*
X45024945Y74611632D01*
X44814774Y74458934D01*
X44814768Y74458929D01*
X44707681Y74351841D01*
X44646358Y74318356D01*
X44576666Y74323340D01*
X44532319Y74351841D01*
X44425231Y74458929D01*
X44425225Y74458934D01*
X44215054Y74611632D01*
X44215053Y74611633D01*
X44215051Y74611634D01*
X44142764Y74648466D01*
X43983576Y74729578D01*
X43736493Y74809860D01*
X43479902Y74850500D01*
X43479897Y74850500D01*
X43220103Y74850500D01*
X43220098Y74850500D01*
X42963506Y74809860D01*
X42716423Y74729578D01*
X42484945Y74611632D01*
X42274774Y74458934D01*
X42274768Y74458929D01*
X42167681Y74351841D01*
X42106358Y74318356D01*
X42036666Y74323340D01*
X41992319Y74351841D01*
X41885231Y74458929D01*
X41885225Y74458934D01*
X41675054Y74611632D01*
X41675053Y74611633D01*
X41675051Y74611634D01*
X41602764Y74648466D01*
X41443576Y74729578D01*
X41196493Y74809860D01*
X40939902Y74850500D01*
X40939897Y74850500D01*
X40680103Y74850500D01*
X40680098Y74850500D01*
X40423506Y74809860D01*
X40176423Y74729578D01*
X39944945Y74611632D01*
X39734774Y74458934D01*
X39734768Y74458929D01*
X39627681Y74351841D01*
X39566358Y74318356D01*
X39496666Y74323340D01*
X39452319Y74351841D01*
X39345231Y74458929D01*
X39345225Y74458934D01*
X39135054Y74611632D01*
X39135053Y74611633D01*
X39135051Y74611634D01*
X39062764Y74648466D01*
X38903576Y74729578D01*
X38656493Y74809860D01*
X38399902Y74850500D01*
X38399897Y74850500D01*
X38140103Y74850500D01*
X38140098Y74850500D01*
X37883506Y74809860D01*
X37636423Y74729578D01*
X37404945Y74611632D01*
X37194774Y74458934D01*
X37194768Y74458929D01*
X37011071Y74275232D01*
X37011066Y74275226D01*
X36858368Y74065055D01*
X36740422Y73833577D01*
X36660140Y73586494D01*
X36619500Y73329903D01*
X36619500Y73070098D01*
X36660140Y72813507D01*
X36740422Y72566424D01*
X36858368Y72334946D01*
X37011066Y72124775D01*
X37011071Y72124769D01*
X37118159Y72017681D01*
X37122497Y72009736D01*
X37129745Y72004310D01*
X37138979Y71979551D01*
X37151644Y71956358D01*
X37150998Y71947329D01*
X37154162Y71938846D01*
X37148545Y71913026D01*
X37146660Y71886666D01*
X37140841Y71877613D01*
X37139310Y71870573D01*
X37118159Y71842319D01*
X37087681Y71811841D01*
X37026358Y71778356D01*
X36956666Y71783340D01*
X36912319Y71811841D01*
X36805231Y71918929D01*
X36805225Y71918934D01*
X36595054Y72071632D01*
X36595053Y72071633D01*
X36595051Y72071634D01*
X36522764Y72108466D01*
X36363576Y72189578D01*
X36116493Y72269860D01*
X35859902Y72310500D01*
X35859897Y72310500D01*
X35600103Y72310500D01*
X35600098Y72310500D01*
X35343506Y72269860D01*
X35096423Y72189578D01*
X34864945Y72071632D01*
X34654774Y71918934D01*
X34547681Y71811841D01*
X34539735Y71807503D01*
X34534312Y71800257D01*
X34509552Y71791022D01*
X34486358Y71778357D01*
X34477329Y71779003D01*
X34468848Y71775839D01*
X34443026Y71781456D01*
X34416666Y71783341D01*
X34407612Y71789160D01*
X34400575Y71790690D01*
X34372320Y71811840D01*
X34372319Y71811841D01*
X34341840Y71842320D01*
X34308356Y71903640D01*
X34313340Y71973332D01*
X34341841Y72017681D01*
X34395001Y72070841D01*
X34448931Y72124771D01*
X34601634Y72334949D01*
X34719579Y72566428D01*
X34799860Y72813507D01*
X34822539Y72956702D01*
X34840500Y73070098D01*
X34840500Y73329903D01*
X34805422Y73551374D01*
X34799860Y73586493D01*
X34719579Y73833572D01*
X34719577Y73833575D01*
X34719577Y73833577D01*
X34676787Y73917555D01*
X34601634Y74065051D01*
X34448931Y74275229D01*
X34265229Y74458931D01*
X34243408Y74474785D01*
X34055054Y74611632D01*
X34055053Y74611633D01*
X34055051Y74611634D01*
X33982764Y74648466D01*
X33823576Y74729578D01*
X33576493Y74809860D01*
X33319902Y74850500D01*
X33319897Y74850500D01*
X33060103Y74850500D01*
X33060098Y74850500D01*
X32803506Y74809860D01*
X32556423Y74729578D01*
X32324945Y74611632D01*
X32114774Y74458934D01*
X32114768Y74458929D01*
X32007681Y74351841D01*
X31946358Y74318356D01*
X31876666Y74323340D01*
X31832319Y74351841D01*
X31725231Y74458929D01*
X31725225Y74458934D01*
X31515054Y74611632D01*
X31515053Y74611633D01*
X31515051Y74611634D01*
X31442764Y74648466D01*
X31283576Y74729578D01*
X31036493Y74809860D01*
X30779902Y74850500D01*
X30779897Y74850500D01*
X30520103Y74850500D01*
X30520098Y74850500D01*
X30263506Y74809860D01*
X30016423Y74729578D01*
X29784945Y74611632D01*
X29574774Y74458934D01*
X29574768Y74458929D01*
X29467681Y74351841D01*
X29406358Y74318356D01*
X29336666Y74323340D01*
X29292319Y74351841D01*
X29185231Y74458929D01*
X29185225Y74458934D01*
X28975054Y74611632D01*
X28975053Y74611633D01*
X28975051Y74611634D01*
X28902764Y74648466D01*
X28743576Y74729578D01*
X28496493Y74809860D01*
X28239902Y74850500D01*
X28239897Y74850500D01*
X27980103Y74850500D01*
X27980098Y74850500D01*
X27723506Y74809860D01*
X27476423Y74729578D01*
X27244946Y74611633D01*
X27183219Y74566786D01*
X27117413Y74543307D01*
X27049359Y74559133D01*
X27022654Y74579424D01*
X26922262Y74679816D01*
X26769523Y74775789D01*
X26599254Y74835369D01*
X26599249Y74835370D01*
X26464960Y74850500D01*
X26464954Y74850500D01*
X24675046Y74850500D01*
X24675039Y74850500D01*
X24540750Y74835370D01*
X24540745Y74835369D01*
X24370476Y74775789D01*
X24217737Y74679816D01*
X24090184Y74552263D01*
X23994211Y74399524D01*
X23934631Y74229255D01*
X23934630Y74229250D01*
X23919500Y74094961D01*
X23919500Y72305040D01*
X23934630Y72170751D01*
X23934632Y72170743D01*
X23985471Y72025454D01*
X23989032Y71955676D01*
X23954303Y71895048D01*
X23892310Y71862821D01*
X23868429Y71860500D01*
X23624500Y71860500D01*
X23557461Y71880185D01*
X23511706Y71932989D01*
X23500500Y71984500D01*
X23500500Y76275500D01*
X23520185Y76342539D01*
X23572989Y76388294D01*
X23624500Y76399500D01*
X80251374Y76399500D01*
X80318413Y76379815D01*
X80339055Y76363181D01*
X83063181Y73639055D01*
X83096666Y73577732D01*
X83099500Y73551374D01*
X83099500Y63924500D01*
X83079815Y63857461D01*
X83027011Y63811706D01*
X82975500Y63800500D01*
X75023514Y63800500D01*
X74836881Y63770941D01*
X74657163Y63712546D01*
X74488800Y63626760D01*
X74428901Y63583240D01*
X74335927Y63515690D01*
X74335925Y63515688D01*
X74335924Y63515688D01*
X68603310Y57783075D01*
X68586723Y57760244D01*
X68522664Y57672074D01*
X68522663Y57672074D01*
X68522663Y57672073D01*
X68492242Y57630204D01*
X68406454Y57461837D01*
X68348059Y57282119D01*
X68318500Y57095487D01*
X68318500Y49286514D01*
X68348059Y49099882D01*
X68406454Y48920164D01*
X68486359Y48763343D01*
X68492240Y48751801D01*
X68603310Y48598926D01*
X68603312Y48598924D01*
X69905909Y47296327D01*
X69939394Y47235004D01*
X69940701Y47228044D01*
X69956446Y47128632D01*
X70029433Y46904004D01*
X70074893Y46814785D01*
X70136657Y46693567D01*
X70275483Y46502490D01*
X70442490Y46335483D01*
X70633567Y46196657D01*
X70732991Y46145998D01*
X70844003Y46089434D01*
X70844005Y46089434D01*
X70844008Y46089432D01*
X70918540Y46065215D01*
X71068631Y46016447D01*
X71301903Y45979500D01*
X71301908Y45979500D01*
X71538097Y45979500D01*
X71771368Y46016447D01*
X71995992Y46089432D01*
X72206433Y46196657D01*
X72244238Y46224125D01*
X72287862Y46255818D01*
X72353668Y46279298D01*
X72360747Y46279500D01*
X74638599Y46279500D01*
X74705638Y46259815D01*
X74747957Y46213954D01*
X74812315Y46093550D01*
X74943590Y45933590D01*
X74974165Y45908499D01*
X75013499Y45850756D01*
X75019500Y45812646D01*
X75019500Y31210878D01*
X74999815Y31143839D01*
X74995818Y31137993D01*
X74851132Y30938849D01*
X74736760Y30714384D01*
X74658910Y30474786D01*
X74619500Y30225962D01*
X74619500Y29974039D01*
X74658910Y29725215D01*
X74736760Y29485617D01*
X74806130Y29349472D01*
X74834510Y29293773D01*
X74851132Y29261152D01*
X74999201Y29057351D01*
X74999205Y29057346D01*
X75177345Y28879206D01*
X75177350Y28879202D01*
X75307653Y28784532D01*
X75381155Y28731130D01*
X75482330Y28679579D01*
X75605616Y28616761D01*
X75605618Y28616761D01*
X75605621Y28616759D01*
X75845215Y28538910D01*
X76094038Y28499500D01*
X76094039Y28499500D01*
X76345961Y28499500D01*
X76345962Y28499500D01*
X76594785Y28538910D01*
X76834379Y28616759D01*
X77058845Y28731130D01*
X77262656Y28879207D01*
X77440793Y29057344D01*
X77588870Y29261155D01*
X77703241Y29485621D01*
X77781090Y29725215D01*
X77820500Y29974038D01*
X77820500Y30225962D01*
X77781090Y30474785D01*
X77703241Y30714379D01*
X77703239Y30714382D01*
X77703239Y30714384D01*
X77634454Y30849381D01*
X77588870Y30938845D01*
X77554788Y30985755D01*
X77444182Y31137993D01*
X77420702Y31203799D01*
X77420500Y31210878D01*
X77420500Y45644636D01*
X77440185Y45711675D01*
X77486045Y45753993D01*
X77576450Y45802315D01*
X77736410Y45933590D01*
X77867685Y46093550D01*
X77965232Y46276046D01*
X78025300Y46474066D01*
X78040500Y46628392D01*
X78040500Y47275500D01*
X78060185Y47342539D01*
X78112989Y47388294D01*
X78164500Y47399500D01*
X78584164Y47399500D01*
X78651203Y47379815D01*
X78680018Y47354164D01*
X78803589Y47203590D01*
X78894927Y47128632D01*
X78963550Y47072315D01*
X79146046Y46974768D01*
X79344066Y46914700D01*
X79344065Y46914700D01*
X79354970Y46913626D01*
X79498392Y46899500D01*
X79498395Y46899500D01*
X80901605Y46899500D01*
X80901608Y46899500D01*
X81055934Y46914700D01*
X81253954Y46974768D01*
X81436450Y47072315D01*
X81596410Y47203590D01*
X81719982Y47354165D01*
X81777728Y47393499D01*
X81815836Y47399500D01*
X84210500Y47399500D01*
X84277539Y47379815D01*
X84323294Y47327011D01*
X84334500Y47275500D01*
X84334500Y46270514D01*
X84364059Y46083882D01*
X84422454Y45904164D01*
X84498970Y45753995D01*
X84508240Y45735801D01*
X84619310Y45582926D01*
X84619312Y45582924D01*
X89692397Y40509839D01*
X89725882Y40448516D01*
X89728716Y40422158D01*
X89728716Y38965917D01*
X89709031Y38898878D01*
X89656227Y38853123D01*
X89645672Y38848876D01*
X89579692Y38825789D01*
X89579691Y38825788D01*
X89426953Y38729816D01*
X89299400Y38602263D01*
X89203427Y38449524D01*
X89143847Y38279255D01*
X89143846Y38279250D01*
X89128716Y38144961D01*
X89128716Y36055040D01*
X89143846Y35920751D01*
X89143847Y35920746D01*
X89203427Y35750477D01*
X89236407Y35697990D01*
X89299400Y35597738D01*
X89426954Y35470184D01*
X89579694Y35374211D01*
X89749961Y35314632D01*
X89749966Y35314631D01*
X89840462Y35304435D01*
X89884256Y35299501D01*
X89884259Y35299500D01*
X89884262Y35299500D01*
X91974173Y35299500D01*
X91974174Y35299501D01*
X92041320Y35307066D01*
X92108465Y35314631D01*
X92108468Y35314632D01*
X92108471Y35314632D01*
X92278738Y35374211D01*
X92431478Y35470184D01*
X92559032Y35597738D01*
X92655005Y35750478D01*
X92714584Y35920745D01*
X92729716Y36055046D01*
X92729716Y38144954D01*
X92714584Y38279255D01*
X92655005Y38449522D01*
X92639137Y38474775D01*
X92559031Y38602263D01*
X92431478Y38729816D01*
X92278740Y38825788D01*
X92278739Y38825789D01*
X92212760Y38848876D01*
X92155985Y38889598D01*
X92130238Y38954551D01*
X92129716Y38965917D01*
X92129716Y41065271D01*
X92100156Y41251903D01*
X92041761Y41431621D01*
X91955975Y41599985D01*
X91936522Y41626758D01*
X91936521Y41626760D01*
X91899875Y41677200D01*
X91844909Y41752855D01*
X86771819Y46825945D01*
X86738334Y46887268D01*
X86735500Y46913626D01*
X86735500Y48694484D01*
X86735240Y48696126D01*
X86735240Y48696129D01*
X86732813Y48711451D01*
X91199500Y48711451D01*
X91199500Y48488550D01*
X91199501Y48488534D01*
X91228594Y48267548D01*
X91228595Y48267543D01*
X91228596Y48267537D01*
X91285277Y48055999D01*
X91286290Y48052220D01*
X91286293Y48052210D01*
X91371593Y47846278D01*
X91371595Y47846274D01*
X91483052Y47653226D01*
X91483057Y47653220D01*
X91483058Y47653218D01*
X91618751Y47476378D01*
X91618757Y47476371D01*
X91776370Y47318758D01*
X91776377Y47318752D01*
X91814966Y47289142D01*
X91953226Y47183052D01*
X92146274Y47071595D01*
X92352219Y46986290D01*
X92567537Y46928596D01*
X92788543Y46899500D01*
X92788550Y46899500D01*
X93011450Y46899500D01*
X93011457Y46899500D01*
X93232463Y46928596D01*
X93447781Y46986290D01*
X93653726Y47071595D01*
X93772241Y47140021D01*
X93840140Y47156493D01*
X93906167Y47133641D01*
X93921922Y47120314D01*
X94665610Y46376626D01*
X94699095Y46315303D01*
X94700402Y46308343D01*
X94738909Y46065215D01*
X94816760Y45825617D01*
X94874817Y45711675D01*
X94929198Y45604946D01*
X94931132Y45601152D01*
X95075818Y45402008D01*
X95099298Y45336202D01*
X95099500Y45329123D01*
X95099500Y41648626D01*
X95092370Y41624347D01*
X95089240Y41599239D01*
X95081778Y41588275D01*
X95079815Y41581587D01*
X95070719Y41569195D01*
X95067136Y41564901D01*
X95013526Y41511290D01*
X94955972Y41432073D01*
X94953546Y41428735D01*
X94953536Y41428722D01*
X94902456Y41358416D01*
X94816670Y41190053D01*
X94758275Y41010335D01*
X94728716Y40823703D01*
X94728716Y38497154D01*
X94709031Y38430115D01*
X94692397Y38409473D01*
X94572628Y38289705D01*
X94572622Y38289698D01*
X94428946Y38102455D01*
X94310935Y37898057D01*
X94310930Y37898046D01*
X94220610Y37679994D01*
X94159522Y37452011D01*
X94128717Y37218021D01*
X94128716Y37218005D01*
X94128716Y36981996D01*
X94128717Y36981980D01*
X94159522Y36747990D01*
X94220610Y36520007D01*
X94310930Y36301955D01*
X94310935Y36301944D01*
X94381893Y36179043D01*
X94428943Y36097550D01*
X94428945Y36097547D01*
X94428946Y36097546D01*
X94572622Y35910303D01*
X94572628Y35910296D01*
X94739511Y35743413D01*
X94739517Y35743408D01*
X94926766Y35599727D01*
X95058134Y35523882D01*
X95131159Y35481720D01*
X95131164Y35481718D01*
X95131167Y35481716D01*
X95349223Y35391394D01*
X95577202Y35330307D01*
X95811205Y35299500D01*
X95811212Y35299500D01*
X96047220Y35299500D01*
X96047227Y35299500D01*
X96281230Y35330307D01*
X96509209Y35391394D01*
X96727265Y35481716D01*
X96931666Y35599727D01*
X97118915Y35743408D01*
X97285808Y35910301D01*
X97429489Y36097550D01*
X97547500Y36301951D01*
X97637822Y36520007D01*
X97698909Y36747986D01*
X97729716Y36981989D01*
X97729716Y37218011D01*
X97698909Y37452014D01*
X97637822Y37679993D01*
X97547500Y37898049D01*
X97547498Y37898052D01*
X97547496Y37898057D01*
X97482121Y38011288D01*
X97429489Y38102450D01*
X97285808Y38289699D01*
X97285803Y38289705D01*
X97166035Y38409473D01*
X97132550Y38470796D01*
X97129716Y38497154D01*
X97129716Y40180591D01*
X97149401Y40247630D01*
X97166035Y40268272D01*
X97215690Y40317927D01*
X97326760Y40470801D01*
X97412547Y40639168D01*
X97470940Y40818882D01*
X97470939Y40818882D01*
X97470941Y40818885D01*
X97500500Y41005514D01*
X97500500Y45329123D01*
X97520185Y45396162D01*
X97524182Y45402008D01*
X97572697Y45468786D01*
X97668870Y45601155D01*
X97783241Y45825621D01*
X97861090Y46065215D01*
X97900500Y46314038D01*
X97900500Y46565962D01*
X97861090Y46814785D01*
X97783241Y47054379D01*
X97783239Y47054382D01*
X97783239Y47054384D01*
X97723921Y47170801D01*
X97668870Y47278845D01*
X97639872Y47318758D01*
X97520798Y47482650D01*
X97520794Y47482655D01*
X97342654Y47660795D01*
X97342649Y47660799D01*
X97138848Y47808868D01*
X97138847Y47808869D01*
X97138845Y47808870D01*
X97029628Y47864519D01*
X96914383Y47923240D01*
X96674785Y48001091D01*
X96431657Y48039598D01*
X96368522Y48069527D01*
X96363374Y48074390D01*
X94922076Y49515688D01*
X94922074Y49515690D01*
X94769199Y49626760D01*
X94762750Y49630046D01*
X94600836Y49712546D01*
X94421118Y49770941D01*
X94234486Y49800500D01*
X94234481Y49800500D01*
X94155733Y49800500D01*
X94088694Y49820185D01*
X94068051Y49836820D01*
X94023628Y49881244D01*
X94023622Y49881249D01*
X93846782Y50016942D01*
X93846780Y50016943D01*
X93846774Y50016948D01*
X93653726Y50128405D01*
X93653722Y50128407D01*
X93447790Y50213707D01*
X93447783Y50213709D01*
X93447781Y50213710D01*
X93232463Y50271404D01*
X93232457Y50271405D01*
X93232452Y50271406D01*
X93011466Y50300499D01*
X93011463Y50300500D01*
X93011457Y50300500D01*
X92788543Y50300500D01*
X92788537Y50300500D01*
X92788533Y50300499D01*
X92567547Y50271406D01*
X92567540Y50271405D01*
X92567537Y50271404D01*
X92395220Y50225232D01*
X92352219Y50213710D01*
X92352209Y50213707D01*
X92146277Y50128407D01*
X92146273Y50128405D01*
X91953226Y50016948D01*
X91953217Y50016942D01*
X91776377Y49881249D01*
X91776370Y49881243D01*
X91618757Y49723630D01*
X91618751Y49723623D01*
X91483058Y49546783D01*
X91483052Y49546774D01*
X91371595Y49353727D01*
X91371593Y49353723D01*
X91286293Y49147791D01*
X91286290Y49147781D01*
X91241468Y48980500D01*
X91228597Y48932466D01*
X91228594Y48932453D01*
X91199501Y48711467D01*
X91199500Y48711451D01*
X86732813Y48711451D01*
X86705940Y48881119D01*
X86670812Y48989229D01*
X86647547Y49060832D01*
X86647545Y49060835D01*
X86647545Y49060837D01*
X86587884Y49177927D01*
X86561760Y49229199D01*
X86450690Y49382073D01*
X86317073Y49515690D01*
X86164199Y49626760D01*
X86157750Y49630046D01*
X85995836Y49712546D01*
X85816118Y49770941D01*
X85629486Y49800500D01*
X85629481Y49800500D01*
X81815836Y49800500D01*
X81748797Y49820185D01*
X81719982Y49845836D01*
X81596410Y49996411D01*
X81436452Y50127683D01*
X81436453Y50127683D01*
X81436450Y50127685D01*
X81253954Y50225232D01*
X81055934Y50285300D01*
X81055932Y50285301D01*
X81055934Y50285301D01*
X80936805Y50297034D01*
X80901608Y50300500D01*
X79498392Y50300500D01*
X79460298Y50296749D01*
X79344067Y50285301D01*
X79146043Y50225231D01*
X79124484Y50213707D01*
X78963550Y50127685D01*
X78963548Y50127684D01*
X78963547Y50127683D01*
X78803589Y49996411D01*
X78680018Y49845836D01*
X78622272Y49806501D01*
X78584164Y49800500D01*
X77515513Y49800500D01*
X77328885Y49770941D01*
X77149165Y49712546D01*
X76980800Y49626760D01*
X76827923Y49515688D01*
X76379055Y49066819D01*
X76317732Y49033334D01*
X76291374Y49030500D01*
X75638392Y49030500D01*
X75600298Y49026749D01*
X75484067Y49015301D01*
X75286043Y48955231D01*
X75220446Y48920168D01*
X75103550Y48857685D01*
X75103548Y48857684D01*
X75103547Y48857683D01*
X74943591Y48726412D01*
X74943115Y48725831D01*
X74942787Y48725609D01*
X74939287Y48722107D01*
X74938622Y48722772D01*
X74885368Y48686499D01*
X74847265Y48680500D01*
X72360747Y48680500D01*
X72293708Y48700185D01*
X72287862Y48704182D01*
X72206436Y48763341D01*
X72206435Y48763342D01*
X72206433Y48763343D01*
X72137638Y48798396D01*
X71995996Y48870567D01*
X71771368Y48943554D01*
X71671956Y48959299D01*
X71608821Y48989229D01*
X71603673Y48994091D01*
X70755819Y49841945D01*
X70722334Y49903268D01*
X70719500Y49929626D01*
X70719500Y53475500D01*
X70739185Y53542539D01*
X70791989Y53588294D01*
X70843500Y53599500D01*
X72164957Y53599500D01*
X72164958Y53599501D01*
X72232104Y53607066D01*
X72299249Y53614631D01*
X72299252Y53614632D01*
X72299255Y53614632D01*
X72469522Y53674211D01*
X72622262Y53770184D01*
X72749816Y53897738D01*
X72845789Y54050478D01*
X72905368Y54220745D01*
X72920500Y54355046D01*
X72920500Y54861375D01*
X72940185Y54928414D01*
X72956819Y54949056D01*
X76300944Y58293181D01*
X76362267Y58326666D01*
X76388625Y58329500D01*
X76451450Y58329500D01*
X76451457Y58329500D01*
X76672463Y58358596D01*
X76887781Y58416290D01*
X77093726Y58501595D01*
X77286774Y58613052D01*
X77463624Y58748753D01*
X77508051Y58793180D01*
X77569374Y58826666D01*
X77595733Y58829500D01*
X83149092Y58829500D01*
X83216131Y58809815D01*
X83261886Y58757011D01*
X83266130Y58746464D01*
X83287878Y58684313D01*
X83324210Y58580479D01*
X83396076Y58466106D01*
X83420184Y58427738D01*
X83547738Y58300184D01*
X83602635Y58265690D01*
X83696505Y58206707D01*
X83700478Y58204211D01*
X83728268Y58194487D01*
X83870745Y58144632D01*
X83870750Y58144631D01*
X83961246Y58134435D01*
X84005040Y58129501D01*
X84005043Y58129500D01*
X84005046Y58129500D01*
X85594957Y58129500D01*
X85594958Y58129501D01*
X85662104Y58137066D01*
X85729249Y58144631D01*
X85729252Y58144632D01*
X85729255Y58144632D01*
X85899522Y58204211D01*
X85902503Y58206084D01*
X85904706Y58206707D01*
X85905795Y58207231D01*
X85905886Y58207041D01*
X85969740Y58225086D01*
X86036575Y58204720D01*
X86081791Y58151453D01*
X86091030Y58082197D01*
X86068797Y58028207D01*
X86013893Y57952639D01*
X85903097Y57735188D01*
X85827678Y57503073D01*
X85801625Y57338580D01*
X85789500Y57262027D01*
X85789500Y57017973D01*
X85794804Y56984487D01*
X85827678Y56776928D01*
X85827678Y56776926D01*
X85827679Y56776924D01*
X85903096Y56544815D01*
X85998557Y56357461D01*
X86013896Y56327358D01*
X86157339Y56129924D01*
X86157343Y56129919D01*
X86329918Y55957344D01*
X86329923Y55957340D01*
X86420238Y55891723D01*
X86527361Y55813894D01*
X86744815Y55703096D01*
X86976924Y55627679D01*
X87217973Y55589500D01*
X87217974Y55589500D01*
X87462026Y55589500D01*
X87462027Y55589500D01*
X87703076Y55627679D01*
X87935185Y55703096D01*
X88152639Y55813894D01*
X88350083Y55957345D01*
X88522655Y56129917D01*
X88666106Y56327361D01*
X88776904Y56544815D01*
X88852321Y56776924D01*
X88887986Y57002101D01*
X88904733Y57047494D01*
X88906752Y57050791D01*
X88906760Y57050801D01*
X88992547Y57219168D01*
X89050940Y57398882D01*
X89069996Y57519199D01*
X89080500Y57585513D01*
X89080500Y67489123D01*
X89100185Y67556162D01*
X89104182Y67562008D01*
X89193041Y67684313D01*
X89248870Y67761155D01*
X89363241Y67985621D01*
X89441090Y68225215D01*
X89480500Y68474038D01*
X89480500Y68725962D01*
X89441090Y68974785D01*
X89363241Y69214379D01*
X89363239Y69214382D01*
X89363239Y69214384D01*
X89299068Y69340325D01*
X89248870Y69438845D01*
X89198511Y69508159D01*
X89100798Y69642650D01*
X89100794Y69642655D01*
X88922654Y69820795D01*
X88922649Y69820799D01*
X88718848Y69968868D01*
X88718847Y69968869D01*
X88718845Y69968870D01*
X88605881Y70026428D01*
X88494383Y70083240D01*
X88265622Y70157569D01*
X88207947Y70197007D01*
X88180749Y70261366D01*
X88192664Y70330212D01*
X88239908Y70381688D01*
X88303941Y70399500D01*
X92251374Y70399500D01*
X92318413Y70379815D01*
X92339055Y70363181D01*
X92563181Y70139056D01*
X92596666Y70077733D01*
X92599500Y70051375D01*
X92599500Y69050878D01*
X92579815Y68983839D01*
X92575818Y68977993D01*
X92431132Y68778849D01*
X92316760Y68554384D01*
X92242060Y68324481D01*
X92238910Y68314785D01*
X92199500Y68065962D01*
X92199500Y67814038D01*
X92220047Y67684313D01*
X92238910Y67565215D01*
X92316760Y67325617D01*
X92380511Y67200500D01*
X92423179Y67116759D01*
X92431132Y67101152D01*
X92579201Y66897351D01*
X92579205Y66897346D01*
X92757345Y66719206D01*
X92757350Y66719202D01*
X92862709Y66642655D01*
X92961155Y66571130D01*
X93089924Y66505519D01*
X93185616Y66456761D01*
X93185618Y66456761D01*
X93185621Y66456759D01*
X93314049Y66415030D01*
X93425214Y66378910D01*
X93462794Y66372959D01*
X93578440Y66354642D01*
X93641574Y66324713D01*
X93678506Y66265402D01*
X93677508Y66195539D01*
X93646723Y66144488D01*
X92844304Y65342069D01*
X92761202Y65227686D01*
X92761202Y65227685D01*
X92733240Y65189200D01*
X92647454Y65020837D01*
X92589059Y64841119D01*
X92559500Y64654487D01*
X92559500Y61085812D01*
X92539815Y61018773D01*
X92535818Y61012927D01*
X92433896Y60872643D01*
X92323097Y60655188D01*
X92247678Y60423073D01*
X92214256Y60212057D01*
X92209500Y60182027D01*
X92209500Y59937973D01*
X92247679Y59696924D01*
X92287906Y59573117D01*
X92323097Y59464813D01*
X92433896Y59247358D01*
X92577339Y59049924D01*
X92577343Y59049919D01*
X92749918Y58877344D01*
X92749923Y58877340D01*
X92915543Y58757011D01*
X92947361Y58733894D01*
X93164815Y58623096D01*
X93396924Y58547679D01*
X93637973Y58509500D01*
X93637974Y58509500D01*
X93882026Y58509500D01*
X93882027Y58509500D01*
X94123076Y58547679D01*
X94355185Y58623096D01*
X94572639Y58733894D01*
X94770083Y58877345D01*
X94887819Y58995081D01*
X94949142Y59028566D01*
X95018834Y59023582D01*
X95074767Y58981710D01*
X95099184Y58916246D01*
X95099500Y58907400D01*
X95099500Y57710878D01*
X95079815Y57643839D01*
X95075818Y57637993D01*
X94931132Y57438849D01*
X94816760Y57214384D01*
X94738910Y56974786D01*
X94699500Y56725962D01*
X94699500Y56474039D01*
X94738910Y56225215D01*
X94816760Y55985617D01*
X94931132Y55761152D01*
X95079201Y55557351D01*
X95079205Y55557346D01*
X95257345Y55379206D01*
X95257350Y55379202D01*
X95358767Y55305519D01*
X95461155Y55231130D01*
X95604184Y55158253D01*
X95685616Y55116761D01*
X95685618Y55116761D01*
X95685621Y55116759D01*
X95925215Y55038910D01*
X96174038Y54999500D01*
X96174039Y54999500D01*
X96425961Y54999500D01*
X96425962Y54999500D01*
X96674785Y55038910D01*
X96914379Y55116759D01*
X97138845Y55231130D01*
X97342656Y55379207D01*
X97520793Y55557344D01*
X97668870Y55761155D01*
X97783241Y55985621D01*
X97861090Y56225215D01*
X97900500Y56474038D01*
X97900500Y56725962D01*
X97861090Y56974785D01*
X97783241Y57214379D01*
X97783239Y57214382D01*
X97783239Y57214384D01*
X97741747Y57295816D01*
X97668870Y57438845D01*
X97584678Y57554726D01*
X97524182Y57637993D01*
X97500702Y57703799D01*
X97500500Y57710878D01*
X97500500Y61119191D01*
X97520185Y61186230D01*
X97547191Y61216141D01*
X97552252Y61220179D01*
X97552262Y61220184D01*
X97679816Y61347738D01*
X97775789Y61500478D01*
X97835368Y61670745D01*
X97836897Y61684310D01*
X97845234Y61758312D01*
X97850500Y61805046D01*
X97850500Y63394954D01*
X97836897Y63515688D01*
X97835369Y63529250D01*
X97835368Y63529255D01*
X97816477Y63583241D01*
X97775789Y63699522D01*
X97775174Y63700500D01*
X97679815Y63852263D01*
X97552262Y63979816D01*
X97399523Y64075789D01*
X97229254Y64135369D01*
X97229249Y64135370D01*
X97094960Y64150500D01*
X97094954Y64150500D01*
X95505046Y64150500D01*
X95505039Y64150500D01*
X95370750Y64135370D01*
X95370738Y64135367D01*
X95364194Y64133077D01*
X95294415Y64129519D01*
X95233790Y64164252D01*
X95201566Y64226247D01*
X95207975Y64295822D01*
X95235563Y64337800D01*
X97215690Y66317926D01*
X97326760Y66470801D01*
X97412547Y66639168D01*
X97470940Y66818882D01*
X97483367Y66897344D01*
X97494695Y66968868D01*
X97500500Y67005515D01*
X97500500Y75694487D01*
X97470940Y75881119D01*
X97412545Y76060837D01*
X97326759Y76229200D01*
X97293120Y76275500D01*
X97215690Y76382073D01*
X97082073Y76515690D01*
X95434389Y78163375D01*
X95400904Y78224698D01*
X95399602Y78231630D01*
X95361090Y78474785D01*
X95283241Y78714379D01*
X95283239Y78714382D01*
X95283239Y78714384D01*
X95239360Y78800500D01*
X95168870Y78938845D01*
X95157866Y78953990D01*
X95024182Y79137993D01*
X95000702Y79203799D01*
X95000500Y79210878D01*
X95000500Y81239123D01*
X95020185Y81306162D01*
X95024182Y81312008D01*
X95072697Y81378786D01*
X95168870Y81511155D01*
X95283241Y81735621D01*
X95361090Y81975215D01*
X95400500Y82224038D01*
X95400500Y82475962D01*
X95361090Y82724785D01*
X95283241Y82964379D01*
X95283239Y82964382D01*
X95283239Y82964384D01*
X95241747Y83045816D01*
X95168870Y83188845D01*
X95149952Y83214883D01*
X95020798Y83392650D01*
X95020794Y83392655D01*
X94842654Y83570795D01*
X94842649Y83570799D01*
X94638848Y83718868D01*
X94638847Y83718869D01*
X94638845Y83718870D01*
X94568747Y83754587D01*
X94414383Y83833240D01*
X94174785Y83911090D01*
X93925962Y83950500D01*
X93674038Y83950500D01*
X93549626Y83930795D01*
X93425214Y83911090D01*
X93185616Y83833240D01*
X92961151Y83718868D01*
X92757350Y83570799D01*
X92757345Y83570795D01*
X92579205Y83392655D01*
X92579201Y83392650D01*
X92431132Y83188849D01*
X92316760Y82964384D01*
X92238910Y82724786D01*
X92199500Y82475962D01*
X92199500Y82224039D01*
X92238910Y81975215D01*
X92316760Y81735617D01*
X92431132Y81511152D01*
X92575818Y81312008D01*
X92599298Y81246202D01*
X92599500Y81239123D01*
X92599500Y79210878D01*
X92579815Y79143839D01*
X92575818Y79137993D01*
X92431132Y78938849D01*
X92316760Y78714384D01*
X92238910Y78474786D01*
X92199500Y78225962D01*
X92199500Y77974039D01*
X92238910Y77725215D01*
X92316760Y77485617D01*
X92431132Y77261152D01*
X92579201Y77057351D01*
X92579205Y77057346D01*
X92757345Y76879206D01*
X92757350Y76879202D01*
X92935117Y76750048D01*
X92961155Y76731130D01*
X93104184Y76658253D01*
X93185616Y76616761D01*
X93185618Y76616761D01*
X93185621Y76616759D01*
X93425215Y76538910D01*
X93668344Y76500402D01*
X93731476Y76470474D01*
X93736625Y76465611D01*
X95063181Y75139056D01*
X95096666Y75077733D01*
X95099500Y75051375D01*
X95099500Y71210415D01*
X95079815Y71143376D01*
X95027011Y71097621D01*
X94957853Y71087677D01*
X94894297Y71116702D01*
X94865015Y71154120D01*
X94826759Y71229200D01*
X94715690Y71382073D01*
X94582073Y71515690D01*
X93582074Y72515690D01*
X93429199Y72626760D01*
X93385158Y72649200D01*
X93260836Y72712546D01*
X93081118Y72770941D01*
X92894486Y72800500D01*
X92894481Y72800500D01*
X89643311Y72800500D01*
X89576272Y72820185D01*
X89530517Y72872989D01*
X89520573Y72942147D01*
X89549598Y73005703D01*
X89555630Y73012181D01*
X89600793Y73057344D01*
X89748870Y73261155D01*
X89863241Y73485621D01*
X89941090Y73725215D01*
X89980500Y73974038D01*
X89980500Y74225962D01*
X89941090Y74474785D01*
X89863241Y74714379D01*
X89863239Y74714382D01*
X89863239Y74714384D01*
X89801594Y74835368D01*
X89748870Y74938845D01*
X89737866Y74953990D01*
X89604182Y75137993D01*
X89580702Y75203799D01*
X89580500Y75210878D01*
X89580500Y84551374D01*
X89600185Y84618413D01*
X89616819Y84639055D01*
X89943376Y84965613D01*
X90004697Y84999096D01*
X90011629Y85000398D01*
X90254785Y85038910D01*
X90494379Y85116759D01*
X90718845Y85231130D01*
X90922656Y85379207D01*
X91100793Y85557344D01*
X91248870Y85761155D01*
X91363241Y85985621D01*
X91441090Y86225215D01*
X91479598Y86468345D01*
X91509526Y86531477D01*
X91514372Y86536609D01*
X93251824Y88274062D01*
X93313145Y88307545D01*
X93377819Y88304311D01*
X93425215Y88288910D01*
X93674038Y88249500D01*
X93674039Y88249500D01*
X93925961Y88249500D01*
X93925962Y88249500D01*
X94174785Y88288910D01*
X94414379Y88366759D01*
X94638845Y88481130D01*
X94842656Y88629207D01*
X95020793Y88807344D01*
X95168870Y89011155D01*
X95283241Y89235621D01*
X95361090Y89475215D01*
X95400500Y89724038D01*
X95400500Y89975962D01*
X95361090Y90224785D01*
X95283241Y90464379D01*
X95283239Y90464382D01*
X95283239Y90464384D01*
X95235869Y90557351D01*
X95168870Y90688845D01*
X95116334Y90761155D01*
X95020798Y90892650D01*
X95020794Y90892655D01*
X94842654Y91070795D01*
X94842649Y91070799D01*
X94638848Y91218868D01*
X94638847Y91218869D01*
X94638845Y91218870D01*
X94568747Y91254587D01*
X94414383Y91333240D01*
X94174785Y91411091D01*
X93931656Y91449599D01*
X93868521Y91479528D01*
X93863373Y91484391D01*
X92832076Y92515688D01*
X92832075Y92515689D01*
X92832074Y92515690D01*
X92679199Y92626760D01*
X92648013Y92642650D01*
X92510836Y92712546D01*
X92331118Y92770941D01*
X92144486Y92800500D01*
X92144481Y92800500D01*
X87910878Y92800500D01*
X87843839Y92820185D01*
X87837993Y92824182D01*
X87638848Y92968868D01*
X87638847Y92968869D01*
X87638845Y92968870D01*
X87568747Y93004587D01*
X87414383Y93083240D01*
X87174785Y93161090D01*
X86925962Y93200500D01*
X86674038Y93200500D01*
X86549626Y93180795D01*
X86425214Y93161090D01*
X86185616Y93083240D01*
X85961151Y92968868D01*
X85757350Y92820799D01*
X85757345Y92820795D01*
X85579205Y92642655D01*
X85579201Y92642650D01*
X85431132Y92438849D01*
X85316760Y92214384D01*
X85238910Y91974786D01*
X85199500Y91725962D01*
X85199500Y91474039D01*
X85238910Y91225215D01*
X85316760Y90985617D01*
X85431132Y90761152D01*
X85579201Y90557351D01*
X85579205Y90557346D01*
X85757345Y90379206D01*
X85757350Y90379202D01*
X85903963Y90272682D01*
X85961155Y90231130D01*
X86104184Y90158253D01*
X86185616Y90116761D01*
X86185618Y90116761D01*
X86185621Y90116759D01*
X86425215Y90038910D01*
X86674038Y89999500D01*
X86674039Y89999500D01*
X86925961Y89999500D01*
X86925962Y89999500D01*
X87174785Y90038910D01*
X87414379Y90116759D01*
X87638845Y90231130D01*
X87722168Y90291669D01*
X87837993Y90375818D01*
X87903799Y90399298D01*
X87910878Y90399500D01*
X91501374Y90399500D01*
X91530814Y90390856D01*
X91560801Y90384332D01*
X91565816Y90380578D01*
X91568413Y90379815D01*
X91589055Y90363181D01*
X91679554Y90272682D01*
X91713039Y90211359D01*
X91708055Y90141667D01*
X91679554Y90097320D01*
X89816625Y88234390D01*
X89755302Y88200905D01*
X89748342Y88199598D01*
X89505214Y88161091D01*
X89265616Y88083240D01*
X89041151Y87968868D01*
X88837350Y87820799D01*
X88837345Y87820795D01*
X88659205Y87642655D01*
X88659201Y87642650D01*
X88511132Y87438849D01*
X88396760Y87214384D01*
X88318909Y86974786D01*
X88280402Y86731658D01*
X88250473Y86668523D01*
X88245610Y86663375D01*
X87464312Y85882077D01*
X87353240Y85729200D01*
X87267454Y85560837D01*
X87209059Y85381119D01*
X87179500Y85194487D01*
X87179500Y75210878D01*
X87159815Y75143839D01*
X87155818Y75137993D01*
X87011132Y74938849D01*
X86896760Y74714384D01*
X86818910Y74474786D01*
X86779500Y74225962D01*
X86779500Y73974039D01*
X86818910Y73725215D01*
X86896760Y73485617D01*
X87011132Y73261152D01*
X87159201Y73057351D01*
X87159205Y73057346D01*
X87204370Y73012181D01*
X87237855Y72950858D01*
X87232871Y72881166D01*
X87190999Y72825233D01*
X87125535Y72800816D01*
X87116689Y72800500D01*
X85624500Y72800500D01*
X85557461Y72820185D01*
X85511706Y72872989D01*
X85500500Y72924500D01*
X85500500Y74194487D01*
X85470940Y74381119D01*
X85418241Y74543307D01*
X85412547Y74560832D01*
X85412545Y74560835D01*
X85412545Y74560837D01*
X85349632Y74684310D01*
X85326760Y74729200D01*
X85326757Y74729204D01*
X85326757Y74729205D01*
X85292911Y74775789D01*
X85215690Y74882074D01*
X81582074Y78515690D01*
X81429199Y78626760D01*
X81260836Y78712546D01*
X81081118Y78770941D01*
X80894486Y78800500D01*
X80894481Y78800500D01*
X22394481Y78800500D01*
X22205519Y78800500D01*
X22205514Y78800500D01*
X22018881Y78770941D01*
X21839163Y78712546D01*
X21670800Y78626760D01*
X21583579Y78563390D01*
X21517927Y78515690D01*
X21517925Y78515688D01*
X21517924Y78515688D01*
X21384312Y78382076D01*
X21384312Y78382075D01*
X21384310Y78382073D01*
X21336610Y78316421D01*
X21273240Y78229200D01*
X21187454Y78060837D01*
X21129059Y77881119D01*
X21099500Y77694487D01*
X21099500Y71984500D01*
X21079815Y71917461D01*
X21027011Y71871706D01*
X20975500Y71860500D01*
X16015514Y71860500D01*
X15828881Y71830941D01*
X15649163Y71772546D01*
X15480800Y71686760D01*
X15458312Y71670421D01*
X15327927Y71575690D01*
X15327925Y71575688D01*
X15327924Y71575688D01*
X13757043Y70004808D01*
X13695720Y69971323D01*
X13626028Y69976307D01*
X13613074Y69982001D01*
X13525881Y70026428D01*
X13414383Y70083240D01*
X13174785Y70161090D01*
X12925962Y70200500D01*
X12674038Y70200500D01*
X12549626Y70180795D01*
X12425214Y70161090D01*
X12185616Y70083240D01*
X11961151Y69968868D01*
X11762007Y69824182D01*
X11696201Y69800702D01*
X11689122Y69800500D01*
X8455514Y69800500D01*
X8268881Y69770941D01*
X8089163Y69712546D01*
X7920800Y69626760D01*
X7767923Y69515688D01*
X7251989Y68999754D01*
X7140917Y68846877D01*
X7055131Y68678514D01*
X6996736Y68498796D01*
X6967177Y68312164D01*
X6967177Y65374676D01*
X6947492Y65307637D01*
X6901632Y65265319D01*
X6831226Y65227685D01*
X6671266Y65096411D01*
X6539994Y64936453D01*
X6539992Y64936450D01*
X6501320Y64864102D01*
X6442446Y64753957D01*
X6382376Y64555933D01*
X6367177Y64401605D01*
X6367177Y62798396D01*
X6382376Y62644068D01*
X6382377Y62644066D01*
X6442445Y62446046D01*
X6539992Y62263550D01*
X6573553Y62222656D01*
X6671266Y62103590D01*
X6767886Y62024298D01*
X6831227Y61972315D01*
X7013723Y61874768D01*
X7211743Y61814700D01*
X7211742Y61814700D01*
X7250324Y61810900D01*
X7366069Y61799500D01*
X7366072Y61799500D01*
X8969282Y61799500D01*
X8969285Y61799500D01*
X9123611Y61814700D01*
X9321631Y61874768D01*
X9504127Y61972315D01*
X9664087Y62103590D01*
X9795362Y62263550D01*
X9892909Y62446046D01*
X9952977Y62644066D01*
X9968177Y62798392D01*
X9968177Y64401608D01*
X9952977Y64555934D01*
X9892909Y64753954D01*
X9795362Y64936450D01*
X9726108Y65020837D01*
X9664087Y65096411D01*
X9504127Y65227685D01*
X9433722Y65265319D01*
X9383878Y65314282D01*
X9368177Y65374676D01*
X9368177Y67275500D01*
X9387862Y67342539D01*
X9440666Y67388294D01*
X9492177Y67399500D01*
X11689122Y67399500D01*
X11756161Y67379815D01*
X11762007Y67375818D01*
X11946010Y67242134D01*
X11961155Y67231130D01*
X12098616Y67161090D01*
X12185616Y67116761D01*
X12185618Y67116761D01*
X12185621Y67116759D01*
X12425215Y67038910D01*
X12674038Y66999500D01*
X12674039Y66999500D01*
X12925961Y66999500D01*
X12925962Y66999500D01*
X13174785Y67038910D01*
X13414379Y67116759D01*
X13638845Y67231130D01*
X13768896Y67325617D01*
X13837993Y67375818D01*
X13903799Y67399298D01*
X13910878Y67399500D01*
X14144486Y67399500D01*
X14331118Y67429060D01*
X14510832Y67487453D01*
X14679199Y67573240D01*
X14832074Y67684310D01*
X16570944Y69423182D01*
X16632267Y69456666D01*
X16658625Y69459500D01*
X17275500Y69459500D01*
X17342539Y69439815D01*
X17388294Y69387011D01*
X17399500Y69335500D01*
X17399500Y62602858D01*
X17379815Y62535819D01*
X17327011Y62490064D01*
X17257853Y62480120D01*
X17202616Y62502539D01*
X17138847Y62548869D01*
X16914383Y62663240D01*
X16674785Y62741090D01*
X16425962Y62780500D01*
X16174038Y62780500D01*
X16049626Y62760795D01*
X15925214Y62741090D01*
X15685616Y62663240D01*
X15461151Y62548868D01*
X15257350Y62400799D01*
X15257345Y62400795D01*
X15079205Y62222655D01*
X15079201Y62222650D01*
X14931132Y62018849D01*
X14816760Y61794384D01*
X14738910Y61554786D01*
X14727955Y61485621D01*
X14699500Y61305962D01*
X14699500Y61054038D01*
X14733904Y60836819D01*
X14738910Y60805215D01*
X14816760Y60565617D01*
X14931132Y60341152D01*
X15079201Y60137351D01*
X15079205Y60137346D01*
X15257345Y59959206D01*
X15257350Y59959202D01*
X15313916Y59918105D01*
X15461155Y59811130D01*
X15567111Y59757143D01*
X15685616Y59696761D01*
X15685618Y59696761D01*
X15685621Y59696759D01*
X15925215Y59618910D01*
X16174038Y59579500D01*
X16174039Y59579500D01*
X16425961Y59579500D01*
X16425962Y59579500D01*
X16674785Y59618910D01*
X16914379Y59696759D01*
X17138845Y59811130D01*
X17178329Y59839817D01*
X17202615Y59857461D01*
X17268421Y59880941D01*
X17336475Y59865116D01*
X17385170Y59815010D01*
X17399500Y59757143D01*
X17399500Y55305514D01*
X17429059Y55118882D01*
X17487454Y54939164D01*
X17527090Y54861375D01*
X17573240Y54770801D01*
X17684310Y54617927D01*
X17817927Y54484310D01*
X17970801Y54373240D01*
X18006509Y54355046D01*
X18139163Y54287455D01*
X18139165Y54287455D01*
X18139168Y54287453D01*
X18235497Y54256154D01*
X18318881Y54229060D01*
X18505514Y54199500D01*
X18505519Y54199500D01*
X18694481Y54199500D01*
X26475500Y54199500D01*
X26542539Y54179815D01*
X26588294Y54127011D01*
X26599500Y54075500D01*
X26599500Y49964500D01*
X26579815Y49897461D01*
X26527011Y49851706D01*
X26475500Y49840500D01*
X24267945Y49840500D01*
X24200906Y49860185D01*
X24155151Y49912989D01*
X24145207Y49982147D01*
X24162951Y50030472D01*
X24225789Y50130478D01*
X24285368Y50300745D01*
X24300500Y50435046D01*
X24300500Y51924954D01*
X24285368Y52059255D01*
X24225789Y52229522D01*
X24129816Y52382262D01*
X24002262Y52509816D01*
X23849523Y52605789D01*
X23679254Y52665369D01*
X23679249Y52665370D01*
X23544960Y52680500D01*
X23544954Y52680500D01*
X20855046Y52680500D01*
X20855039Y52680500D01*
X20720750Y52665370D01*
X20720745Y52665369D01*
X20550476Y52605789D01*
X20397737Y52509816D01*
X20270182Y52382261D01*
X20205002Y52278527D01*
X20152668Y52232237D01*
X20100009Y52220500D01*
X17410878Y52220500D01*
X17343839Y52240185D01*
X17337993Y52244182D01*
X17138848Y52388868D01*
X17138847Y52388869D01*
X17138845Y52388870D01*
X17068747Y52424587D01*
X16914383Y52503240D01*
X16674785Y52581090D01*
X16425962Y52620500D01*
X16174038Y52620500D01*
X16081157Y52605789D01*
X15925214Y52581090D01*
X15685616Y52503240D01*
X15461151Y52388868D01*
X15262007Y52244182D01*
X15196201Y52220702D01*
X15189122Y52220500D01*
X13410878Y52220500D01*
X13343839Y52240185D01*
X13337993Y52244182D01*
X13138848Y52388868D01*
X13138847Y52388869D01*
X13138845Y52388870D01*
X13068747Y52424587D01*
X12914383Y52503240D01*
X12674785Y52581090D01*
X12425962Y52620500D01*
X12174038Y52620500D01*
X12081157Y52605789D01*
X11925214Y52581090D01*
X11685616Y52503240D01*
X11461151Y52388868D01*
X11257350Y52240799D01*
X11257345Y52240795D01*
X11079205Y52062655D01*
X11079201Y52062650D01*
X10931132Y51858849D01*
X10816760Y51634384D01*
X10790725Y51554255D01*
X10738910Y51394785D01*
X10699500Y51145962D01*
X10699500Y50894038D01*
X10716499Y50786712D01*
X10738910Y50645215D01*
X10816760Y50405617D01*
X10885145Y50271406D01*
X10914542Y50213710D01*
X10931132Y50181152D01*
X11079201Y49977351D01*
X11079205Y49977346D01*
X11257345Y49799206D01*
X11257350Y49799202D01*
X11435117Y49670048D01*
X11461155Y49651130D01*
X11604184Y49578253D01*
X11685616Y49536761D01*
X11685618Y49536761D01*
X11685621Y49536759D01*
X11925215Y49458910D01*
X12174038Y49419500D01*
X12174039Y49419500D01*
X12425961Y49419500D01*
X12425962Y49419500D01*
X12674785Y49458910D01*
X12914379Y49536759D01*
X13138845Y49651130D01*
X13223378Y49712547D01*
X13337993Y49795818D01*
X13403799Y49819298D01*
X13410878Y49819500D01*
X15189122Y49819500D01*
X15256161Y49799815D01*
X15262007Y49795818D01*
X15446010Y49662134D01*
X15461155Y49651130D01*
X15604184Y49578253D01*
X15685616Y49536761D01*
X15685618Y49536761D01*
X15685621Y49536759D01*
X15750465Y49515690D01*
X15925208Y49458912D01*
X15925209Y49458912D01*
X15925215Y49458910D01*
X15940382Y49456508D01*
X16003515Y49426580D01*
X16040447Y49367269D01*
X16039450Y49297406D01*
X16035544Y49286583D01*
X15991395Y49179997D01*
X15930306Y48952011D01*
X15899501Y48718021D01*
X15899500Y48718005D01*
X15899500Y48481996D01*
X15899501Y48481980D01*
X15927877Y48266437D01*
X15930307Y48247986D01*
X15954125Y48159097D01*
X15991394Y48020007D01*
X16081714Y47801955D01*
X16081719Y47801944D01*
X16137390Y47705521D01*
X16199727Y47597550D01*
X16199729Y47597547D01*
X16199730Y47597546D01*
X16274590Y47499986D01*
X16299784Y47434817D01*
X16285746Y47366372D01*
X16236932Y47316383D01*
X16176214Y47300500D01*
X11705514Y47300500D01*
X11518881Y47270941D01*
X11339163Y47212546D01*
X11170799Y47126760D01*
X11095867Y47072318D01*
X11017926Y47015690D01*
X11017924Y47015688D01*
X11017923Y47015688D01*
X8236625Y44234390D01*
X8175302Y44200905D01*
X8168342Y44199598D01*
X7925214Y44161091D01*
X7685616Y44083240D01*
X7461151Y43968868D01*
X7262007Y43824182D01*
X7196201Y43800702D01*
X7189122Y43800500D01*
X6624500Y43800500D01*
X6557461Y43820185D01*
X6511706Y43872989D01*
X6500500Y43924500D01*
X6500500Y47751725D01*
X6520185Y47818764D01*
X6572989Y47864519D01*
X6642147Y47874463D01*
X6660482Y47870389D01*
X6844066Y47814700D01*
X6844065Y47814700D01*
X6882647Y47810900D01*
X6998392Y47799500D01*
X6998395Y47799500D01*
X8601605Y47799500D01*
X8601608Y47799500D01*
X8755934Y47814700D01*
X8953954Y47874768D01*
X9136450Y47972315D01*
X9296410Y48103590D01*
X9427685Y48263550D01*
X9525232Y48446046D01*
X9585300Y48644066D01*
X9600500Y48798392D01*
X9600500Y50401608D01*
X9585300Y50555934D01*
X9525232Y50753954D01*
X9427685Y50936450D01*
X9375702Y50999791D01*
X9296410Y51096411D01*
X9136452Y51227683D01*
X9136453Y51227683D01*
X9136450Y51227685D01*
X8953954Y51325232D01*
X8755934Y51385300D01*
X8755932Y51385301D01*
X8755934Y51385301D01*
X8636805Y51397034D01*
X8601608Y51400500D01*
X6998392Y51400500D01*
X6960298Y51396749D01*
X6844067Y51385301D01*
X6646043Y51325231D01*
X6535898Y51266357D01*
X6463550Y51227685D01*
X6463548Y51227684D01*
X6463547Y51227683D01*
X6303589Y51096411D01*
X6172315Y50936452D01*
X6118918Y50836555D01*
X6069955Y50786712D01*
X6028965Y50772538D01*
X6018888Y50770942D01*
X6018885Y50770941D01*
X5839165Y50712546D01*
X5670800Y50626760D01*
X5583579Y50563390D01*
X5517927Y50515690D01*
X5517925Y50515688D01*
X5517924Y50515688D01*
X4384308Y49382073D01*
X4384304Y49382069D01*
X4302302Y49269200D01*
X4302302Y49269199D01*
X4273240Y49229200D01*
X4187454Y49060837D01*
X4129059Y48881119D01*
X4099500Y48694487D01*
X4099500Y39805514D01*
X4129059Y39618882D01*
X4187454Y39439164D01*
X4243481Y39329206D01*
X4273240Y39270801D01*
X4384310Y39117926D01*
X4384312Y39117924D01*
X11942181Y31560055D01*
X11975666Y31498732D01*
X11978500Y31472374D01*
X11978500Y27815473D01*
X11958815Y27748434D01*
X11906011Y27702679D01*
X11836853Y27692735D01*
X11773297Y27721760D01*
X11756124Y27739987D01*
X11656593Y27869698D01*
X11656587Y27869705D01*
X11536819Y27989473D01*
X11503334Y28050796D01*
X11500500Y28077154D01*
X11500500Y31144487D01*
X11470940Y31331119D01*
X11425043Y31472374D01*
X11412547Y31510832D01*
X11412545Y31510835D01*
X11412545Y31510837D01*
X11326759Y31679200D01*
X11215690Y31832073D01*
X11082073Y31965690D01*
X6082074Y36965690D01*
X5929199Y37076760D01*
X5919119Y37081896D01*
X5760836Y37162546D01*
X5581118Y37220941D01*
X5394486Y37250500D01*
X5394481Y37250500D01*
X4747153Y37250500D01*
X4680114Y37270185D01*
X4659476Y37286815D01*
X4539699Y37406592D01*
X4539698Y37406593D01*
X4539696Y37406595D01*
X4352454Y37550270D01*
X4352453Y37550271D01*
X4352450Y37550273D01*
X4210767Y37632074D01*
X4148056Y37668281D01*
X4148045Y37668286D01*
X3929993Y37758606D01*
X3702010Y37819694D01*
X3468020Y37850499D01*
X3468017Y37850500D01*
X3468011Y37850500D01*
X3231989Y37850500D01*
X3231983Y37850500D01*
X3231979Y37850499D01*
X2997989Y37819694D01*
X2770006Y37758606D01*
X2551954Y37668286D01*
X2551943Y37668281D01*
X2347545Y37550270D01*
X2160302Y37406594D01*
X2160295Y37406588D01*
X1993412Y37239705D01*
X1993406Y37239698D01*
X1849730Y37052455D01*
X1731719Y36848057D01*
X1731714Y36848046D01*
X1641394Y36629994D01*
X1580306Y36402011D01*
X1549501Y36168021D01*
X1549500Y36168005D01*
X32482Y36168005D01*
X32480Y36172008D01*
X16281Y68554384D01*
X2639Y95825962D01*
X2449500Y95825962D01*
X2449500Y95574039D01*
X2488910Y95325215D01*
X2566760Y95085617D01*
X2681132Y94861152D01*
X2829201Y94657351D01*
X2829205Y94657346D01*
X3007345Y94479206D01*
X3007350Y94479202D01*
X3185117Y94350048D01*
X3211155Y94331130D01*
X3354184Y94258253D01*
X3435616Y94216761D01*
X3435618Y94216761D01*
X3435621Y94216759D01*
X3675215Y94138910D01*
X3924038Y94099500D01*
X3924039Y94099500D01*
X4175961Y94099500D01*
X4175962Y94099500D01*
X4424785Y94138910D01*
X4664379Y94216759D01*
X4888845Y94331130D01*
X5092656Y94479207D01*
X5270793Y94657344D01*
X5418870Y94861155D01*
X5533241Y95085621D01*
X5611090Y95325215D01*
X5650500Y95574038D01*
X5650500Y95825962D01*
X94449500Y95825962D01*
X94449500Y95574039D01*
X94488910Y95325215D01*
X94566760Y95085617D01*
X94681132Y94861152D01*
X94829201Y94657351D01*
X94829205Y94657346D01*
X95007345Y94479206D01*
X95007350Y94479202D01*
X95185117Y94350048D01*
X95211155Y94331130D01*
X95354184Y94258253D01*
X95435616Y94216761D01*
X95435618Y94216761D01*
X95435621Y94216759D01*
X95675215Y94138910D01*
X95924038Y94099500D01*
X95924039Y94099500D01*
X96175961Y94099500D01*
X96175962Y94099500D01*
X96424785Y94138910D01*
X96664379Y94216759D01*
X96888845Y94331130D01*
X97092656Y94479207D01*
X97270793Y94657344D01*
X97418870Y94861155D01*
X97533241Y95085621D01*
X97611090Y95325215D01*
X97650500Y95574038D01*
X97650500Y95825962D01*
X97611090Y96074785D01*
X97533241Y96314379D01*
X97533239Y96314382D01*
X97533239Y96314384D01*
X97491747Y96395816D01*
X97418870Y96538845D01*
X97399952Y96564883D01*
X97270798Y96742650D01*
X97270794Y96742655D01*
X97092654Y96920795D01*
X97092649Y96920799D01*
X96888848Y97068868D01*
X96888847Y97068869D01*
X96888845Y97068870D01*
X96818747Y97104587D01*
X96664383Y97183240D01*
X96424785Y97261090D01*
X96175962Y97300500D01*
X95924038Y97300500D01*
X95799626Y97280795D01*
X95675214Y97261090D01*
X95435616Y97183240D01*
X95211151Y97068868D01*
X95007350Y96920799D01*
X95007345Y96920795D01*
X94829205Y96742655D01*
X94829201Y96742650D01*
X94681132Y96538849D01*
X94566760Y96314384D01*
X94488910Y96074786D01*
X94449500Y95825962D01*
X5650500Y95825962D01*
X5611090Y96074785D01*
X5533241Y96314379D01*
X5533239Y96314382D01*
X5533239Y96314384D01*
X5491747Y96395816D01*
X5418870Y96538845D01*
X5399952Y96564883D01*
X5270798Y96742650D01*
X5270794Y96742655D01*
X5092654Y96920795D01*
X5092649Y96920799D01*
X4888848Y97068868D01*
X4888847Y97068869D01*
X4888845Y97068870D01*
X4818747Y97104587D01*
X4664383Y97183240D01*
X4424785Y97261090D01*
X4175962Y97300500D01*
X3924038Y97300500D01*
X3799626Y97280795D01*
X3675214Y97261090D01*
X3435616Y97183240D01*
X3211151Y97068868D01*
X3007350Y96920799D01*
X3007345Y96920795D01*
X2829205Y96742655D01*
X2829201Y96742650D01*
X2681132Y96538849D01*
X2566760Y96314384D01*
X2488910Y96074786D01*
X2449500Y95825962D01*
X2639Y95825962D01*
X838Y99425938D01*
X20489Y99492987D01*
X73270Y99538769D01*
X124838Y99550000D01*
X99475500Y99550000D01*
X99542539Y99530315D01*
G37*
G04 #@! TD.AperFunction*
G04 #@! TA.AperFunction,NonConductor*
G36*
X65075703Y69459691D02*
G01*
X65082181Y69453659D01*
X65134771Y69401069D01*
X65344949Y69248366D01*
X65492445Y69173213D01*
X65576423Y69130423D01*
X65576425Y69130423D01*
X65576428Y69130421D01*
X65823507Y69050140D01*
X65955706Y69029203D01*
X66080098Y69009500D01*
X66080103Y69009500D01*
X66339902Y69009500D01*
X66453298Y69027461D01*
X66596493Y69050140D01*
X66843572Y69130421D01*
X67075051Y69248366D01*
X67285229Y69401069D01*
X67337819Y69453659D01*
X67399142Y69487144D01*
X67468834Y69482160D01*
X67524767Y69440288D01*
X67549184Y69374824D01*
X67549500Y69365978D01*
X67549500Y68955514D01*
X67579059Y68768882D01*
X67637454Y68589164D01*
X67683500Y68498795D01*
X67723240Y68420801D01*
X67834310Y68267926D01*
X67834312Y68267924D01*
X68090055Y68012181D01*
X68123540Y67950858D01*
X68118556Y67881166D01*
X68076684Y67825233D01*
X68011220Y67800816D01*
X68002374Y67800500D01*
X65848626Y67800500D01*
X65781587Y67820185D01*
X65760945Y67836819D01*
X64906819Y68690945D01*
X64873334Y68752268D01*
X64870500Y68778626D01*
X64870500Y69365978D01*
X64890185Y69433017D01*
X64942989Y69478772D01*
X65012147Y69488716D01*
X65075703Y69459691D01*
G37*
G04 #@! TD.AperFunction*
G04 #@! TA.AperFunction,NonConductor*
G36*
X45462539Y64379815D02*
G01*
X45508294Y64327011D01*
X45519500Y64275500D01*
X45519500Y63210878D01*
X45499815Y63143839D01*
X45495818Y63137993D01*
X45351132Y62938849D01*
X45236760Y62714384D01*
X45161220Y62481894D01*
X45158910Y62474785D01*
X45119500Y62225962D01*
X45119500Y61974038D01*
X45119773Y61972315D01*
X45158910Y61725215D01*
X45236760Y61485617D01*
X45351132Y61261152D01*
X45499201Y61057351D01*
X45499205Y61057346D01*
X45544370Y61012181D01*
X45577855Y60950858D01*
X45572871Y60881166D01*
X45530999Y60825233D01*
X45465535Y60800816D01*
X45456689Y60800500D01*
X43384470Y60800500D01*
X43317431Y60820185D01*
X43296789Y60836819D01*
X39945789Y64187819D01*
X39912304Y64249142D01*
X39917288Y64318834D01*
X39959160Y64374767D01*
X40024624Y64399184D01*
X40033470Y64399500D01*
X45395500Y64399500D01*
X45462539Y64379815D01*
G37*
G04 #@! TD.AperFunction*
G04 #@! TA.AperFunction,NonConductor*
G36*
X87523098Y70379815D02*
G01*
X87568853Y70327011D01*
X87578797Y70257853D01*
X87549772Y70194297D01*
X87494378Y70157569D01*
X87265616Y70083240D01*
X87041151Y69968868D01*
X86837350Y69820799D01*
X86837345Y69820795D01*
X86659205Y69642655D01*
X86659201Y69642650D01*
X86511132Y69438849D01*
X86396760Y69214384D01*
X86318910Y68974786D01*
X86298651Y68846877D01*
X86279500Y68725962D01*
X86279500Y68474038D01*
X86312145Y68267926D01*
X86318910Y68225215D01*
X86396760Y67985617D01*
X86415478Y67948882D01*
X86507049Y67769164D01*
X86511132Y67761152D01*
X86655818Y67562008D01*
X86679298Y67496202D01*
X86679500Y67489123D01*
X86679500Y58619613D01*
X86659815Y58552574D01*
X86611796Y58509129D01*
X86527364Y58466108D01*
X86451793Y58411203D01*
X86385986Y58387724D01*
X86317933Y58403550D01*
X86269238Y58453656D01*
X86255363Y58522134D01*
X86272806Y58574187D01*
X86272769Y58574205D01*
X86272913Y58574505D01*
X86273916Y58577497D01*
X86274067Y58577739D01*
X86275789Y58580478D01*
X86335368Y58750745D01*
X86350500Y58885046D01*
X86350500Y60474954D01*
X86340285Y60565617D01*
X86335369Y60609250D01*
X86335368Y60609255D01*
X86275788Y60779524D01*
X86179815Y60932263D01*
X86052262Y61059816D01*
X85899523Y61155789D01*
X85729254Y61215369D01*
X85729249Y61215370D01*
X85594960Y61230500D01*
X85594954Y61230500D01*
X84752917Y61230500D01*
X84685878Y61250185D01*
X84640123Y61302989D01*
X84630179Y61372147D01*
X84659204Y61435703D01*
X84714596Y61472431D01*
X84760832Y61487453D01*
X84929199Y61573240D01*
X85082073Y61684310D01*
X85215690Y61817927D01*
X85326760Y61970801D01*
X85412547Y62139168D01*
X85470940Y62318882D01*
X85480699Y62380500D01*
X85500500Y62505514D01*
X85500500Y70275500D01*
X85520185Y70342539D01*
X85572989Y70388294D01*
X85624500Y70399500D01*
X87456059Y70399500D01*
X87523098Y70379815D01*
G37*
G04 #@! TD.AperFunction*
G04 #@! TA.AperFunction,NonConductor*
G36*
X74558834Y60240558D02*
G01*
X74614767Y60198686D01*
X74639184Y60133222D01*
X74639500Y60124376D01*
X74639500Y60078626D01*
X74619815Y60011587D01*
X74603181Y59990945D01*
X71249055Y56636819D01*
X71222127Y56622116D01*
X71196309Y56605523D01*
X71190108Y56604632D01*
X71187732Y56603334D01*
X71161374Y56600500D01*
X71115626Y56600500D01*
X71048587Y56620185D01*
X71002832Y56672989D01*
X70992888Y56742147D01*
X71021913Y56805703D01*
X71027945Y56812181D01*
X73489412Y59273649D01*
X74427819Y60212058D01*
X74489142Y60245542D01*
X74558834Y60240558D01*
G37*
G04 #@! TD.AperFunction*
G04 #@! TA.AperFunction,NonConductor*
G36*
X57451462Y56129815D02*
G01*
X57497217Y56077011D01*
X57507161Y56007853D01*
X57484741Y55952616D01*
X57464265Y55924433D01*
X57436657Y55886434D01*
X57329433Y55675997D01*
X57256446Y55451369D01*
X57219500Y55218098D01*
X57219500Y54981903D01*
X57256446Y54748632D01*
X57329433Y54524004D01*
X57436658Y54313565D01*
X57449791Y54295490D01*
X57473273Y54229684D01*
X57457449Y54161630D01*
X57437156Y54134921D01*
X52724312Y49422077D01*
X52724307Y49422071D01*
X52632324Y49295466D01*
X52632323Y49295464D01*
X52613240Y49269201D01*
X52527454Y49100837D01*
X52469059Y48921119D01*
X52439500Y48734487D01*
X52439500Y48420747D01*
X52419815Y48353708D01*
X52415818Y48347862D01*
X52356659Y48266437D01*
X52249433Y48055997D01*
X52176446Y47831369D01*
X52139500Y47598098D01*
X52139500Y47361903D01*
X52176447Y47128631D01*
X52176447Y47128628D01*
X52249692Y46903206D01*
X52251687Y46833365D01*
X52219442Y46777207D01*
X50609055Y45166819D01*
X50547732Y45133334D01*
X50521374Y45130500D01*
X49426154Y45130500D01*
X49359115Y45150185D01*
X49313360Y45202989D01*
X49303416Y45272147D01*
X49332441Y45335703D01*
X49338473Y45342181D01*
X49406587Y45410296D01*
X49406592Y45410301D01*
X49550273Y45597550D01*
X49668284Y45801951D01*
X49758606Y46020007D01*
X49819693Y46247986D01*
X49850500Y46481989D01*
X49850500Y46718011D01*
X49819693Y46952014D01*
X49758606Y47179993D01*
X49668284Y47398049D01*
X49668282Y47398052D01*
X49668280Y47398057D01*
X49623061Y47476378D01*
X49550273Y47602450D01*
X49482952Y47690185D01*
X49406593Y47789698D01*
X49406587Y47789705D01*
X49239704Y47956588D01*
X49239697Y47956594D01*
X49052454Y48100270D01*
X49052453Y48100271D01*
X49052450Y48100273D01*
X48950564Y48159097D01*
X48848056Y48218281D01*
X48848045Y48218286D01*
X48629993Y48308606D01*
X48483488Y48347862D01*
X48402014Y48369693D01*
X48402013Y48369694D01*
X48402010Y48369694D01*
X48168020Y48400499D01*
X48168017Y48400500D01*
X48168011Y48400500D01*
X47931989Y48400500D01*
X47931983Y48400500D01*
X47931979Y48400499D01*
X47697989Y48369694D01*
X47470006Y48308606D01*
X47251954Y48218286D01*
X47251943Y48218281D01*
X47047545Y48100270D01*
X46860302Y47956594D01*
X46860295Y47956588D01*
X46693413Y47789706D01*
X46693408Y47789699D01*
X46639168Y47719013D01*
X46582743Y47677811D01*
X46540794Y47670500D01*
X44924500Y47670500D01*
X44857461Y47690185D01*
X44811706Y47742989D01*
X44800500Y47794500D01*
X44800500Y51651374D01*
X44820185Y51718413D01*
X44836819Y51739055D01*
X46960945Y53863181D01*
X47022268Y53896666D01*
X47048626Y53899500D01*
X52699253Y53899500D01*
X52766292Y53879815D01*
X52772138Y53875818D01*
X52840500Y53826151D01*
X52853567Y53816657D01*
X52987659Y53748334D01*
X53064003Y53709434D01*
X53064005Y53709434D01*
X53064008Y53709432D01*
X53172404Y53674212D01*
X53288631Y53636447D01*
X53521903Y53599500D01*
X53521908Y53599500D01*
X53758097Y53599500D01*
X53991368Y53636447D01*
X54066829Y53660966D01*
X54215992Y53709432D01*
X54426433Y53816657D01*
X54617510Y53955483D01*
X54784517Y54122490D01*
X54923343Y54313567D01*
X55030568Y54524008D01*
X55103553Y54748632D01*
X55121410Y54861375D01*
X55140500Y54981903D01*
X55140500Y55218098D01*
X55103553Y55451369D01*
X55046266Y55627679D01*
X55030568Y55675992D01*
X55030566Y55675995D01*
X55030566Y55675997D01*
X54936387Y55860832D01*
X54923343Y55886433D01*
X54875258Y55952617D01*
X54851779Y56018420D01*
X54867604Y56086474D01*
X54917710Y56135169D01*
X54975577Y56149500D01*
X57384423Y56149500D01*
X57451462Y56129815D01*
G37*
G04 #@! TD.AperFunction*
M02*
