G04 #@! TF.GenerationSoftware,KiCad,Pcbnew,9.0.2*
G04 #@! TF.CreationDate,2025-10-12T13:55:40+02:00*
G04 #@! TF.ProjectId,PiZero_VT100,50695a65-726f-45f5-9654-3130302e6b69,rev?*
G04 #@! TF.SameCoordinates,PX5e9ac00PYa0ca1c0*
G04 #@! TF.FileFunction,Soldermask,Top*
G04 #@! TF.FilePolarity,Negative*
%FSLAX46Y46*%
G04 Gerber Fmt 4.6, Leading zero omitted, Abs format (unit mm)*
G04 Created by KiCad (PCBNEW 9.0.2) date 2025-10-12 13:55:40*
%MOMM*%
%LPD*%
G01*
G04 APERTURE LIST*
G04 Aperture macros list*
%AMRoundRect*
0 Rectangle with rounded corners*
0 $1 Rounding radius*
0 $2 $3 $4 $5 $6 $7 $8 $9 X,Y pos of 4 corners*
0 Add a 4 corners polygon primitive as box body*
4,1,4,$2,$3,$4,$5,$6,$7,$8,$9,$2,$3,0*
0 Add four circle primitives for the rounded corners*
1,1,$1+$1,$2,$3*
1,1,$1+$1,$4,$5*
1,1,$1+$1,$6,$7*
1,1,$1+$1,$8,$9*
0 Add four rect primitives between the rounded corners*
20,1,$1+$1,$2,$3,$4,$5,0*
20,1,$1+$1,$4,$5,$6,$7,0*
20,1,$1+$1,$6,$7,$8,$9,0*
20,1,$1+$1,$8,$9,$2,$3,0*%
G04 Aperture macros list end*
%ADD10R,1.700000X1.700000*%
%ADD11O,1.700000X1.700000*%
%ADD12C,1.600000*%
%ADD13C,3.200000*%
%ADD14C,1.700000*%
%ADD15R,1.500000X1.500000*%
%ADD16C,1.500000*%
%ADD17R,2.600000X1.400000*%
%ADD18O,2.600000X1.400000*%
%ADD19RoundRect,0.250000X0.750000X0.750000X-0.750000X0.750000X-0.750000X-0.750000X0.750000X-0.750000X0*%
%ADD20C,2.000000*%
%ADD21O,1.200000X2.200000*%
%ADD22O,2.000000X1.200000*%
%ADD23C,3.400000*%
%ADD24R,2.200000X1.300000*%
%ADD25O,2.200000X1.300000*%
%ADD26RoundRect,0.250000X-0.650000X-0.650000X0.650000X-0.650000X0.650000X0.650000X-0.650000X0.650000X0*%
%ADD27C,1.800000*%
%ADD28O,2.000000X2.000000*%
%ADD29R,1.400000X1.400000*%
%ADD30C,1.400000*%
%ADD31R,2.000000X2.000000*%
%ADD32RoundRect,0.250000X0.650000X-0.650000X0.650000X0.650000X-0.650000X0.650000X-0.650000X-0.650000X0*%
%ADD33RoundRect,0.250001X0.949999X0.949999X-0.949999X0.949999X-0.949999X-0.949999X0.949999X-0.949999X0*%
%ADD34C,2.400000*%
%ADD35R,1.300000X2.500000*%
%ADD36O,1.200000X2.500000*%
%ADD37O,1.500000X2.500000*%
%ADD38C,3.000000*%
%ADD39C,6.000000*%
G04 APERTURE END LIST*
D10*
X25570000Y73200000D03*
D11*
X25570000Y70660000D03*
X28110000Y73200000D03*
X28110000Y70660000D03*
X30650000Y73200000D03*
X30650000Y70660000D03*
X33190000Y73200000D03*
X33190000Y70660000D03*
X35730000Y73200000D03*
X35730000Y70660000D03*
X38270000Y73200000D03*
X38270000Y70660000D03*
X40810000Y73200000D03*
X40810000Y70660000D03*
X43350000Y73200000D03*
X43350000Y70660000D03*
X45890000Y73200000D03*
X45890000Y70660000D03*
X48430000Y73200000D03*
X48430000Y70660000D03*
X50970000Y73200000D03*
X50970000Y70660000D03*
X53510000Y73200000D03*
X53510000Y70660000D03*
X56050000Y73200000D03*
X56050000Y70660000D03*
X58590000Y73200000D03*
X58590000Y70660000D03*
X61130000Y73200000D03*
X61130000Y70660000D03*
X63670000Y73200000D03*
X63670000Y70660000D03*
X66210000Y73200000D03*
X66210000Y70660000D03*
X68750000Y73200000D03*
X68750000Y70660000D03*
X71290000Y73200000D03*
X71290000Y70660000D03*
X73830000Y73200000D03*
X73830000Y70660000D03*
D12*
X12300000Y61180000D03*
X12300000Y51020000D03*
D13*
X4050000Y3700000D03*
D10*
X31760000Y27150000D03*
D14*
X34300000Y27150000D03*
X36840000Y27150000D03*
X39380000Y27150000D03*
D15*
X84800000Y59680000D03*
D16*
X87340000Y57140000D03*
X84800000Y54600000D03*
D12*
X93800000Y89850000D03*
X93800000Y82350000D03*
D17*
X22200000Y51180000D03*
D18*
X22200000Y48640000D03*
X22200000Y46100000D03*
D12*
X86800000Y91600000D03*
X81800000Y91600000D03*
D19*
X8167677Y63600000D03*
D20*
X3167677Y63600000D03*
X3350000Y24650000D03*
X3350000Y36050000D03*
D21*
X64150000Y8600000D03*
X61550000Y8600000D03*
X66250000Y8600000D03*
X59450000Y8600000D03*
D22*
X66250000Y11100000D03*
X59450000Y11100000D03*
D23*
X69600000Y5600000D03*
X56100000Y5600000D03*
X62850000Y4800000D03*
D24*
X93800000Y9830000D03*
D25*
X93800000Y12370000D03*
D15*
X96300000Y62600000D03*
D16*
X93760000Y60060000D03*
X91220000Y62600000D03*
D12*
X79720000Y86600000D03*
X89880000Y86600000D03*
X56880000Y65600000D03*
X46720000Y65600000D03*
D26*
X80200000Y48600000D03*
D27*
X92900000Y48600000D03*
D13*
X96050000Y95700000D03*
D10*
X37500000Y50525000D03*
D14*
X37500000Y47985000D03*
D13*
X4050000Y95700000D03*
D20*
X12550000Y14300000D03*
X12550000Y8000000D03*
D28*
X17350000Y11400000D03*
D29*
X71420000Y55100000D03*
D30*
X63800000Y55100000D03*
X58720000Y55100000D03*
X53640000Y55100000D03*
X53640000Y47480000D03*
X58720000Y47480000D03*
X63800000Y47480000D03*
X71420000Y47480000D03*
D12*
X77720000Y68600000D03*
X87880000Y68600000D03*
D10*
X81025000Y39550000D03*
D14*
X83565000Y39550000D03*
D31*
X90929216Y37100000D03*
D20*
X95929216Y37100000D03*
D12*
X8300000Y42600000D03*
X13300000Y42600000D03*
D31*
X10300000Y21600000D03*
D28*
X15380000Y21600000D03*
X15380000Y26680000D03*
X10300000Y26680000D03*
D32*
X76340000Y47330000D03*
D27*
X76340000Y60030000D03*
D33*
X60400000Y20550000D03*
D34*
X47700000Y20550000D03*
D12*
X76220000Y30100000D03*
X86380000Y30100000D03*
X96300000Y56600000D03*
X96300000Y46440000D03*
D10*
X43600000Y38850000D03*
D14*
X43600000Y41390000D03*
X43600000Y43930000D03*
X43600000Y46470000D03*
D12*
X93800000Y78100000D03*
X93800000Y67940000D03*
D19*
X7800000Y49600000D03*
D20*
X2800000Y49600000D03*
D35*
X77750000Y12940000D03*
D36*
X80250000Y12940000D03*
X82250000Y12940000D03*
D37*
X84750000Y12940000D03*
D38*
X74680000Y10230000D03*
X87820000Y10230000D03*
D12*
X12800000Y68600000D03*
X12800000Y73600000D03*
X16300000Y51020000D03*
X16300000Y61180000D03*
X46720000Y62100000D03*
X56880000Y62100000D03*
D13*
X96050000Y3700000D03*
D12*
X78220000Y74100000D03*
X88380000Y74100000D03*
D10*
X4300000Y14875000D03*
D14*
X4300000Y12335000D03*
D39*
X26600000Y61200000D03*
X26600000Y35800000D03*
M02*
