G04 #@! TF.GenerationSoftware,KiCad,Pcbnew,9.0.2*
G04 #@! TF.CreationDate,2025-10-12T13:55:40+02:00*
G04 #@! TF.ProjectId,PiZero_VT100,50695a65-726f-45f5-9654-3130302e6b69,rev?*
G04 #@! TF.SameCoordinates,PX5e9ac00PYa0ca1c0*
G04 #@! TF.FileFunction,AssemblyDrawing,Top*
%FSLAX46Y46*%
G04 Gerber Fmt 4.6, Leading zero omitted, Abs format (unit mm)*
G04 Created by KiCad (PCBNEW 9.0.2) date 2025-10-12 13:55:40*
%MOMM*%
%LPD*%
G01*
G04 APERTURE LIST*
%ADD10C,0.150000*%
%ADD11C,0.100000*%
%ADD12C,0.120000*%
G04 APERTURE END LIST*
D10*
X9384819Y55338096D02*
X9384819Y55147620D01*
X9384819Y55147620D02*
X9432438Y55052382D01*
X9432438Y55052382D02*
X9480057Y55004763D01*
X9480057Y55004763D02*
X9622914Y54909525D01*
X9622914Y54909525D02*
X9813390Y54861906D01*
X9813390Y54861906D02*
X10194342Y54861906D01*
X10194342Y54861906D02*
X10289580Y54909525D01*
X10289580Y54909525D02*
X10337200Y54957144D01*
X10337200Y54957144D02*
X10384819Y55052382D01*
X10384819Y55052382D02*
X10384819Y55242858D01*
X10384819Y55242858D02*
X10337200Y55338096D01*
X10337200Y55338096D02*
X10289580Y55385715D01*
X10289580Y55385715D02*
X10194342Y55433334D01*
X10194342Y55433334D02*
X9956247Y55433334D01*
X9956247Y55433334D02*
X9861009Y55385715D01*
X9861009Y55385715D02*
X9813390Y55338096D01*
X9813390Y55338096D02*
X9765771Y55242858D01*
X9765771Y55242858D02*
X9765771Y55052382D01*
X9765771Y55052382D02*
X9813390Y54957144D01*
X9813390Y54957144D02*
X9861009Y54909525D01*
X9861009Y54909525D02*
X9956247Y54861906D01*
X9813390Y56004763D02*
X9765771Y55909525D01*
X9765771Y55909525D02*
X9718152Y55861906D01*
X9718152Y55861906D02*
X9622914Y55814287D01*
X9622914Y55814287D02*
X9575295Y55814287D01*
X9575295Y55814287D02*
X9480057Y55861906D01*
X9480057Y55861906D02*
X9432438Y55909525D01*
X9432438Y55909525D02*
X9384819Y56004763D01*
X9384819Y56004763D02*
X9384819Y56195239D01*
X9384819Y56195239D02*
X9432438Y56290477D01*
X9432438Y56290477D02*
X9480057Y56338096D01*
X9480057Y56338096D02*
X9575295Y56385715D01*
X9575295Y56385715D02*
X9622914Y56385715D01*
X9622914Y56385715D02*
X9718152Y56338096D01*
X9718152Y56338096D02*
X9765771Y56290477D01*
X9765771Y56290477D02*
X9813390Y56195239D01*
X9813390Y56195239D02*
X9813390Y56004763D01*
X9813390Y56004763D02*
X9861009Y55909525D01*
X9861009Y55909525D02*
X9908628Y55861906D01*
X9908628Y55861906D02*
X10003866Y55814287D01*
X10003866Y55814287D02*
X10194342Y55814287D01*
X10194342Y55814287D02*
X10289580Y55861906D01*
X10289580Y55861906D02*
X10337200Y55909525D01*
X10337200Y55909525D02*
X10384819Y56004763D01*
X10384819Y56004763D02*
X10384819Y56195239D01*
X10384819Y56195239D02*
X10337200Y56290477D01*
X10337200Y56290477D02*
X10289580Y56338096D01*
X10289580Y56338096D02*
X10194342Y56385715D01*
X10194342Y56385715D02*
X10003866Y56385715D01*
X10003866Y56385715D02*
X9908628Y56338096D01*
X9908628Y56338096D02*
X9861009Y56290477D01*
X9861009Y56290477D02*
X9813390Y56195239D01*
X9384819Y57004763D02*
X9384819Y57100001D01*
X9384819Y57100001D02*
X9432438Y57195239D01*
X9432438Y57195239D02*
X9480057Y57242858D01*
X9480057Y57242858D02*
X9575295Y57290477D01*
X9575295Y57290477D02*
X9765771Y57338096D01*
X9765771Y57338096D02*
X10003866Y57338096D01*
X10003866Y57338096D02*
X10194342Y57290477D01*
X10194342Y57290477D02*
X10289580Y57242858D01*
X10289580Y57242858D02*
X10337200Y57195239D01*
X10337200Y57195239D02*
X10384819Y57100001D01*
X10384819Y57100001D02*
X10384819Y57004763D01*
X10384819Y57004763D02*
X10337200Y56909525D01*
X10337200Y56909525D02*
X10289580Y56861906D01*
X10289580Y56861906D02*
X10194342Y56814287D01*
X10194342Y56814287D02*
X10003866Y56766668D01*
X10003866Y56766668D02*
X9765771Y56766668D01*
X9765771Y56766668D02*
X9575295Y56814287D01*
X9575295Y56814287D02*
X9480057Y56861906D01*
X9480057Y56861906D02*
X9432438Y56909525D01*
X9432438Y56909525D02*
X9384819Y57004763D01*
X12754819Y55933334D02*
X12278628Y55600001D01*
X12754819Y55361906D02*
X11754819Y55361906D01*
X11754819Y55361906D02*
X11754819Y55742858D01*
X11754819Y55742858D02*
X11802438Y55838096D01*
X11802438Y55838096D02*
X11850057Y55885715D01*
X11850057Y55885715D02*
X11945295Y55933334D01*
X11945295Y55933334D02*
X12088152Y55933334D01*
X12088152Y55933334D02*
X12183390Y55885715D01*
X12183390Y55885715D02*
X12231009Y55838096D01*
X12231009Y55838096D02*
X12278628Y55742858D01*
X12278628Y55742858D02*
X12278628Y55361906D01*
X11754819Y56838096D02*
X11754819Y56361906D01*
X11754819Y56361906D02*
X12231009Y56314287D01*
X12231009Y56314287D02*
X12183390Y56361906D01*
X12183390Y56361906D02*
X12135771Y56457144D01*
X12135771Y56457144D02*
X12135771Y56695239D01*
X12135771Y56695239D02*
X12183390Y56790477D01*
X12183390Y56790477D02*
X12231009Y56838096D01*
X12231009Y56838096D02*
X12326247Y56885715D01*
X12326247Y56885715D02*
X12564342Y56885715D01*
X12564342Y56885715D02*
X12659580Y56838096D01*
X12659580Y56838096D02*
X12707200Y56790477D01*
X12707200Y56790477D02*
X12754819Y56695239D01*
X12754819Y56695239D02*
X12754819Y56457144D01*
X12754819Y56457144D02*
X12707200Y56361906D01*
X12707200Y56361906D02*
X12659580Y56314287D01*
X3288095Y3245181D02*
X3288095Y4245181D01*
X3288095Y3768991D02*
X3859523Y3768991D01*
X3859523Y3245181D02*
X3859523Y4245181D01*
X4240476Y4245181D02*
X4859523Y4245181D01*
X4859523Y4245181D02*
X4526190Y3864229D01*
X4526190Y3864229D02*
X4669047Y3864229D01*
X4669047Y3864229D02*
X4764285Y3816610D01*
X4764285Y3816610D02*
X4811904Y3768991D01*
X4811904Y3768991D02*
X4859523Y3673753D01*
X4859523Y3673753D02*
X4859523Y3435658D01*
X4859523Y3435658D02*
X4811904Y3340420D01*
X4811904Y3340420D02*
X4764285Y3292800D01*
X4764285Y3292800D02*
X4669047Y3245181D01*
X4669047Y3245181D02*
X4383333Y3245181D01*
X4383333Y3245181D02*
X4288095Y3292800D01*
X4288095Y3292800D02*
X4240476Y3340420D01*
X81941009Y55282858D02*
X81988628Y55425715D01*
X81988628Y55425715D02*
X82036247Y55473334D01*
X82036247Y55473334D02*
X82131485Y55520953D01*
X82131485Y55520953D02*
X82274342Y55520953D01*
X82274342Y55520953D02*
X82369580Y55473334D01*
X82369580Y55473334D02*
X82417200Y55425715D01*
X82417200Y55425715D02*
X82464819Y55330477D01*
X82464819Y55330477D02*
X82464819Y54949525D01*
X82464819Y54949525D02*
X81464819Y54949525D01*
X81464819Y54949525D02*
X81464819Y55282858D01*
X81464819Y55282858D02*
X81512438Y55378096D01*
X81512438Y55378096D02*
X81560057Y55425715D01*
X81560057Y55425715D02*
X81655295Y55473334D01*
X81655295Y55473334D02*
X81750533Y55473334D01*
X81750533Y55473334D02*
X81845771Y55425715D01*
X81845771Y55425715D02*
X81893390Y55378096D01*
X81893390Y55378096D02*
X81941009Y55282858D01*
X81941009Y55282858D02*
X81941009Y54949525D01*
X82369580Y56520953D02*
X82417200Y56473334D01*
X82417200Y56473334D02*
X82464819Y56330477D01*
X82464819Y56330477D02*
X82464819Y56235239D01*
X82464819Y56235239D02*
X82417200Y56092382D01*
X82417200Y56092382D02*
X82321961Y55997144D01*
X82321961Y55997144D02*
X82226723Y55949525D01*
X82226723Y55949525D02*
X82036247Y55901906D01*
X82036247Y55901906D02*
X81893390Y55901906D01*
X81893390Y55901906D02*
X81702914Y55949525D01*
X81702914Y55949525D02*
X81607676Y55997144D01*
X81607676Y55997144D02*
X81512438Y56092382D01*
X81512438Y56092382D02*
X81464819Y56235239D01*
X81464819Y56235239D02*
X81464819Y56330477D01*
X81464819Y56330477D02*
X81512438Y56473334D01*
X81512438Y56473334D02*
X81560057Y56520953D01*
X81464819Y57425715D02*
X81464819Y56949525D01*
X81464819Y56949525D02*
X81941009Y56901906D01*
X81941009Y56901906D02*
X81893390Y56949525D01*
X81893390Y56949525D02*
X81845771Y57044763D01*
X81845771Y57044763D02*
X81845771Y57282858D01*
X81845771Y57282858D02*
X81893390Y57378096D01*
X81893390Y57378096D02*
X81941009Y57425715D01*
X81941009Y57425715D02*
X82036247Y57473334D01*
X82036247Y57473334D02*
X82274342Y57473334D01*
X82274342Y57473334D02*
X82369580Y57425715D01*
X82369580Y57425715D02*
X82417200Y57378096D01*
X82417200Y57378096D02*
X82464819Y57282858D01*
X82464819Y57282858D02*
X82464819Y57044763D01*
X82464819Y57044763D02*
X82417200Y56949525D01*
X82417200Y56949525D02*
X82369580Y56901906D01*
X81798152Y58330477D02*
X82464819Y58330477D01*
X81417200Y58092382D02*
X82131485Y57854287D01*
X82131485Y57854287D02*
X82131485Y58473334D01*
X81464819Y59282858D02*
X81464819Y59092382D01*
X81464819Y59092382D02*
X81512438Y58997144D01*
X81512438Y58997144D02*
X81560057Y58949525D01*
X81560057Y58949525D02*
X81702914Y58854287D01*
X81702914Y58854287D02*
X81893390Y58806668D01*
X81893390Y58806668D02*
X82274342Y58806668D01*
X82274342Y58806668D02*
X82369580Y58854287D01*
X82369580Y58854287D02*
X82417200Y58901906D01*
X82417200Y58901906D02*
X82464819Y58997144D01*
X82464819Y58997144D02*
X82464819Y59187620D01*
X82464819Y59187620D02*
X82417200Y59282858D01*
X82417200Y59282858D02*
X82369580Y59330477D01*
X82369580Y59330477D02*
X82274342Y59378096D01*
X82274342Y59378096D02*
X82036247Y59378096D01*
X82036247Y59378096D02*
X81941009Y59330477D01*
X81941009Y59330477D02*
X81893390Y59282858D01*
X81893390Y59282858D02*
X81845771Y59187620D01*
X81845771Y59187620D02*
X81845771Y58997144D01*
X81845771Y58997144D02*
X81893390Y58901906D01*
X81893390Y58901906D02*
X81941009Y58854287D01*
X81941009Y58854287D02*
X82036247Y58806668D01*
X85350057Y57044762D02*
X85302438Y56949524D01*
X85302438Y56949524D02*
X85207200Y56854286D01*
X85207200Y56854286D02*
X85064342Y56711429D01*
X85064342Y56711429D02*
X85016723Y56616191D01*
X85016723Y56616191D02*
X85016723Y56520953D01*
X85254819Y56568572D02*
X85207200Y56473334D01*
X85207200Y56473334D02*
X85111961Y56378096D01*
X85111961Y56378096D02*
X84921485Y56330477D01*
X84921485Y56330477D02*
X84588152Y56330477D01*
X84588152Y56330477D02*
X84397676Y56378096D01*
X84397676Y56378096D02*
X84302438Y56473334D01*
X84302438Y56473334D02*
X84254819Y56568572D01*
X84254819Y56568572D02*
X84254819Y56759048D01*
X84254819Y56759048D02*
X84302438Y56854286D01*
X84302438Y56854286D02*
X84397676Y56949524D01*
X84397676Y56949524D02*
X84588152Y56997143D01*
X84588152Y56997143D02*
X84921485Y56997143D01*
X84921485Y56997143D02*
X85111961Y56949524D01*
X85111961Y56949524D02*
X85207200Y56854286D01*
X85207200Y56854286D02*
X85254819Y56759048D01*
X85254819Y56759048D02*
X85254819Y56568572D01*
X85254819Y57949524D02*
X85254819Y57378096D01*
X85254819Y57663810D02*
X84254819Y57663810D01*
X84254819Y57663810D02*
X84397676Y57568572D01*
X84397676Y57568572D02*
X84492914Y57473334D01*
X84492914Y57473334D02*
X84540533Y57378096D01*
X91704819Y85457143D02*
X91704819Y84885715D01*
X91704819Y85171429D02*
X90704819Y85171429D01*
X90704819Y85171429D02*
X90847676Y85076191D01*
X90847676Y85076191D02*
X90942914Y84980953D01*
X90942914Y84980953D02*
X90990533Y84885715D01*
X90704819Y86076191D02*
X90704819Y86171429D01*
X90704819Y86171429D02*
X90752438Y86266667D01*
X90752438Y86266667D02*
X90800057Y86314286D01*
X90800057Y86314286D02*
X90895295Y86361905D01*
X90895295Y86361905D02*
X91085771Y86409524D01*
X91085771Y86409524D02*
X91323866Y86409524D01*
X91323866Y86409524D02*
X91514342Y86361905D01*
X91514342Y86361905D02*
X91609580Y86314286D01*
X91609580Y86314286D02*
X91657200Y86266667D01*
X91657200Y86266667D02*
X91704819Y86171429D01*
X91704819Y86171429D02*
X91704819Y86076191D01*
X91704819Y86076191D02*
X91657200Y85980953D01*
X91657200Y85980953D02*
X91609580Y85933334D01*
X91609580Y85933334D02*
X91514342Y85885715D01*
X91514342Y85885715D02*
X91323866Y85838096D01*
X91323866Y85838096D02*
X91085771Y85838096D01*
X91085771Y85838096D02*
X90895295Y85885715D01*
X90895295Y85885715D02*
X90800057Y85933334D01*
X90800057Y85933334D02*
X90752438Y85980953D01*
X90752438Y85980953D02*
X90704819Y86076191D01*
X91038152Y87266667D02*
X91704819Y87266667D01*
X91038152Y86838096D02*
X91561961Y86838096D01*
X91561961Y86838096D02*
X91657200Y86885715D01*
X91657200Y86885715D02*
X91704819Y86980953D01*
X91704819Y86980953D02*
X91704819Y87123810D01*
X91704819Y87123810D02*
X91657200Y87219048D01*
X91657200Y87219048D02*
X91609580Y87266667D01*
X94159580Y85933334D02*
X94207200Y85885715D01*
X94207200Y85885715D02*
X94254819Y85742858D01*
X94254819Y85742858D02*
X94254819Y85647620D01*
X94254819Y85647620D02*
X94207200Y85504763D01*
X94207200Y85504763D02*
X94111961Y85409525D01*
X94111961Y85409525D02*
X94016723Y85361906D01*
X94016723Y85361906D02*
X93826247Y85314287D01*
X93826247Y85314287D02*
X93683390Y85314287D01*
X93683390Y85314287D02*
X93492914Y85361906D01*
X93492914Y85361906D02*
X93397676Y85409525D01*
X93397676Y85409525D02*
X93302438Y85504763D01*
X93302438Y85504763D02*
X93254819Y85647620D01*
X93254819Y85647620D02*
X93254819Y85742858D01*
X93254819Y85742858D02*
X93302438Y85885715D01*
X93302438Y85885715D02*
X93350057Y85933334D01*
X93254819Y86790477D02*
X93254819Y86600001D01*
X93254819Y86600001D02*
X93302438Y86504763D01*
X93302438Y86504763D02*
X93350057Y86457144D01*
X93350057Y86457144D02*
X93492914Y86361906D01*
X93492914Y86361906D02*
X93683390Y86314287D01*
X93683390Y86314287D02*
X94064342Y86314287D01*
X94064342Y86314287D02*
X94159580Y86361906D01*
X94159580Y86361906D02*
X94207200Y86409525D01*
X94207200Y86409525D02*
X94254819Y86504763D01*
X94254819Y86504763D02*
X94254819Y86695239D01*
X94254819Y86695239D02*
X94207200Y86790477D01*
X94207200Y86790477D02*
X94159580Y86838096D01*
X94159580Y86838096D02*
X94064342Y86885715D01*
X94064342Y86885715D02*
X93826247Y86885715D01*
X93826247Y86885715D02*
X93731009Y86838096D01*
X93731009Y86838096D02*
X93683390Y86790477D01*
X93683390Y86790477D02*
X93635771Y86695239D01*
X93635771Y86695239D02*
X93635771Y86504763D01*
X93635771Y86504763D02*
X93683390Y86409525D01*
X93683390Y86409525D02*
X93731009Y86361906D01*
X93731009Y86361906D02*
X93826247Y86314287D01*
X20454819Y44235238D02*
X20454819Y43759048D01*
X20454819Y43759048D02*
X19454819Y43759048D01*
X20454819Y44568572D02*
X19454819Y44568572D01*
X19454819Y44568572D02*
X20169104Y44901905D01*
X20169104Y44901905D02*
X19454819Y45235238D01*
X19454819Y45235238D02*
X20454819Y45235238D01*
X19454819Y45616191D02*
X19454819Y46235238D01*
X19454819Y46235238D02*
X19835771Y45901905D01*
X19835771Y45901905D02*
X19835771Y46044762D01*
X19835771Y46044762D02*
X19883390Y46140000D01*
X19883390Y46140000D02*
X19931009Y46187619D01*
X19931009Y46187619D02*
X20026247Y46235238D01*
X20026247Y46235238D02*
X20264342Y46235238D01*
X20264342Y46235238D02*
X20359580Y46187619D01*
X20359580Y46187619D02*
X20407200Y46140000D01*
X20407200Y46140000D02*
X20454819Y46044762D01*
X20454819Y46044762D02*
X20454819Y45759048D01*
X20454819Y45759048D02*
X20407200Y45663810D01*
X20407200Y45663810D02*
X20359580Y45616191D01*
X19454819Y47140000D02*
X19454819Y46663810D01*
X19454819Y46663810D02*
X19931009Y46616191D01*
X19931009Y46616191D02*
X19883390Y46663810D01*
X19883390Y46663810D02*
X19835771Y46759048D01*
X19835771Y46759048D02*
X19835771Y46997143D01*
X19835771Y46997143D02*
X19883390Y47092381D01*
X19883390Y47092381D02*
X19931009Y47140000D01*
X19931009Y47140000D02*
X20026247Y47187619D01*
X20026247Y47187619D02*
X20264342Y47187619D01*
X20264342Y47187619D02*
X20359580Y47140000D01*
X20359580Y47140000D02*
X20407200Y47092381D01*
X20407200Y47092381D02*
X20454819Y46997143D01*
X20454819Y46997143D02*
X20454819Y46759048D01*
X20454819Y46759048D02*
X20407200Y46663810D01*
X20407200Y46663810D02*
X20359580Y46616191D01*
X19454819Y47806667D02*
X19454819Y47901905D01*
X19454819Y47901905D02*
X19502438Y47997143D01*
X19502438Y47997143D02*
X19550057Y48044762D01*
X19550057Y48044762D02*
X19645295Y48092381D01*
X19645295Y48092381D02*
X19835771Y48140000D01*
X19835771Y48140000D02*
X20073866Y48140000D01*
X20073866Y48140000D02*
X20264342Y48092381D01*
X20264342Y48092381D02*
X20359580Y48044762D01*
X20359580Y48044762D02*
X20407200Y47997143D01*
X20407200Y47997143D02*
X20454819Y47901905D01*
X20454819Y47901905D02*
X20454819Y47806667D01*
X20454819Y47806667D02*
X20407200Y47711429D01*
X20407200Y47711429D02*
X20359580Y47663810D01*
X20359580Y47663810D02*
X20264342Y47616191D01*
X20264342Y47616191D02*
X20073866Y47568572D01*
X20073866Y47568572D02*
X19835771Y47568572D01*
X19835771Y47568572D02*
X19645295Y47616191D01*
X19645295Y47616191D02*
X19550057Y47663810D01*
X19550057Y47663810D02*
X19502438Y47711429D01*
X19502438Y47711429D02*
X19454819Y47806667D01*
X20550057Y48330476D02*
X20550057Y49092381D01*
X19454819Y49187620D02*
X19454819Y49759048D01*
X20454819Y49473334D02*
X19454819Y49473334D01*
X19454819Y50282858D02*
X19454819Y50473334D01*
X19454819Y50473334D02*
X19502438Y50568572D01*
X19502438Y50568572D02*
X19597676Y50663810D01*
X19597676Y50663810D02*
X19788152Y50711429D01*
X19788152Y50711429D02*
X20121485Y50711429D01*
X20121485Y50711429D02*
X20311961Y50663810D01*
X20311961Y50663810D02*
X20407200Y50568572D01*
X20407200Y50568572D02*
X20454819Y50473334D01*
X20454819Y50473334D02*
X20454819Y50282858D01*
X20454819Y50282858D02*
X20407200Y50187620D01*
X20407200Y50187620D02*
X20311961Y50092382D01*
X20311961Y50092382D02*
X20121485Y50044763D01*
X20121485Y50044763D02*
X19788152Y50044763D01*
X19788152Y50044763D02*
X19597676Y50092382D01*
X19597676Y50092382D02*
X19502438Y50187620D01*
X19502438Y50187620D02*
X19454819Y50282858D01*
X19550057Y51092382D02*
X19502438Y51140001D01*
X19502438Y51140001D02*
X19454819Y51235239D01*
X19454819Y51235239D02*
X19454819Y51473334D01*
X19454819Y51473334D02*
X19502438Y51568572D01*
X19502438Y51568572D02*
X19550057Y51616191D01*
X19550057Y51616191D02*
X19645295Y51663810D01*
X19645295Y51663810D02*
X19740533Y51663810D01*
X19740533Y51663810D02*
X19883390Y51616191D01*
X19883390Y51616191D02*
X20454819Y51044763D01*
X20454819Y51044763D02*
X20454819Y51663810D01*
X19550057Y52044763D02*
X19502438Y52092382D01*
X19502438Y52092382D02*
X19454819Y52187620D01*
X19454819Y52187620D02*
X19454819Y52425715D01*
X19454819Y52425715D02*
X19502438Y52520953D01*
X19502438Y52520953D02*
X19550057Y52568572D01*
X19550057Y52568572D02*
X19645295Y52616191D01*
X19645295Y52616191D02*
X19740533Y52616191D01*
X19740533Y52616191D02*
X19883390Y52568572D01*
X19883390Y52568572D02*
X20454819Y51997144D01*
X20454819Y51997144D02*
X20454819Y52616191D01*
X19454819Y53235239D02*
X19454819Y53330477D01*
X19454819Y53330477D02*
X19502438Y53425715D01*
X19502438Y53425715D02*
X19550057Y53473334D01*
X19550057Y53473334D02*
X19645295Y53520953D01*
X19645295Y53520953D02*
X19835771Y53568572D01*
X19835771Y53568572D02*
X20073866Y53568572D01*
X20073866Y53568572D02*
X20264342Y53520953D01*
X20264342Y53520953D02*
X20359580Y53473334D01*
X20359580Y53473334D02*
X20407200Y53425715D01*
X20407200Y53425715D02*
X20454819Y53330477D01*
X20454819Y53330477D02*
X20454819Y53235239D01*
X20454819Y53235239D02*
X20407200Y53140001D01*
X20407200Y53140001D02*
X20359580Y53092382D01*
X20359580Y53092382D02*
X20264342Y53044763D01*
X20264342Y53044763D02*
X20073866Y52997144D01*
X20073866Y52997144D02*
X19835771Y52997144D01*
X19835771Y52997144D02*
X19645295Y53044763D01*
X19645295Y53044763D02*
X19550057Y53092382D01*
X19550057Y53092382D02*
X19502438Y53140001D01*
X19502438Y53140001D02*
X19454819Y53235239D01*
X22604819Y47878096D02*
X23414342Y47878096D01*
X23414342Y47878096D02*
X23509580Y47925715D01*
X23509580Y47925715D02*
X23557200Y47973334D01*
X23557200Y47973334D02*
X23604819Y48068572D01*
X23604819Y48068572D02*
X23604819Y48259048D01*
X23604819Y48259048D02*
X23557200Y48354286D01*
X23557200Y48354286D02*
X23509580Y48401905D01*
X23509580Y48401905D02*
X23414342Y48449524D01*
X23414342Y48449524D02*
X22604819Y48449524D01*
X23604819Y49449524D02*
X23604819Y48878096D01*
X23604819Y49163810D02*
X22604819Y49163810D01*
X22604819Y49163810D02*
X22747676Y49068572D01*
X22747676Y49068572D02*
X22842914Y48973334D01*
X22842914Y48973334D02*
X22890533Y48878096D01*
X83085714Y95549943D02*
X83133333Y95597562D01*
X83133333Y95597562D02*
X83228571Y95645181D01*
X83228571Y95645181D02*
X83466666Y95645181D01*
X83466666Y95645181D02*
X83561904Y95597562D01*
X83561904Y95597562D02*
X83609523Y95549943D01*
X83609523Y95549943D02*
X83657142Y95454705D01*
X83657142Y95454705D02*
X83657142Y95359467D01*
X83657142Y95359467D02*
X83609523Y95216610D01*
X83609523Y95216610D02*
X83038095Y94645181D01*
X83038095Y94645181D02*
X83657142Y94645181D01*
X84038095Y95549943D02*
X84085714Y95597562D01*
X84085714Y95597562D02*
X84180952Y95645181D01*
X84180952Y95645181D02*
X84419047Y95645181D01*
X84419047Y95645181D02*
X84514285Y95597562D01*
X84514285Y95597562D02*
X84561904Y95549943D01*
X84561904Y95549943D02*
X84609523Y95454705D01*
X84609523Y95454705D02*
X84609523Y95359467D01*
X84609523Y95359467D02*
X84561904Y95216610D01*
X84561904Y95216610D02*
X83990476Y94645181D01*
X83990476Y94645181D02*
X84609523Y94645181D01*
X85038095Y95311848D02*
X85038095Y94645181D01*
X85038095Y95216610D02*
X85085714Y95264229D01*
X85085714Y95264229D02*
X85180952Y95311848D01*
X85180952Y95311848D02*
X85323809Y95311848D01*
X85323809Y95311848D02*
X85419047Y95264229D01*
X85419047Y95264229D02*
X85466666Y95168991D01*
X85466666Y95168991D02*
X85466666Y94645181D01*
X84133333Y91240420D02*
X84085714Y91192800D01*
X84085714Y91192800D02*
X83942857Y91145181D01*
X83942857Y91145181D02*
X83847619Y91145181D01*
X83847619Y91145181D02*
X83704762Y91192800D01*
X83704762Y91192800D02*
X83609524Y91288039D01*
X83609524Y91288039D02*
X83561905Y91383277D01*
X83561905Y91383277D02*
X83514286Y91573753D01*
X83514286Y91573753D02*
X83514286Y91716610D01*
X83514286Y91716610D02*
X83561905Y91907086D01*
X83561905Y91907086D02*
X83609524Y92002324D01*
X83609524Y92002324D02*
X83704762Y92097562D01*
X83704762Y92097562D02*
X83847619Y92145181D01*
X83847619Y92145181D02*
X83942857Y92145181D01*
X83942857Y92145181D02*
X84085714Y92097562D01*
X84085714Y92097562D02*
X84133333Y92049943D01*
X85038095Y92145181D02*
X84561905Y92145181D01*
X84561905Y92145181D02*
X84514286Y91668991D01*
X84514286Y91668991D02*
X84561905Y91716610D01*
X84561905Y91716610D02*
X84657143Y91764229D01*
X84657143Y91764229D02*
X84895238Y91764229D01*
X84895238Y91764229D02*
X84990476Y91716610D01*
X84990476Y91716610D02*
X85038095Y91668991D01*
X85038095Y91668991D02*
X85085714Y91573753D01*
X85085714Y91573753D02*
X85085714Y91335658D01*
X85085714Y91335658D02*
X85038095Y91240420D01*
X85038095Y91240420D02*
X84990476Y91192800D01*
X84990476Y91192800D02*
X84895238Y91145181D01*
X84895238Y91145181D02*
X84657143Y91145181D01*
X84657143Y91145181D02*
X84561905Y91192800D01*
X84561905Y91192800D02*
X84514286Y91240420D01*
D11*
X59583333Y3073891D02*
X59583333Y2716748D01*
X59583333Y2716748D02*
X59559524Y2645320D01*
X59559524Y2645320D02*
X59511905Y2597700D01*
X59511905Y2597700D02*
X59440476Y2573891D01*
X59440476Y2573891D02*
X59392857Y2573891D01*
X60035714Y2907224D02*
X60035714Y2573891D01*
X59916666Y3097700D02*
X59797619Y2740558D01*
X59797619Y2740558D02*
X60107142Y2740558D01*
D10*
X88323809Y7145181D02*
X88323809Y8145181D01*
X88323809Y8145181D02*
X88704761Y8145181D01*
X88704761Y8145181D02*
X88799999Y8097562D01*
X88799999Y8097562D02*
X88847618Y8049943D01*
X88847618Y8049943D02*
X88895237Y7954705D01*
X88895237Y7954705D02*
X88895237Y7811848D01*
X88895237Y7811848D02*
X88847618Y7716610D01*
X88847618Y7716610D02*
X88799999Y7668991D01*
X88799999Y7668991D02*
X88704761Y7621372D01*
X88704761Y7621372D02*
X88323809Y7621372D01*
X89466666Y7145181D02*
X89371428Y7192800D01*
X89371428Y7192800D02*
X89323809Y7240420D01*
X89323809Y7240420D02*
X89276190Y7335658D01*
X89276190Y7335658D02*
X89276190Y7621372D01*
X89276190Y7621372D02*
X89323809Y7716610D01*
X89323809Y7716610D02*
X89371428Y7764229D01*
X89371428Y7764229D02*
X89466666Y7811848D01*
X89466666Y7811848D02*
X89609523Y7811848D01*
X89609523Y7811848D02*
X89704761Y7764229D01*
X89704761Y7764229D02*
X89752380Y7716610D01*
X89752380Y7716610D02*
X89799999Y7621372D01*
X89799999Y7621372D02*
X89799999Y7335658D01*
X89799999Y7335658D02*
X89752380Y7240420D01*
X89752380Y7240420D02*
X89704761Y7192800D01*
X89704761Y7192800D02*
X89609523Y7145181D01*
X89609523Y7145181D02*
X89466666Y7145181D01*
X90133333Y7811848D02*
X90323809Y7145181D01*
X90323809Y7145181D02*
X90514285Y7621372D01*
X90514285Y7621372D02*
X90704761Y7145181D01*
X90704761Y7145181D02*
X90895237Y7811848D01*
X91657142Y7192800D02*
X91561904Y7145181D01*
X91561904Y7145181D02*
X91371428Y7145181D01*
X91371428Y7145181D02*
X91276190Y7192800D01*
X91276190Y7192800D02*
X91228571Y7288039D01*
X91228571Y7288039D02*
X91228571Y7668991D01*
X91228571Y7668991D02*
X91276190Y7764229D01*
X91276190Y7764229D02*
X91371428Y7811848D01*
X91371428Y7811848D02*
X91561904Y7811848D01*
X91561904Y7811848D02*
X91657142Y7764229D01*
X91657142Y7764229D02*
X91704761Y7668991D01*
X91704761Y7668991D02*
X91704761Y7573753D01*
X91704761Y7573753D02*
X91228571Y7478515D01*
X92133333Y7145181D02*
X92133333Y7811848D01*
X92133333Y7621372D02*
X92180952Y7716610D01*
X92180952Y7716610D02*
X92228571Y7764229D01*
X92228571Y7764229D02*
X92323809Y7811848D01*
X92323809Y7811848D02*
X92419047Y7811848D01*
X91902857Y65458991D02*
X92045714Y65411372D01*
X92045714Y65411372D02*
X92093333Y65363753D01*
X92093333Y65363753D02*
X92140952Y65268515D01*
X92140952Y65268515D02*
X92140952Y65125658D01*
X92140952Y65125658D02*
X92093333Y65030420D01*
X92093333Y65030420D02*
X92045714Y64982800D01*
X92045714Y64982800D02*
X91950476Y64935181D01*
X91950476Y64935181D02*
X91569524Y64935181D01*
X91569524Y64935181D02*
X91569524Y65935181D01*
X91569524Y65935181D02*
X91902857Y65935181D01*
X91902857Y65935181D02*
X91998095Y65887562D01*
X91998095Y65887562D02*
X92045714Y65839943D01*
X92045714Y65839943D02*
X92093333Y65744705D01*
X92093333Y65744705D02*
X92093333Y65649467D01*
X92093333Y65649467D02*
X92045714Y65554229D01*
X92045714Y65554229D02*
X91998095Y65506610D01*
X91998095Y65506610D02*
X91902857Y65458991D01*
X91902857Y65458991D02*
X91569524Y65458991D01*
X93140952Y65030420D02*
X93093333Y64982800D01*
X93093333Y64982800D02*
X92950476Y64935181D01*
X92950476Y64935181D02*
X92855238Y64935181D01*
X92855238Y64935181D02*
X92712381Y64982800D01*
X92712381Y64982800D02*
X92617143Y65078039D01*
X92617143Y65078039D02*
X92569524Y65173277D01*
X92569524Y65173277D02*
X92521905Y65363753D01*
X92521905Y65363753D02*
X92521905Y65506610D01*
X92521905Y65506610D02*
X92569524Y65697086D01*
X92569524Y65697086D02*
X92617143Y65792324D01*
X92617143Y65792324D02*
X92712381Y65887562D01*
X92712381Y65887562D02*
X92855238Y65935181D01*
X92855238Y65935181D02*
X92950476Y65935181D01*
X92950476Y65935181D02*
X93093333Y65887562D01*
X93093333Y65887562D02*
X93140952Y65839943D01*
X94045714Y65935181D02*
X93569524Y65935181D01*
X93569524Y65935181D02*
X93521905Y65458991D01*
X93521905Y65458991D02*
X93569524Y65506610D01*
X93569524Y65506610D02*
X93664762Y65554229D01*
X93664762Y65554229D02*
X93902857Y65554229D01*
X93902857Y65554229D02*
X93998095Y65506610D01*
X93998095Y65506610D02*
X94045714Y65458991D01*
X94045714Y65458991D02*
X94093333Y65363753D01*
X94093333Y65363753D02*
X94093333Y65125658D01*
X94093333Y65125658D02*
X94045714Y65030420D01*
X94045714Y65030420D02*
X93998095Y64982800D01*
X93998095Y64982800D02*
X93902857Y64935181D01*
X93902857Y64935181D02*
X93664762Y64935181D01*
X93664762Y64935181D02*
X93569524Y64982800D01*
X93569524Y64982800D02*
X93521905Y65030420D01*
X94950476Y65601848D02*
X94950476Y64935181D01*
X94712381Y65982800D02*
X94474286Y65268515D01*
X94474286Y65268515D02*
X95093333Y65268515D01*
X95902857Y65935181D02*
X95712381Y65935181D01*
X95712381Y65935181D02*
X95617143Y65887562D01*
X95617143Y65887562D02*
X95569524Y65839943D01*
X95569524Y65839943D02*
X95474286Y65697086D01*
X95474286Y65697086D02*
X95426667Y65506610D01*
X95426667Y65506610D02*
X95426667Y65125658D01*
X95426667Y65125658D02*
X95474286Y65030420D01*
X95474286Y65030420D02*
X95521905Y64982800D01*
X95521905Y64982800D02*
X95617143Y64935181D01*
X95617143Y64935181D02*
X95807619Y64935181D01*
X95807619Y64935181D02*
X95902857Y64982800D01*
X95902857Y64982800D02*
X95950476Y65030420D01*
X95950476Y65030420D02*
X95998095Y65125658D01*
X95998095Y65125658D02*
X95998095Y65363753D01*
X95998095Y65363753D02*
X95950476Y65458991D01*
X95950476Y65458991D02*
X95902857Y65506610D01*
X95902857Y65506610D02*
X95807619Y65554229D01*
X95807619Y65554229D02*
X95617143Y65554229D01*
X95617143Y65554229D02*
X95521905Y65506610D01*
X95521905Y65506610D02*
X95474286Y65458991D01*
X95474286Y65458991D02*
X95426667Y65363753D01*
X93664761Y62049943D02*
X93569523Y62097562D01*
X93569523Y62097562D02*
X93474285Y62192800D01*
X93474285Y62192800D02*
X93331428Y62335658D01*
X93331428Y62335658D02*
X93236190Y62383277D01*
X93236190Y62383277D02*
X93140952Y62383277D01*
X93188571Y62145181D02*
X93093333Y62192800D01*
X93093333Y62192800D02*
X92998095Y62288039D01*
X92998095Y62288039D02*
X92950476Y62478515D01*
X92950476Y62478515D02*
X92950476Y62811848D01*
X92950476Y62811848D02*
X92998095Y63002324D01*
X92998095Y63002324D02*
X93093333Y63097562D01*
X93093333Y63097562D02*
X93188571Y63145181D01*
X93188571Y63145181D02*
X93379047Y63145181D01*
X93379047Y63145181D02*
X93474285Y63097562D01*
X93474285Y63097562D02*
X93569523Y63002324D01*
X93569523Y63002324D02*
X93617142Y62811848D01*
X93617142Y62811848D02*
X93617142Y62478515D01*
X93617142Y62478515D02*
X93569523Y62288039D01*
X93569523Y62288039D02*
X93474285Y62192800D01*
X93474285Y62192800D02*
X93379047Y62145181D01*
X93379047Y62145181D02*
X93188571Y62145181D01*
X93998095Y63049943D02*
X94045714Y63097562D01*
X94045714Y63097562D02*
X94140952Y63145181D01*
X94140952Y63145181D02*
X94379047Y63145181D01*
X94379047Y63145181D02*
X94474285Y63097562D01*
X94474285Y63097562D02*
X94521904Y63049943D01*
X94521904Y63049943D02*
X94569523Y62954705D01*
X94569523Y62954705D02*
X94569523Y62859467D01*
X94569523Y62859467D02*
X94521904Y62716610D01*
X94521904Y62716610D02*
X93950476Y62145181D01*
X93950476Y62145181D02*
X94569523Y62145181D01*
X84133333Y83775181D02*
X83561905Y83775181D01*
X83847619Y83775181D02*
X83847619Y84775181D01*
X83847619Y84775181D02*
X83752381Y84632324D01*
X83752381Y84632324D02*
X83657143Y84537086D01*
X83657143Y84537086D02*
X83561905Y84489467D01*
X85038095Y84775181D02*
X84561905Y84775181D01*
X84561905Y84775181D02*
X84514286Y84298991D01*
X84514286Y84298991D02*
X84561905Y84346610D01*
X84561905Y84346610D02*
X84657143Y84394229D01*
X84657143Y84394229D02*
X84895238Y84394229D01*
X84895238Y84394229D02*
X84990476Y84346610D01*
X84990476Y84346610D02*
X85038095Y84298991D01*
X85038095Y84298991D02*
X85085714Y84203753D01*
X85085714Y84203753D02*
X85085714Y83965658D01*
X85085714Y83965658D02*
X85038095Y83870420D01*
X85038095Y83870420D02*
X84990476Y83822800D01*
X84990476Y83822800D02*
X84895238Y83775181D01*
X84895238Y83775181D02*
X84657143Y83775181D01*
X84657143Y83775181D02*
X84561905Y83822800D01*
X84561905Y83822800D02*
X84514286Y83870420D01*
X85704762Y84775181D02*
X85800000Y84775181D01*
X85800000Y84775181D02*
X85895238Y84727562D01*
X85895238Y84727562D02*
X85942857Y84679943D01*
X85942857Y84679943D02*
X85990476Y84584705D01*
X85990476Y84584705D02*
X86038095Y84394229D01*
X86038095Y84394229D02*
X86038095Y84156134D01*
X86038095Y84156134D02*
X85990476Y83965658D01*
X85990476Y83965658D02*
X85942857Y83870420D01*
X85942857Y83870420D02*
X85895238Y83822800D01*
X85895238Y83822800D02*
X85800000Y83775181D01*
X85800000Y83775181D02*
X85704762Y83775181D01*
X85704762Y83775181D02*
X85609524Y83822800D01*
X85609524Y83822800D02*
X85561905Y83870420D01*
X85561905Y83870420D02*
X85514286Y83965658D01*
X85514286Y83965658D02*
X85466667Y84156134D01*
X85466667Y84156134D02*
X85466667Y84394229D01*
X85466667Y84394229D02*
X85514286Y84584705D01*
X85514286Y84584705D02*
X85561905Y84679943D01*
X85561905Y84679943D02*
X85609524Y84727562D01*
X85609524Y84727562D02*
X85704762Y84775181D01*
X84633333Y86145181D02*
X84300000Y86621372D01*
X84061905Y86145181D02*
X84061905Y87145181D01*
X84061905Y87145181D02*
X84442857Y87145181D01*
X84442857Y87145181D02*
X84538095Y87097562D01*
X84538095Y87097562D02*
X84585714Y87049943D01*
X84585714Y87049943D02*
X84633333Y86954705D01*
X84633333Y86954705D02*
X84633333Y86811848D01*
X84633333Y86811848D02*
X84585714Y86716610D01*
X84585714Y86716610D02*
X84538095Y86668991D01*
X84538095Y86668991D02*
X84442857Y86621372D01*
X84442857Y86621372D02*
X84061905Y86621372D01*
X85204762Y86716610D02*
X85109524Y86764229D01*
X85109524Y86764229D02*
X85061905Y86811848D01*
X85061905Y86811848D02*
X85014286Y86907086D01*
X85014286Y86907086D02*
X85014286Y86954705D01*
X85014286Y86954705D02*
X85061905Y87049943D01*
X85061905Y87049943D02*
X85109524Y87097562D01*
X85109524Y87097562D02*
X85204762Y87145181D01*
X85204762Y87145181D02*
X85395238Y87145181D01*
X85395238Y87145181D02*
X85490476Y87097562D01*
X85490476Y87097562D02*
X85538095Y87049943D01*
X85538095Y87049943D02*
X85585714Y86954705D01*
X85585714Y86954705D02*
X85585714Y86907086D01*
X85585714Y86907086D02*
X85538095Y86811848D01*
X85538095Y86811848D02*
X85490476Y86764229D01*
X85490476Y86764229D02*
X85395238Y86716610D01*
X85395238Y86716610D02*
X85204762Y86716610D01*
X85204762Y86716610D02*
X85109524Y86668991D01*
X85109524Y86668991D02*
X85061905Y86621372D01*
X85061905Y86621372D02*
X85014286Y86526134D01*
X85014286Y86526134D02*
X85014286Y86335658D01*
X85014286Y86335658D02*
X85061905Y86240420D01*
X85061905Y86240420D02*
X85109524Y86192800D01*
X85109524Y86192800D02*
X85204762Y86145181D01*
X85204762Y86145181D02*
X85395238Y86145181D01*
X85395238Y86145181D02*
X85490476Y86192800D01*
X85490476Y86192800D02*
X85538095Y86240420D01*
X85538095Y86240420D02*
X85585714Y86335658D01*
X85585714Y86335658D02*
X85585714Y86526134D01*
X85585714Y86526134D02*
X85538095Y86621372D01*
X85538095Y86621372D02*
X85490476Y86668991D01*
X85490476Y86668991D02*
X85395238Y86716610D01*
X84407142Y45675181D02*
X83835714Y45675181D01*
X84121428Y45675181D02*
X84121428Y46675181D01*
X84121428Y46675181D02*
X84026190Y46532324D01*
X84026190Y46532324D02*
X83930952Y46437086D01*
X83930952Y46437086D02*
X83835714Y46389467D01*
X84835714Y45675181D02*
X84835714Y46675181D01*
X84835714Y46675181D02*
X85407142Y45675181D01*
X85407142Y45675181D02*
X85407142Y46675181D01*
X86311904Y46341848D02*
X86311904Y45675181D01*
X86073809Y46722800D02*
X85835714Y46008515D01*
X85835714Y46008515D02*
X86454761Y46008515D01*
X87359523Y45675181D02*
X86788095Y45675181D01*
X87073809Y45675181D02*
X87073809Y46675181D01*
X87073809Y46675181D02*
X86978571Y46532324D01*
X86978571Y46532324D02*
X86883333Y46437086D01*
X86883333Y46437086D02*
X86788095Y46389467D01*
X88216666Y46341848D02*
X88216666Y45675181D01*
X87978571Y46722800D02*
X87740476Y46008515D01*
X87740476Y46008515D02*
X88359523Y46008515D01*
X88883333Y46246610D02*
X88788095Y46294229D01*
X88788095Y46294229D02*
X88740476Y46341848D01*
X88740476Y46341848D02*
X88692857Y46437086D01*
X88692857Y46437086D02*
X88692857Y46484705D01*
X88692857Y46484705D02*
X88740476Y46579943D01*
X88740476Y46579943D02*
X88788095Y46627562D01*
X88788095Y46627562D02*
X88883333Y46675181D01*
X88883333Y46675181D02*
X89073809Y46675181D01*
X89073809Y46675181D02*
X89169047Y46627562D01*
X89169047Y46627562D02*
X89216666Y46579943D01*
X89216666Y46579943D02*
X89264285Y46484705D01*
X89264285Y46484705D02*
X89264285Y46437086D01*
X89264285Y46437086D02*
X89216666Y46341848D01*
X89216666Y46341848D02*
X89169047Y46294229D01*
X89169047Y46294229D02*
X89073809Y46246610D01*
X89073809Y46246610D02*
X88883333Y46246610D01*
X88883333Y46246610D02*
X88788095Y46198991D01*
X88788095Y46198991D02*
X88740476Y46151372D01*
X88740476Y46151372D02*
X88692857Y46056134D01*
X88692857Y46056134D02*
X88692857Y45865658D01*
X88692857Y45865658D02*
X88740476Y45770420D01*
X88740476Y45770420D02*
X88788095Y45722800D01*
X88788095Y45722800D02*
X88883333Y45675181D01*
X88883333Y45675181D02*
X89073809Y45675181D01*
X89073809Y45675181D02*
X89169047Y45722800D01*
X89169047Y45722800D02*
X89216666Y45770420D01*
X89216666Y45770420D02*
X89264285Y45865658D01*
X89264285Y45865658D02*
X89264285Y46056134D01*
X89264285Y46056134D02*
X89216666Y46151372D01*
X89216666Y46151372D02*
X89169047Y46198991D01*
X89169047Y46198991D02*
X89073809Y46246610D01*
X79938095Y50045181D02*
X79938095Y51045181D01*
X80509523Y50045181D02*
X80080952Y50616610D01*
X80509523Y51045181D02*
X79938095Y50473753D01*
X86201905Y48145181D02*
X86201905Y49145181D01*
X86201905Y49145181D02*
X86440000Y49145181D01*
X86440000Y49145181D02*
X86582857Y49097562D01*
X86582857Y49097562D02*
X86678095Y49002324D01*
X86678095Y49002324D02*
X86725714Y48907086D01*
X86725714Y48907086D02*
X86773333Y48716610D01*
X86773333Y48716610D02*
X86773333Y48573753D01*
X86773333Y48573753D02*
X86725714Y48383277D01*
X86725714Y48383277D02*
X86678095Y48288039D01*
X86678095Y48288039D02*
X86582857Y48192800D01*
X86582857Y48192800D02*
X86440000Y48145181D01*
X86440000Y48145181D02*
X86201905Y48145181D01*
X87678095Y49145181D02*
X87201905Y49145181D01*
X87201905Y49145181D02*
X87154286Y48668991D01*
X87154286Y48668991D02*
X87201905Y48716610D01*
X87201905Y48716610D02*
X87297143Y48764229D01*
X87297143Y48764229D02*
X87535238Y48764229D01*
X87535238Y48764229D02*
X87630476Y48716610D01*
X87630476Y48716610D02*
X87678095Y48668991D01*
X87678095Y48668991D02*
X87725714Y48573753D01*
X87725714Y48573753D02*
X87725714Y48335658D01*
X87725714Y48335658D02*
X87678095Y48240420D01*
X87678095Y48240420D02*
X87630476Y48192800D01*
X87630476Y48192800D02*
X87535238Y48145181D01*
X87535238Y48145181D02*
X87297143Y48145181D01*
X87297143Y48145181D02*
X87201905Y48192800D01*
X87201905Y48192800D02*
X87154286Y48240420D01*
X34454819Y46464286D02*
X34454819Y45988096D01*
X34454819Y45988096D02*
X33454819Y45988096D01*
X34359580Y47369048D02*
X34407200Y47321429D01*
X34407200Y47321429D02*
X34454819Y47178572D01*
X34454819Y47178572D02*
X34454819Y47083334D01*
X34454819Y47083334D02*
X34407200Y46940477D01*
X34407200Y46940477D02*
X34311961Y46845239D01*
X34311961Y46845239D02*
X34216723Y46797620D01*
X34216723Y46797620D02*
X34026247Y46750001D01*
X34026247Y46750001D02*
X33883390Y46750001D01*
X33883390Y46750001D02*
X33692914Y46797620D01*
X33692914Y46797620D02*
X33597676Y46845239D01*
X33597676Y46845239D02*
X33502438Y46940477D01*
X33502438Y46940477D02*
X33454819Y47083334D01*
X33454819Y47083334D02*
X33454819Y47178572D01*
X33454819Y47178572D02*
X33502438Y47321429D01*
X33502438Y47321429D02*
X33550057Y47369048D01*
X34454819Y47797620D02*
X33454819Y47797620D01*
X33454819Y47797620D02*
X33454819Y48035715D01*
X33454819Y48035715D02*
X33502438Y48178572D01*
X33502438Y48178572D02*
X33597676Y48273810D01*
X33597676Y48273810D02*
X33692914Y48321429D01*
X33692914Y48321429D02*
X33883390Y48369048D01*
X33883390Y48369048D02*
X34026247Y48369048D01*
X34026247Y48369048D02*
X34216723Y48321429D01*
X34216723Y48321429D02*
X34311961Y48273810D01*
X34311961Y48273810D02*
X34407200Y48178572D01*
X34407200Y48178572D02*
X34454819Y48035715D01*
X34454819Y48035715D02*
X34454819Y47797620D01*
X34454819Y49559525D02*
X33454819Y49559525D01*
X33454819Y49559525D02*
X33454819Y49940477D01*
X33454819Y49940477D02*
X33502438Y50035715D01*
X33502438Y50035715D02*
X33550057Y50083334D01*
X33550057Y50083334D02*
X33645295Y50130953D01*
X33645295Y50130953D02*
X33788152Y50130953D01*
X33788152Y50130953D02*
X33883390Y50083334D01*
X33883390Y50083334D02*
X33931009Y50035715D01*
X33931009Y50035715D02*
X33978628Y49940477D01*
X33978628Y49940477D02*
X33978628Y49559525D01*
X34454819Y50702382D02*
X34407200Y50607144D01*
X34407200Y50607144D02*
X34359580Y50559525D01*
X34359580Y50559525D02*
X34264342Y50511906D01*
X34264342Y50511906D02*
X33978628Y50511906D01*
X33978628Y50511906D02*
X33883390Y50559525D01*
X33883390Y50559525D02*
X33835771Y50607144D01*
X33835771Y50607144D02*
X33788152Y50702382D01*
X33788152Y50702382D02*
X33788152Y50845239D01*
X33788152Y50845239D02*
X33835771Y50940477D01*
X33835771Y50940477D02*
X33883390Y50988096D01*
X33883390Y50988096D02*
X33978628Y51035715D01*
X33978628Y51035715D02*
X34264342Y51035715D01*
X34264342Y51035715D02*
X34359580Y50988096D01*
X34359580Y50988096D02*
X34407200Y50940477D01*
X34407200Y50940477D02*
X34454819Y50845239D01*
X34454819Y50845239D02*
X34454819Y50702382D01*
X33788152Y51369049D02*
X34454819Y51559525D01*
X34454819Y51559525D02*
X33978628Y51750001D01*
X33978628Y51750001D02*
X34454819Y51940477D01*
X34454819Y51940477D02*
X33788152Y52130953D01*
X34407200Y52892858D02*
X34454819Y52797620D01*
X34454819Y52797620D02*
X34454819Y52607144D01*
X34454819Y52607144D02*
X34407200Y52511906D01*
X34407200Y52511906D02*
X34311961Y52464287D01*
X34311961Y52464287D02*
X33931009Y52464287D01*
X33931009Y52464287D02*
X33835771Y52511906D01*
X33835771Y52511906D02*
X33788152Y52607144D01*
X33788152Y52607144D02*
X33788152Y52797620D01*
X33788152Y52797620D02*
X33835771Y52892858D01*
X33835771Y52892858D02*
X33931009Y52940477D01*
X33931009Y52940477D02*
X34026247Y52940477D01*
X34026247Y52940477D02*
X34121485Y52464287D01*
X34454819Y53369049D02*
X33788152Y53369049D01*
X33978628Y53369049D02*
X33883390Y53416668D01*
X33883390Y53416668D02*
X33835771Y53464287D01*
X33835771Y53464287D02*
X33788152Y53559525D01*
X33788152Y53559525D02*
X33788152Y53654763D01*
X36954819Y48921667D02*
X37669104Y48921667D01*
X37669104Y48921667D02*
X37811961Y48874048D01*
X37811961Y48874048D02*
X37907200Y48778810D01*
X37907200Y48778810D02*
X37954819Y48635953D01*
X37954819Y48635953D02*
X37954819Y48540715D01*
X37383390Y49540715D02*
X37335771Y49445477D01*
X37335771Y49445477D02*
X37288152Y49397858D01*
X37288152Y49397858D02*
X37192914Y49350239D01*
X37192914Y49350239D02*
X37145295Y49350239D01*
X37145295Y49350239D02*
X37050057Y49397858D01*
X37050057Y49397858D02*
X37002438Y49445477D01*
X37002438Y49445477D02*
X36954819Y49540715D01*
X36954819Y49540715D02*
X36954819Y49731191D01*
X36954819Y49731191D02*
X37002438Y49826429D01*
X37002438Y49826429D02*
X37050057Y49874048D01*
X37050057Y49874048D02*
X37145295Y49921667D01*
X37145295Y49921667D02*
X37192914Y49921667D01*
X37192914Y49921667D02*
X37288152Y49874048D01*
X37288152Y49874048D02*
X37335771Y49826429D01*
X37335771Y49826429D02*
X37383390Y49731191D01*
X37383390Y49731191D02*
X37383390Y49540715D01*
X37383390Y49540715D02*
X37431009Y49445477D01*
X37431009Y49445477D02*
X37478628Y49397858D01*
X37478628Y49397858D02*
X37573866Y49350239D01*
X37573866Y49350239D02*
X37764342Y49350239D01*
X37764342Y49350239D02*
X37859580Y49397858D01*
X37859580Y49397858D02*
X37907200Y49445477D01*
X37907200Y49445477D02*
X37954819Y49540715D01*
X37954819Y49540715D02*
X37954819Y49731191D01*
X37954819Y49731191D02*
X37907200Y49826429D01*
X37907200Y49826429D02*
X37859580Y49874048D01*
X37859580Y49874048D02*
X37764342Y49921667D01*
X37764342Y49921667D02*
X37573866Y49921667D01*
X37573866Y49921667D02*
X37478628Y49874048D01*
X37478628Y49874048D02*
X37431009Y49826429D01*
X37431009Y49826429D02*
X37383390Y49731191D01*
X6911904Y4868991D02*
X7245237Y4868991D01*
X7388094Y4345181D02*
X6911904Y4345181D01*
X6911904Y4345181D02*
X6911904Y5345181D01*
X6911904Y5345181D02*
X7388094Y5345181D01*
X7721428Y4345181D02*
X8245237Y5011848D01*
X7721428Y5011848D02*
X8245237Y4345181D01*
X8483333Y5011848D02*
X8864285Y5011848D01*
X8626190Y5345181D02*
X8626190Y4488039D01*
X8626190Y4488039D02*
X8673809Y4392800D01*
X8673809Y4392800D02*
X8769047Y4345181D01*
X8769047Y4345181D02*
X8864285Y4345181D01*
X9197619Y4440420D02*
X9245238Y4392800D01*
X9245238Y4392800D02*
X9197619Y4345181D01*
X9197619Y4345181D02*
X9150000Y4392800D01*
X9150000Y4392800D02*
X9197619Y4440420D01*
X9197619Y4440420D02*
X9197619Y4345181D01*
X10435714Y4345181D02*
X10435714Y5345181D01*
X10435714Y5345181D02*
X10816666Y5345181D01*
X10816666Y5345181D02*
X10911904Y5297562D01*
X10911904Y5297562D02*
X10959523Y5249943D01*
X10959523Y5249943D02*
X11007142Y5154705D01*
X11007142Y5154705D02*
X11007142Y5011848D01*
X11007142Y5011848D02*
X10959523Y4916610D01*
X10959523Y4916610D02*
X10911904Y4868991D01*
X10911904Y4868991D02*
X10816666Y4821372D01*
X10816666Y4821372D02*
X10435714Y4821372D01*
X11578571Y4345181D02*
X11483333Y4392800D01*
X11483333Y4392800D02*
X11435714Y4440420D01*
X11435714Y4440420D02*
X11388095Y4535658D01*
X11388095Y4535658D02*
X11388095Y4821372D01*
X11388095Y4821372D02*
X11435714Y4916610D01*
X11435714Y4916610D02*
X11483333Y4964229D01*
X11483333Y4964229D02*
X11578571Y5011848D01*
X11578571Y5011848D02*
X11721428Y5011848D01*
X11721428Y5011848D02*
X11816666Y4964229D01*
X11816666Y4964229D02*
X11864285Y4916610D01*
X11864285Y4916610D02*
X11911904Y4821372D01*
X11911904Y4821372D02*
X11911904Y4535658D01*
X11911904Y4535658D02*
X11864285Y4440420D01*
X11864285Y4440420D02*
X11816666Y4392800D01*
X11816666Y4392800D02*
X11721428Y4345181D01*
X11721428Y4345181D02*
X11578571Y4345181D01*
X12245238Y5011848D02*
X12435714Y4345181D01*
X12435714Y4345181D02*
X12626190Y4821372D01*
X12626190Y4821372D02*
X12816666Y4345181D01*
X12816666Y4345181D02*
X13007142Y5011848D01*
X13769047Y4392800D02*
X13673809Y4345181D01*
X13673809Y4345181D02*
X13483333Y4345181D01*
X13483333Y4345181D02*
X13388095Y4392800D01*
X13388095Y4392800D02*
X13340476Y4488039D01*
X13340476Y4488039D02*
X13340476Y4868991D01*
X13340476Y4868991D02*
X13388095Y4964229D01*
X13388095Y4964229D02*
X13483333Y5011848D01*
X13483333Y5011848D02*
X13673809Y5011848D01*
X13673809Y5011848D02*
X13769047Y4964229D01*
X13769047Y4964229D02*
X13816666Y4868991D01*
X13816666Y4868991D02*
X13816666Y4773753D01*
X13816666Y4773753D02*
X13340476Y4678515D01*
X14245238Y4345181D02*
X14245238Y5011848D01*
X14245238Y4821372D02*
X14292857Y4916610D01*
X14292857Y4916610D02*
X14340476Y4964229D01*
X14340476Y4964229D02*
X14435714Y5011848D01*
X14435714Y5011848D02*
X14530952Y5011848D01*
X15626191Y4345181D02*
X15626191Y5011848D01*
X15626191Y4916610D02*
X15673810Y4964229D01*
X15673810Y4964229D02*
X15769048Y5011848D01*
X15769048Y5011848D02*
X15911905Y5011848D01*
X15911905Y5011848D02*
X16007143Y4964229D01*
X16007143Y4964229D02*
X16054762Y4868991D01*
X16054762Y4868991D02*
X16054762Y4345181D01*
X16054762Y4868991D02*
X16102381Y4964229D01*
X16102381Y4964229D02*
X16197619Y5011848D01*
X16197619Y5011848D02*
X16340476Y5011848D01*
X16340476Y5011848D02*
X16435715Y4964229D01*
X16435715Y4964229D02*
X16483334Y4868991D01*
X16483334Y4868991D02*
X16483334Y4345181D01*
X17388095Y4345181D02*
X17388095Y4868991D01*
X17388095Y4868991D02*
X17340476Y4964229D01*
X17340476Y4964229D02*
X17245238Y5011848D01*
X17245238Y5011848D02*
X17054762Y5011848D01*
X17054762Y5011848D02*
X16959524Y4964229D01*
X17388095Y4392800D02*
X17292857Y4345181D01*
X17292857Y4345181D02*
X17054762Y4345181D01*
X17054762Y4345181D02*
X16959524Y4392800D01*
X16959524Y4392800D02*
X16911905Y4488039D01*
X16911905Y4488039D02*
X16911905Y4583277D01*
X16911905Y4583277D02*
X16959524Y4678515D01*
X16959524Y4678515D02*
X17054762Y4726134D01*
X17054762Y4726134D02*
X17292857Y4726134D01*
X17292857Y4726134D02*
X17388095Y4773753D01*
X17769048Y4345181D02*
X18292857Y5011848D01*
X17769048Y5011848D02*
X18292857Y4345181D01*
X18721429Y4392800D02*
X18721429Y4345181D01*
X18721429Y4345181D02*
X18673810Y4249943D01*
X18673810Y4249943D02*
X18626191Y4202324D01*
X19150000Y4440420D02*
X19197619Y4392800D01*
X19197619Y4392800D02*
X19150000Y4345181D01*
X19150000Y4345181D02*
X19102381Y4392800D01*
X19102381Y4392800D02*
X19150000Y4440420D01*
X19150000Y4440420D02*
X19150000Y4345181D01*
X20435714Y4345181D02*
X20626190Y4345181D01*
X20626190Y4345181D02*
X20721428Y4392800D01*
X20721428Y4392800D02*
X20769047Y4440420D01*
X20769047Y4440420D02*
X20864285Y4583277D01*
X20864285Y4583277D02*
X20911904Y4773753D01*
X20911904Y4773753D02*
X20911904Y5154705D01*
X20911904Y5154705D02*
X20864285Y5249943D01*
X20864285Y5249943D02*
X20816666Y5297562D01*
X20816666Y5297562D02*
X20721428Y5345181D01*
X20721428Y5345181D02*
X20530952Y5345181D01*
X20530952Y5345181D02*
X20435714Y5297562D01*
X20435714Y5297562D02*
X20388095Y5249943D01*
X20388095Y5249943D02*
X20340476Y5154705D01*
X20340476Y5154705D02*
X20340476Y4916610D01*
X20340476Y4916610D02*
X20388095Y4821372D01*
X20388095Y4821372D02*
X20435714Y4773753D01*
X20435714Y4773753D02*
X20530952Y4726134D01*
X20530952Y4726134D02*
X20721428Y4726134D01*
X20721428Y4726134D02*
X20816666Y4773753D01*
X20816666Y4773753D02*
X20864285Y4821372D01*
X20864285Y4821372D02*
X20911904Y4916610D01*
X21197619Y5345181D02*
X21530952Y4345181D01*
X21530952Y4345181D02*
X21864285Y5345181D01*
X22959524Y4345181D02*
X22959524Y5345181D01*
X22959524Y5345181D02*
X23197619Y5345181D01*
X23197619Y5345181D02*
X23340476Y5297562D01*
X23340476Y5297562D02*
X23435714Y5202324D01*
X23435714Y5202324D02*
X23483333Y5107086D01*
X23483333Y5107086D02*
X23530952Y4916610D01*
X23530952Y4916610D02*
X23530952Y4773753D01*
X23530952Y4773753D02*
X23483333Y4583277D01*
X23483333Y4583277D02*
X23435714Y4488039D01*
X23435714Y4488039D02*
X23340476Y4392800D01*
X23340476Y4392800D02*
X23197619Y4345181D01*
X23197619Y4345181D02*
X22959524Y4345181D01*
X24530952Y4440420D02*
X24483333Y4392800D01*
X24483333Y4392800D02*
X24340476Y4345181D01*
X24340476Y4345181D02*
X24245238Y4345181D01*
X24245238Y4345181D02*
X24102381Y4392800D01*
X24102381Y4392800D02*
X24007143Y4488039D01*
X24007143Y4488039D02*
X23959524Y4583277D01*
X23959524Y4583277D02*
X23911905Y4773753D01*
X23911905Y4773753D02*
X23911905Y4916610D01*
X23911905Y4916610D02*
X23959524Y5107086D01*
X23959524Y5107086D02*
X24007143Y5202324D01*
X24007143Y5202324D02*
X24102381Y5297562D01*
X24102381Y5297562D02*
X24245238Y5345181D01*
X24245238Y5345181D02*
X24340476Y5345181D01*
X24340476Y5345181D02*
X24483333Y5297562D01*
X24483333Y5297562D02*
X24530952Y5249943D01*
X25673809Y5392800D02*
X24816667Y4107086D01*
X25959524Y4630896D02*
X26435714Y4630896D01*
X25864286Y4345181D02*
X26197619Y5345181D01*
X26197619Y5345181D02*
X26530952Y4345181D01*
X27435714Y4440420D02*
X27388095Y4392800D01*
X27388095Y4392800D02*
X27245238Y4345181D01*
X27245238Y4345181D02*
X27150000Y4345181D01*
X27150000Y4345181D02*
X27007143Y4392800D01*
X27007143Y4392800D02*
X26911905Y4488039D01*
X26911905Y4488039D02*
X26864286Y4583277D01*
X26864286Y4583277D02*
X26816667Y4773753D01*
X26816667Y4773753D02*
X26816667Y4916610D01*
X26816667Y4916610D02*
X26864286Y5107086D01*
X26864286Y5107086D02*
X26911905Y5202324D01*
X26911905Y5202324D02*
X27007143Y5297562D01*
X27007143Y5297562D02*
X27150000Y5345181D01*
X27150000Y5345181D02*
X27245238Y5345181D01*
X27245238Y5345181D02*
X27388095Y5297562D01*
X27388095Y5297562D02*
X27435714Y5249943D01*
X12216666Y11845181D02*
X12216666Y11130896D01*
X12216666Y11130896D02*
X12169047Y10988039D01*
X12169047Y10988039D02*
X12073809Y10892800D01*
X12073809Y10892800D02*
X11930952Y10845181D01*
X11930952Y10845181D02*
X11835714Y10845181D01*
X12597619Y11845181D02*
X13216666Y11845181D01*
X13216666Y11845181D02*
X12883333Y11464229D01*
X12883333Y11464229D02*
X13026190Y11464229D01*
X13026190Y11464229D02*
X13121428Y11416610D01*
X13121428Y11416610D02*
X13169047Y11368991D01*
X13169047Y11368991D02*
X13216666Y11273753D01*
X13216666Y11273753D02*
X13216666Y11035658D01*
X13216666Y11035658D02*
X13169047Y10940420D01*
X13169047Y10940420D02*
X13121428Y10892800D01*
X13121428Y10892800D02*
X13026190Y10845181D01*
X13026190Y10845181D02*
X12740476Y10845181D01*
X12740476Y10845181D02*
X12645238Y10892800D01*
X12645238Y10892800D02*
X12597619Y10940420D01*
X82680952Y65775181D02*
X82109524Y65775181D01*
X82395238Y65775181D02*
X82395238Y66775181D01*
X82395238Y66775181D02*
X82300000Y66632324D01*
X82300000Y66632324D02*
X82204762Y66537086D01*
X82204762Y66537086D02*
X82109524Y66489467D01*
X83109524Y65775181D02*
X83109524Y66775181D01*
X83204762Y66156134D02*
X83490476Y65775181D01*
X83490476Y66441848D02*
X83109524Y66060896D01*
X82633333Y68145181D02*
X82300000Y68621372D01*
X82061905Y68145181D02*
X82061905Y69145181D01*
X82061905Y69145181D02*
X82442857Y69145181D01*
X82442857Y69145181D02*
X82538095Y69097562D01*
X82538095Y69097562D02*
X82585714Y69049943D01*
X82585714Y69049943D02*
X82633333Y68954705D01*
X82633333Y68954705D02*
X82633333Y68811848D01*
X82633333Y68811848D02*
X82585714Y68716610D01*
X82585714Y68716610D02*
X82538095Y68668991D01*
X82538095Y68668991D02*
X82442857Y68621372D01*
X82442857Y68621372D02*
X82061905Y68621372D01*
X83490476Y68811848D02*
X83490476Y68145181D01*
X83252381Y69192800D02*
X83014286Y68478515D01*
X83014286Y68478515D02*
X83633333Y68478515D01*
X78338152Y21338094D02*
X78338152Y21719046D01*
X78004819Y21480951D02*
X78861961Y21480951D01*
X78861961Y21480951D02*
X78957200Y21528570D01*
X78957200Y21528570D02*
X79004819Y21623808D01*
X79004819Y21623808D02*
X79004819Y21719046D01*
X79004819Y22195237D02*
X78957200Y22099999D01*
X78957200Y22099999D02*
X78909580Y22052380D01*
X78909580Y22052380D02*
X78814342Y22004761D01*
X78814342Y22004761D02*
X78528628Y22004761D01*
X78528628Y22004761D02*
X78433390Y22052380D01*
X78433390Y22052380D02*
X78385771Y22099999D01*
X78385771Y22099999D02*
X78338152Y22195237D01*
X78338152Y22195237D02*
X78338152Y22338094D01*
X78338152Y22338094D02*
X78385771Y22433332D01*
X78385771Y22433332D02*
X78433390Y22480951D01*
X78433390Y22480951D02*
X78528628Y22528570D01*
X78528628Y22528570D02*
X78814342Y22528570D01*
X78814342Y22528570D02*
X78909580Y22480951D01*
X78909580Y22480951D02*
X78957200Y22433332D01*
X78957200Y22433332D02*
X79004819Y22338094D01*
X79004819Y22338094D02*
X79004819Y22195237D01*
X78004819Y23576190D02*
X78004819Y24147618D01*
X79004819Y23861904D02*
X78004819Y23861904D01*
X78957200Y24861904D02*
X79004819Y24766666D01*
X79004819Y24766666D02*
X79004819Y24576190D01*
X79004819Y24576190D02*
X78957200Y24480952D01*
X78957200Y24480952D02*
X78861961Y24433333D01*
X78861961Y24433333D02*
X78481009Y24433333D01*
X78481009Y24433333D02*
X78385771Y24480952D01*
X78385771Y24480952D02*
X78338152Y24576190D01*
X78338152Y24576190D02*
X78338152Y24766666D01*
X78338152Y24766666D02*
X78385771Y24861904D01*
X78385771Y24861904D02*
X78481009Y24909523D01*
X78481009Y24909523D02*
X78576247Y24909523D01*
X78576247Y24909523D02*
X78671485Y24433333D01*
X78957200Y25290476D02*
X79004819Y25385714D01*
X79004819Y25385714D02*
X79004819Y25576190D01*
X79004819Y25576190D02*
X78957200Y25671428D01*
X78957200Y25671428D02*
X78861961Y25719047D01*
X78861961Y25719047D02*
X78814342Y25719047D01*
X78814342Y25719047D02*
X78719104Y25671428D01*
X78719104Y25671428D02*
X78671485Y25576190D01*
X78671485Y25576190D02*
X78671485Y25433333D01*
X78671485Y25433333D02*
X78623866Y25338095D01*
X78623866Y25338095D02*
X78528628Y25290476D01*
X78528628Y25290476D02*
X78481009Y25290476D01*
X78481009Y25290476D02*
X78385771Y25338095D01*
X78385771Y25338095D02*
X78338152Y25433333D01*
X78338152Y25433333D02*
X78338152Y25576190D01*
X78338152Y25576190D02*
X78385771Y25671428D01*
X78338152Y26004762D02*
X78338152Y26385714D01*
X78004819Y26147619D02*
X78861961Y26147619D01*
X78861961Y26147619D02*
X78957200Y26195238D01*
X78957200Y26195238D02*
X79004819Y26290476D01*
X79004819Y26290476D02*
X79004819Y26385714D01*
X78338152Y26719048D02*
X79338152Y26719048D01*
X78385771Y26719048D02*
X78338152Y26814286D01*
X78338152Y26814286D02*
X78338152Y27004762D01*
X78338152Y27004762D02*
X78385771Y27100000D01*
X78385771Y27100000D02*
X78433390Y27147619D01*
X78433390Y27147619D02*
X78528628Y27195238D01*
X78528628Y27195238D02*
X78814342Y27195238D01*
X78814342Y27195238D02*
X78909580Y27147619D01*
X78909580Y27147619D02*
X78957200Y27100000D01*
X78957200Y27100000D02*
X79004819Y27004762D01*
X79004819Y27004762D02*
X79004819Y26814286D01*
X79004819Y26814286D02*
X78957200Y26719048D01*
X79004819Y27623810D02*
X78338152Y27623810D01*
X78004819Y27623810D02*
X78052438Y27576191D01*
X78052438Y27576191D02*
X78100057Y27623810D01*
X78100057Y27623810D02*
X78052438Y27671429D01*
X78052438Y27671429D02*
X78004819Y27623810D01*
X78004819Y27623810D02*
X78100057Y27623810D01*
X78338152Y28100000D02*
X79004819Y28100000D01*
X78433390Y28100000D02*
X78385771Y28147619D01*
X78385771Y28147619D02*
X78338152Y28242857D01*
X78338152Y28242857D02*
X78338152Y28385714D01*
X78338152Y28385714D02*
X78385771Y28480952D01*
X78385771Y28480952D02*
X78481009Y28528571D01*
X78481009Y28528571D02*
X79004819Y28528571D01*
X78957200Y28957143D02*
X79004819Y29052381D01*
X79004819Y29052381D02*
X79004819Y29242857D01*
X79004819Y29242857D02*
X78957200Y29338095D01*
X78957200Y29338095D02*
X78861961Y29385714D01*
X78861961Y29385714D02*
X78814342Y29385714D01*
X78814342Y29385714D02*
X78719104Y29338095D01*
X78719104Y29338095D02*
X78671485Y29242857D01*
X78671485Y29242857D02*
X78671485Y29100000D01*
X78671485Y29100000D02*
X78623866Y29004762D01*
X78623866Y29004762D02*
X78528628Y28957143D01*
X78528628Y28957143D02*
X78481009Y28957143D01*
X78481009Y28957143D02*
X78385771Y29004762D01*
X78385771Y29004762D02*
X78338152Y29100000D01*
X78338152Y29100000D02*
X78338152Y29242857D01*
X78338152Y29242857D02*
X78385771Y29338095D01*
X78100057Y30528572D02*
X78052438Y30576191D01*
X78052438Y30576191D02*
X78004819Y30671429D01*
X78004819Y30671429D02*
X78004819Y30909524D01*
X78004819Y30909524D02*
X78052438Y31004762D01*
X78052438Y31004762D02*
X78100057Y31052381D01*
X78100057Y31052381D02*
X78195295Y31100000D01*
X78195295Y31100000D02*
X78290533Y31100000D01*
X78290533Y31100000D02*
X78433390Y31052381D01*
X78433390Y31052381D02*
X79004819Y30480953D01*
X79004819Y30480953D02*
X79004819Y31100000D01*
X78100057Y31480953D02*
X78052438Y31528572D01*
X78052438Y31528572D02*
X78004819Y31623810D01*
X78004819Y31623810D02*
X78004819Y31861905D01*
X78004819Y31861905D02*
X78052438Y31957143D01*
X78052438Y31957143D02*
X78100057Y32004762D01*
X78100057Y32004762D02*
X78195295Y32052381D01*
X78195295Y32052381D02*
X78290533Y32052381D01*
X78290533Y32052381D02*
X78433390Y32004762D01*
X78433390Y32004762D02*
X79004819Y31433334D01*
X79004819Y31433334D02*
X79004819Y32052381D01*
X79385771Y32766667D02*
X79338152Y32719048D01*
X79338152Y32719048D02*
X79195295Y32623810D01*
X79195295Y32623810D02*
X79100057Y32576191D01*
X79100057Y32576191D02*
X78957200Y32528572D01*
X78957200Y32528572D02*
X78719104Y32480953D01*
X78719104Y32480953D02*
X78528628Y32480953D01*
X78528628Y32480953D02*
X78290533Y32528572D01*
X78290533Y32528572D02*
X78147676Y32576191D01*
X78147676Y32576191D02*
X78052438Y32623810D01*
X78052438Y32623810D02*
X77909580Y32719048D01*
X77909580Y32719048D02*
X77861961Y32766667D01*
X79004819Y33147620D02*
X78004819Y33147620D01*
X78004819Y33147620D02*
X78004819Y33385715D01*
X78004819Y33385715D02*
X78052438Y33528572D01*
X78052438Y33528572D02*
X78147676Y33623810D01*
X78147676Y33623810D02*
X78242914Y33671429D01*
X78242914Y33671429D02*
X78433390Y33719048D01*
X78433390Y33719048D02*
X78576247Y33719048D01*
X78576247Y33719048D02*
X78766723Y33671429D01*
X78766723Y33671429D02*
X78861961Y33623810D01*
X78861961Y33623810D02*
X78957200Y33528572D01*
X78957200Y33528572D02*
X79004819Y33385715D01*
X79004819Y33385715D02*
X79004819Y33147620D01*
X79004819Y34147620D02*
X78004819Y34147620D01*
X78004819Y34147620D02*
X78719104Y34480953D01*
X78719104Y34480953D02*
X78004819Y34814286D01*
X78004819Y34814286D02*
X79004819Y34814286D01*
X79385771Y35195239D02*
X79338152Y35242858D01*
X79338152Y35242858D02*
X79195295Y35338096D01*
X79195295Y35338096D02*
X79100057Y35385715D01*
X79100057Y35385715D02*
X78957200Y35433334D01*
X78957200Y35433334D02*
X78719104Y35480953D01*
X78719104Y35480953D02*
X78528628Y35480953D01*
X78528628Y35480953D02*
X78290533Y35433334D01*
X78290533Y35433334D02*
X78147676Y35385715D01*
X78147676Y35385715D02*
X78052438Y35338096D01*
X78052438Y35338096D02*
X77909580Y35242858D01*
X77909580Y35242858D02*
X77861961Y35195239D01*
X79004819Y37147620D02*
X78481009Y37147620D01*
X78481009Y37147620D02*
X78385771Y37100001D01*
X78385771Y37100001D02*
X78338152Y37004763D01*
X78338152Y37004763D02*
X78338152Y36814287D01*
X78338152Y36814287D02*
X78385771Y36719049D01*
X78957200Y37147620D02*
X79004819Y37052382D01*
X79004819Y37052382D02*
X79004819Y36814287D01*
X79004819Y36814287D02*
X78957200Y36719049D01*
X78957200Y36719049D02*
X78861961Y36671430D01*
X78861961Y36671430D02*
X78766723Y36671430D01*
X78766723Y36671430D02*
X78671485Y36719049D01*
X78671485Y36719049D02*
X78623866Y36814287D01*
X78623866Y36814287D02*
X78623866Y37052382D01*
X78623866Y37052382D02*
X78576247Y37147620D01*
X78338152Y37623811D02*
X79004819Y37623811D01*
X78433390Y37623811D02*
X78385771Y37671430D01*
X78385771Y37671430D02*
X78338152Y37766668D01*
X78338152Y37766668D02*
X78338152Y37909525D01*
X78338152Y37909525D02*
X78385771Y38004763D01*
X78385771Y38004763D02*
X78481009Y38052382D01*
X78481009Y38052382D02*
X79004819Y38052382D01*
X79004819Y38957144D02*
X78004819Y38957144D01*
X78957200Y38957144D02*
X79004819Y38861906D01*
X79004819Y38861906D02*
X79004819Y38671430D01*
X79004819Y38671430D02*
X78957200Y38576192D01*
X78957200Y38576192D02*
X78909580Y38528573D01*
X78909580Y38528573D02*
X78814342Y38480954D01*
X78814342Y38480954D02*
X78528628Y38480954D01*
X78528628Y38480954D02*
X78433390Y38528573D01*
X78433390Y38528573D02*
X78385771Y38576192D01*
X78385771Y38576192D02*
X78338152Y38671430D01*
X78338152Y38671430D02*
X78338152Y38861906D01*
X78338152Y38861906D02*
X78385771Y38957144D01*
X78004819Y40052383D02*
X78004819Y40623811D01*
X79004819Y40338097D02*
X78004819Y40338097D01*
X79004819Y40957145D02*
X78004819Y40957145D01*
X78004819Y40957145D02*
X78004819Y41338097D01*
X78004819Y41338097D02*
X78052438Y41433335D01*
X78052438Y41433335D02*
X78100057Y41480954D01*
X78100057Y41480954D02*
X78195295Y41528573D01*
X78195295Y41528573D02*
X78338152Y41528573D01*
X78338152Y41528573D02*
X78433390Y41480954D01*
X78433390Y41480954D02*
X78481009Y41433335D01*
X78481009Y41433335D02*
X78528628Y41338097D01*
X78528628Y41338097D02*
X78528628Y40957145D01*
X78100057Y41909526D02*
X78052438Y41957145D01*
X78052438Y41957145D02*
X78004819Y42052383D01*
X78004819Y42052383D02*
X78004819Y42290478D01*
X78004819Y42290478D02*
X78052438Y42385716D01*
X78052438Y42385716D02*
X78100057Y42433335D01*
X78100057Y42433335D02*
X78195295Y42480954D01*
X78195295Y42480954D02*
X78290533Y42480954D01*
X78290533Y42480954D02*
X78433390Y42433335D01*
X78433390Y42433335D02*
X79004819Y41861907D01*
X79004819Y41861907D02*
X79004819Y42480954D01*
X78004819Y42814288D02*
X78004819Y43433335D01*
X78004819Y43433335D02*
X78385771Y43100002D01*
X78385771Y43100002D02*
X78385771Y43242859D01*
X78385771Y43242859D02*
X78433390Y43338097D01*
X78433390Y43338097D02*
X78481009Y43385716D01*
X78481009Y43385716D02*
X78576247Y43433335D01*
X78576247Y43433335D02*
X78814342Y43433335D01*
X78814342Y43433335D02*
X78909580Y43385716D01*
X78909580Y43385716D02*
X78957200Y43338097D01*
X78957200Y43338097D02*
X79004819Y43242859D01*
X79004819Y43242859D02*
X79004819Y42957145D01*
X79004819Y42957145D02*
X78957200Y42861907D01*
X78957200Y42861907D02*
X78909580Y42814288D01*
X79385771Y44147621D02*
X79338152Y44100002D01*
X79338152Y44100002D02*
X79195295Y44004764D01*
X79195295Y44004764D02*
X79100057Y43957145D01*
X79100057Y43957145D02*
X78957200Y43909526D01*
X78957200Y43909526D02*
X78719104Y43861907D01*
X78719104Y43861907D02*
X78528628Y43861907D01*
X78528628Y43861907D02*
X78290533Y43909526D01*
X78290533Y43909526D02*
X78147676Y43957145D01*
X78147676Y43957145D02*
X78052438Y44004764D01*
X78052438Y44004764D02*
X77909580Y44100002D01*
X77909580Y44100002D02*
X77861961Y44147621D01*
X79004819Y44528574D02*
X78004819Y44528574D01*
X78004819Y44528574D02*
X78004819Y44766669D01*
X78004819Y44766669D02*
X78052438Y44909526D01*
X78052438Y44909526D02*
X78147676Y45004764D01*
X78147676Y45004764D02*
X78242914Y45052383D01*
X78242914Y45052383D02*
X78433390Y45100002D01*
X78433390Y45100002D02*
X78576247Y45100002D01*
X78576247Y45100002D02*
X78766723Y45052383D01*
X78766723Y45052383D02*
X78861961Y45004764D01*
X78861961Y45004764D02*
X78957200Y44909526D01*
X78957200Y44909526D02*
X79004819Y44766669D01*
X79004819Y44766669D02*
X79004819Y44528574D01*
X79004819Y45528574D02*
X78004819Y45528574D01*
X78004819Y45528574D02*
X78004819Y45909526D01*
X78004819Y45909526D02*
X78052438Y46004764D01*
X78052438Y46004764D02*
X78100057Y46052383D01*
X78100057Y46052383D02*
X78195295Y46100002D01*
X78195295Y46100002D02*
X78338152Y46100002D01*
X78338152Y46100002D02*
X78433390Y46052383D01*
X78433390Y46052383D02*
X78481009Y46004764D01*
X78481009Y46004764D02*
X78528628Y45909526D01*
X78528628Y45909526D02*
X78528628Y45528574D01*
X79385771Y46433336D02*
X79338152Y46480955D01*
X79338152Y46480955D02*
X79195295Y46576193D01*
X79195295Y46576193D02*
X79100057Y46623812D01*
X79100057Y46623812D02*
X78957200Y46671431D01*
X78957200Y46671431D02*
X78719104Y46719050D01*
X78719104Y46719050D02*
X78528628Y46719050D01*
X78528628Y46719050D02*
X78290533Y46671431D01*
X78290533Y46671431D02*
X78147676Y46623812D01*
X78147676Y46623812D02*
X78052438Y46576193D01*
X78052438Y46576193D02*
X77909580Y46480955D01*
X77909580Y46480955D02*
X77861961Y46433336D01*
X91500644Y29858991D02*
X91643501Y29811372D01*
X91643501Y29811372D02*
X91691120Y29763753D01*
X91691120Y29763753D02*
X91738739Y29668515D01*
X91738739Y29668515D02*
X91738739Y29525658D01*
X91738739Y29525658D02*
X91691120Y29430420D01*
X91691120Y29430420D02*
X91643501Y29382800D01*
X91643501Y29382800D02*
X91548263Y29335181D01*
X91548263Y29335181D02*
X91167311Y29335181D01*
X91167311Y29335181D02*
X91167311Y30335181D01*
X91167311Y30335181D02*
X91500644Y30335181D01*
X91500644Y30335181D02*
X91595882Y30287562D01*
X91595882Y30287562D02*
X91643501Y30239943D01*
X91643501Y30239943D02*
X91691120Y30144705D01*
X91691120Y30144705D02*
X91691120Y30049467D01*
X91691120Y30049467D02*
X91643501Y29954229D01*
X91643501Y29954229D02*
X91595882Y29906610D01*
X91595882Y29906610D02*
X91500644Y29858991D01*
X91500644Y29858991D02*
X91167311Y29858991D01*
X92595882Y30001848D02*
X92595882Y29335181D01*
X92167311Y30001848D02*
X92167311Y29478039D01*
X92167311Y29478039D02*
X92214930Y29382800D01*
X92214930Y29382800D02*
X92310168Y29335181D01*
X92310168Y29335181D02*
X92453025Y29335181D01*
X92453025Y29335181D02*
X92548263Y29382800D01*
X92548263Y29382800D02*
X92595882Y29430420D01*
X92976835Y30001848D02*
X93500644Y30001848D01*
X93500644Y30001848D02*
X92976835Y29335181D01*
X92976835Y29335181D02*
X93500644Y29335181D01*
X93786359Y30001848D02*
X94310168Y30001848D01*
X94310168Y30001848D02*
X93786359Y29335181D01*
X93786359Y29335181D02*
X94310168Y29335181D01*
X95072073Y29382800D02*
X94976835Y29335181D01*
X94976835Y29335181D02*
X94786359Y29335181D01*
X94786359Y29335181D02*
X94691121Y29382800D01*
X94691121Y29382800D02*
X94643502Y29478039D01*
X94643502Y29478039D02*
X94643502Y29858991D01*
X94643502Y29858991D02*
X94691121Y29954229D01*
X94691121Y29954229D02*
X94786359Y30001848D01*
X94786359Y30001848D02*
X94976835Y30001848D01*
X94976835Y30001848D02*
X95072073Y29954229D01*
X95072073Y29954229D02*
X95119692Y29858991D01*
X95119692Y29858991D02*
X95119692Y29763753D01*
X95119692Y29763753D02*
X94643502Y29668515D01*
X95548264Y29335181D02*
X95548264Y30001848D01*
X95548264Y29811372D02*
X95595883Y29906610D01*
X95595883Y29906610D02*
X95643502Y29954229D01*
X95643502Y29954229D02*
X95738740Y30001848D01*
X95738740Y30001848D02*
X95833978Y30001848D01*
X92548263Y39598991D02*
X92691120Y39551372D01*
X92691120Y39551372D02*
X92738739Y39503753D01*
X92738739Y39503753D02*
X92786358Y39408515D01*
X92786358Y39408515D02*
X92786358Y39265658D01*
X92786358Y39265658D02*
X92738739Y39170420D01*
X92738739Y39170420D02*
X92691120Y39122800D01*
X92691120Y39122800D02*
X92595882Y39075181D01*
X92595882Y39075181D02*
X92214930Y39075181D01*
X92214930Y39075181D02*
X92214930Y40075181D01*
X92214930Y40075181D02*
X92548263Y40075181D01*
X92548263Y40075181D02*
X92643501Y40027562D01*
X92643501Y40027562D02*
X92691120Y39979943D01*
X92691120Y39979943D02*
X92738739Y39884705D01*
X92738739Y39884705D02*
X92738739Y39789467D01*
X92738739Y39789467D02*
X92691120Y39694229D01*
X92691120Y39694229D02*
X92643501Y39646610D01*
X92643501Y39646610D02*
X92548263Y39598991D01*
X92548263Y39598991D02*
X92214930Y39598991D01*
X93119692Y40075181D02*
X93786358Y40075181D01*
X93786358Y40075181D02*
X93119692Y39075181D01*
X93119692Y39075181D02*
X93786358Y39075181D01*
X94691120Y39075181D02*
X94119692Y39075181D01*
X94405406Y39075181D02*
X94405406Y40075181D01*
X94405406Y40075181D02*
X94310168Y39932324D01*
X94310168Y39932324D02*
X94214930Y39837086D01*
X94214930Y39837086D02*
X94119692Y39789467D01*
X79264819Y51537143D02*
X79264819Y50965715D01*
X79264819Y51251429D02*
X78264819Y51251429D01*
X78264819Y51251429D02*
X78407676Y51156191D01*
X78407676Y51156191D02*
X78502914Y51060953D01*
X78502914Y51060953D02*
X78550533Y50965715D01*
X79264819Y51965715D02*
X78264819Y51965715D01*
X78264819Y51965715D02*
X79264819Y52537143D01*
X79264819Y52537143D02*
X78264819Y52537143D01*
X78598152Y53441905D02*
X79264819Y53441905D01*
X78217200Y53203810D02*
X78931485Y52965715D01*
X78931485Y52965715D02*
X78931485Y53584762D01*
X79264819Y54489524D02*
X79264819Y53918096D01*
X79264819Y54203810D02*
X78264819Y54203810D01*
X78264819Y54203810D02*
X78407676Y54108572D01*
X78407676Y54108572D02*
X78502914Y54013334D01*
X78502914Y54013334D02*
X78550533Y53918096D01*
X78598152Y55346667D02*
X79264819Y55346667D01*
X78217200Y55108572D02*
X78931485Y54870477D01*
X78931485Y54870477D02*
X78931485Y55489524D01*
X78693390Y56013334D02*
X78645771Y55918096D01*
X78645771Y55918096D02*
X78598152Y55870477D01*
X78598152Y55870477D02*
X78502914Y55822858D01*
X78502914Y55822858D02*
X78455295Y55822858D01*
X78455295Y55822858D02*
X78360057Y55870477D01*
X78360057Y55870477D02*
X78312438Y55918096D01*
X78312438Y55918096D02*
X78264819Y56013334D01*
X78264819Y56013334D02*
X78264819Y56203810D01*
X78264819Y56203810D02*
X78312438Y56299048D01*
X78312438Y56299048D02*
X78360057Y56346667D01*
X78360057Y56346667D02*
X78455295Y56394286D01*
X78455295Y56394286D02*
X78502914Y56394286D01*
X78502914Y56394286D02*
X78598152Y56346667D01*
X78598152Y56346667D02*
X78645771Y56299048D01*
X78645771Y56299048D02*
X78693390Y56203810D01*
X78693390Y56203810D02*
X78693390Y56013334D01*
X78693390Y56013334D02*
X78741009Y55918096D01*
X78741009Y55918096D02*
X78788628Y55870477D01*
X78788628Y55870477D02*
X78883866Y55822858D01*
X78883866Y55822858D02*
X79074342Y55822858D01*
X79074342Y55822858D02*
X79169580Y55870477D01*
X79169580Y55870477D02*
X79217200Y55918096D01*
X79217200Y55918096D02*
X79264819Y56013334D01*
X79264819Y56013334D02*
X79264819Y56203810D01*
X79264819Y56203810D02*
X79217200Y56299048D01*
X79217200Y56299048D02*
X79169580Y56346667D01*
X79169580Y56346667D02*
X79074342Y56394286D01*
X79074342Y56394286D02*
X78883866Y56394286D01*
X78883866Y56394286D02*
X78788628Y56346667D01*
X78788628Y56346667D02*
X78741009Y56299048D01*
X78741009Y56299048D02*
X78693390Y56203810D01*
X76794819Y53331906D02*
X75794819Y53331906D01*
X75794819Y53331906D02*
X75794819Y53570001D01*
X75794819Y53570001D02*
X75842438Y53712858D01*
X75842438Y53712858D02*
X75937676Y53808096D01*
X75937676Y53808096D02*
X76032914Y53855715D01*
X76032914Y53855715D02*
X76223390Y53903334D01*
X76223390Y53903334D02*
X76366247Y53903334D01*
X76366247Y53903334D02*
X76556723Y53855715D01*
X76556723Y53855715D02*
X76651961Y53808096D01*
X76651961Y53808096D02*
X76747200Y53712858D01*
X76747200Y53712858D02*
X76794819Y53570001D01*
X76794819Y53570001D02*
X76794819Y53331906D01*
X76128152Y54760477D02*
X76794819Y54760477D01*
X75747200Y54522382D02*
X76461485Y54284287D01*
X76461485Y54284287D02*
X76461485Y54903334D01*
X74894819Y47068096D02*
X73894819Y47068096D01*
X74894819Y47639524D02*
X74323390Y47210953D01*
X73894819Y47639524D02*
X74466247Y47068096D01*
X52741905Y20095181D02*
X52741905Y21095181D01*
X52741905Y21095181D02*
X52980000Y21095181D01*
X52980000Y21095181D02*
X53122857Y21047562D01*
X53122857Y21047562D02*
X53218095Y20952324D01*
X53218095Y20952324D02*
X53265714Y20857086D01*
X53265714Y20857086D02*
X53313333Y20666610D01*
X53313333Y20666610D02*
X53313333Y20523753D01*
X53313333Y20523753D02*
X53265714Y20333277D01*
X53265714Y20333277D02*
X53218095Y20238039D01*
X53218095Y20238039D02*
X53122857Y20142800D01*
X53122857Y20142800D02*
X52980000Y20095181D01*
X52980000Y20095181D02*
X52741905Y20095181D01*
X53646667Y21095181D02*
X54265714Y21095181D01*
X54265714Y21095181D02*
X53932381Y20714229D01*
X53932381Y20714229D02*
X54075238Y20714229D01*
X54075238Y20714229D02*
X54170476Y20666610D01*
X54170476Y20666610D02*
X54218095Y20618991D01*
X54218095Y20618991D02*
X54265714Y20523753D01*
X54265714Y20523753D02*
X54265714Y20285658D01*
X54265714Y20285658D02*
X54218095Y20190420D01*
X54218095Y20190420D02*
X54170476Y20142800D01*
X54170476Y20142800D02*
X54075238Y20095181D01*
X54075238Y20095181D02*
X53789524Y20095181D01*
X53789524Y20095181D02*
X53694286Y20142800D01*
X53694286Y20142800D02*
X53646667Y20190420D01*
X94384819Y51329524D02*
X94384819Y50758096D01*
X94384819Y51043810D02*
X93384819Y51043810D01*
X93384819Y51043810D02*
X93527676Y50948572D01*
X93527676Y50948572D02*
X93622914Y50853334D01*
X93622914Y50853334D02*
X93670533Y50758096D01*
X93384819Y51948572D02*
X93384819Y52043810D01*
X93384819Y52043810D02*
X93432438Y52139048D01*
X93432438Y52139048D02*
X93480057Y52186667D01*
X93480057Y52186667D02*
X93575295Y52234286D01*
X93575295Y52234286D02*
X93765771Y52281905D01*
X93765771Y52281905D02*
X94003866Y52281905D01*
X94003866Y52281905D02*
X94194342Y52234286D01*
X94194342Y52234286D02*
X94289580Y52186667D01*
X94289580Y52186667D02*
X94337200Y52139048D01*
X94337200Y52139048D02*
X94384819Y52043810D01*
X94384819Y52043810D02*
X94384819Y51948572D01*
X94384819Y51948572D02*
X94337200Y51853334D01*
X94337200Y51853334D02*
X94289580Y51805715D01*
X94289580Y51805715D02*
X94194342Y51758096D01*
X94194342Y51758096D02*
X94003866Y51710477D01*
X94003866Y51710477D02*
X93765771Y51710477D01*
X93765771Y51710477D02*
X93575295Y51758096D01*
X93575295Y51758096D02*
X93480057Y51805715D01*
X93480057Y51805715D02*
X93432438Y51853334D01*
X93432438Y51853334D02*
X93384819Y51948572D01*
X96754819Y50877143D02*
X96278628Y50543810D01*
X96754819Y50305715D02*
X95754819Y50305715D01*
X95754819Y50305715D02*
X95754819Y50686667D01*
X95754819Y50686667D02*
X95802438Y50781905D01*
X95802438Y50781905D02*
X95850057Y50829524D01*
X95850057Y50829524D02*
X95945295Y50877143D01*
X95945295Y50877143D02*
X96088152Y50877143D01*
X96088152Y50877143D02*
X96183390Y50829524D01*
X96183390Y50829524D02*
X96231009Y50781905D01*
X96231009Y50781905D02*
X96278628Y50686667D01*
X96278628Y50686667D02*
X96278628Y50305715D01*
X96754819Y51829524D02*
X96754819Y51258096D01*
X96754819Y51543810D02*
X95754819Y51543810D01*
X95754819Y51543810D02*
X95897676Y51448572D01*
X95897676Y51448572D02*
X95992914Y51353334D01*
X95992914Y51353334D02*
X96040533Y51258096D01*
X95754819Y52448572D02*
X95754819Y52543810D01*
X95754819Y52543810D02*
X95802438Y52639048D01*
X95802438Y52639048D02*
X95850057Y52686667D01*
X95850057Y52686667D02*
X95945295Y52734286D01*
X95945295Y52734286D02*
X96135771Y52781905D01*
X96135771Y52781905D02*
X96373866Y52781905D01*
X96373866Y52781905D02*
X96564342Y52734286D01*
X96564342Y52734286D02*
X96659580Y52686667D01*
X96659580Y52686667D02*
X96707200Y52639048D01*
X96707200Y52639048D02*
X96754819Y52543810D01*
X96754819Y52543810D02*
X96754819Y52448572D01*
X96754819Y52448572D02*
X96707200Y52353334D01*
X96707200Y52353334D02*
X96659580Y52305715D01*
X96659580Y52305715D02*
X96564342Y52258096D01*
X96564342Y52258096D02*
X96373866Y52210477D01*
X96373866Y52210477D02*
X96135771Y52210477D01*
X96135771Y52210477D02*
X95945295Y52258096D01*
X95945295Y52258096D02*
X95850057Y52305715D01*
X95850057Y52305715D02*
X95802438Y52353334D01*
X95802438Y52353334D02*
X95754819Y52448572D01*
X91884819Y72424762D02*
X91884819Y71853334D01*
X91884819Y72139048D02*
X90884819Y72139048D01*
X90884819Y72139048D02*
X91027676Y72043810D01*
X91027676Y72043810D02*
X91122914Y71948572D01*
X91122914Y71948572D02*
X91170533Y71853334D01*
X90884819Y73329524D02*
X90884819Y72853334D01*
X90884819Y72853334D02*
X91361009Y72805715D01*
X91361009Y72805715D02*
X91313390Y72853334D01*
X91313390Y72853334D02*
X91265771Y72948572D01*
X91265771Y72948572D02*
X91265771Y73186667D01*
X91265771Y73186667D02*
X91313390Y73281905D01*
X91313390Y73281905D02*
X91361009Y73329524D01*
X91361009Y73329524D02*
X91456247Y73377143D01*
X91456247Y73377143D02*
X91694342Y73377143D01*
X91694342Y73377143D02*
X91789580Y73329524D01*
X91789580Y73329524D02*
X91837200Y73281905D01*
X91837200Y73281905D02*
X91884819Y73186667D01*
X91884819Y73186667D02*
X91884819Y72948572D01*
X91884819Y72948572D02*
X91837200Y72853334D01*
X91837200Y72853334D02*
X91789580Y72805715D01*
X91884819Y73805715D02*
X90884819Y73805715D01*
X91503866Y73900953D02*
X91884819Y74186667D01*
X91218152Y74186667D02*
X91599104Y73805715D01*
X94254819Y72853334D02*
X93778628Y72520001D01*
X94254819Y72281906D02*
X93254819Y72281906D01*
X93254819Y72281906D02*
X93254819Y72662858D01*
X93254819Y72662858D02*
X93302438Y72758096D01*
X93302438Y72758096D02*
X93350057Y72805715D01*
X93350057Y72805715D02*
X93445295Y72853334D01*
X93445295Y72853334D02*
X93588152Y72853334D01*
X93588152Y72853334D02*
X93683390Y72805715D01*
X93683390Y72805715D02*
X93731009Y72758096D01*
X93731009Y72758096D02*
X93778628Y72662858D01*
X93778628Y72662858D02*
X93778628Y72281906D01*
X94254819Y73329525D02*
X94254819Y73520001D01*
X94254819Y73520001D02*
X94207200Y73615239D01*
X94207200Y73615239D02*
X94159580Y73662858D01*
X94159580Y73662858D02*
X94016723Y73758096D01*
X94016723Y73758096D02*
X93826247Y73805715D01*
X93826247Y73805715D02*
X93445295Y73805715D01*
X93445295Y73805715D02*
X93350057Y73758096D01*
X93350057Y73758096D02*
X93302438Y73710477D01*
X93302438Y73710477D02*
X93254819Y73615239D01*
X93254819Y73615239D02*
X93254819Y73424763D01*
X93254819Y73424763D02*
X93302438Y73329525D01*
X93302438Y73329525D02*
X93350057Y73281906D01*
X93350057Y73281906D02*
X93445295Y73234287D01*
X93445295Y73234287D02*
X93683390Y73234287D01*
X93683390Y73234287D02*
X93778628Y73281906D01*
X93778628Y73281906D02*
X93826247Y73329525D01*
X93826247Y73329525D02*
X93873866Y73424763D01*
X93873866Y73424763D02*
X93873866Y73615239D01*
X93873866Y73615239D02*
X93826247Y73710477D01*
X93826247Y73710477D02*
X93778628Y73758096D01*
X93778628Y73758096D02*
X93683390Y73805715D01*
X79178571Y3545181D02*
X79178571Y2735658D01*
X79178571Y2735658D02*
X79226190Y2640420D01*
X79226190Y2640420D02*
X79273809Y2592800D01*
X79273809Y2592800D02*
X79369047Y2545181D01*
X79369047Y2545181D02*
X79559523Y2545181D01*
X79559523Y2545181D02*
X79654761Y2592800D01*
X79654761Y2592800D02*
X79702380Y2640420D01*
X79702380Y2640420D02*
X79749999Y2735658D01*
X79749999Y2735658D02*
X79749999Y3545181D01*
X80178571Y2592800D02*
X80321428Y2545181D01*
X80321428Y2545181D02*
X80559523Y2545181D01*
X80559523Y2545181D02*
X80654761Y2592800D01*
X80654761Y2592800D02*
X80702380Y2640420D01*
X80702380Y2640420D02*
X80749999Y2735658D01*
X80749999Y2735658D02*
X80749999Y2830896D01*
X80749999Y2830896D02*
X80702380Y2926134D01*
X80702380Y2926134D02*
X80654761Y2973753D01*
X80654761Y2973753D02*
X80559523Y3021372D01*
X80559523Y3021372D02*
X80369047Y3068991D01*
X80369047Y3068991D02*
X80273809Y3116610D01*
X80273809Y3116610D02*
X80226190Y3164229D01*
X80226190Y3164229D02*
X80178571Y3259467D01*
X80178571Y3259467D02*
X80178571Y3354705D01*
X80178571Y3354705D02*
X80226190Y3449943D01*
X80226190Y3449943D02*
X80273809Y3497562D01*
X80273809Y3497562D02*
X80369047Y3545181D01*
X80369047Y3545181D02*
X80607142Y3545181D01*
X80607142Y3545181D02*
X80749999Y3497562D01*
X81511904Y3068991D02*
X81654761Y3021372D01*
X81654761Y3021372D02*
X81702380Y2973753D01*
X81702380Y2973753D02*
X81749999Y2878515D01*
X81749999Y2878515D02*
X81749999Y2735658D01*
X81749999Y2735658D02*
X81702380Y2640420D01*
X81702380Y2640420D02*
X81654761Y2592800D01*
X81654761Y2592800D02*
X81559523Y2545181D01*
X81559523Y2545181D02*
X81178571Y2545181D01*
X81178571Y2545181D02*
X81178571Y3545181D01*
X81178571Y3545181D02*
X81511904Y3545181D01*
X81511904Y3545181D02*
X81607142Y3497562D01*
X81607142Y3497562D02*
X81654761Y3449943D01*
X81654761Y3449943D02*
X81702380Y3354705D01*
X81702380Y3354705D02*
X81702380Y3259467D01*
X81702380Y3259467D02*
X81654761Y3164229D01*
X81654761Y3164229D02*
X81607142Y3116610D01*
X81607142Y3116610D02*
X81511904Y3068991D01*
X81511904Y3068991D02*
X81178571Y3068991D01*
X81940476Y2449943D02*
X82702380Y2449943D01*
X82892857Y2830896D02*
X83369047Y2830896D01*
X82797619Y2545181D02*
X83130952Y3545181D01*
X83130952Y3545181D02*
X83464285Y2545181D01*
X14754819Y69885715D02*
X14754819Y69980953D01*
X14754819Y69980953D02*
X14802438Y70076191D01*
X14802438Y70076191D02*
X14850057Y70123810D01*
X14850057Y70123810D02*
X14945295Y70171429D01*
X14945295Y70171429D02*
X15135771Y70219048D01*
X15135771Y70219048D02*
X15373866Y70219048D01*
X15373866Y70219048D02*
X15564342Y70171429D01*
X15564342Y70171429D02*
X15659580Y70123810D01*
X15659580Y70123810D02*
X15707200Y70076191D01*
X15707200Y70076191D02*
X15754819Y69980953D01*
X15754819Y69980953D02*
X15754819Y69885715D01*
X15754819Y69885715D02*
X15707200Y69790477D01*
X15707200Y69790477D02*
X15659580Y69742858D01*
X15659580Y69742858D02*
X15564342Y69695239D01*
X15564342Y69695239D02*
X15373866Y69647620D01*
X15373866Y69647620D02*
X15135771Y69647620D01*
X15135771Y69647620D02*
X14945295Y69695239D01*
X14945295Y69695239D02*
X14850057Y69742858D01*
X14850057Y69742858D02*
X14802438Y69790477D01*
X14802438Y69790477D02*
X14754819Y69885715D01*
X15707200Y70695239D02*
X15754819Y70695239D01*
X15754819Y70695239D02*
X15850057Y70647620D01*
X15850057Y70647620D02*
X15897676Y70600001D01*
X15754819Y71647619D02*
X15754819Y71076191D01*
X15754819Y71361905D02*
X14754819Y71361905D01*
X14754819Y71361905D02*
X14897676Y71266667D01*
X14897676Y71266667D02*
X14992914Y71171429D01*
X14992914Y71171429D02*
X15040533Y71076191D01*
X15088152Y72504762D02*
X15754819Y72504762D01*
X15088152Y72076191D02*
X15611961Y72076191D01*
X15611961Y72076191D02*
X15707200Y72123810D01*
X15707200Y72123810D02*
X15754819Y72219048D01*
X15754819Y72219048D02*
X15754819Y72361905D01*
X15754819Y72361905D02*
X15707200Y72457143D01*
X15707200Y72457143D02*
X15659580Y72504762D01*
X13159580Y70933334D02*
X13207200Y70885715D01*
X13207200Y70885715D02*
X13254819Y70742858D01*
X13254819Y70742858D02*
X13254819Y70647620D01*
X13254819Y70647620D02*
X13207200Y70504763D01*
X13207200Y70504763D02*
X13111961Y70409525D01*
X13111961Y70409525D02*
X13016723Y70361906D01*
X13016723Y70361906D02*
X12826247Y70314287D01*
X12826247Y70314287D02*
X12683390Y70314287D01*
X12683390Y70314287D02*
X12492914Y70361906D01*
X12492914Y70361906D02*
X12397676Y70409525D01*
X12397676Y70409525D02*
X12302438Y70504763D01*
X12302438Y70504763D02*
X12254819Y70647620D01*
X12254819Y70647620D02*
X12254819Y70742858D01*
X12254819Y70742858D02*
X12302438Y70885715D01*
X12302438Y70885715D02*
X12350057Y70933334D01*
X12588152Y71790477D02*
X13254819Y71790477D01*
X12207200Y71552382D02*
X12921485Y71314287D01*
X12921485Y71314287D02*
X12921485Y71933334D01*
X22120057Y54861906D02*
X22072438Y54909525D01*
X22072438Y54909525D02*
X22024819Y55004763D01*
X22024819Y55004763D02*
X22024819Y55242858D01*
X22024819Y55242858D02*
X22072438Y55338096D01*
X22072438Y55338096D02*
X22120057Y55385715D01*
X22120057Y55385715D02*
X22215295Y55433334D01*
X22215295Y55433334D02*
X22310533Y55433334D01*
X22310533Y55433334D02*
X22453390Y55385715D01*
X22453390Y55385715D02*
X23024819Y54814287D01*
X23024819Y54814287D02*
X23024819Y55433334D01*
X22120057Y55814287D02*
X22072438Y55861906D01*
X22072438Y55861906D02*
X22024819Y55957144D01*
X22024819Y55957144D02*
X22024819Y56195239D01*
X22024819Y56195239D02*
X22072438Y56290477D01*
X22072438Y56290477D02*
X22120057Y56338096D01*
X22120057Y56338096D02*
X22215295Y56385715D01*
X22215295Y56385715D02*
X22310533Y56385715D01*
X22310533Y56385715D02*
X22453390Y56338096D01*
X22453390Y56338096D02*
X23024819Y55766668D01*
X23024819Y55766668D02*
X23024819Y56385715D01*
X22024819Y57004763D02*
X22024819Y57100001D01*
X22024819Y57100001D02*
X22072438Y57195239D01*
X22072438Y57195239D02*
X22120057Y57242858D01*
X22120057Y57242858D02*
X22215295Y57290477D01*
X22215295Y57290477D02*
X22405771Y57338096D01*
X22405771Y57338096D02*
X22643866Y57338096D01*
X22643866Y57338096D02*
X22834342Y57290477D01*
X22834342Y57290477D02*
X22929580Y57242858D01*
X22929580Y57242858D02*
X22977200Y57195239D01*
X22977200Y57195239D02*
X23024819Y57100001D01*
X23024819Y57100001D02*
X23024819Y57004763D01*
X23024819Y57004763D02*
X22977200Y56909525D01*
X22977200Y56909525D02*
X22929580Y56861906D01*
X22929580Y56861906D02*
X22834342Y56814287D01*
X22834342Y56814287D02*
X22643866Y56766668D01*
X22643866Y56766668D02*
X22405771Y56766668D01*
X22405771Y56766668D02*
X22215295Y56814287D01*
X22215295Y56814287D02*
X22120057Y56861906D01*
X22120057Y56861906D02*
X22072438Y56909525D01*
X22072438Y56909525D02*
X22024819Y57004763D01*
X16754819Y55933334D02*
X16278628Y55600001D01*
X16754819Y55361906D02*
X15754819Y55361906D01*
X15754819Y55361906D02*
X15754819Y55742858D01*
X15754819Y55742858D02*
X15802438Y55838096D01*
X15802438Y55838096D02*
X15850057Y55885715D01*
X15850057Y55885715D02*
X15945295Y55933334D01*
X15945295Y55933334D02*
X16088152Y55933334D01*
X16088152Y55933334D02*
X16183390Y55885715D01*
X16183390Y55885715D02*
X16231009Y55838096D01*
X16231009Y55838096D02*
X16278628Y55742858D01*
X16278628Y55742858D02*
X16278628Y55361906D01*
X15754819Y56790477D02*
X15754819Y56600001D01*
X15754819Y56600001D02*
X15802438Y56504763D01*
X15802438Y56504763D02*
X15850057Y56457144D01*
X15850057Y56457144D02*
X15992914Y56361906D01*
X15992914Y56361906D02*
X16183390Y56314287D01*
X16183390Y56314287D02*
X16564342Y56314287D01*
X16564342Y56314287D02*
X16659580Y56361906D01*
X16659580Y56361906D02*
X16707200Y56409525D01*
X16707200Y56409525D02*
X16754819Y56504763D01*
X16754819Y56504763D02*
X16754819Y56695239D01*
X16754819Y56695239D02*
X16707200Y56790477D01*
X16707200Y56790477D02*
X16659580Y56838096D01*
X16659580Y56838096D02*
X16564342Y56885715D01*
X16564342Y56885715D02*
X16326247Y56885715D01*
X16326247Y56885715D02*
X16231009Y56838096D01*
X16231009Y56838096D02*
X16183390Y56790477D01*
X16183390Y56790477D02*
X16135771Y56695239D01*
X16135771Y56695239D02*
X16135771Y56504763D01*
X16135771Y56504763D02*
X16183390Y56409525D01*
X16183390Y56409525D02*
X16231009Y56361906D01*
X16231009Y56361906D02*
X16326247Y56314287D01*
X53452381Y59916610D02*
X53357143Y59964229D01*
X53357143Y59964229D02*
X53309524Y60011848D01*
X53309524Y60011848D02*
X53261905Y60107086D01*
X53261905Y60107086D02*
X53261905Y60154705D01*
X53261905Y60154705D02*
X53309524Y60249943D01*
X53309524Y60249943D02*
X53357143Y60297562D01*
X53357143Y60297562D02*
X53452381Y60345181D01*
X53452381Y60345181D02*
X53642857Y60345181D01*
X53642857Y60345181D02*
X53738095Y60297562D01*
X53738095Y60297562D02*
X53785714Y60249943D01*
X53785714Y60249943D02*
X53833333Y60154705D01*
X53833333Y60154705D02*
X53833333Y60107086D01*
X53833333Y60107086D02*
X53785714Y60011848D01*
X53785714Y60011848D02*
X53738095Y59964229D01*
X53738095Y59964229D02*
X53642857Y59916610D01*
X53642857Y59916610D02*
X53452381Y59916610D01*
X53452381Y59916610D02*
X53357143Y59868991D01*
X53357143Y59868991D02*
X53309524Y59821372D01*
X53309524Y59821372D02*
X53261905Y59726134D01*
X53261905Y59726134D02*
X53261905Y59535658D01*
X53261905Y59535658D02*
X53309524Y59440420D01*
X53309524Y59440420D02*
X53357143Y59392800D01*
X53357143Y59392800D02*
X53452381Y59345181D01*
X53452381Y59345181D02*
X53642857Y59345181D01*
X53642857Y59345181D02*
X53738095Y59392800D01*
X53738095Y59392800D02*
X53785714Y59440420D01*
X53785714Y59440420D02*
X53833333Y59535658D01*
X53833333Y59535658D02*
X53833333Y59726134D01*
X53833333Y59726134D02*
X53785714Y59821372D01*
X53785714Y59821372D02*
X53738095Y59868991D01*
X53738095Y59868991D02*
X53642857Y59916610D01*
X54214286Y60249943D02*
X54261905Y60297562D01*
X54261905Y60297562D02*
X54357143Y60345181D01*
X54357143Y60345181D02*
X54595238Y60345181D01*
X54595238Y60345181D02*
X54690476Y60297562D01*
X54690476Y60297562D02*
X54738095Y60249943D01*
X54738095Y60249943D02*
X54785714Y60154705D01*
X54785714Y60154705D02*
X54785714Y60059467D01*
X54785714Y60059467D02*
X54738095Y59916610D01*
X54738095Y59916610D02*
X54166667Y59345181D01*
X54166667Y59345181D02*
X54785714Y59345181D01*
X55404762Y60345181D02*
X55500000Y60345181D01*
X55500000Y60345181D02*
X55595238Y60297562D01*
X55595238Y60297562D02*
X55642857Y60249943D01*
X55642857Y60249943D02*
X55690476Y60154705D01*
X55690476Y60154705D02*
X55738095Y59964229D01*
X55738095Y59964229D02*
X55738095Y59726134D01*
X55738095Y59726134D02*
X55690476Y59535658D01*
X55690476Y59535658D02*
X55642857Y59440420D01*
X55642857Y59440420D02*
X55595238Y59392800D01*
X55595238Y59392800D02*
X55500000Y59345181D01*
X55500000Y59345181D02*
X55404762Y59345181D01*
X55404762Y59345181D02*
X55309524Y59392800D01*
X55309524Y59392800D02*
X55261905Y59440420D01*
X55261905Y59440420D02*
X55214286Y59535658D01*
X55214286Y59535658D02*
X55166667Y59726134D01*
X55166667Y59726134D02*
X55166667Y59964229D01*
X55166667Y59964229D02*
X55214286Y60154705D01*
X55214286Y60154705D02*
X55261905Y60249943D01*
X55261905Y60249943D02*
X55309524Y60297562D01*
X55309524Y60297562D02*
X55404762Y60345181D01*
X51633333Y61645181D02*
X51300000Y62121372D01*
X51061905Y61645181D02*
X51061905Y62645181D01*
X51061905Y62645181D02*
X51442857Y62645181D01*
X51442857Y62645181D02*
X51538095Y62597562D01*
X51538095Y62597562D02*
X51585714Y62549943D01*
X51585714Y62549943D02*
X51633333Y62454705D01*
X51633333Y62454705D02*
X51633333Y62311848D01*
X51633333Y62311848D02*
X51585714Y62216610D01*
X51585714Y62216610D02*
X51538095Y62168991D01*
X51538095Y62168991D02*
X51442857Y62121372D01*
X51442857Y62121372D02*
X51061905Y62121372D01*
X52014286Y62549943D02*
X52061905Y62597562D01*
X52061905Y62597562D02*
X52157143Y62645181D01*
X52157143Y62645181D02*
X52395238Y62645181D01*
X52395238Y62645181D02*
X52490476Y62597562D01*
X52490476Y62597562D02*
X52538095Y62549943D01*
X52538095Y62549943D02*
X52585714Y62454705D01*
X52585714Y62454705D02*
X52585714Y62359467D01*
X52585714Y62359467D02*
X52538095Y62216610D01*
X52538095Y62216610D02*
X51966667Y61645181D01*
X51966667Y61645181D02*
X52585714Y61645181D01*
X95288095Y3245181D02*
X95288095Y4245181D01*
X95288095Y3768991D02*
X95859523Y3768991D01*
X95859523Y3245181D02*
X95859523Y4245181D01*
X96764285Y3911848D02*
X96764285Y3245181D01*
X96526190Y4292800D02*
X96288095Y3578515D01*
X96288095Y3578515D02*
X96907142Y3578515D01*
X82633333Y71275181D02*
X82061905Y71275181D01*
X82347619Y71275181D02*
X82347619Y72275181D01*
X82347619Y72275181D02*
X82252381Y72132324D01*
X82252381Y72132324D02*
X82157143Y72037086D01*
X82157143Y72037086D02*
X82061905Y71989467D01*
X83014286Y72179943D02*
X83061905Y72227562D01*
X83061905Y72227562D02*
X83157143Y72275181D01*
X83157143Y72275181D02*
X83395238Y72275181D01*
X83395238Y72275181D02*
X83490476Y72227562D01*
X83490476Y72227562D02*
X83538095Y72179943D01*
X83538095Y72179943D02*
X83585714Y72084705D01*
X83585714Y72084705D02*
X83585714Y71989467D01*
X83585714Y71989467D02*
X83538095Y71846610D01*
X83538095Y71846610D02*
X82966667Y71275181D01*
X82966667Y71275181D02*
X83585714Y71275181D01*
X84204762Y72275181D02*
X84300000Y72275181D01*
X84300000Y72275181D02*
X84395238Y72227562D01*
X84395238Y72227562D02*
X84442857Y72179943D01*
X84442857Y72179943D02*
X84490476Y72084705D01*
X84490476Y72084705D02*
X84538095Y71894229D01*
X84538095Y71894229D02*
X84538095Y71656134D01*
X84538095Y71656134D02*
X84490476Y71465658D01*
X84490476Y71465658D02*
X84442857Y71370420D01*
X84442857Y71370420D02*
X84395238Y71322800D01*
X84395238Y71322800D02*
X84300000Y71275181D01*
X84300000Y71275181D02*
X84204762Y71275181D01*
X84204762Y71275181D02*
X84109524Y71322800D01*
X84109524Y71322800D02*
X84061905Y71370420D01*
X84061905Y71370420D02*
X84014286Y71465658D01*
X84014286Y71465658D02*
X83966667Y71656134D01*
X83966667Y71656134D02*
X83966667Y71894229D01*
X83966667Y71894229D02*
X84014286Y72084705D01*
X84014286Y72084705D02*
X84061905Y72179943D01*
X84061905Y72179943D02*
X84109524Y72227562D01*
X84109524Y72227562D02*
X84204762Y72275181D01*
X83133333Y73645181D02*
X82800000Y74121372D01*
X82561905Y73645181D02*
X82561905Y74645181D01*
X82561905Y74645181D02*
X82942857Y74645181D01*
X82942857Y74645181D02*
X83038095Y74597562D01*
X83038095Y74597562D02*
X83085714Y74549943D01*
X83085714Y74549943D02*
X83133333Y74454705D01*
X83133333Y74454705D02*
X83133333Y74311848D01*
X83133333Y74311848D02*
X83085714Y74216610D01*
X83085714Y74216610D02*
X83038095Y74168991D01*
X83038095Y74168991D02*
X82942857Y74121372D01*
X82942857Y74121372D02*
X82561905Y74121372D01*
X83466667Y74645181D02*
X84133333Y74645181D01*
X84133333Y74645181D02*
X83704762Y73645181D01*
X1371428Y10500181D02*
X1561904Y10500181D01*
X1561904Y10500181D02*
X1657142Y10452562D01*
X1657142Y10452562D02*
X1752380Y10357324D01*
X1752380Y10357324D02*
X1799999Y10166848D01*
X1799999Y10166848D02*
X1799999Y9833515D01*
X1799999Y9833515D02*
X1752380Y9643039D01*
X1752380Y9643039D02*
X1657142Y9547800D01*
X1657142Y9547800D02*
X1561904Y9500181D01*
X1561904Y9500181D02*
X1371428Y9500181D01*
X1371428Y9500181D02*
X1276190Y9547800D01*
X1276190Y9547800D02*
X1180952Y9643039D01*
X1180952Y9643039D02*
X1133333Y9833515D01*
X1133333Y9833515D02*
X1133333Y10166848D01*
X1133333Y10166848D02*
X1180952Y10357324D01*
X1180952Y10357324D02*
X1276190Y10452562D01*
X1276190Y10452562D02*
X1371428Y10500181D01*
X2228571Y10166848D02*
X2228571Y9500181D01*
X2228571Y10071610D02*
X2276190Y10119229D01*
X2276190Y10119229D02*
X2371428Y10166848D01*
X2371428Y10166848D02*
X2514285Y10166848D01*
X2514285Y10166848D02*
X2609523Y10119229D01*
X2609523Y10119229D02*
X2657142Y10023991D01*
X2657142Y10023991D02*
X2657142Y9500181D01*
X4609523Y10547800D02*
X3752381Y9262086D01*
X5895238Y10500181D02*
X6085714Y10500181D01*
X6085714Y10500181D02*
X6180952Y10452562D01*
X6180952Y10452562D02*
X6276190Y10357324D01*
X6276190Y10357324D02*
X6323809Y10166848D01*
X6323809Y10166848D02*
X6323809Y9833515D01*
X6323809Y9833515D02*
X6276190Y9643039D01*
X6276190Y9643039D02*
X6180952Y9547800D01*
X6180952Y9547800D02*
X6085714Y9500181D01*
X6085714Y9500181D02*
X5895238Y9500181D01*
X5895238Y9500181D02*
X5800000Y9547800D01*
X5800000Y9547800D02*
X5704762Y9643039D01*
X5704762Y9643039D02*
X5657143Y9833515D01*
X5657143Y9833515D02*
X5657143Y10166848D01*
X5657143Y10166848D02*
X5704762Y10357324D01*
X5704762Y10357324D02*
X5800000Y10452562D01*
X5800000Y10452562D02*
X5895238Y10500181D01*
X6609524Y10166848D02*
X6990476Y10166848D01*
X6752381Y9500181D02*
X6752381Y10357324D01*
X6752381Y10357324D02*
X6800000Y10452562D01*
X6800000Y10452562D02*
X6895238Y10500181D01*
X6895238Y10500181D02*
X6990476Y10500181D01*
X7180953Y10166848D02*
X7561905Y10166848D01*
X7323810Y9500181D02*
X7323810Y10357324D01*
X7323810Y10357324D02*
X7371429Y10452562D01*
X7371429Y10452562D02*
X7466667Y10500181D01*
X7466667Y10500181D02*
X7561905Y10500181D01*
X3754819Y13271667D02*
X4469104Y13271667D01*
X4469104Y13271667D02*
X4611961Y13224048D01*
X4611961Y13224048D02*
X4707200Y13128810D01*
X4707200Y13128810D02*
X4754819Y12985953D01*
X4754819Y12985953D02*
X4754819Y12890715D01*
X4754819Y13795477D02*
X4754819Y13985953D01*
X4754819Y13985953D02*
X4707200Y14081191D01*
X4707200Y14081191D02*
X4659580Y14128810D01*
X4659580Y14128810D02*
X4516723Y14224048D01*
X4516723Y14224048D02*
X4326247Y14271667D01*
X4326247Y14271667D02*
X3945295Y14271667D01*
X3945295Y14271667D02*
X3850057Y14224048D01*
X3850057Y14224048D02*
X3802438Y14176429D01*
X3802438Y14176429D02*
X3754819Y14081191D01*
X3754819Y14081191D02*
X3754819Y13890715D01*
X3754819Y13890715D02*
X3802438Y13795477D01*
X3802438Y13795477D02*
X3850057Y13747858D01*
X3850057Y13747858D02*
X3945295Y13700239D01*
X3945295Y13700239D02*
X4183390Y13700239D01*
X4183390Y13700239D02*
X4278628Y13747858D01*
X4278628Y13747858D02*
X4326247Y13795477D01*
X4326247Y13795477D02*
X4373866Y13890715D01*
X4373866Y13890715D02*
X4373866Y14081191D01*
X4373866Y14081191D02*
X4326247Y14176429D01*
X4326247Y14176429D02*
X4278628Y14224048D01*
X4278628Y14224048D02*
X4183390Y14271667D01*
X16979819Y46064286D02*
X16979819Y45873810D01*
X16979819Y45873810D02*
X17027438Y45778572D01*
X17027438Y45778572D02*
X17075057Y45730953D01*
X17075057Y45730953D02*
X17217914Y45635715D01*
X17217914Y45635715D02*
X17408390Y45588096D01*
X17408390Y45588096D02*
X17789342Y45588096D01*
X17789342Y45588096D02*
X17884580Y45635715D01*
X17884580Y45635715D02*
X17932200Y45683334D01*
X17932200Y45683334D02*
X17979819Y45778572D01*
X17979819Y45778572D02*
X17979819Y45969048D01*
X17979819Y45969048D02*
X17932200Y46064286D01*
X17932200Y46064286D02*
X17884580Y46111905D01*
X17884580Y46111905D02*
X17789342Y46159524D01*
X17789342Y46159524D02*
X17551247Y46159524D01*
X17551247Y46159524D02*
X17456009Y46111905D01*
X17456009Y46111905D02*
X17408390Y46064286D01*
X17408390Y46064286D02*
X17360771Y45969048D01*
X17360771Y45969048D02*
X17360771Y45778572D01*
X17360771Y45778572D02*
X17408390Y45683334D01*
X17408390Y45683334D02*
X17456009Y45635715D01*
X17456009Y45635715D02*
X17551247Y45588096D01*
X17979819Y47350001D02*
X16979819Y47350001D01*
X17979819Y47921429D02*
X17408390Y47492858D01*
X16979819Y47921429D02*
X17551247Y47350001D01*
X16932200Y49064286D02*
X18217914Y48207144D01*
X16979819Y49302382D02*
X17979819Y49540477D01*
X17979819Y49540477D02*
X17265533Y49730953D01*
X17265533Y49730953D02*
X17979819Y49921429D01*
X17979819Y49921429D02*
X16979819Y50159524D01*
X27054819Y47261906D02*
X26054819Y47261906D01*
X26531009Y47261906D02*
X26531009Y47833334D01*
X27054819Y47833334D02*
X26054819Y47833334D01*
X27007200Y48261906D02*
X27054819Y48404763D01*
X27054819Y48404763D02*
X27054819Y48642858D01*
X27054819Y48642858D02*
X27007200Y48738096D01*
X27007200Y48738096D02*
X26959580Y48785715D01*
X26959580Y48785715D02*
X26864342Y48833334D01*
X26864342Y48833334D02*
X26769104Y48833334D01*
X26769104Y48833334D02*
X26673866Y48785715D01*
X26673866Y48785715D02*
X26626247Y48738096D01*
X26626247Y48738096D02*
X26578628Y48642858D01*
X26578628Y48642858D02*
X26531009Y48452382D01*
X26531009Y48452382D02*
X26483390Y48357144D01*
X26483390Y48357144D02*
X26435771Y48309525D01*
X26435771Y48309525D02*
X26340533Y48261906D01*
X26340533Y48261906D02*
X26245295Y48261906D01*
X26245295Y48261906D02*
X26150057Y48309525D01*
X26150057Y48309525D02*
X26102438Y48357144D01*
X26102438Y48357144D02*
X26054819Y48452382D01*
X26054819Y48452382D02*
X26054819Y48690477D01*
X26054819Y48690477D02*
X26102438Y48833334D01*
X27054819Y49785715D02*
X27054819Y49214287D01*
X27054819Y49500001D02*
X26054819Y49500001D01*
X26054819Y49500001D02*
X26197676Y49404763D01*
X26197676Y49404763D02*
X26292914Y49309525D01*
X26292914Y49309525D02*
X26340533Y49214287D01*
D11*
X24300000Y73470000D02*
X25300000Y74470000D01*
X24300000Y69390000D02*
X24300000Y73470000D01*
X25300000Y74470000D02*
X75100000Y74470000D01*
X75100000Y74470000D02*
X75100000Y69390000D01*
X75100000Y69390000D02*
X24300000Y69390000D01*
X12300000Y61180000D02*
X12300000Y59250000D01*
X12300000Y51020000D02*
X12300000Y52950000D01*
X13550000Y59250000D02*
X11050000Y59250000D01*
X11050000Y52950000D01*
X13550000Y52950000D01*
X13550000Y59250000D01*
X30490000Y27785000D02*
X31125000Y28420000D01*
X30490000Y25880000D02*
X30490000Y27785000D01*
X31125000Y28420000D02*
X40650000Y28420000D01*
X40650000Y28420000D02*
X40650000Y25880000D01*
X40650000Y25880000D02*
X30490000Y25880000D01*
X83050000Y58880000D02*
X83050000Y55380000D01*
X83046375Y58893625D02*
G75*
G02*
X87280000Y57140000I1753625J-1753625D01*
G01*
X87280000Y57140000D02*
G75*
G02*
X83046375Y55386375I-2480000J0D01*
G01*
X95100000Y90600000D02*
X92500000Y90600000D01*
X92500000Y81600000D01*
X95100000Y81600000D01*
X95100000Y90600000D01*
X24080000Y53640000D02*
X24080000Y43640000D01*
X25350000Y50490000D02*
X24080000Y50490000D01*
X25350000Y46790000D02*
X24080000Y46790000D01*
X25350000Y53640000D02*
X20950000Y53640000D01*
X20950000Y43640000D01*
X25350000Y43640000D01*
X25350000Y53640000D01*
X87800000Y89350000D02*
X80800000Y89350000D01*
X80800000Y93850000D01*
X87800000Y93850000D01*
X87800000Y89350000D01*
X9456538Y60912500D02*
X9456538Y61912500D01*
X9956538Y61412500D02*
X8956538Y61412500D01*
X10667677Y63600000D02*
G75*
G02*
X667677Y63600000I-5000000J0D01*
G01*
X667677Y63600000D02*
G75*
G02*
X10667677Y63600000I5000000J0D01*
G01*
X700000Y40950000D02*
X700000Y19750000D01*
X700000Y19750000D02*
X6000000Y19750000D01*
X6000000Y40950000D02*
X700000Y40950000D01*
X6000000Y19750000D02*
X6000000Y40950000D01*
X69100000Y100000D02*
X56600000Y100000D01*
X56600000Y12850000D01*
X69100000Y12850000D01*
X69100000Y100000D01*
X92633810Y9600000D02*
X94966190Y9600000D01*
X92633810Y9600000D02*
G75*
G02*
X94966190Y9600000I1166190J1500000D01*
G01*
X95300000Y11100000D02*
G75*
G02*
X92300000Y11100000I-1500000J0D01*
G01*
X92300000Y11100000D02*
G75*
G02*
X95300000Y11100000I1500000J0D01*
G01*
X95500000Y64350000D02*
X92000000Y64350000D01*
X93760000Y60120000D02*
G75*
G02*
X92006375Y64353625I0J2480000D01*
G01*
X95513625Y64353625D02*
G75*
G02*
X93760000Y60120000I-1753625J-1753625D01*
G01*
X79720000Y86600000D02*
X81650000Y86600000D01*
X89880000Y86600000D02*
X87950000Y86600000D01*
X81650000Y87850000D02*
X87950000Y87850000D01*
X87950000Y85350000D01*
X81650000Y85350000D01*
X81650000Y87850000D01*
X46720000Y65600000D02*
X48650000Y65600000D01*
X56880000Y65600000D02*
X54950000Y65600000D01*
X54950000Y64350000D02*
X48650000Y64350000D01*
X48650000Y66850000D01*
X54950000Y66850000D01*
X54950000Y64350000D01*
X80200000Y48600000D02*
X83950000Y48600000D01*
X84630000Y49950000D02*
X84630000Y47250000D01*
X84730000Y49950000D02*
X84730000Y47250000D01*
X84830000Y49950000D02*
X84830000Y47250000D01*
X92900000Y48600000D02*
X89150000Y48600000D01*
X83950000Y49950000D02*
X89150000Y49950000D01*
X89150000Y47250000D01*
X83950000Y47250000D01*
X83950000Y49950000D01*
X36230000Y51160000D02*
X36865000Y51795000D01*
X36230000Y46715000D02*
X36230000Y51160000D01*
X36865000Y51795000D02*
X38770000Y51795000D01*
X38770000Y51795000D02*
X38770000Y46715000D01*
X38770000Y46715000D02*
X36230000Y46715000D01*
X8050000Y13900000D02*
X9050000Y14900000D01*
X8050000Y600000D02*
X8050000Y13900000D01*
X17050000Y14900000D02*
X9050000Y14900000D01*
X17050000Y14900000D02*
X17050000Y600000D01*
X17050000Y600000D02*
X8050000Y600000D01*
X52380000Y56340000D02*
X52380000Y46240000D01*
X52380000Y46240000D02*
X72680000Y46240000D01*
X71670000Y56340000D02*
X52380000Y56340000D01*
X71670000Y56340000D02*
X72680000Y55430000D01*
X72680000Y46240000D02*
X72680000Y55430000D01*
X77720000Y68600000D02*
X79650000Y68600000D01*
X87880000Y68600000D02*
X85950000Y68600000D01*
X79650000Y69850000D02*
X85950000Y69850000D01*
X85950000Y67350000D01*
X79650000Y67350000D01*
X79650000Y69850000D01*
X79755000Y40820000D02*
X84835000Y40820000D01*
X79755000Y38915000D02*
X79755000Y40820000D01*
X80390000Y38280000D02*
X79755000Y38915000D01*
X84835000Y40820000D02*
X84835000Y38280000D01*
X84835000Y38280000D02*
X80390000Y38280000D01*
X89629216Y38100000D02*
X89629216Y36100000D01*
X94429216Y37100000D02*
G75*
G02*
X92429216Y37100000I-1000000J0D01*
G01*
X92429216Y37100000D02*
G75*
G02*
X94429216Y37100000I1000000J0D01*
G01*
X99529216Y37100000D02*
G75*
G02*
X87329216Y37100000I-6100000J0D01*
G01*
X87329216Y37100000D02*
G75*
G02*
X99529216Y37100000I6100000J0D01*
G01*
X8300000Y43850000D02*
X13300000Y43850000D01*
X13300000Y41350000D01*
X8300000Y41350000D01*
X8300000Y43850000D01*
D12*
X15761000Y20203000D02*
X9919000Y20203000D01*
X9920000Y20200000D02*
G75*
G02*
X15754115Y20195646I2920000J3940000D01*
G01*
D11*
X74990000Y51960000D02*
X77690000Y51960000D01*
X74990000Y51860000D02*
X77690000Y51860000D01*
X74990000Y51760000D02*
X77690000Y51760000D01*
X76340000Y60030000D02*
X76340000Y56280000D01*
X76340000Y47330000D02*
X76340000Y51080000D01*
X74990000Y51080000D02*
X77690000Y51080000D01*
X77690000Y56280000D01*
X74990000Y56280000D01*
X74990000Y51080000D01*
X47700000Y20550000D02*
X50250000Y20550000D01*
X56610000Y18750000D02*
X56610000Y22350000D01*
X56710000Y18750000D02*
X56710000Y22350000D01*
X56810000Y18750000D02*
X56810000Y22350000D01*
X60400000Y20550000D02*
X57850000Y20550000D01*
X57850000Y18750000D02*
X50250000Y18750000D01*
X50250000Y22350000D01*
X57850000Y22350000D01*
X57850000Y18750000D01*
X76220000Y30100000D02*
X78150000Y30100000D01*
X86380000Y30100000D02*
X84450000Y30100000D01*
X78150000Y31350000D02*
X84450000Y31350000D01*
X84450000Y28850000D01*
X78150000Y28850000D01*
X78150000Y31350000D01*
X96300000Y56600000D02*
X96300000Y54670000D01*
X96300000Y46440000D02*
X96300000Y48370000D01*
X97550000Y54670000D02*
X95050000Y54670000D01*
X95050000Y48370000D01*
X97550000Y48370000D01*
X97550000Y54670000D01*
X42330000Y47740000D02*
X44870000Y47740000D01*
X42330000Y37580000D02*
X42330000Y47740000D01*
X44235000Y37580000D02*
X42330000Y37580000D01*
X44870000Y47740000D02*
X44870000Y38215000D01*
X44870000Y38215000D02*
X44235000Y37580000D01*
X93800000Y78100000D02*
X93800000Y76170000D01*
X93800000Y67940000D02*
X93800000Y69870000D01*
X95050000Y76170000D02*
X92550000Y76170000D01*
X92550000Y69870000D01*
X95050000Y69870000D01*
X95050000Y76170000D01*
X9088861Y46912500D02*
X9088861Y47912500D01*
X9588861Y47412500D02*
X8588861Y47412500D01*
X10300000Y49600000D02*
G75*
G02*
X300000Y49600000I-5000000J0D01*
G01*
X300000Y49600000D02*
G75*
G02*
X10300000Y49600000I5000000J0D01*
G01*
X74000000Y450000D02*
X75000000Y450000D01*
X74000000Y-50000D02*
X74000000Y450000D01*
X74000000Y-50000D02*
X88500000Y-50000D01*
X75000000Y13950000D02*
X87500000Y13950000D01*
X75000000Y450000D02*
X75000000Y13950000D01*
X77500000Y13950000D02*
X77750000Y13700000D01*
X77750000Y13700000D02*
X78000000Y13950000D01*
X87500000Y450000D02*
X87500000Y13950000D01*
X87500000Y450000D02*
X88500000Y450000D01*
X88500000Y450000D02*
X88500000Y-50000D01*
X11550000Y68600000D02*
X14050000Y68600000D01*
X14050000Y73600000D01*
X11550000Y73600000D01*
X11550000Y68600000D01*
X16300000Y61180000D02*
X16300000Y59250000D01*
X16300000Y51020000D02*
X16300000Y52950000D01*
X15050000Y52950000D02*
X17550000Y52950000D01*
X17550000Y59250000D01*
X15050000Y59250000D01*
X15050000Y52950000D01*
X46720000Y62100000D02*
X48650000Y62100000D01*
X56880000Y62100000D02*
X54950000Y62100000D01*
X48650000Y63350000D02*
X54950000Y63350000D01*
X54950000Y60850000D01*
X48650000Y60850000D01*
X48650000Y63350000D01*
X78220000Y74100000D02*
X80150000Y74100000D01*
X88380000Y74100000D02*
X86450000Y74100000D01*
X80150000Y75350000D02*
X86450000Y75350000D01*
X86450000Y72850000D01*
X80150000Y72850000D01*
X80150000Y75350000D01*
X3030000Y15510000D02*
X3665000Y16145000D01*
X3030000Y11065000D02*
X3030000Y15510000D01*
X3665000Y16145000D02*
X5570000Y16145000D01*
X5570000Y16145000D02*
X5570000Y11065000D01*
X5570000Y11065000D02*
X3030000Y11065000D01*
X20100000Y66000000D02*
X23044000Y60565000D01*
X20100000Y66000000D02*
X24060000Y63740000D01*
X20100000Y57000000D02*
X23933000Y58660000D01*
X20100000Y56500000D02*
X20100000Y57000000D01*
X20100000Y40500000D02*
X20100000Y40000000D01*
X20100000Y40000000D02*
X23933000Y38340000D01*
X20100000Y31000000D02*
X23044000Y36435000D01*
X20100000Y31000000D02*
X24060000Y33260000D01*
X23044000Y60565000D02*
X20100000Y61250000D01*
X23044000Y36435000D02*
X20100000Y35750000D01*
X23300000Y66000000D02*
X25700000Y63500000D01*
X23300000Y31000000D02*
X25700000Y33500000D01*
X23933000Y58660000D02*
X20100000Y61250000D01*
X23933000Y38340000D02*
X20100000Y35750000D01*
X24060000Y63740000D02*
X23300000Y66000000D01*
X24060000Y33260000D02*
X23300000Y31000000D01*
X25838000Y56501000D02*
X20100000Y56500000D01*
X25838000Y50278000D02*
X27362000Y50278000D01*
X25838000Y48500000D02*
X25838000Y56501000D01*
X25838000Y48500000D02*
X25838000Y40499000D01*
X25838000Y40499000D02*
X20100000Y40500000D01*
X27362000Y56501000D02*
X33100000Y56500000D01*
X27362000Y48500000D02*
X27362000Y56501000D01*
X27362000Y48500000D02*
X27362000Y40499000D01*
X27362000Y46722000D02*
X25838000Y46722000D01*
X27362000Y40499000D02*
X33100000Y40500000D01*
X29140000Y63740000D02*
X29900000Y66000000D01*
X29140000Y33260000D02*
X29900000Y31000000D01*
X29267000Y58660000D02*
X33100000Y61250000D01*
X29267000Y38340000D02*
X33100000Y35750000D01*
X29900000Y66000000D02*
X27500000Y63500000D01*
X29900000Y31000000D02*
X27500000Y33500000D01*
X30156000Y60565000D02*
X33100000Y61250000D01*
X30156000Y36435000D02*
X33100000Y35750000D01*
X33100000Y66000000D02*
X29140000Y63740000D01*
X33100000Y66000000D02*
X30156000Y60565000D01*
X33100000Y57000000D02*
X29267000Y58660000D01*
X33100000Y56500000D02*
X33100000Y57000000D01*
X33100000Y40500000D02*
X33100000Y40000000D01*
X33100000Y40000000D02*
X29267000Y38340000D01*
X33100000Y31000000D02*
X29140000Y33260000D01*
X33100000Y31000000D02*
X30156000Y36435000D01*
X25681613Y33507280D02*
G75*
G02*
X27500000Y33500000I918387J2292720D01*
G01*
X27518387Y63492720D02*
G75*
G02*
X25700000Y63500000I-918387J-2292720D01*
G01*
M02*
